<svg width="68" height="69" viewBox="0 0 68 69" fill="none" xmlns="http://www.w3.org/2000/svg">
<path d="M9.00154 17.1789C5.1605 22.7441 3.29524 29.4361 3.70368 36.1858C4.11212 42.9355 6.77069 49.3537 11.2548 54.4152C15.7389 59.4767 21.7898 62.8895 28.4411 64.1086C35.0923 65.3276 41.9603 64.2826 47.948 61.1404C53.9357 57.9982 58.6976 52.9401 61.4733 46.7739C64.249 40.6078 64.8783 33.6893 63.2606 27.1236C61.643 20.5579 57.8717 14.7236 52.5492 10.5527C47.2267 6.38173 40.66 4.11474 33.8979 4.11377C32.0437 4.11387 30.1933 4.28129 28.3691 4.61397" stroke="#436DDC" stroke-linecap="round" stroke-linejoin="round"/>
<path d="M14.1569 11.4631C13.1407 12.3426 12.1827 13.2872 11.2891 14.2909" stroke="#436DDC" stroke-linecap="round" stroke-linejoin="round"/>
<path d="M57.5293 44.4214C63.0832 31.3814 57.0146 16.308 43.9746 10.754C30.9346 5.20007 15.8613 11.2687 10.3073 24.3087C4.75335 37.3487 10.822 52.4221 23.862 57.976C36.902 63.53 51.9753 57.4614 57.5293 44.4214Z" fill="#88F0C2"/>
<path d="M18.9346 33.0743L28.6717 44.1387L48.2183 24.592" stroke="#436DDC" stroke-width="2.48497" stroke-linecap="round" stroke-linejoin="round"/>
</svg>
