<svg width="94" height="94" viewBox="0 0 94 94" fill="none" xmlns="http://www.w3.org/2000/svg">
<circle cx="46.7044" cy="46.7131" r="46.5217" fill="#FF4C4C"/>
<g clip-path="url(#clip0_1208_19916)">
<path fill-rule="evenodd" clip-rule="evenodd" d="M30.9074 52.1505L35.0427 48.8629C36.0352 48.0772 36.6141 46.878 36.6141 45.6168V40.2409C42.8583 38.2146 49.6195 38.194 55.8844 40.2409V45.6374C55.8844 46.8987 56.4634 48.0979 57.4558 48.8836L61.5704 52.1505C63.2245 53.4531 65.5816 53.329 67.0703 51.8403L69.5928 49.3178C71.2469 47.6637 71.2469 44.9138 69.4895 43.363C56.2359 31.6602 36.2626 31.6602 23.0091 43.363C21.2516 44.9138 21.2516 47.6637 22.9057 49.3178L25.4282 51.8403C26.8962 53.329 29.2533 53.4531 30.9074 52.1505Z" fill="white"/>
</g>
<defs>
<clipPath id="clip0_1208_19916">
<rect width="49.6232" height="18.6087" fill="white" transform="translate(21.5825 34.6172)"/>
</clipPath>
</defs>
</svg>
