<svg width="38" height="38" viewBox="0 0 38 38" fill="none" xmlns="http://www.w3.org/2000/svg">
<g clip-path="url(#clip0_1173_16442)">
<path d="M19 0C29.5094 0 38 8.49062 38 19C38 29.5094 29.5094 38 19 38C8.49062 38 0 29.5094 0 19C0 8.49062 8.49062 0 19 0Z" fill="#3C3C3C"/>
<path d="M8.31249 12.4091C6.59062 14.9622 8.66874 20.306 13.1219 24.8185C17.575 29.331 22.9781 31.3497 25.5312 29.6278C25.65 29.5685 25.7094 29.5091 25.7687 29.4497L27.4906 27.7278C28.025 27.1935 27.9656 26.3028 27.3719 25.6497L24.3437 22.681C23.75 22.0872 22.8 22.0278 22.2656 22.5622L20.2469 24.581C20.0687 24.7591 19.7125 24.8185 19.475 24.6403C18.3469 23.8685 17.2781 22.9778 16.2094 21.9091C15.1406 20.8403 14.25 19.7122 13.4781 18.6435C13.3 18.406 13.3 18.0497 13.5375 17.8716L15.5562 15.8528C16.0906 15.3185 16.0312 14.4278 15.4375 13.7747L12.35 10.6872C11.7562 10.0935 10.8062 10.0341 10.2719 10.5685L8.54999 12.2903C8.43124 12.231 8.37187 12.3497 8.31249 12.4091Z" fill="white"/>
<path d="M24.4031 18.9404H22.6219C22.6219 16.6248 20.7219 14.7842 18.4656 14.7842V13.0029C21.7312 13.0029 24.4031 15.6748 24.4031 18.9404Z" fill="white"/>
<path d="M28.2031 19.5938H26.4219C26.4219 14.8438 22.5625 10.9844 17.8125 10.9844V9.20312C23.5125 9.20312 28.2031 13.8937 28.2031 19.5938Z" fill="white"/>
</g>
<defs>
<clipPath id="clip0_1173_16442">
<rect width="38" height="38" fill="white"/>
</clipPath>
</defs>
</svg>
