<svg width="250" height="250" viewBox="0 0 250 250" fill="none" xmlns="http://www.w3.org/2000/svg">
<path d="M229.004 162.939C229.004 162.939 228.467 169.336 222.607 177.392L244.434 182.959L148.389 186.865C148.389 186.865 119.727 189.648 94.1895 184.912C68.6036 180.176 -6.49387 172.217 6.05495 169.14C18.555 166.015 10.4007 156.836 7.81277 146.582C5.22488 136.279 6.68972 122.803 15.2835 122.607C23.8772 122.461 31.9339 131.25 30.1272 143.359C28.3206 155.469 83.3497 161.035 83.3497 161.035C83.3497 161.035 85.254 122.949 103.076 124.902C120.85 126.806 229.004 162.939 229.004 162.939Z" fill="#3A3A3A"/>
<path d="M106.885 184.912C116.26 184.912 123.828 173.047 123.828 158.35C123.828 143.701 116.211 131.787 106.885 131.787C97.5098 131.787 89.9414 143.652 89.9414 158.35C89.8926 172.998 97.5098 184.912 106.885 184.912Z" fill="url(#paint0_linear_4611_19014)"/>
<path d="M105.42 169.141C109.57 169.141 112.891 164.062 112.891 157.861C112.891 151.611 109.521 146.582 105.42 146.582C101.27 146.582 97.9492 151.66 97.9492 157.861C97.9492 164.062 101.27 169.141 105.42 169.141Z" fill="white"/>
<path d="M17.627 171.729C23.0469 171.729 27.4414 162.061 27.4414 150.146C27.4414 138.232 23.0469 128.564 17.627 128.564C12.207 128.564 7.8125 138.232 7.8125 150.146C7.8125 162.061 12.207 171.729 17.627 171.729Z" fill="url(#paint1_linear_4611_19014)"/>
<path d="M16.7483 158.887C19.1409 158.887 21.094 154.785 21.094 149.707C21.094 144.629 19.1409 140.527 16.7483 140.527C14.3557 140.527 12.4026 144.629 12.4026 149.707C12.4514 154.785 14.3557 158.887 16.7483 158.887Z" fill="white"/>
<path d="M238.574 165.235C225.586 171.729 195.019 173.389 195.019 173.389C195.019 173.389 142.725 175.684 125.928 173.78C123.096 173.487 121.289 173.048 120.85 172.462C118.066 168.36 118.994 158.546 118.994 158.546C118.994 158.546 118.799 129.981 104.541 130.177C91.8456 130.323 89.6972 145.264 89.2577 154.591C89.2089 155.762 89.1601 156.837 89.1601 157.813C88.9648 166.358 85.1073 166.358 85.1073 166.358L24.8535 156.934C25.9766 139.503 22.8027 123.927 15.0391 127.1C7.22657 130.225 8.00782 150.636 8.00782 150.636C0.976593 149.512 3.36917 121.339 3.36917 121.339C3.32034 120.997 3.32034 120.655 3.27151 120.313C2.44144 108.985 8.93556 100.587 8.93556 100.587C8.93556 100.587 9.42384 99.4148 10.3027 97.4617V97.4129V97.364C12.1094 93.3113 15.3809 85.9871 19.0918 78.3699C24.707 66.8465 68.0663 62.5984 68.0663 62.5984C68.0663 62.5984 113.672 61.1336 144.433 65.7722C164.209 68.7507 183.35 81.5437 194.434 90.2839C200.586 95.1668 204.297 98.7312 204.297 98.7312L208.008 100.001L208.105 100.05L210.937 101.124C244.482 115.577 245.801 128.956 245.801 128.956C245.801 128.956 251.562 158.741 238.574 165.235Z" fill="url(#paint2_linear_4611_19014)"/>
<path d="M208.105 100.05L111.035 101.124C111.035 101.124 108.496 100.782 103.027 102.784C102.197 103.175 101.416 103.565 100.635 104.102C93.0175 108.546 70.0683 105.225 38.7207 104.102C9.86333 103.077 10.0586 98.2429 10.254 97.4617V97.4129V97.364C12.0606 93.3113 15.3321 85.9871 19.043 78.3699C24.6582 66.8465 68.0175 62.5984 68.0175 62.5984C68.0175 62.5984 113.623 61.1336 144.385 65.7722C147.9 66.3093 151.367 67.1394 154.736 68.1648C170.654 73.0965 185.254 83.0574 194.385 90.2839C194.971 90.7234 195.508 91.1629 196.045 91.6023C196.24 91.7488 196.387 91.8953 196.582 92.0418C197.461 92.7254 198.242 93.409 198.975 94.0437L200.049 94.9715C201.318 96.0457 202.295 96.9246 202.978 97.6082C203.125 97.7547 203.223 97.8523 203.369 97.95C203.418 97.9988 203.516 98.0965 203.564 98.1453C204.004 98.5359 204.199 98.78 204.199 98.78L207.91 100.098L208.105 100.05Z" fill="url(#paint3_linear_4611_19014)"/>
<path d="M56.8849 68.1632C56.8849 68.1632 74.4142 64.5499 83.0079 73.9249C92.7247 84.4229 109.863 103.564 93.213 104.296C76.5138 105.028 52.4415 101.513 25.0003 100.976C25.0003 100.976 12.2073 100.78 15.9182 91.1612C19.6292 81.4444 20.4104 72.753 56.8849 68.1632Z" fill="#5E6464"/>
<path d="M204.199 98.6323C195.117 98.7299 178.369 98.9741 161.426 99.1694C140.527 99.4135 119.287 99.56 111.621 99.5112L91.9434 77.6362C91.9434 77.6362 82.4708 68.6518 93.4083 67.4799C99.9512 66.7963 119.727 66.4057 138.037 67.1381C143.945 67.3823 149.658 67.6753 154.736 68.2124C180.371 76.0737 202.49 96.9721 204.199 98.6323Z" fill="#5E6464"/>
<path d="M204.199 98.6328C195.117 98.7305 178.369 98.9746 161.426 99.1699C157.91 95.7031 153.418 90.8691 147.754 84.375C141.309 76.9043 138.77 71.2402 138.037 67.0898C143.945 67.334 149.658 67.627 154.736 68.1641C180.371 76.0742 202.49 96.9727 204.199 98.6328Z" fill="#6D7277"/>
<path d="M238.574 165.234C225.586 171.729 195.02 173.389 195.02 173.389C195.02 173.389 142.725 175.684 125.928 173.779C127.686 155.664 129.395 110.205 103.027 102.734C107.764 100.879 111.035 101.074 111.035 101.074H112.891L208.105 100L210.938 101.074C244.482 115.527 245.801 128.906 245.801 128.906C245.801 128.906 245.85 129.199 245.947 129.688C246.729 134.473 250.293 159.375 238.574 165.234Z" fill="url(#paint4_linear_4611_19014)"/>
<path d="M245.947 129.688C222.461 132.129 166.895 136.621 138.037 128.418C138.037 128.418 131.445 110.303 112.891 101.074L208.105 100L210.938 101.074C244.482 115.527 245.801 128.906 245.801 128.906C245.801 128.906 245.85 129.199 245.947 129.688Z" fill="url(#paint5_linear_4611_19014)"/>
<path d="M171.094 125.977C171.094 125.977 203.516 131.152 237.061 124.854V134.277C237.061 134.277 219.824 137.354 179.395 137.402C139.014 137.451 171.094 125.977 171.094 125.977Z" fill="url(#paint6_linear_4611_19014)"/>
<path d="M179.395 131.885C179.395 131.885 180.908 125.391 159.57 122.999C138.232 120.606 132.861 119.483 136.768 131.885C136.768 131.885 138.623 138.282 151.953 137.305C165.283 136.329 179.395 137.403 179.395 137.403V131.885Z" fill="#B7B7B7"/>
<path d="M233.74 125.194C233.74 125.194 240.039 119.237 242.432 125.194C244.824 131.151 244.092 135.009 244.092 135.009L235.742 135.741L233.74 125.194Z" fill="#B7B7B7"/>
<path d="M137.696 155.274C137.696 155.274 208.594 154.883 244.238 150.439C244.238 150.439 246.533 160.84 235.4 164.16C224.268 167.529 145.118 173.779 137.696 165.039V155.274Z" fill="url(#paint7_linear_4611_19014)"/>
<path d="M89.2577 154.639C89.2089 155.811 89.1601 156.885 89.1601 157.861C88.9648 166.406 85.1073 166.406 85.1073 166.406L24.8535 156.934C25.9766 139.502 22.8027 123.926 15.0391 127.1C7.22657 130.225 8.00782 150.635 8.00782 150.635C0.976593 149.512 3.36917 121.338 3.36917 121.338C3.32034 120.996 3.32034 120.654 3.27151 120.312L22.6563 122.266C22.6563 122.266 30.8106 122.754 33.7891 129.443C36.7676 136.182 38.2324 145.801 48.9745 148.779C57.373 151.074 79.9316 153.613 89.2577 154.639Z" fill="url(#paint8_linear_4611_19014)"/>
<path d="M29.3458 112.501H26.5138C26.5138 112.501 26.1232 109.425 27.588 109.425C29.0529 109.376 32.6662 109.327 33.3009 109.864C33.9845 110.401 33.7404 112.501 33.7404 112.501H29.3458Z" fill="#4C4A60"/>
<path d="M60.6444 114.11H57.8124C57.8124 114.11 57.4218 111.034 58.8866 111.034C60.3026 110.985 63.9647 110.985 64.5995 111.474C65.2831 112.011 65.039 114.11 65.039 114.11H60.6444Z" fill="#4C4A60"/>
<path d="M93.9942 97.0709C93.9453 101.514 93.6035 102.198 93.6035 102.198L74.2676 100.489C74.2676 100.489 74.17 99.6588 74.1211 98.4869C74.0723 97.2174 74.1211 95.9967 74.3164 94.7272C74.5606 93.2135 75.1465 91.9928 76.2696 91.9928C79.2969 91.944 94.0918 90.3815 93.9942 97.0709Z" fill="url(#paint9_linear_4611_19014)"/>
<path d="M81.2989 96.582C81.2989 96.8262 81.25 97.0703 81.1524 97.3145C81.0547 97.5586 80.9082 97.7539 80.7618 97.9004C80.5664 98.0957 80.3711 98.1934 80.1758 98.291C79.9317 98.3887 79.6875 98.4375 79.4434 98.4375H74.17C74.1211 97.168 74.17 95.9473 74.3653 94.6777H79.4434C79.6875 94.6777 79.9317 94.7266 80.1758 94.8242C80.42 94.9219 80.6153 95.0684 80.8106 95.2148C81.0059 95.4102 81.1036 95.6055 81.2012 95.8496C81.25 96.0938 81.2989 96.3379 81.2989 96.582Z" fill="#596161"/>
<defs>
<linearGradient id="paint0_linear_4611_19014" x1="90.0037" y1="155.5" x2="124.004" y2="165.5" gradientUnits="userSpaceOnUse">
<stop stop-color="#5E6367"/>
<stop offset="0.46875" stop-color="#919191"/>
<stop offset="1" stop-color="#5E6367"/>
</linearGradient>
<linearGradient id="paint1_linear_4611_19014" x1="8" y1="150" x2="27" y2="159" gradientUnits="userSpaceOnUse">
<stop stop-color="#5E6367"/>
<stop offset="0.473958" stop-color="#868686"/>
<stop offset="1" stop-color="#5E6367"/>
</linearGradient>
<linearGradient id="paint2_linear_4611_19014" x1="125" y1="127.5" x2="8.50025" y2="120.5" gradientUnits="userSpaceOnUse">
<stop stop-color="#DBDBDB"/>
<stop offset="0.526042" stop-color="#F5F5F5"/>
<stop offset="1" stop-color="#D7D7D7"/>
</linearGradient>
<linearGradient id="paint3_linear_4611_19014" x1="108.154" y1="101.075" x2="67.6269" y2="62.5007" gradientUnits="userSpaceOnUse">
<stop stop-color="#393939"/>
<stop offset="1" stop-color="#131313"/>
</linearGradient>
<linearGradient id="paint4_linear_4611_19014" x1="109.996" y1="104.5" x2="236.996" y2="117" gradientUnits="userSpaceOnUse">
<stop stop-color="#EAECED"/>
<stop offset="0.463542" stop-color="#F9F9F9"/>
<stop offset="1" stop-color="#EAECED"/>
</linearGradient>
<linearGradient id="paint5_linear_4611_19014" x1="135" y1="120.5" x2="237.5" y2="117" gradientUnits="userSpaceOnUse">
<stop offset="0.222635" stop-color="#F0F0F0"/>
<stop offset="0.527005" stop-color="white"/>
<stop offset="1" stop-color="#E7EAEF"/>
</linearGradient>
<linearGradient id="paint6_linear_4611_19014" x1="198.035" y1="124.854" x2="198.035" y2="137.402" gradientUnits="userSpaceOnUse">
<stop stop-color="#2F2F2F"/>
<stop offset="0.546875" stop-color="#4B4B4B"/>
<stop offset="0.96875" stop-color="#4B4B4B"/>
</linearGradient>
<linearGradient id="paint7_linear_4611_19014" x1="188.501" y1="150" x2="191.065" y2="169.49" gradientUnits="userSpaceOnUse">
<stop stop-color="#2F2F2F"/>
<stop offset="0.510417" stop-color="#4B4B4B"/>
<stop offset="1" stop-color="#2F2F2F"/>
</linearGradient>
<linearGradient id="paint8_linear_4611_19014" x1="46.1173" y1="120.312" x2="46.1173" y2="166.406" gradientUnits="userSpaceOnUse">
<stop stop-color="#565656"/>
<stop offset="1" stop-color="#252525"/>
</linearGradient>
<linearGradient id="paint9_linear_4611_19014" x1="84.0491" y1="91.8008" x2="84.0491" y2="102.198" gradientUnits="userSpaceOnUse">
<stop stop-color="#272727"/>
<stop offset="0.46875" stop-color="#505050"/>
<stop offset="1" stop-color="#2B2B2B"/>
</linearGradient>
</defs>
</svg>
