<svg width="250" height="250" viewBox="0 0 250 250" fill="none" xmlns="http://www.w3.org/2000/svg">
<path d="M14.502 148.242L6.93359 146.826L4.93164 142.627L6.78711 122.412L22.998 114.893L41.5527 148.242L39.9414 153.223C39.9414 153.223 39.209 161.768 36.6699 165.869L93.8964 156.543C93.8964 156.543 99.0234 119.775 117.041 120.166C135.107 120.557 140.625 144.873 140.43 161.621L206.103 169.434L204.199 165.186L239.307 158.105C239.307 158.105 237.939 168.115 229.883 173.682L242.383 175.049L120.117 187.158L9.27734 170.312L18.6523 168.213L14.502 148.242Z" fill="#353535"/>
<path d="M121.045 183.203C129.736 183.203 136.816 171.631 136.816 157.324C136.816 143.018 129.785 131.445 121.045 131.445C112.305 131.445 105.273 143.018 105.273 157.324C105.273 171.631 112.354 183.203 121.045 183.203Z" fill="url(#paint0_linear_4611_18990)"/>
<path d="M119.678 168.359C123.486 168.359 126.611 163.428 126.611 157.373C126.611 151.318 123.486 146.387 119.678 146.387C115.869 146.387 112.744 151.318 112.744 157.373C112.744 163.428 115.869 168.359 119.678 168.359Z" fill="white"/>
<path d="M232.617 162.891C216.113 164.99 173.808 165.756 142.998 166C142.46 166 137.986 166 137.498 166V161.572C137.498 161.572 138.498 126.5 117.822 125.635C117.822 125.635 105.078 124.512 103.369 153.174C103.223 155.713 103.125 158.496 103.174 161.572L31.1037 153.662C31.1037 153.662 31.5431 124.17 19.3849 121.875C7.22671 119.58 6.93374 146.875 6.93374 146.875C6.93374 146.875 3.27164 146.582 3.27164 138.77C3.27164 134.229 2.34391 123.047 3.46696 113.623C3.66227 111.621 4.05289 109.619 4.54118 107.666C5.02945 105.615 5.90835 103.711 7.0314 101.953C7.81265 100.781 8.9357 99.8535 10.2541 99.2676C16.5041 96.6797 19.9709 95.2637 21.6798 94.5801L22.9982 94.043L29.59 94.5801L108.74 101.27L117.041 101.953H117.09L199.609 99.6094L203.809 99.4629C203.809 99.4629 243.945 105.957 245.85 127.734C247.852 149.561 249.414 160.742 232.617 162.891Z" fill="url(#paint1_linear_4611_18990)"/>
<path d="M35.4007 107.52L31.0061 107.227C31.0061 107.227 30.6155 104.444 32.8127 104.542C35.01 104.639 40.6252 105.03 41.6018 105.567C42.5783 106.104 42.0901 107.96 42.0901 107.96L35.4007 107.52Z" fill="#393939"/>
<path d="M68.0176 110.596L63.6231 110.254C63.6231 110.254 63.2324 107.471 65.4297 107.569C67.627 107.667 73.2422 108.057 74.2188 108.594C75.1953 109.131 74.707 110.987 74.707 110.987L68.0176 110.596Z" fill="#393939"/>
<path d="M199.658 99.6088L117.139 101.953L23.0469 93.9935L21.7285 94.5306C25.9277 88.476 37.8418 73.0463 53.6621 67.3822C72.8027 60.5463 140.82 61.7181 162.598 69.4818C163.477 69.7748 164.307 70.1166 165.039 70.4584C177.979 76.5131 190.869 89.6967 197.51 97.1674C198.34 98.0951 199.072 98.8763 199.658 99.6088Z" fill="url(#paint2_linear_4611_18990)"/>
<path d="M108.789 101.22L76.0741 98.4369L53.6132 96.5326L29.6387 94.5307C32.5684 90.2826 35.8887 86.3276 39.5996 82.7631C43.3594 79.1987 47.8516 75.7319 52.8319 73.6323C55.2733 72.558 57.8612 71.8744 60.5468 71.6303C78.7108 69.8725 95.8983 68.9448 101.562 82.4213C104.736 89.9408 107.226 96.728 108.789 101.22Z" fill="#5E6464"/>
<path d="M197.51 97.168L157.422 98.4375L116.553 99.707L106.787 79.2969C106.787 79.2969 100.537 70.8008 109.473 70.6055C113.525 70.5078 126.123 70.2637 138.721 69.9707C147.608 69.7754 156.543 69.5801 162.5 69.4336C163.379 69.7266 164.209 70.0684 164.942 70.4102C177.979 76.4648 190.869 89.6973 197.51 97.168Z" fill="#5E6464"/>
<path d="M197.51 97.168L157.422 98.4375C145.752 86.5723 140.869 76.2695 138.818 70.0195C147.705 69.8242 156.641 69.6289 162.598 69.4824C163.477 69.7754 164.307 70.1172 165.039 70.459C177.979 76.4648 190.869 89.6973 197.51 97.168Z" fill="#6D7277"/>
<path d="M76.0742 98.4375L53.6132 96.5332L39.5996 82.7148C43.3594 79.1504 47.8516 75.6836 52.832 73.584L76.0742 98.4375Z" fill="#6D7277"/>
<path d="M232.617 162.891C216.113 164.99 170.002 166 140.502 162.891L139.502 151C139.502 142.309 132.002 122 129.502 112.5C127.502 110 125.977 104.98 117.041 101.953H117.09L199.609 99.6094L203.809 99.4629C203.809 99.4629 228.809 103.516 240.283 115.918C240.527 116.162 240.771 116.455 240.967 116.699C243.701 119.775 245.41 123.633 245.85 127.734C247.803 149.609 249.414 160.742 232.617 162.891Z" fill="url(#paint3_linear_4611_18990)"/>
<path d="M241.016 116.748C240.723 121.436 235.643 125.047 228.953 127C216.648 130.662 167 125.5 131.5 124C131.5 113 125.928 104.98 116.992 101.904H117.041L199.561 99.5605L203.76 99.4141C203.809 99.4629 229.883 103.711 241.016 116.748Z" fill="url(#paint4_linear_4611_18990)"/>
<path d="M103.223 161.621L31.1037 153.662C31.1037 153.662 31.5431 124.17 19.3849 121.875C7.22671 119.58 6.93374 146.875 6.93374 146.875C6.93374 146.875 3.27164 146.582 3.27164 138.77C3.27164 134.229 2.34391 123.047 3.46696 113.623C3.66227 111.621 4.05289 109.619 4.54118 107.666L7.95913 108.984C12.3537 108.838 16.6994 109.912 20.508 112.061C24.3166 114.209 27.4904 117.334 29.6388 121.094C37.4513 134.375 48.9747 147.461 71.045 150.586C81.7872 152.051 92.5782 152.93 103.369 153.223C103.223 155.713 103.174 158.545 103.223 161.621Z" fill="url(#paint5_linear_4611_18990)"/>
<path d="M12.5 101.904C12.5 101.904 9.13086 114.453 4.58984 114.014C4.19922 113.965 3.80859 113.818 3.51562 113.574C4.05273 108.887 5.12695 104.639 7.12891 101.904H12.5Z" fill="#BD1622"/>
<path d="M21.1426 169.336C27.2949 169.336 32.2754 159.863 32.2754 148.193C32.2754 136.523 27.2949 127.051 21.1426 127.051C14.9902 127.051 10.0098 136.523 10.0098 148.193C10.0098 159.863 14.9902 169.336 21.1426 169.336Z" fill="url(#paint6_linear_4611_18990)"/>
<path d="M20.166 157.178C22.9004 157.178 25.0977 153.174 25.0977 148.193C25.0977 143.213 22.9004 139.209 20.166 139.209C17.4316 139.209 15.2344 143.213 15.2344 148.193C15.2344 153.174 17.4805 157.178 20.166 157.178Z" fill="white"/>
<path d="M103.418 94.3367C103.369 97.9012 103.125 98.4383 103.125 98.4383L87.3535 97.0711C87.3535 97.0711 87.2559 96.3875 87.2559 95.4598C87.207 94.4344 87.2559 93.4578 87.4023 92.4324C87.5977 91.2117 88.0859 90.2352 89.0137 90.2352C91.4063 90.1863 103.467 88.9168 103.418 94.3367Z" fill="url(#paint7_linear_4611_18990)"/>
<path d="M93.0176 93.8965C93.0176 94.2871 92.8711 94.6777 92.5781 94.9707C92.4316 95.1172 92.2852 95.2148 92.0898 95.3125C91.8945 95.4102 91.6992 95.4102 91.5039 95.4102H87.207C87.1582 94.3848 87.207 93.4082 87.3535 92.3828H91.5039C91.6992 92.3828 91.8945 92.4316 92.0898 92.4805C92.2852 92.5781 92.4316 92.6758 92.5781 92.8223C92.7246 92.9688 92.8223 93.1152 92.9199 93.3106C92.9687 93.5059 93.0176 93.7012 93.0176 93.8965Z" fill="#596161"/>
<path d="M175.977 130.078H156.201L164.355 122.119H238.623V128.516L175.977 130.078Z" fill="url(#paint8_linear_4611_18990)"/>
<path d="M236.426 162.55C227.246 163.868 217.578 164.991 207.373 165.772C190.771 167.091 175.195 167.432 160.889 167.139C169.043 155.958 178.223 150.782 183.057 148.536C187.109 146.632 187.891 146.925 226.514 145.509C229.248 145.411 233.643 145.264 236.23 148.145C240.088 152.442 237.158 160.548 236.426 162.55Z" fill="url(#paint9_linear_4611_18990)"/>
<path d="M136.182 120.362C136.182 120.362 128.809 108.789 145.02 114.161C161.231 119.58 174.365 122.217 174.365 122.217C174.365 122.217 171.68 138.233 155.078 133.155C141.065 128.955 136.182 120.362 136.182 120.362Z" fill="#B7B7B7"/>
<path d="M232.129 123.73C232.129 123.73 234.521 113.867 238.33 115.381C242.139 116.943 245.605 122.021 245.166 126.806C244.824 131.592 234.326 129.004 232.129 123.73Z" fill="#B7B7B7"/>
<defs>
<linearGradient id="paint0_linear_4611_18990" x1="121.045" y1="131.445" x2="121.045" y2="183.203" gradientUnits="userSpaceOnUse">
<stop stop-color="#666666"/>
<stop offset="0.473958" stop-color="#8F8F8F"/>
<stop offset="1" stop-color="#666666"/>
</linearGradient>
<linearGradient id="paint1_linear_4611_18990" x1="14.9976" y1="104.5" x2="235.498" y2="121.5" gradientUnits="userSpaceOnUse">
<stop stop-color="#D3D4D6"/>
<stop offset="0.376969" stop-color="#D3D4D6" stop-opacity="0"/>
<stop offset="1" stop-color="#D3D4D6"/>
</linearGradient>
<linearGradient id="paint2_linear_4611_18990" x1="30.002" y1="83.5" x2="187.002" y2="84.5" gradientUnits="userSpaceOnUse">
<stop stop-color="#1D1D1D"/>
<stop offset="0.490254" stop-color="#343434"/>
<stop offset="0.973958" stop-color="#181818"/>
</linearGradient>
<linearGradient id="paint3_linear_4611_18990" x1="124.002" y1="99" x2="242.502" y2="164.5" gradientUnits="userSpaceOnUse">
<stop stop-color="#DFDFE1"/>
<stop offset="0.5" stop-color="#D5D5D5"/>
<stop offset="0.994792" stop-color="#DFDFE1"/>
</linearGradient>
<linearGradient id="paint4_linear_4611_18990" x1="120.5" y1="103" x2="190.628" y2="142.211" gradientUnits="userSpaceOnUse">
<stop stop-color="white"/>
<stop offset="0.39584" stop-color="#E7E7E7"/>
<stop offset="1" stop-color="white"/>
</linearGradient>
<linearGradient id="paint5_linear_4611_18990" x1="53.1404" y1="107.666" x2="53.1404" y2="161.621" gradientUnits="userSpaceOnUse">
<stop stop-color="#565656"/>
<stop offset="1" stop-color="#242424"/>
</linearGradient>
<linearGradient id="paint6_linear_4611_18990" x1="8.50195" y1="150" x2="32.002" y2="150.5" gradientUnits="userSpaceOnUse">
<stop stop-color="#666666"/>
<stop offset="0.536458" stop-color="#898989"/>
<stop offset="0.994792" stop-color="#666666"/>
</linearGradient>
<linearGradient id="paint7_linear_4611_18990" x1="95.3278" y1="90.0723" x2="95.3278" y2="98.4383" gradientUnits="userSpaceOnUse">
<stop stop-color="#222222"/>
<stop offset="0.484375" stop-color="#393939"/>
<stop offset="1" stop-color="#1B1B1B"/>
</linearGradient>
<linearGradient id="paint8_linear_4611_18990" x1="197.412" y1="122.119" x2="197.412" y2="130.078" gradientUnits="userSpaceOnUse">
<stop stop-color="#323232"/>
<stop offset="1" stop-color="#494949"/>
</linearGradient>
<linearGradient id="paint9_linear_4611_18990" x1="197.998" y1="145" x2="199.535" y2="167.237" gradientUnits="userSpaceOnUse">
<stop stop-color="#323232"/>
<stop offset="0.5625" stop-color="#4F4F4F"/>
<stop offset="1" stop-color="#323232"/>
</linearGradient>
</defs>
</svg>
