<svg width="250" height="250" viewBox="0 0 250 250" fill="none" xmlns="http://www.w3.org/2000/svg">
<path d="M2.92969 169.678L14.5508 162.646L4.00391 135.645L7.22656 123.242L26.9531 123.633L239.941 152.637L230.469 172.461L224.805 181.055H243.799C243.799 181.885 243.457 182.715 242.871 183.35C242.285 183.984 241.455 184.326 240.576 184.375L104.395 190.576L2.92969 169.678Z" fill="#353535"/>
<path d="M102.051 186.865C111.084 186.865 118.408 176.27 118.408 163.232C118.408 150.195 111.084 139.648 102.051 139.648C93.0176 139.648 85.6934 150.244 85.6934 163.281C85.6934 176.318 93.0176 186.865 102.051 186.865Z" fill="url(#paint0_linear_4611_19036)"/>
<path d="M100.635 172.803C104.59 172.803 107.861 168.311 107.861 162.744C107.861 157.178 104.639 152.686 100.635 152.686C96.6797 152.686 93.4082 157.178 93.4082 162.744C93.4082 168.311 96.6309 172.803 100.635 172.803Z" fill="white"/>
<path d="M12.6465 168.213C17.7734 168.213 21.875 158.984 21.875 147.607C21.875 136.23 17.7246 127.002 12.6465 127.002C7.56836 127.002 3.41797 136.23 3.41797 147.607C3.41797 158.984 7.56836 168.213 12.6465 168.213Z" fill="url(#paint1_linear_4611_19036)"/>
<path d="M11.8652 155.957C14.1113 155.957 15.918 152.051 15.918 147.168C15.918 142.334 14.1113 138.379 11.8652 138.379C9.61914 138.379 7.8125 142.285 7.8125 147.168C7.8125 152.051 9.61914 155.957 11.8652 155.957Z" fill="white"/>
<path d="M239.551 173.682C239.014 173.828 238.379 173.975 237.598 174.121C225 176.612 182.52 178.028 155.469 178.418H154.59C125.977 178.76 115.723 177.539 115.723 173.487C115.723 169.434 119.483 137.842 103.125 136.231C91.0645 135.059 85.8888 147.852 84.3263 159.033C83.838 162.549 83.6427 166.065 83.838 169.629L20.8496 158.057C20.8496 158.057 23.7793 134.278 15.0879 127.832C6.73828 121.582 4.05273 135.645 4.05273 135.645C4.05273 135.645 4.49219 128.223 7.61719 116.162C8.83789 111.524 10.4492 106.153 12.5977 100.293C14.1602 95.9963 15.4297 92.1389 16.748 88.6721C21.9238 74.8537 27.5391 66.6994 52.3438 62.3537C80.6642 57.4221 148.389 58.5451 171.68 67.5295C173.682 68.2131 175.537 69.2385 177.246 70.4592C188.086 78.8576 203.565 90.5275 211.279 96.2892L215.283 99.3166L215.967 99.8537C215.967 99.8537 243.311 113.721 245.459 124.414C247.656 135.059 249.072 170.899 239.551 173.682Z" fill="url(#paint2_linear_4611_19036)"/>
<path d="M83.838 169.677L20.8496 158.105C20.8496 158.105 23.7793 134.326 15.0879 127.88C6.73828 121.63 4.05273 135.693 4.05273 135.693C4.05273 135.693 4.49219 128.271 7.61719 116.211C12.1094 115.234 18.2617 115.429 21.7773 121.972C27.8809 133.203 29.4922 146.728 47.3145 151.464C60.8888 155.078 77.295 157.959 84.3263 159.13C83.838 162.597 83.6427 166.113 83.838 169.677Z" fill="url(#paint3_linear_4611_19036)"/>
<path d="M215.283 99.2678L110.303 100.342H93.3593L22.5583 89.9416L19.3357 89.4533L16.6501 88.7209C21.8259 74.9025 27.4412 66.7482 52.246 62.4025C80.5664 57.4709 148.291 58.5939 171.582 67.5783C173.584 68.2619 175.439 69.2873 177.148 70.508C187.988 78.9064 203.467 90.5764 211.182 96.3381L215.283 99.2678Z" fill="url(#paint4_linear_4611_19036)"/>
<path d="M94.5802 100.293H93.4083L62.6466 95.7524L40.1367 92.4321L22.6074 89.8442C23.6328 85.7426 27.3438 74.1703 37.8418 70.1176C39.5508 69.434 41.3574 69.0434 43.2129 68.8481C48.7305 68.2133 54.3946 67.5297 59.7169 67.5297C71.2403 67.4321 81.5431 70.3129 87.3048 83.2524C90.9669 91.5532 93.6524 96.8754 94.5802 100.293Z" fill="#5E6464"/>
<path d="M239.551 173.486C239.014 173.633 238.379 173.779 237.598 173.926C225 176.416 182.52 177.832 155.469 178.223H154.59C137.061 178.418 126.416 178.076 120.801 176.807L120.947 175.586C127.49 125.732 94.5312 100.293 94.5312 100.293L108.545 100.195L215.283 99.2188L215.967 99.5605C215.967 99.5605 243.115 113.33 245.459 124.023C245.459 124.072 245.459 124.121 245.508 124.17C247.607 134.863 249.072 170.703 239.551 173.486Z" fill="url(#paint5_linear_4611_19036)"/>
<path d="M211.23 96.2405H105.42C105.42 96.2405 91.748 76.4163 89.209 71.8265C86.6699 67.2366 93.164 67.4808 93.164 67.4808H171.68C173.682 68.1644 175.537 69.1898 177.246 70.4105C188.086 78.8577 203.564 90.4788 211.23 96.2405Z" fill="#5E6464"/>
<path d="M245.459 124.023C231.055 125.977 191.748 130.615 162.5 126.563C130.615 122.119 112.549 104.541 108.545 100.244L215.283 99.2676L215.967 99.6094C215.967 99.5605 243.066 113.33 245.459 124.023Z" fill="url(#paint6_linear_4611_19036)"/>
<path d="M173.291 132.227H153.516L161.67 124.268H235.938V130.664L173.291 132.227Z" fill="url(#paint7_linear_4611_19036)"/>
<path d="M237.598 174.171C225 176.661 182.52 178.077 155.469 178.468C159.668 172.95 169.824 160.694 177.637 159.864C187.695 158.79 227.49 157.96 227.49 157.96C227.49 157.96 235.4 156.251 237.598 174.171Z" fill="url(#paint8_linear_4611_19036)"/>
<path d="M211.23 96.2402H164.014C155.469 82.8125 152.832 73.6328 152.686 67.5293H171.68C173.682 68.2129 175.537 69.2383 177.246 70.459C188.086 78.8574 203.564 90.4785 211.23 96.2402Z" fill="#6D7277"/>
<path d="M62.5977 95.752L40.0879 92.4316L37.793 70.1172C39.502 69.4336 41.3086 69.043 43.1641 68.8477C48.6816 68.2129 54.3457 67.5293 59.668 67.5293L62.5977 95.752Z" fill="#6D7277"/>
<path d="M118.213 118.994C118.213 118.994 110.303 106.787 129.932 113.622C149.561 120.458 165.723 124.267 165.723 124.267C165.723 124.267 160.547 139.99 140.381 133.447C123.34 127.978 118.213 118.994 118.213 118.994Z" fill="#B7B7B7"/>
<path d="M57.3242 108.839L54.1504 108.302C54.1504 108.302 54.3457 104.884 55.9082 105.128C57.4707 105.372 61.5723 106.007 62.207 106.739C62.8418 107.423 62.1582 109.718 62.1582 109.718L57.3242 108.839Z" fill="#4C4A60"/>
<path d="M29.248 104.591L26.0742 104.053C26.0742 104.053 26.2695 100.636 27.832 100.88C29.4434 101.124 33.4961 101.759 34.1309 102.491C34.7656 103.175 34.082 105.47 34.082 105.47L29.248 104.591Z" fill="#4C4A60"/>
<path d="M87.9395 93.3591C87.8906 96.6794 87.6465 97.2165 87.6465 97.2165L72.8027 95.947C72.8027 95.947 72.7539 95.3122 72.7051 94.4333C72.6562 93.5056 72.7051 92.529 72.8516 91.6013C73.0469 90.4782 73.4863 89.5505 74.3652 89.5505C76.6602 89.5017 87.9883 88.3298 87.9395 93.3591Z" fill="url(#paint9_linear_4611_19036)"/>
<path d="M78.1738 93.0176C78.1738 93.4082 78.0273 93.75 77.7344 93.9941C77.4414 94.2383 77.0996 94.3848 76.709 94.3848H72.6562C72.6074 93.457 72.6563 92.4805 72.8027 91.5527H76.709C76.9043 91.5527 77.0996 91.6016 77.2461 91.6504C77.4414 91.6992 77.5879 91.8457 77.7344 91.9434C77.8809 92.0898 77.9785 92.2363 78.0273 92.3828C78.125 92.627 78.1738 92.8223 78.1738 93.0176Z" fill="#596161"/>
<path d="M232.129 126.806C232.129 126.806 234.277 115.575 237.695 117.333C241.113 119.091 244.189 124.902 243.799 130.322C243.506 135.741 234.131 132.812 232.129 126.806Z" fill="#B7B7B7"/>
<defs>
<linearGradient id="paint0_linear_4611_19036" x1="87.498" y1="154" x2="115.998" y2="176" gradientUnits="userSpaceOnUse">
<stop stop-color="#666666"/>
<stop offset="0.489583" stop-color="#808080"/>
<stop offset="1" stop-color="#676767"/>
</linearGradient>
<linearGradient id="paint1_linear_4611_19036" x1="2.99609" y1="145" x2="20.4961" y2="157" gradientUnits="userSpaceOnUse">
<stop stop-color="#656565"/>
<stop offset="0.473958" stop-color="#838383"/>
<stop offset="1" stop-color="#5B5B5B"/>
</linearGradient>
<linearGradient id="paint2_linear_4611_19036" x1="17.498" y1="99.5" x2="116.998" y2="139.5" gradientUnits="userSpaceOnUse">
<stop stop-color="#D4D4D6"/>
<stop offset="0.479167" stop-color="#EEEEEE"/>
<stop offset="1" stop-color="#D4D4D6"/>
</linearGradient>
<linearGradient id="paint3_linear_4611_19036" x1="58.4981" y1="124" x2="53.4981" y2="163" gradientUnits="userSpaceOnUse">
<stop stop-color="#313131"/>
<stop offset="0.447917" stop-color="#424242"/>
<stop offset="1" stop-color="#262626"/>
</linearGradient>
<linearGradient id="paint4_linear_4611_19036" x1="23.5017" y1="82.5" x2="210.002" y2="86.5" gradientUnits="userSpaceOnUse">
<stop stop-color="#191919"/>
<stop offset="0.479167" stop-color="#323232"/>
<stop offset="1" stop-color="#141414"/>
</linearGradient>
<linearGradient id="paint5_linear_4611_19036" x1="170.796" y1="99.2188" x2="170.796" y2="178.274" gradientUnits="userSpaceOnUse">
<stop stop-color="#FBFBFB"/>
<stop offset="0.546875" stop-color="#EDEDED"/>
<stop offset="1" stop-color="#E2E2E2"/>
</linearGradient>
<linearGradient id="paint6_linear_4611_19036" x1="176.622" y1="102.181" x2="177.65" y2="127.999" gradientUnits="userSpaceOnUse">
<stop stop-color="white"/>
<stop offset="1" stop-color="#E7EAEF"/>
</linearGradient>
<linearGradient id="paint7_linear_4611_19036" x1="194.727" y1="124.268" x2="194.727" y2="132.227" gradientUnits="userSpaceOnUse">
<stop stop-color="#2F2F2F"/>
<stop offset="1" stop-color="#555555"/>
</linearGradient>
<linearGradient id="paint8_linear_4611_19036" x1="196.533" y1="157.916" x2="197" y2="178" gradientUnits="userSpaceOnUse">
<stop stop-color="#2F2F2F"/>
<stop offset="0.515625" stop-color="#464646"/>
<stop offset="0.984375" stop-color="#2F2F2F"/>
</linearGradient>
<linearGradient id="paint9_linear_4611_19036" x1="80.3132" y1="89.3984" x2="80.3132" y2="97.2165" gradientUnits="userSpaceOnUse">
<stop stop-color="#1D1D1D"/>
<stop offset="0.479167" stop-color="#414141"/>
<stop offset="1" stop-color="#1D1D1D"/>
</linearGradient>
</defs>
</svg>
