<svg width="25" height="24" viewBox="0 0 25 24" fill="none" xmlns="http://www.w3.org/2000/svg">
<ellipse cx="12.9809" cy="12" rx="12.0185" ry="12" fill="#3C3C3C" fill-opacity="0.1"/>
<g clip-path="url(#clip0_4453_1055)">
<path d="M7.31371 7.21094C6.49547 7.21094 5.82114 7.88423 5.82114 8.70121V10.6882C5.82114 10.82 5.87356 10.9463 5.96684 11.0395C6.06013 11.1327 6.18673 11.185 6.31866 11.185C6.87416 11.185 7.31371 11.6239 7.31371 12.1785C7.31371 12.7332 6.87416 13.172 6.31866 13.172C6.18673 13.172 6.06013 13.2244 5.96684 13.3175C5.87356 13.4107 5.82114 13.5371 5.82114 13.6688V15.6558C5.82114 16.4728 6.49547 17.1461 7.31371 17.1461H18.2593C19.0775 17.1461 19.7519 16.4728 19.7519 15.6558V13.6688C19.7519 13.5371 19.6994 13.4107 19.6062 13.3175C19.5129 13.2244 19.3863 13.172 19.2543 13.172C18.6988 13.172 18.2593 12.7332 18.2593 12.1785C18.2593 11.624 18.6988 11.185 19.2543 11.185C19.3863 11.185 19.5129 11.1327 19.6062 11.0395C19.6994 10.9463 19.7519 10.82 19.7519 10.6882V8.70121C19.7519 7.88423 19.0775 7.21094 18.2593 7.21094H7.31371ZM15.2645 9.19309C15.3988 9.1891 15.5291 9.23966 15.6256 9.33313C15.7221 9.42672 15.7766 9.55523 15.7766 9.68952C15.7768 9.8238 15.7223 9.95232 15.6258 10.0459L10.6506 15.0135C10.5581 15.1097 10.4305 15.1647 10.2968 15.1661C10.1631 15.1674 10.0344 15.1151 9.93993 15.0206C9.84532 14.9262 9.7929 14.7978 9.79423 14.6643C9.79556 14.5308 9.85065 14.4034 9.94715 14.3109L14.9224 9.34335V9.34346C15.0125 9.25077 15.1352 9.19688 15.2645 9.193L15.2645 9.19309ZM10.7964 9.19874C11.6149 9.19874 12.289 9.87181 12.289 10.689C12.289 11.5062 11.6149 12.1793 10.7964 12.1793C9.97792 12.1793 9.30382 11.5062 9.30382 10.689C9.30382 9.87181 9.97792 9.19874 10.7964 9.19874ZM10.7964 10.1923C10.5158 10.1923 10.2989 10.4088 10.2989 10.689C10.2989 10.9692 10.5158 11.1858 10.7964 11.1858C11.077 11.1858 11.2939 10.9692 11.2939 10.689C11.2939 10.4088 11.077 10.1923 10.7964 10.1923ZM14.7766 12.1785C15.5951 12.1785 16.2692 12.8516 16.2692 13.6688C16.2692 14.486 15.5951 15.1591 14.7766 15.1591C13.9581 15.1591 13.284 14.486 13.284 13.6688C13.284 12.8516 13.9581 12.1785 14.7766 12.1785ZM14.7766 13.172C14.496 13.172 14.2791 13.3886 14.2791 13.6688C14.2791 13.949 14.496 14.1656 14.7766 14.1656C15.0572 14.1656 15.2741 13.949 15.2741 13.6688C15.2741 13.3886 15.0572 13.172 14.7766 13.172Z" fill="#3C3C3C"/>
</g>
<defs>
<clipPath id="clip0_4453_1055">
<rect width="15.1972" height="15.1737" fill="white" transform="translate(5.18793 5.31445)"/>
</clipPath>
</defs>
</svg>
