<svg width="300" height="300" viewBox="0 0 300 300" fill="none" xmlns="http://www.w3.org/2000/svg">
<path d="M246.582 24.7383H179.154V95.0283H246.582V24.7383Z" fill="#E0E0E0"/>
<path d="M242.016 24.7383H174.588V95.0283H242.016V24.7383Z" fill="#FAFAFA"/>
<path d="M242.034 95.0459H174.564V24.7139H242.034V95.0459ZM174.6 95.0039H241.992V24.7559H174.6V95.0039Z" fill="#E0E0E0"/>
<path d="M232.95 34.1875H183.648V85.5775H232.95V34.1875Z" fill="white"/>
<path d="M183.648 85.9199C183.304 86.4371 182.902 86.9124 182.448 87.3359C181.662 88.1639 180.558 89.2859 179.316 90.5099C178.074 91.7339 176.916 92.8199 176.094 93.5939C175.669 94.0485 175.191 94.4513 174.672 94.7939C175.013 94.2768 175.416 93.8033 175.872 93.3839C176.658 92.5499 177.768 91.4279 179.01 90.1979C180.252 88.9679 181.41 87.8819 182.238 87.1139C182.658 86.6608 183.132 86.2599 183.648 85.9199Z" fill="#E0E0E0"/>
<path d="M232.95 85.7998C233.469 86.1414 233.944 86.5443 234.366 86.9998C235.194 87.7858 236.322 88.8898 237.54 90.1318C238.758 91.3738 239.85 92.5318 240.624 93.3538C241.079 93.7789 241.482 94.2562 241.824 94.7758C241.307 94.4348 240.834 94.0318 240.414 93.5758C239.586 92.7898 238.458 91.6798 237.228 90.4378C235.998 89.1958 234.912 88.0378 234.144 87.2098C233.691 86.7894 233.29 86.316 232.95 85.7998Z" fill="#E0E0E0"/>
<path d="M232.8 34.3261C233.144 33.8098 233.547 33.3346 234 32.9101C234.786 32.0761 235.896 30.9541 237.132 29.7301C238.368 28.5061 239.532 27.4201 240.354 26.6521C240.78 26.1965 241.26 25.7936 241.782 25.4521C241.437 25.9648 241.034 26.4359 240.582 26.8561C239.796 27.6901 238.686 28.8181 237.444 30.0421C236.202 31.2661 235.044 32.3582 234.216 33.1322C233.794 33.5858 233.318 33.9867 232.8 34.3261Z" fill="#E0E0E0"/>
<path d="M183.516 34.4517C183 34.1073 182.525 33.7046 182.1 33.2517C181.272 32.4657 180.144 31.3557 178.926 30.1197C177.708 28.8837 176.61 27.7197 175.842 26.8977C175.386 26.4714 174.984 25.992 174.642 25.4697C175.156 25.815 175.629 26.2176 176.052 26.6697C176.88 27.4557 178.008 28.5657 179.232 29.8077C180.456 31.0497 181.548 32.2077 182.322 33.0357C182.776 33.4578 183.177 33.9333 183.516 34.4517Z" fill="#E0E0E0"/>
<path d="M232.8 85.5774C232.8 85.5774 232.8 85.4874 232.8 85.3254C232.8 85.1634 232.8 84.9174 232.8 84.6114C232.8 83.9634 232.8 83.0394 232.8 81.8334C232.8 79.4334 232.77 75.8334 232.752 71.3634C232.752 62.3634 232.692 49.5414 232.656 34.1634L232.842 34.3494L183.684 34.3794L183.906 34.1634C183.906 53.0214 183.906 70.6734 183.876 85.5534L183.684 85.3674L219.282 85.4634L229.284 85.5114H231.93H232.614H232.848H232.632H231.972H229.362L219.402 85.5594L183.684 85.6554H183.498V85.4694C183.498 70.5894 183.498 52.9374 183.498 34.0794V33.8574H183.72H232.878H233.07V34.1994C233.028 49.6014 232.998 62.4654 232.974 71.4954C232.974 75.9714 232.938 79.4994 232.926 81.9234C232.926 83.1234 232.926 84.0294 232.926 84.6654C232.926 84.9594 232.926 85.1874 232.926 85.3614C232.894 85.4389 232.852 85.5116 232.8 85.5774Z" fill="#E0E0E0"/>
<path d="M216.528 51.6543H200.076V68.1063H216.528V51.6543Z" fill="#EBEBEB"/>
<path d="M258.066 210.6C261.738 208.704 266.07 208.458 270.15 209.13C272.34 209.49 274.626 210.15 276.12 211.794C277.614 213.438 277.89 216.342 276.18 217.758C275.16 218.598 273.738 218.724 272.418 218.712C269.22 218.67 265.674 218.112 263.124 220.032C261.666 221.13 260.724 222.954 258.96 223.494C257.196 224.034 255.36 223.014 254.43 221.478C253.597 219.879 253.415 218.019 253.92 216.288C254.126 215.085 254.608 213.945 255.327 212.959C256.046 211.972 256.983 211.165 258.066 210.6Z" fill="#EBEBEB"/>
<path d="M249.642 194.322C251.892 197.532 256.242 196.47 258.282 194.514C260.322 192.558 261.168 189.714 261.942 187.002C263.742 180.816 265.542 174.324 264.198 168.024C263.884 166.117 263.054 164.332 261.798 162.864C260.472 161.466 258.438 160.632 256.578 161.124C254.376 161.724 252.978 163.866 252.018 165.924C249.101 171.983 247.572 178.615 247.542 185.34C247.542 188.466 247.902 191.748 249.666 194.34" fill="#EBEBEB"/>
<path d="M243 208.23C245.442 205.332 245.904 201.108 244.8 197.478C243.696 193.848 241.26 190.764 238.434 188.244C235.106 185.284 231.234 183 227.034 181.518C225.407 180.86 223.657 180.563 221.904 180.648C221.03 180.701 220.181 180.965 219.431 181.419C218.682 181.872 218.054 182.502 217.602 183.252C216.402 185.538 217.554 188.316 218.802 190.578C221 194.566 223.503 198.377 226.29 201.978C228.54 204.87 231.09 207.726 234.528 209.034C237.966 210.342 241.5 210.186 243.318 207.834" fill="#EBEBEB"/>
<path d="M249.492 242.748C249.61 242.27 249.678 241.781 249.696 241.29C249.798 240.228 249.924 238.89 250.08 237.312C250.279 235.35 250.578 233.399 250.974 231.468C251.5 229.119 252.21 226.816 253.098 224.58C253.97 222.343 255.156 220.242 256.62 218.34C257.809 216.793 259.328 215.53 261.066 214.644C262.246 214.058 263.512 213.665 264.816 213.48C265.306 213.461 265.793 213.389 266.268 213.264C265.775 213.213 265.279 213.213 264.786 213.264C263.434 213.364 262.11 213.708 260.88 214.278C259.05 215.145 257.445 216.422 256.188 218.01C254.665 219.938 253.435 222.081 252.54 224.37C251.637 226.64 250.932 228.985 250.434 231.378C250.057 233.33 249.797 235.304 249.654 237.288C249.528 238.98 249.48 240.348 249.462 241.296C249.418 241.779 249.428 242.266 249.492 242.748Z" fill="#E0E0E0"/>
<path d="M249.762 239.688C249.806 239.465 249.82 239.237 249.804 239.01C249.804 238.5 249.804 237.858 249.804 237.072C249.804 235.392 249.804 232.962 249.888 229.962C250.038 223.962 250.554 217.494 251.556 208.362C252.498 199.8 253.77 189.828 255.108 183.348C255.396 181.878 255.708 180.546 255.954 179.388C256.2 178.23 256.44 177.222 256.65 176.388L257.106 174.51C257.174 174.292 257.213 174.066 257.22 173.838C257.121 174.042 257.043 174.255 256.986 174.474C256.842 174.962 256.656 175.58 256.428 176.328C256.176 177.132 255.924 178.128 255.63 179.292C255.336 180.456 255.03 181.77 254.694 183.24C253.034 190.906 251.786 198.655 250.956 206.454C249.954 215.58 249.504 223.89 249.468 229.914C249.432 232.914 249.468 235.356 249.57 237.036C249.618 237.822 249.66 238.464 249.69 238.974C249.686 239.214 249.71 239.454 249.762 239.688Z" fill="#E0E0E0"/>
<path d="M249.324 232.955C249.378 232.283 249.378 231.606 249.324 230.933C249.246 229.631 249.072 227.753 248.724 225.455C248.275 222.764 247.674 220.1 246.924 217.475C246.059 214.247 244.948 211.09 243.6 208.031C240.834 201.431 237.072 196.091 233.802 192.767C233.078 192.007 232.309 191.292 231.498 190.625C231.144 190.325 230.826 190.025 230.508 189.791L229.614 189.191C229.076 188.787 228.509 188.424 227.916 188.105C227.814 188.237 230.316 189.713 233.49 193.079C237.501 197.566 240.717 202.704 243 208.271C244.325 211.312 245.447 214.437 246.36 217.625C247.236 220.559 247.812 223.253 248.256 225.527C248.7 227.801 248.91 229.667 249.06 230.927C249.095 231.609 249.184 232.287 249.324 232.955Z" fill="#E0E0E0"/>
<path d="M234.312 251.934L235.914 273.942H264.186L265.794 251.934H234.312Z" fill="#E0E0E0"/>
<path d="M269.166 243.258H231.582V251.934H269.166V243.258Z" fill="#E0E0E0"/>
<path d="M231.582 273.096V275.502H233.346H268.548V273.096H231.582Z" fill="#EBEBEB"/>
<path d="M235.08 279.732L233.346 275.502H267.198L265.182 279.732H235.08Z" fill="#E0E0E0"/>
<path d="M265.266 259.128C265.266 259.128 265.23 259.2 265.14 259.326L264.714 259.89L263.07 261.996L262.992 262.092L262.926 261.99L258.876 256.398H259.11L255.126 262.038L255 262.2L254.862 262.032L250.14 256.416H250.41L250.152 256.74L245.952 262.038L245.808 262.212L245.682 262.032L241.692 256.392H241.926L237 262.002L236.91 262.098L236.844 261.99L235.308 259.404C235.146 259.128 235.02 258.9 234.912 258.72C234.863 258.642 234.823 258.56 234.792 258.474C234.792 258.474 234.858 258.546 234.96 258.69L235.398 259.356L237.006 261.888H236.856C238.11 260.412 239.754 258.492 241.686 256.23L241.806 256.086L241.914 256.236L245.94 261.852H245.664L249.864 256.548C249.954 256.434 250.044 256.326 250.122 256.218L250.26 256.05L250.398 256.218L255.108 261.852H254.844C256.296 259.824 257.652 257.94 258.864 256.242L258.984 256.074L259.098 256.242C260.694 258.516 262.044 260.442 263.058 261.9H262.914L264.63 259.848L265.086 259.314C265.2 259.2 265.26 259.122 265.266 259.128Z" fill="#F5F5F5"/>
<path d="M266.19 251.789C266.19 251.885 259.104 251.963 250.368 251.963C241.632 251.963 234.546 251.885 234.546 251.789C234.546 251.693 241.626 251.609 250.368 251.609C259.11 251.609 266.19 251.687 266.19 251.789Z" fill="#F5F5F5"/>
<path d="M267.6 275.736C267.6 275.838 259.896 275.916 250.404 275.916C240.912 275.916 233.208 275.838 233.208 275.736C233.208 275.634 240.906 275.562 250.404 275.562C259.902 275.562 267.6 275.64 267.6 275.736Z" fill="#F5F5F5"/>
<path d="M24.54 253.41V279.54H62.754H104.904V253.41H24.54Z" fill="#F5F5F5"/>
<path d="M21.168 246.107V253.409H107.712V246.107H62.754H21.168Z" fill="#E0E0E0"/>
<path d="M64.4399 279.539H104.904V253.409H107.712V246.107H62.7539V252.737L64.4399 279.539Z" fill="#E0E0E0"/>
<path d="M52.0738 257.628H35.7778V261.564H52.0738V257.628Z" fill="#E0E0E0"/>
<path d="M54.6121 266.478H33.6841V274.782H54.6121V266.478Z" fill="white"/>
<path d="M36.9058 220.008V246.138H75.1138H117.264V220.008H36.9058Z" fill="#F5F5F5"/>
<path d="M33.5342 212.7V220.008H120.078V212.7H75.1142H33.5342Z" fill="#E0E0E0"/>
<path d="M76.7998 246.138H117.264V220.008H120.078V212.7H75.1138V219.33L76.7998 246.138Z" fill="#E0E0E0"/>
<path d="M64.44 224.22H48.144V228.156H64.44V224.22Z" fill="#E0E0E0"/>
<path d="M66.9719 233.076H46.0439V241.38H66.9719V233.076Z" fill="white"/>
<path d="M286.122 279.732C286.122 279.822 225.174 279.888 150.006 279.888C74.8379 279.888 13.8779 279.822 13.8779 279.732C13.8779 279.642 74.8139 279.6 150 279.6C225.186 279.6 286.122 279.648 286.122 279.732Z" fill="#263238"/>
<path d="M119.79 233.652L49.5898 233.616C45.5695 233.65 41.7006 232.085 38.8337 229.267C35.9667 226.448 34.3366 222.607 34.3018 218.586V45.6843C34.3445 41.6662 35.9806 37.8293 38.8505 35.0167C41.7205 32.2042 45.5896 30.6459 49.6078 30.6843L119.808 30.7263C128.256 30.7263 135.096 37.4583 134.514 45.7263L134.478 218.628C135.09 226.932 128.238 233.658 119.79 233.652Z" fill="#263238"/>
<path d="M119.874 35.6521H106.26C105.363 35.6725 104.511 36.048 103.892 36.696C103.272 37.344 102.934 38.2115 102.954 39.1081V41.5741C102.965 42.4655 102.624 43.3253 102.005 43.9668C101.386 44.6083 100.539 44.9796 99.6476 45.0001H73.1096C72.666 44.9899 72.2287 44.8925 71.8227 44.7133C71.4168 44.5341 71.0501 44.2767 70.7436 43.9558C70.4372 43.6348 70.1969 43.2567 70.0367 42.8428C69.8764 42.429 69.7993 41.9877 69.8096 41.5441V39.0781C69.829 38.1815 69.4916 37.314 68.8718 36.666C68.2519 36.018 67.4001 35.6425 66.5036 35.6221H49.7996C46.9586 35.6205 44.2332 36.7471 42.2226 38.7543C40.2121 40.7616 39.0808 43.4851 39.0776 46.3261V218.148C39.0769 219.555 39.3531 220.947 39.8906 222.247C40.4281 223.547 41.2163 224.728 42.2103 225.723C43.2042 226.718 44.3845 227.508 45.6836 228.047C46.9827 228.585 48.3752 228.863 49.7816 228.864L119.862 228.906C122.703 228.906 125.427 227.778 127.437 225.77C129.446 223.761 130.576 221.037 130.578 218.196L130.614 46.3681C130.614 44.9588 130.336 43.5634 129.796 42.2617C129.256 40.96 128.464 39.7776 127.467 38.7822C126.469 37.7868 125.285 36.998 123.982 36.4609C122.679 35.9238 121.283 35.6489 119.874 35.6521Z" fill="#375E73"/>
<path d="M123.882 55.434C123.882 55.482 121.992 55.536 119.682 55.554C117.372 55.572 115.482 55.554 115.482 55.5C115.482 55.446 117.372 55.398 119.682 55.38C121.992 55.362 123.882 55.386 123.882 55.434Z" fill="white"/>
<path d="M123.9 57.6007C123.9 57.6487 122.01 57.7027 119.7 57.7207C117.39 57.7387 115.5 57.7207 115.5 57.6667C115.5 57.6127 117.39 57.5647 119.7 57.5467C122.01 57.5287 123.9 57.5407 123.9 57.6007Z" fill="white"/>
<path d="M123.918 59.7541C123.918 59.8021 122.028 59.8561 119.718 59.8741C117.408 59.8921 115.518 59.8741 115.518 59.8201C115.518 59.7661 117.408 59.7181 119.718 59.7001C122.028 59.6821 123.918 59.7001 123.918 59.7541Z" fill="white"/>
<path d="M47.1357 62.2866H47.3157H47.8017L49.6017 62.2386L49.5537 62.2926C49.5537 61.8906 49.5537 61.4526 49.5537 60.9846C49.5537 60.7446 49.5537 60.5106 49.5537 60.2346C49.5819 60.09 49.6551 59.9582 49.7629 59.8579C49.8707 59.7576 50.0076 59.6942 50.1537 59.6766C50.4417 59.6766 50.6997 59.6766 51.0117 59.6766C51.1782 59.7022 51.33 59.7864 51.44 59.914C51.55 60.0416 51.6109 60.2041 51.6117 60.3726C51.6117 60.9846 51.6117 61.6206 51.6117 62.2806L51.5277 62.1966H53.8017L53.7177 62.2866C53.7177 61.3686 53.7177 60.4266 53.7177 59.4546C53.7177 59.2146 53.7177 58.9746 53.7177 58.7346C53.7057 58.6265 53.6706 58.5224 53.6146 58.4292C53.5587 58.336 53.4834 58.256 53.3937 58.1946L52.4037 57.2166L51.4437 56.2686L50.9757 55.8126C50.8559 55.6532 50.6937 55.5305 50.5077 55.4586C50.4187 55.4343 50.3254 55.4309 50.2348 55.4486C50.1443 55.4662 50.0591 55.5046 49.9857 55.5606C49.8477 55.6746 49.7037 55.8426 49.5657 55.9746L48.7197 56.7426C48.2037 57.2766 47.6697 57.7626 47.2797 58.2246C47.1668 58.4913 47.1274 58.7834 47.1657 59.0706V59.8746C47.1657 60.3666 47.1657 60.7986 47.1657 61.1646C47.1657 61.5306 47.1657 61.7646 47.1657 61.9926C47.1742 62.0904 47.1742 62.1887 47.1657 62.2866C47.1657 62.2866 47.1657 62.1966 47.1657 62.0166C47.1657 61.8366 47.1657 61.5246 47.1657 61.2006C47.1657 60.8766 47.1657 60.3966 47.1657 59.8986C47.1657 59.6466 47.1657 59.3706 47.1657 59.0826C47.1657 58.9386 47.1657 58.7886 47.1657 58.6386C47.1654 58.4722 47.2089 58.3088 47.2917 58.1646C47.7117 57.6486 48.2157 57.1926 48.7317 56.6406L49.4217 55.8006C49.5603 55.6492 49.7065 55.505 49.8597 55.3686C49.9523 55.2975 50.0599 55.2486 50.1744 55.2257C50.2888 55.2028 50.407 55.2066 50.5197 55.2366C50.7344 55.3134 50.9234 55.4485 51.0657 55.6266L51.5337 56.0826L52.4937 57.0246L53.4897 58.0026C53.5825 58.0861 53.6669 58.1786 53.7417 58.2786C53.8197 58.3915 53.8615 58.5254 53.8617 58.6626C53.8617 58.9026 53.8617 59.1426 53.8617 59.3886C53.8617 60.3546 53.8617 61.3026 53.8617 62.2206V62.3046H53.7717H51.5037H51.4197V62.2206C51.4197 61.5606 51.4197 60.9246 51.4197 60.3186C51.4241 60.1858 51.3794 60.0562 51.2941 59.9544C51.2089 59.8525 51.0891 59.7857 50.9577 59.7666C50.6997 59.7666 50.3877 59.7666 50.1357 59.7666C50.0174 59.7792 49.906 59.8289 49.8177 59.9087C49.7293 59.9884 49.6684 60.0941 49.6437 60.2106C49.6437 60.4386 49.6437 60.7026 49.6437 60.9366V62.2926H49.5897H47.7897H47.3097L47.1357 62.2866Z" fill="white"/>
<path d="M89.0637 204.535C96.271 204.535 102.114 198.692 102.114 191.485C102.114 184.277 96.271 178.435 89.0637 178.435C81.8564 178.435 76.0137 184.277 76.0137 191.485C76.0137 198.692 81.8564 204.535 89.0637 204.535Z" fill="white"/>
<path d="M81.0596 194.485L84.3176 193.717C84.5128 193.672 84.6869 193.562 84.8112 193.405C84.9355 193.248 85.0027 193.053 85.0016 192.853V192.181C85.0016 192.181 84.8636 191.041 85.9436 190.981C86.7116 190.927 91.6136 190.981 91.6136 190.981C91.6136 190.981 92.9036 190.981 92.8856 191.971V192.949C92.8859 193.112 92.9385 193.272 93.0356 193.403C93.1327 193.535 93.2694 193.632 93.4256 193.681L96.9596 194.749C97.1405 194.803 97.3353 194.789 97.506 194.708C97.6768 194.627 97.8113 194.485 97.8836 194.311L98.3336 193.219C98.4192 193.02 98.4582 192.805 98.4476 192.589C98.4131 191.997 98.2044 191.43 97.8476 190.957C97.1456 190.057 93.8396 187.957 87.5396 188.239C81.5396 188.527 80.2316 191.059 79.8896 191.665C79.6611 192.197 79.6209 192.792 79.7756 193.351L80.0396 193.951C80.1185 194.146 80.2645 194.308 80.4514 194.405C80.6383 194.503 80.8539 194.531 81.0596 194.485Z" fill="#375E73"/>
<g opacity="0.2">
<path d="M89.064 158.706C94.0577 158.706 98.106 154.658 98.106 149.664C98.106 144.67 94.0577 140.622 89.064 140.622C84.0702 140.622 80.022 144.67 80.022 149.664C80.022 154.658 84.0702 158.706 89.064 158.706Z" fill="white"/>
</g>
<path d="M86.592 150.726C87.1719 150.726 87.642 150.256 87.642 149.676C87.642 149.096 87.1719 148.626 86.592 148.626C86.0121 148.626 85.542 149.096 85.542 149.676C85.542 150.256 86.0121 150.726 86.592 150.726Z" fill="white"/>
<path d="M90.1137 149.676C90.1137 149.884 90.0521 150.087 89.9367 150.259C89.8213 150.432 89.6573 150.567 89.4655 150.646C89.2736 150.726 89.0625 150.746 88.8588 150.706C88.6551 150.665 88.4681 150.565 88.3212 150.418C88.1744 150.272 88.0744 150.084 88.0338 149.881C87.9933 149.677 88.0141 149.466 88.0936 149.274C88.1731 149.082 88.3077 148.918 88.4803 148.803C88.653 148.688 88.856 148.626 89.0637 148.626C89.3421 148.626 89.6092 148.737 89.8061 148.934C90.003 149.13 90.1137 149.397 90.1137 149.676Z" fill="white"/>
<path d="M92.5856 149.676C92.5868 149.885 92.5257 150.09 92.4102 150.265C92.2946 150.439 92.1297 150.576 91.9365 150.656C91.7433 150.737 91.5305 150.759 91.3251 150.718C91.1197 150.677 90.931 150.577 90.7829 150.429C90.6349 150.281 90.5342 150.092 90.4936 149.887C90.4531 149.681 90.4745 149.468 90.5552 149.275C90.6358 149.082 90.7721 148.917 90.9467 148.801C91.1213 148.686 91.3262 148.625 91.5356 148.626C91.8141 148.626 92.0812 148.737 92.2781 148.934C92.475 149.13 92.5856 149.398 92.5856 149.676Z" fill="white"/>
<path d="M87.642 147.168C87.6408 147.376 87.5782 147.578 87.4621 147.75C87.346 147.922 87.1816 148.056 86.9897 148.134C86.7977 148.213 86.5868 148.233 86.3835 148.191C86.1802 148.15 85.9937 148.05 85.8474 147.903C85.7012 147.756 85.6018 147.568 85.5617 147.365C85.5217 147.161 85.5428 146.951 85.6225 146.759C85.7021 146.568 85.8367 146.404 86.0093 146.289C86.1818 146.174 86.3846 146.112 86.592 146.112C86.7304 146.112 86.8674 146.14 86.9952 146.193C87.123 146.246 87.239 146.324 87.3366 146.422C87.4341 146.52 87.5114 146.637 87.5638 146.765C87.6162 146.893 87.6428 147.03 87.642 147.168Z" fill="white"/>
<path d="M90.1137 147.168C90.1125 147.376 90.0499 147.578 89.9338 147.75C89.8177 147.922 89.6533 148.056 89.4613 148.134C89.2694 148.213 89.0584 148.233 88.8552 148.191C88.6519 148.15 88.4653 148.05 88.3191 147.903C88.1728 147.756 88.0734 147.568 88.0334 147.365C87.9934 147.161 88.0145 146.951 88.0942 146.759C88.1738 146.568 88.3084 146.404 88.4809 146.289C88.6535 146.174 88.8562 146.112 89.0637 146.112C89.2021 146.112 89.3391 146.14 89.4669 146.193C89.5946 146.246 89.7107 146.324 89.8082 146.422C89.9058 146.52 89.983 146.637 90.0355 146.765C90.0879 146.893 90.1144 147.03 90.1137 147.168Z" fill="white"/>
<path d="M92.5856 147.168C92.5856 147.377 92.5235 147.582 92.4072 147.756C92.2909 147.929 92.1257 148.065 91.9324 148.144C91.739 148.224 91.5264 148.245 91.3214 148.204C91.1164 148.162 90.9283 148.061 90.7808 147.913C90.6334 147.765 90.5333 147.576 90.4932 147.371C90.4531 147.165 90.4749 146.953 90.5558 146.76C90.6366 146.567 90.7729 146.403 90.9473 146.287C91.1218 146.172 91.3265 146.111 91.5356 146.112C91.674 146.112 91.8111 146.14 91.9388 146.193C92.0666 146.246 92.1826 146.324 92.2802 146.422C92.3778 146.52 92.455 146.637 92.5074 146.765C92.5599 146.893 92.5864 147.03 92.5856 147.168Z" fill="white"/>
<path d="M87.642 152.16C87.642 152.368 87.5804 152.571 87.465 152.744C87.3497 152.916 87.1857 153.051 86.9938 153.13C86.802 153.21 86.5908 153.231 86.3871 153.19C86.1835 153.15 85.9964 153.05 85.8495 152.903C85.7027 152.756 85.6027 152.569 85.5622 152.365C85.5217 152.162 85.5425 151.95 85.6219 151.759C85.7014 151.567 85.836 151.403 86.0086 151.287C86.1813 151.172 86.3843 151.11 86.592 151.11C86.8705 151.11 87.1375 151.221 87.3345 151.418C87.5314 151.615 87.642 151.882 87.642 152.16Z" fill="white"/>
<path d="M90.1137 152.16C90.1137 152.368 90.0521 152.571 89.9367 152.744C89.8213 152.916 89.6573 153.051 89.4655 153.13C89.2736 153.21 89.0625 153.231 88.8588 153.19C88.6551 153.15 88.4681 153.05 88.3212 152.903C88.1744 152.756 88.0744 152.569 88.0338 152.365C87.9933 152.162 88.0141 151.95 88.0936 151.759C88.1731 151.567 88.3077 151.403 88.4803 151.287C88.653 151.172 88.856 151.11 89.0637 151.11C89.3421 151.11 89.6092 151.221 89.8061 151.418C90.003 151.615 90.1137 151.882 90.1137 152.16Z" fill="white"/>
<path d="M92.5856 152.16C92.5868 152.37 92.5257 152.575 92.4102 152.749C92.2946 152.924 92.1297 153.06 91.9365 153.141C91.7433 153.221 91.5305 153.243 91.3251 153.202C91.1197 153.162 90.931 153.061 90.7829 152.913C90.6349 152.765 90.5342 152.576 90.4936 152.371C90.4531 152.165 90.4745 151.953 90.5552 151.759C90.6358 151.566 90.7721 151.401 90.9467 151.286C91.1213 151.17 91.3262 151.109 91.5356 151.11C91.8141 151.11 92.0812 151.221 92.2781 151.418C92.475 151.615 92.5856 151.882 92.5856 152.16Z" fill="white"/>
<g opacity="0.2">
<path d="M63.1079 158.706C68.1017 158.706 72.1499 154.658 72.1499 149.664C72.1499 144.67 68.1017 140.622 63.1079 140.622C58.1142 140.622 54.0659 144.67 54.0659 149.664C54.0659 154.658 58.1142 158.706 63.1079 158.706Z" fill="white"/>
</g>
<path d="M58.866 148.482V150.6C58.866 150.643 58.8831 150.684 58.9134 150.715C58.9438 150.745 58.985 150.762 59.028 150.762H60.228C60.2651 150.762 60.3011 150.775 60.33 150.798L62.172 152.238C62.1962 152.258 62.2255 152.27 62.2565 152.273C62.2874 152.277 62.3187 152.271 62.3466 152.257C62.3744 152.243 62.3977 152.222 62.4135 152.195C62.4294 152.168 62.4372 152.137 62.436 152.106V147.108C62.4374 147.078 62.4302 147.047 62.4151 147.021C62.3999 146.994 62.3776 146.972 62.3506 146.958C62.3236 146.943 62.293 146.937 62.2625 146.939C62.2319 146.941 62.2026 146.952 62.178 146.97L60.378 148.254C60.3491 148.272 60.316 148.283 60.282 148.284H59.028C59.0037 148.285 58.9797 148.29 58.9579 148.301C58.936 148.312 58.9167 148.327 58.9013 148.346C58.8859 148.365 58.8747 148.386 58.8686 148.41C58.8625 148.434 58.8616 148.458 58.866 148.482Z" fill="white"/>
<path d="M65.8439 153.276C65.7926 153.277 65.7431 153.258 65.7059 153.222C65.6678 153.184 65.6464 153.132 65.6464 153.078C65.6464 153.024 65.6678 152.973 65.7059 152.934C66.1697 152.472 66.5357 151.92 66.7821 151.313C67.0284 150.706 67.1501 150.056 67.1399 149.4C67.0346 148.261 66.526 147.198 65.7059 146.4C65.6812 146.384 65.6603 146.362 65.6447 146.336C65.6291 146.311 65.6191 146.282 65.6154 146.253C65.6117 146.223 65.6143 146.193 65.6231 146.165C65.6319 146.136 65.6467 146.11 65.6665 146.087C65.6863 146.065 65.7106 146.047 65.7378 146.035C65.765 146.023 65.7945 146.017 65.8244 146.017C65.8542 146.017 65.8837 146.023 65.9109 146.036C65.938 146.048 65.9622 146.066 65.9819 146.088C66.8893 146.954 67.4485 148.121 67.5539 149.37C67.5648 150.08 67.4328 150.785 67.1659 151.442C66.8989 152.1 66.5024 152.697 65.9999 153.198C65.9603 153.244 65.9041 153.272 65.8439 153.276Z" fill="white"/>
<path d="M64.7037 152.268C64.6755 152.268 64.6476 152.262 64.6218 152.251C64.5959 152.239 64.5728 152.223 64.5537 152.202C64.5152 152.163 64.4937 152.11 64.4937 152.055C64.4937 152 64.5152 151.947 64.5537 151.908C64.8845 151.639 65.1542 151.302 65.3445 150.92C65.5349 150.538 65.6417 150.12 65.6577 149.694C65.5941 148.786 65.2015 147.933 64.5537 147.294C64.5152 147.255 64.4937 147.202 64.4937 147.147C64.4937 147.092 64.5152 147.039 64.5537 147C64.5919 146.962 64.6437 146.94 64.6977 146.94C64.7517 146.94 64.8034 146.962 64.8417 147C65.5781 147.715 66.0192 148.681 66.0777 149.706C66.062 150.19 65.9437 150.664 65.7306 151.099C65.5175 151.533 65.2145 151.917 64.8417 152.226C64.8228 152.242 64.8008 152.254 64.7771 152.261C64.7533 152.269 64.7283 152.271 64.7037 152.268Z" fill="white"/>
<path d="M63.69 151.2C63.6363 151.198 63.5851 151.177 63.546 151.14C63.5262 151.121 63.5104 151.098 63.4997 151.073C63.4889 151.048 63.4834 151.021 63.4834 150.993C63.4834 150.966 63.4889 150.939 63.4997 150.913C63.5104 150.888 63.5262 150.865 63.546 150.846C64.818 149.586 63.588 148.158 63.546 148.098C63.5088 148.058 63.4882 148.006 63.4882 147.951C63.4882 147.897 63.5088 147.844 63.546 147.804C63.5852 147.766 63.638 147.744 63.693 147.744C63.7479 147.744 63.8007 147.766 63.84 147.804C63.84 147.804 65.382 149.604 63.84 151.122C63.8217 151.145 63.799 151.164 63.7731 151.177C63.7473 151.19 63.719 151.198 63.69 151.2Z" fill="white"/>
<g opacity="0.2">
<path d="M112.794 158.706C117.788 158.706 121.836 154.658 121.836 149.664C121.836 144.67 117.788 140.622 112.794 140.622C107.8 140.622 103.752 144.67 103.752 149.664C103.752 154.658 107.8 158.706 112.794 158.706Z" fill="white"/>
</g>
<path d="M112.854 152.79C112.78 152.79 112.709 152.761 112.656 152.71C112.604 152.658 112.573 152.588 112.572 152.514V146.814C112.582 146.747 112.615 146.686 112.666 146.642C112.718 146.598 112.783 146.573 112.851 146.573C112.918 146.573 112.984 146.598 113.035 146.642C113.086 146.686 113.12 146.747 113.13 146.814V152.514C113.128 152.587 113.099 152.656 113.047 152.708C112.996 152.759 112.926 152.789 112.854 152.79Z" fill="white"/>
<path d="M115.56 149.941H110.034C109.96 149.941 109.889 149.912 109.837 149.86C109.784 149.809 109.754 149.738 109.752 149.665C109.752 149.628 109.759 149.592 109.774 149.558C109.788 149.524 109.809 149.493 109.835 149.467C109.861 149.442 109.892 149.422 109.926 149.408C109.961 149.394 109.997 149.388 110.034 149.389H115.56C115.596 149.388 115.633 149.395 115.667 149.408C115.7 149.422 115.731 149.442 115.757 149.468C115.783 149.494 115.803 149.524 115.817 149.558C115.83 149.592 115.837 149.628 115.836 149.665C115.836 149.738 115.807 149.808 115.755 149.86C115.703 149.912 115.633 149.941 115.56 149.941Z" fill="white"/>
<path d="M77.8077 88.7101C80.2797 91.3741 81.5157 95.2081 81.5157 100.212C81.6044 103.368 80.9227 106.499 79.5297 109.332C78.2875 111.777 76.3308 113.786 73.9197 115.092C71.347 116.444 68.4733 117.121 65.5677 117.06C63.951 117.068 62.3393 116.881 60.7677 116.502C59.3928 116.19 58.0791 115.653 56.8797 114.912L59.5617 109.596C61.3058 110.704 63.3475 111.25 65.4117 111.162C68.0637 111.162 70.1637 110.38 71.7117 108.816C73.2597 107.252 74.0937 104.996 74.2137 102.048C72.3417 103.924 69.7417 104.862 66.4137 104.862C64.5274 104.889 62.6606 104.478 60.9597 103.662C59.3726 102.903 58.0269 101.719 57.0717 100.242C56.104 98.7153 55.6074 96.9374 55.6437 95.1301C55.6035 93.1826 56.1491 91.2679 57.2097 89.6341C58.2589 88.0414 59.7381 86.7786 61.4757 85.9921C63.3552 85.1235 65.4053 84.6868 67.4757 84.7141C71.8917 84.7101 75.3357 86.0421 77.8077 88.7101ZM71.9337 98.1361C72.4005 97.7103 72.7741 97.1926 73.031 96.6154C73.2879 96.0382 73.4226 95.4141 73.4265 94.7823C73.4305 94.1505 73.3036 93.5248 73.0539 92.9444C72.8042 92.364 72.4371 91.8417 71.9757 91.4101C70.8535 90.492 69.4271 90.0294 67.9797 90.1141C66.6103 90.0538 65.2667 90.5003 64.2057 91.3681C63.7233 91.7881 63.3421 92.3117 63.0907 92.8998C62.8392 93.4879 62.724 94.1252 62.7537 94.7641C62.7256 95.4063 62.8414 96.0467 63.0926 96.6384C63.3438 97.2301 63.7241 97.7582 64.2057 98.1841C65.3235 99.0182 66.683 99.4648 68.0777 99.4562C69.4724 99.4475 70.8263 98.984 71.9337 98.1361Z" fill="white"/>
<path d="M96.7977 85.248V116.526H89.5617V91.056H83.3037V85.248H96.7977Z" fill="white"/>
<path d="M114.312 85.248V116.526H107.076V91.056H100.8V85.248H114.312Z" fill="white"/>
<path d="M58.0259 129.132V130.2H54.1499V125.4H57.9359V126.456H55.4999V127.272H57.6479V128.292H55.4999V129.174L58.0259 129.132Z" fill="white"/>
<path d="M63.1498 130.2V127.638L61.9078 129.726H61.3078L60.0718 127.71V130.2H58.7998V125.4H59.9218L61.6198 128.19L63.2758 125.4H64.4038V130.2H63.1498Z" fill="white"/>
<path d="M69.2519 129.132V130.2H65.3999V125.4H69.1919V126.456H66.7559V127.272H68.8979V128.292H66.7559V129.174L69.2519 129.132Z" fill="white"/>
<path d="M72.1197 128.904H71.3997V130.2H70.0317V125.4H72.2397C72.6307 125.391 73.0192 125.465 73.3797 125.616C73.6811 125.739 73.9398 125.948 74.1237 126.216C74.3031 126.499 74.3949 126.829 74.3877 127.164C74.3943 127.485 74.309 127.802 74.1417 128.076C73.972 128.341 73.7278 128.55 73.4397 128.676L74.4597 130.2H72.9957L72.1197 128.904ZM72.7677 126.624C72.5869 126.484 72.3602 126.415 72.1317 126.432H71.3997V127.848H72.1557C72.3824 127.865 72.6077 127.802 72.7917 127.668C72.8648 127.603 72.9222 127.522 72.9596 127.432C72.997 127.342 73.0135 127.244 73.0077 127.146C73.0149 127.043 72.9968 126.939 72.955 126.844C72.9132 126.748 72.8489 126.665 72.7677 126.6V126.624Z" fill="white"/>
<path d="M78.354 127.668H79.554V129.672C79.2636 129.876 78.9411 130.03 78.6 130.128C78.2511 130.23 77.8895 130.283 77.526 130.284C77.051 130.29 76.5817 130.181 76.158 129.966C75.7647 129.76 75.4348 129.451 75.204 129.072C74.98 128.676 74.8623 128.228 74.8623 127.773C74.8623 127.318 74.98 126.87 75.204 126.474C75.4374 126.095 75.7692 125.786 76.164 125.58C76.5956 125.364 77.0732 125.255 77.556 125.262C77.9671 125.258 78.375 125.336 78.756 125.49C79.1039 125.633 79.4125 125.857 79.656 126.144L78.786 126.93C78.6379 126.758 78.4535 126.621 78.246 126.528C78.0385 126.436 77.8131 126.391 77.586 126.396C77.4013 126.383 77.2159 126.409 77.0424 126.474C76.8689 126.538 76.7114 126.64 76.5804 126.771C76.4495 126.901 76.3483 127.059 76.2837 127.233C76.2191 127.406 76.1926 127.591 76.206 127.776C76.2031 128.025 76.263 128.27 76.38 128.49C76.4895 128.695 76.6563 128.864 76.86 128.976C77.0778 129.099 77.3242 129.161 77.574 129.156C77.829 129.157 78.081 129.102 78.312 128.994L78.354 127.668Z" fill="white"/>
<path d="M84.3057 129.132V130.2H80.4297V125.4H84.2217V126.456H81.7797V127.272H83.9277V128.292H81.7797V129.174L84.3057 129.132Z" fill="white"/>
<path d="M89.6635 125.358V130.158H88.5415L86.3995 127.614V130.2H85.0615V125.4H86.1835L88.3195 127.974V125.4L89.6635 125.358Z" fill="white"/>
<path d="M91.6738 129.966C91.2814 129.761 90.9533 129.452 90.7258 129.072C90.5484 128.783 90.432 128.461 90.3837 128.126C90.3354 127.79 90.3564 127.448 90.4452 127.121C90.534 126.794 90.6888 126.489 90.9001 126.223C91.1114 125.958 91.3747 125.739 91.6738 125.58C92.0951 125.365 92.5626 125.255 93.0358 125.262C93.4476 125.257 93.8561 125.336 94.2358 125.496C94.581 125.646 94.8839 125.879 95.1178 126.174L94.2478 126.96C94.1143 126.784 93.9418 126.642 93.744 126.544C93.5462 126.446 93.3285 126.396 93.1078 126.396C92.8632 126.39 92.6213 126.448 92.4058 126.564C92.2053 126.678 92.0411 126.847 91.9318 127.05C91.8211 127.275 91.7636 127.522 91.7636 127.773C91.7636 128.024 91.8211 128.271 91.9318 128.496C92.0397 128.7 92.2043 128.869 92.4058 128.982C92.6208 129.1 92.8627 129.16 93.1078 129.156C93.3289 129.155 93.5468 129.103 93.7446 129.005C93.9423 128.906 94.1146 128.762 94.2478 128.586L95.1178 129.372C94.8855 129.669 94.5822 129.902 94.2358 130.05C93.8561 130.21 93.4476 130.289 93.0358 130.284C92.5626 130.291 92.0951 130.181 91.6738 129.966Z" fill="white"/>
<path d="M98.2915 128.454V130.2H96.9235V128.448L95.0815 125.37H96.5215L97.6675 127.29L98.8135 125.37H100.14L98.2915 128.454Z" fill="white"/>
<path d="M103.542 129.966C103.147 129.762 102.817 129.453 102.588 129.072C102.364 128.676 102.246 128.228 102.246 127.773C102.246 127.318 102.364 126.87 102.588 126.474C102.819 126.095 103.149 125.786 103.542 125.58C103.963 125.364 104.431 125.255 104.904 125.262C105.316 125.255 105.725 125.335 106.104 125.496C106.449 125.646 106.752 125.879 106.986 126.174L106.116 126.96C105.983 126.784 105.81 126.641 105.612 126.544C105.414 126.446 105.197 126.395 104.976 126.396C104.731 126.392 104.49 126.45 104.274 126.564C104.073 126.678 103.909 126.847 103.8 127.05C103.689 127.275 103.632 127.522 103.632 127.773C103.632 128.024 103.689 128.271 103.8 128.496C103.908 128.7 104.072 128.869 104.274 128.982C104.489 129.098 104.731 129.158 104.976 129.156C105.197 129.156 105.415 129.104 105.613 129.005C105.811 128.906 105.983 128.763 106.116 128.586L106.986 129.372C106.754 129.669 106.45 129.902 106.104 130.05C105.725 130.211 105.316 130.291 104.904 130.284C104.431 130.291 103.963 130.182 103.542 129.966Z" fill="white"/>
<path d="M110.742 129.253H108.696L108.318 130.189H106.926L109.056 125.389H110.4L112.542 130.189H111.12L110.742 129.253ZM110.34 128.245L109.74 126.697L109.14 128.245H110.34Z" fill="white"/>
<path d="M112.926 125.358H114.294V129.108H116.598V130.2H112.926V125.358Z" fill="white"/>
<path d="M117.138 125.358H118.506V129.108H120.81V130.2H117.138V125.358Z" fill="white"/>
<path d="M243.03 51.2281L230.862 42.3121L229.308 57.0061L213.834 58.6261L225.72 70.5061L216.624 79.1761L229.506 80.124L231 91.6861L241.194 83.0761L255.006 91.6861L258.864 77.4361L274.116 75.294L260.748 65.7841L267.954 53.1241L256.35 55.7761L253.086 40.2061L243.03 51.2281Z" fill="white"/>
<path d="M243.03 51.2279L243.69 50.4779C244.134 49.9919 244.782 49.2779 245.628 48.3299L253.032 40.1579L253.134 40.0439L253.164 40.1939C254.064 44.4599 255.18 49.7279 256.452 55.7579L256.326 55.6739L267.93 53.0039L268.194 52.9439L268.062 53.1839L260.862 65.8499L260.82 65.6759L274.2 75.1739L274.494 75.3839L274.134 75.4379L258.888 77.5859L259.014 77.4779L255.156 91.7279L255.102 91.9319L254.922 91.8179L244.272 85.1999L241.11 83.2319H241.296L231.096 91.8419L230.88 92.0219L230.844 91.7399C230.332 87.8159 229.834 83.9619 229.35 80.1779L229.488 80.3099L216.6 79.3199H216.27L216.51 79.0919L225.6 70.4099V70.6079L213.75 58.7159L213.564 58.5299H213.822L229.296 56.9279L229.2 56.9999C229.8 51.2519 230.346 46.3679 230.784 42.2999V42.1739L230.886 42.2519L239.886 48.8999L242.214 50.6279L243.006 51.2279C243.006 51.2279 242.742 51.0479 242.214 50.6699L239.874 48.9779L230.79 42.3779L230.91 42.3239C230.49 46.3919 229.98 51.2759 229.386 57.0239V57.1079H229.302L213.84 58.7459L213.912 58.5359L225.804 70.4039L225.906 70.5059L225.798 70.6019L216.714 79.2779L216.624 79.0259L229.506 79.9679H229.626V80.0939C230.114 83.8699 230.614 87.7239 231.126 91.6559L230.874 91.5539L241.074 82.9439L241.164 82.8719L241.26 82.9319L244.416 84.8999L255.072 91.5419L254.838 91.6319C256.164 86.7299 257.466 81.9239 258.702 77.3819V77.2859H258.804L274.05 75.1499L273.99 75.4139L260.628 65.8919L260.532 65.8199L260.592 65.7179L267.792 53.0639L267.924 53.2439L256.314 55.8839H256.212V55.7759L252.978 40.1759L253.11 40.2119L245.652 48.4079L243.696 50.5199C243.258 50.9999 243.03 51.2279 243.03 51.2279Z" fill="#263238"/>
<path d="M241.092 56.6522L240.288 68.3042C240.254 68.7661 240.052 69.1996 239.72 69.5233C239.389 69.847 238.951 70.0386 238.488 70.0622C238.004 70.0878 237.529 69.9266 237.16 69.6117C236.792 69.2967 236.558 68.8523 236.508 68.3702L235.308 56.6462C235.286 56.4368 235.309 56.2251 235.375 56.0252C235.441 55.8253 235.548 55.6417 235.691 55.4868C235.833 55.3318 236.007 55.2089 236.201 55.1264C236.395 55.0439 236.604 55.0036 236.814 55.0082L239.652 55.0622C239.852 55.0681 240.049 55.1145 240.231 55.1984C240.413 55.2824 240.576 55.4022 240.711 55.5506C240.845 55.6991 240.948 55.8732 241.014 56.0625C241.079 56.2518 241.106 56.4523 241.092 56.6522Z" fill="#375E73"/>
<path d="M235.488 75.5041C235.666 76.0374 235.999 76.506 236.443 76.8505C236.887 77.195 237.424 77.4001 237.985 77.4397C238.546 77.4794 239.106 77.3519 239.594 77.0733C240.083 76.7947 240.478 76.3776 240.729 75.8747C240.981 75.3717 241.077 74.8055 241.007 74.2476C240.937 73.6897 240.703 73.1651 240.335 72.7402C239.966 72.3152 239.48 72.009 238.938 71.8602C238.396 71.7114 237.822 71.7266 237.288 71.9041C236.933 72.0214 236.604 72.2077 236.321 72.4524C236.039 72.697 235.807 72.9952 235.639 73.3298C235.472 73.6644 235.373 74.0287 235.347 74.4018C235.321 74.775 235.369 75.1496 235.488 75.5041Z" fill="#375E73"/>
<path d="M250.728 56.6522L249.918 68.3042C249.886 68.767 249.685 69.202 249.353 69.5262C249.021 69.8504 248.582 70.0412 248.118 70.0622C247.634 70.0893 247.158 69.9286 246.789 69.6134C246.42 69.2982 246.187 68.8529 246.138 68.3702L244.908 56.6462C244.886 56.4368 244.909 56.2251 244.975 56.0252C245.041 55.8253 245.148 55.6417 245.291 55.4868C245.433 55.3318 245.607 55.2089 245.801 55.1264C245.995 55.0439 246.204 55.0036 246.414 55.0082L249.258 55.0622C249.461 55.0641 249.661 55.1075 249.847 55.1897C250.032 55.2719 250.199 55.3911 250.336 55.54C250.474 55.6889 250.58 55.8643 250.647 56.0556C250.714 56.2468 250.742 56.4499 250.728 56.6522Z" fill="#375E73"/>
<path d="M245.118 75.5041C245.296 76.0374 245.629 76.506 246.073 76.8505C246.517 77.195 247.054 77.4001 247.615 77.4397C248.176 77.4794 248.736 77.3519 249.224 77.0733C249.713 76.7947 250.108 76.3776 250.359 75.8747C250.611 75.3717 250.708 74.8055 250.637 74.2476C250.567 73.6897 250.333 73.1651 249.965 72.7402C249.596 72.3152 249.11 72.009 248.568 71.8602C248.026 71.7114 247.452 71.7266 246.918 71.9041C246.203 72.1437 245.611 72.6572 245.274 73.332C244.937 74.0069 244.881 74.788 245.118 75.5041Z" fill="#375E73"/>
<path d="M235.26 203.13C235.225 202.57 235.055 202.027 234.766 201.547C234.477 201.066 234.076 200.663 233.598 200.37C218.844 190.602 207.72 168.954 206.598 150.624C206.568 149.58 206.538 148.524 206.502 147.456C205.578 119.898 201.702 88.1757 198.324 80.9937C191.094 65.7117 170.256 63.8757 170.256 63.8757C141.486 61.8177 136.35 83.9277 133.446 104.076C131.646 116.598 124.68 161.328 124.68 161.328L129.966 163.374C136.2 181.8 150.222 196.734 168.456 203.598C173.76 205.596 178.254 206.4 180.36 204.684C188.773 213.221 199.174 219.536 210.63 223.062C215.28 224.472 220.146 225.42 224.982 224.964C228.126 224.67 231.438 223.632 233.31 221.094C234.127 219.994 234.614 218.685 234.713 217.319C234.812 215.953 234.519 214.586 233.869 213.381C233.219 212.175 232.239 211.18 231.043 210.512C229.847 209.844 228.485 209.531 227.118 209.61C228.21 206.07 235.386 207.114 235.26 203.13Z" fill="#263238"/>
<path d="M180.534 148.716C180.534 148.716 191.052 144.198 196.482 143.172C201.912 142.146 239.856 132.372 239.856 132.372L200.694 98.8138L209.334 88.3018C209.334 88.3018 238.422 105.66 259.104 119.502C259.241 119.579 259.371 119.667 259.494 119.766C271.254 129.024 267.138 145.152 255.06 152.73C249.06 156.504 222.66 167.874 217.578 170.364C207.378 175.332 207.528 175.164 207.528 175.164L180.534 148.716Z" fill="#FFBF9D"/>
<path d="M174.084 72.0002L172.284 70.2842L152.832 78.1202C151.473 78.1893 150.19 78.7691 149.24 79.7437C148.29 80.7182 147.743 82.0156 147.708 83.3762L147.876 146.748C147.876 151.05 148.71 154.77 151.308 158.196L154.038 161.796C160.266 170.022 173.082 169.344 178.038 160.284C178.335 159.77 178.565 159.219 178.722 158.646C178.847 158.178 178.943 157.704 179.01 157.224C179.61 152.13 179.61 147.708 179.61 147.708C179.958 142.11 180.072 139.812 180.072 139.866C180.072 139.92 191.988 138.492 195.21 123.204C196.812 115.596 196.506 105.132 196.056 94.8362C195.42 80.5982 185.538 72.0002 174.084 72.0002Z" fill="#FFBF9D"/>
<path d="M172.878 105C172.858 105.515 172.636 106.002 172.262 106.356C171.888 106.711 171.389 106.904 170.874 106.896C170.621 106.903 170.37 106.86 170.134 106.769C169.899 106.677 169.684 106.54 169.502 106.364C169.321 106.189 169.176 105.979 169.077 105.747C168.977 105.514 168.925 105.265 168.924 105.012C168.946 104.497 169.167 104.011 169.541 103.656C169.915 103.301 170.412 103.105 170.928 103.11C171.181 103.103 171.433 103.146 171.669 103.238C171.905 103.33 172.12 103.468 172.301 103.644C172.483 103.82 172.628 104.031 172.727 104.264C172.826 104.497 172.877 104.747 172.878 105Z" fill="#263238"/>
<path d="M192.18 105.563C192.159 106.08 191.938 106.568 191.562 106.924C191.186 107.279 190.687 107.474 190.17 107.465C189.918 107.472 189.667 107.428 189.432 107.336C189.197 107.245 188.983 107.107 188.802 106.932C188.621 106.756 188.477 106.546 188.378 106.315C188.279 106.083 188.227 105.834 188.226 105.581C188.244 105.065 188.465 104.577 188.839 104.221C189.214 103.866 189.713 103.671 190.23 103.679C190.482 103.672 190.733 103.716 190.969 103.807C191.204 103.898 191.419 104.036 191.601 104.211C191.783 104.387 191.927 104.597 192.027 104.829C192.126 105.061 192.178 105.311 192.18 105.563Z" fill="#263238"/>
<path d="M194.01 98.9213C193.752 99.1673 192.312 97.9853 190.182 97.8833C188.052 97.7813 186.444 98.7653 186.228 98.4833C186.12 98.3633 186.39 97.8833 187.098 97.4453C188.05 96.8559 189.161 96.5751 190.278 96.6413C191.384 96.6919 192.445 97.0933 193.308 97.7873C193.938 98.3333 194.136 98.8133 194.01 98.9213Z" fill="#263238"/>
<path d="M172.422 99.1433C172.14 99.3593 170.826 98.0333 168.72 97.7153C166.614 97.3973 164.91 98.2133 164.724 97.9193C164.628 97.7873 164.94 97.3613 165.696 96.9773C166.703 96.4879 167.836 96.3203 168.942 96.4973C170.039 96.6619 171.054 97.1728 171.84 97.9553C172.41 98.5493 172.56 99.0473 172.422 99.1433Z" fill="#263238"/>
<path d="M179.856 114.63C179.856 114.504 181.182 114.342 183.342 114.18C183.888 114.15 184.404 114.066 184.542 113.7C184.612 113.142 184.514 112.576 184.26 112.074L182.862 107.874C180.924 101.874 179.55 96.9478 179.796 96.8758C180.042 96.8038 181.8 101.598 183.738 107.604C184.198 109.08 184.642 110.492 185.07 111.84C185.244 112.44 185.562 113.184 185.244 113.988C185.155 114.175 185.024 114.34 184.862 114.47C184.7 114.6 184.51 114.691 184.308 114.738C184.002 114.802 183.69 114.828 183.378 114.816C181.2 114.804 179.856 114.75 179.856 114.63Z" fill="#263238"/>
<path d="M180.06 139.878C172.797 139.622 165.748 137.356 159.696 133.332C159.696 133.332 164.352 144.264 179.85 143.598L180.06 139.878Z" fill="#FF9A6C"/>
<path d="M164.916 90.8577C164.994 90.2577 167.124 90.0417 169.494 89.1897C171.864 88.3377 173.694 87.2217 174.12 87.6537C174.318 87.8637 174.12 88.4697 173.43 89.2017C172.522 90.114 171.419 90.8079 170.204 91.231C168.989 91.654 167.694 91.7952 166.416 91.6437C165.444 91.4877 164.892 91.1457 164.916 90.8577Z" fill="#263238"/>
<path d="M192.6 90.8396C192.198 91.3016 190.758 90.7256 189 90.6116C187.242 90.4976 185.724 90.7736 185.4 90.2516C185.262 89.9996 185.526 89.5256 186.198 89.1056C187.1 88.5997 188.133 88.374 189.164 88.4574C190.195 88.5407 191.178 88.9293 191.988 89.5736C192.6 90.1016 192.756 90.5996 192.6 90.8396Z" fill="#263238"/>
<path d="M148.092 110.43C148.092 110.43 158.988 113.82 165.156 86.9281C167.262 77.7361 175.788 70.2901 175.788 70.2901L172.332 69.2461C172.332 69.2461 150.846 75.3001 150.48 75.6001C150.114 75.9001 145.08 86.7121 145.08 86.7121L148.092 110.43Z" fill="#263238"/>
<path d="M150.78 109.427C150.834 108.281 149.64 105.503 148.518 105.269C145.518 104.669 140.046 104.615 139.608 112.301C139.008 122.807 149.682 121.241 149.718 120.941C149.754 120.641 150.6 113.399 150.78 109.427Z" fill="#FFBF9D"/>
<path d="M146.736 116.777C146.694 116.741 146.544 116.897 146.226 117.023C145.781 117.186 145.289 117.167 144.858 116.969C143.772 116.501 142.938 114.683 142.992 112.769C143.02 111.868 143.245 110.983 143.652 110.177C143.769 109.855 143.963 109.566 144.217 109.335C144.471 109.104 144.778 108.938 145.11 108.851C145.323 108.808 145.545 108.84 145.737 108.943C145.929 109.046 146.079 109.213 146.16 109.415C146.286 109.715 146.208 109.925 146.262 109.943C146.316 109.961 146.496 109.781 146.436 109.343C146.391 109.08 146.261 108.84 146.064 108.659C145.784 108.426 145.425 108.31 145.062 108.335C144.626 108.397 144.214 108.569 143.863 108.835C143.512 109.1 143.235 109.451 143.058 109.853C142.553 110.754 142.278 111.767 142.26 112.799C142.206 114.917 143.178 116.957 144.66 117.485C144.938 117.584 145.234 117.618 145.527 117.586C145.82 117.553 146.102 117.456 146.352 117.299C146.7 117.029 146.772 116.801 146.736 116.777Z" fill="#FF9A6C"/>
<path d="M155.484 105.288C155.484 105.252 156.084 105.246 157.056 104.97C158.455 104.544 159.736 103.801 160.8 102.798C161.535 102.113 162.19 101.346 162.75 100.512C163.377 99.5411 163.91 98.5124 164.34 97.4397C165.246 94.9413 166.002 92.3907 166.602 89.8017C167.273 87.2189 168.074 84.6717 169.002 82.1697C169.763 80.1257 170.678 78.142 171.738 76.2357C172.452 74.95 173.254 73.7151 174.138 72.5397C174.45 72.1257 174.738 71.8257 174.894 71.6097C174.974 71.4975 175.066 71.3948 175.17 71.3037C175.101 71.4238 175.023 71.5381 174.936 71.6457C174.78 71.8677 174.522 72.1797 174.228 72.6057C173.378 73.799 172.603 75.0433 171.906 76.3317C170.876 78.2415 169.983 80.2225 169.236 82.2597C168.372 84.5577 167.586 87.1377 166.836 89.8737C166.232 92.4735 165.464 95.0326 164.538 97.5357C164.102 98.6233 163.555 99.6628 162.906 100.638C162.33 101.483 161.655 102.257 160.896 102.942C159.804 103.951 158.484 104.681 157.05 105.072C156.54 105.214 156.013 105.286 155.484 105.288Z" fill="#263238"/>
<path d="M141.126 150.114C141.069 149.95 141.031 149.781 141.012 149.61C140.946 149.238 140.856 148.746 140.742 148.116L139.8 142.41L140.052 142.374C140.106 142.758 140.166 143.178 140.226 143.616V143.574L140.448 144.048L140.184 144.144C138.575 138.613 137.443 132.954 136.8 127.23C136.394 123.598 136.179 119.946 136.158 116.292C136.194 112.452 136.158 108.372 137.196 104.292C137.613 102.612 138.257 100.997 139.11 99.4917C139.945 98.0515 140.918 96.6953 142.014 95.4417C144.15 92.9757 146.454 90.8517 148.554 88.7457L159.834 77.6457C163.038 74.5197 165.642 71.9817 167.466 70.1937L169.56 68.1897L170.112 67.6737C170.171 67.6101 170.24 67.5555 170.316 67.5117C170.267 67.5834 170.211 67.6498 170.148 67.7097L169.632 68.2557L167.598 70.3257L160.074 77.8917L148.866 89.0577C146.772 91.1757 144.474 93.3117 142.374 95.7477C140.128 98.2093 138.512 101.178 137.664 104.4C136.656 108.384 136.668 112.446 136.626 116.268C136.657 125.656 137.94 134.999 140.442 144.048L140.178 144.144C140.106 143.982 140.028 143.814 139.968 143.67C139.914 143.232 139.86 142.806 139.812 142.428L140.064 142.386C140.418 144.834 140.694 146.76 140.892 148.11C140.976 148.746 141.042 149.244 141.09 149.616C141.115 149.78 141.127 149.947 141.126 150.114Z" fill="#455A64"/>
<path d="M132.852 101.544C132.891 101.387 132.954 101.237 133.038 101.1L133.638 99.8636C134.172 98.7956 135.012 97.2776 136.11 95.4476C137.208 93.6176 138.612 91.4816 140.268 89.1836C141.924 86.8856 143.868 84.4676 146.058 82.0316C148.248 79.5956 150.468 77.4176 152.562 75.5096C154.656 73.6016 156.63 71.9936 158.346 70.7096C160.062 69.4256 161.466 68.4236 162.474 67.7816L163.638 67.0376C163.768 66.9447 163.909 66.8681 164.058 66.8096C163.949 66.9283 163.827 67.0331 163.692 67.1216L162.6 67.9316C161.628 68.6216 160.242 69.6596 158.568 70.9796C156.894 72.2996 154.968 73.9376 152.874 75.8336C150.78 77.7296 148.614 79.9376 146.436 82.3496C144.258 84.7616 142.332 87.1916 140.64 89.4476C138.948 91.7036 137.544 93.8156 136.44 95.6216C135.336 97.4276 134.424 98.9096 133.842 99.9536L133.152 101.154C133.068 101.295 132.967 101.426 132.852 101.544Z" fill="#455A64"/>
<path d="M226.38 279.6L211.314 233.688L210.114 190.056C209.748 182.532 209.19 171.528 209.19 171.528C204.276 156.156 188.652 143.178 188.652 143.178L179.784 144.504C179.448 154.104 164.784 162.81 154.272 156.45C150.378 153.654 147.384 146.778 147.384 146.778L129.498 155.4L141.786 243.222C141.786 243.222 129.666 265.836 129.666 279.564L226.38 279.6Z" fill="#455A64"/>
<g opacity="0.3">
<path d="M140.586 232.758C142.788 238.374 147.114 243.318 152.772 245.406C158.43 247.494 165.372 246.312 169.452 241.86C171.954 239.13 173.202 235.482 174 231.864C174.65 228.674 175.139 225.454 175.464 222.216C177.36 205.788 178.74 189.216 177.222 172.734L174.978 153.726L168.486 157.386L165.486 225.078L140.586 232.758Z" fill="black"/>
</g>
<path d="M180 144.138C180 144.138 193.038 140.862 203.64 140.58L221.226 136.14L224.226 167.556L207.432 178.32L180 144.138Z" fill="#455A64"/>
<path d="M148.956 192.443L118.086 207.935C118.086 207.935 109.536 162.119 129.408 155.399L130.56 161.903L148.956 192.443Z" fill="#455A64"/>
<path d="M208.23 153.029C208.23 153.029 208.23 153.101 208.23 153.233C208.23 153.365 208.26 153.593 208.278 153.833C208.314 154.391 208.368 155.177 208.428 156.179C208.56 158.219 208.716 161.171 208.902 164.813C209.268 172.109 209.7 182.213 210.102 193.319C210.504 204.425 210.828 214.541 211.032 221.837C211.122 225.473 211.2 228.437 211.248 230.483C211.248 231.485 211.284 232.283 211.29 232.835C211.29 233.087 211.29 233.291 211.29 233.435C211.299 233.503 211.299 233.572 211.29 233.639C211.282 233.572 211.282 233.503 211.29 233.435C211.29 233.279 211.278 233.079 211.254 232.835C211.254 232.277 211.194 231.491 211.152 230.483C211.074 228.425 210.966 225.479 210.834 221.843C210.57 214.529 210.234 204.443 209.814 193.331C209.394 182.219 208.986 172.139 208.704 164.825C208.542 161.189 208.416 158.225 208.326 156.185C208.284 155.183 208.254 154.385 208.23 153.839V153.239C208.22 153.17 208.22 153.099 208.23 153.029Z" fill="#263238"/>
<path d="M118.086 207.936C118.086 207.936 118.122 207.906 118.206 207.858L118.584 207.648L120.048 206.88L125.448 204.114L143.346 195.078L147.102 193.2L147.024 193.392C146.494 191.827 145.869 190.296 145.152 188.808C144.462 187.356 143.952 185.916 143.406 184.56C142.386 181.842 141.324 179.478 140.46 177.492C139.596 175.506 138.912 173.892 138.474 172.8C138.258 172.242 138.09 171.81 137.988 171.51C137.928 171.364 137.88 171.213 137.844 171.06C137.921 171.198 137.987 171.343 138.042 171.492L138.576 172.752C139.05 173.856 139.776 175.44 140.646 177.408C141.516 179.376 142.62 181.746 143.646 184.464C144.174 185.814 144.72 187.248 145.41 188.664C146.132 190.158 146.763 191.695 147.3 193.266L147.354 193.398L147.228 193.464L143.478 195.348L125.532 204.3L120.102 207L118.614 207.72L118.224 207.894C118.18 207.915 118.134 207.929 118.086 207.936Z" fill="#263238"/>
<path d="M182.352 119.79C181.162 118.964 179.775 118.467 178.332 118.35C177.881 118.293 177.423 118.34 176.994 118.488C176.685 118.637 176.411 118.851 176.192 119.115C175.972 119.379 175.812 119.687 175.722 120.018C175.549 120.681 175.473 121.366 175.494 122.052C175.472 122.312 175.514 122.573 175.614 122.814C175.756 123.008 175.943 123.165 176.16 123.269C176.376 123.374 176.615 123.423 176.856 123.414C178.487 123.549 180.125 123.248 181.602 122.544" fill="#FF9A6C"/>
<path d="M122.01 205.962C128.322 220.626 140.316 235.512 147.708 238.236C158.718 242.292 167.832 240.276 172.056 226.836C176.28 213.396 173.568 153.756 173.568 153.756L155.208 152.706L151.8 204.108C151.8 204.108 149.772 200.118 146.202 193.824" fill="#FFBF9D"/>
<path d="M200.694 98.8073L196.068 95.4353L195.36 89.6393C195.36 89.6393 187.008 89.8553 186.498 85.3793C186.498 85.3793 181.698 86.6573 181.914 81.9233C181.914 81.9233 179.466 80.2613 180.36 78.7313C181.254 77.2013 188.16 74.9093 188.556 74.7833C188.952 74.6573 193.464 73.6973 193.464 73.6973L192.126 72.2093L188.526 72.5933C188.526 72.5933 186.354 74.6393 184.56 74.8913C182.766 75.1433 182.646 74.3813 182.646 74.3813C182.646 74.3813 180.6 72.2093 183.282 70.0313C185.579 68.2773 188.328 67.2138 191.208 66.9653C193.008 66.8393 195.408 70.2893 195.408 70.2893L197.352 73.7393C197.352 73.7393 201.192 73.2293 202.47 76.1393V78.1853C202.47 78.1853 205.284 77.8013 206.436 81.1313L207.204 84.0713C207.204 84.0713 210.528 88.4153 210.654 90.2093" fill="#FFBF9D"/>
<path d="M210.666 90.24C210.666 90.24 210.636 90.078 210.558 89.784C210.418 89.3496 210.242 88.928 210.03 88.524C209.188 86.9916 208.225 85.5289 207.15 84.15V84.12C206.916 83.244 206.652 82.248 206.37 81.18C206.117 80.3878 205.655 79.6787 205.032 79.128C204.327 78.5397 203.421 78.2491 202.506 78.318H202.386V78.198C202.386 77.568 202.386 76.872 202.386 76.152V76.2C201.997 75.3265 201.289 74.6351 200.406 74.268C199.455 73.8862 198.425 73.744 197.406 73.854H197.322L197.28 73.782L195.324 70.332C194.9 69.7432 194.435 69.1858 193.932 68.664C193.432 68.1205 192.849 67.6607 192.204 67.302C191.884 67.1366 191.525 67.0599 191.166 67.08C190.788 67.08 190.41 67.17 190.026 67.23C189.252 67.3754 188.49 67.5759 187.746 67.83C186.204 68.3231 184.762 69.0848 183.486 70.08C182.823 70.5493 182.343 71.2343 182.13 72.018C182.067 72.4166 182.094 72.8242 182.208 73.2112C182.322 73.5983 182.521 73.9551 182.79 74.256H182.82V74.31C182.866 74.4015 182.933 74.4811 183.015 74.5425C183.097 74.6039 183.193 74.6455 183.294 74.664C183.532 74.7275 183.779 74.7538 184.026 74.742C184.545 74.7271 185.057 74.611 185.532 74.4C186.517 73.9358 187.429 73.3293 188.238 72.6L188.442 72.414L188.484 72.378H188.532L192.132 71.994H192.21L192.264 72.054L193.602 73.548L193.782 73.746L193.518 73.806L188.868 74.832C187.397 75.28 185.951 75.8047 184.536 76.404C183.84 76.692 183.162 77.004 182.502 77.334C181.847 77.633 181.241 78.0273 180.702 78.504C180.475 78.7387 180.343 79.0482 180.33 79.374C180.334 79.7054 180.429 80.0293 180.606 80.31C180.976 80.8794 181.453 81.3724 182.01 81.762L182.07 81.804V81.888C182.07 82.182 182.07 82.488 182.1 82.77C182.129 83.0587 182.194 83.3427 182.292 83.616C182.461 84.1519 182.819 84.6081 183.3 84.9C184.286 85.3908 185.418 85.4997 186.48 85.206L186.6 85.2V85.338C186.659 85.815 186.816 86.2747 187.062 86.6878C187.308 87.1009 187.637 87.4585 188.028 87.738C188.769 88.2694 189.6 88.6618 190.482 88.896C192.063 89.3301 193.696 89.5441 195.336 89.532H195.426V89.616C195.696 91.914 195.924 93.816 196.11 95.418V95.37L199.53 97.902L200.406 98.562L200.694 98.796L200.382 98.592L199.488 97.962L196.032 95.478V95.442C195.828 93.858 195.588 91.944 195.294 89.652L195.396 89.736C193.734 89.7663 192.076 89.5644 190.47 89.136C189.56 88.8937 188.701 88.487 187.938 87.936C187.519 87.6418 187.166 87.2637 186.902 86.8257C186.637 86.3877 186.467 85.8994 186.402 85.392L186.558 85.5C186.004 85.6334 185.434 85.6859 184.866 85.656C184.272 85.633 183.691 85.4685 183.174 85.176C182.64 84.8522 182.239 84.3477 182.046 83.754C181.94 83.4614 181.869 83.1573 181.836 82.848C181.8 82.542 181.836 82.248 181.806 81.918L181.866 82.044C181.271 81.6353 180.765 81.1108 180.378 80.502C180.173 80.1762 180.061 79.8007 180.054 79.416C180.067 79.0155 180.229 78.6344 180.51 78.348C181.068 77.8491 181.697 77.4347 182.376 77.118C183.042 76.776 183.726 76.464 184.428 76.176C185.849 75.5717 187.301 75.041 188.778 74.586L193.464 73.548L193.38 73.806L192 72.312L192.132 72.366L188.532 72.75L188.622 72.708L188.406 72.9C187.573 73.6455 186.635 74.2642 185.622 74.736C185.111 74.9615 184.56 75.0838 184.002 75.096C183.721 75.1106 183.439 75.0802 183.168 75.006C183.01 74.975 182.864 74.9033 182.743 74.798C182.622 74.6927 182.53 74.5576 182.478 74.406L182.52 74.49C182.221 74.1552 182.002 73.7577 181.877 73.3267C181.752 72.8958 181.726 72.4424 181.8 72C181.9 71.5666 182.088 71.1583 182.352 70.8C182.496 70.632 182.628 70.464 182.784 70.308C182.94 70.152 183.096 70.014 183.264 69.882C184.572 68.868 186.048 68.0921 187.626 67.59C188.385 67.3352 189.16 67.1347 189.948 66.99C190.338 66.93 190.722 66.87 191.118 66.84C191.533 66.8155 191.947 66.9025 192.318 67.092C192.989 67.4679 193.597 67.9479 194.118 68.514C194.629 69.0502 195.102 69.6216 195.534 70.224L197.472 73.686L197.346 73.62C198.413 73.5045 199.492 73.6593 200.484 74.07C201.424 74.4614 202.176 75.2009 202.584 76.134V76.2C202.584 76.92 202.584 77.616 202.584 78.246L202.464 78.138C203.439 78.0701 204.401 78.3867 205.146 79.02C205.788 79.5985 206.264 80.3379 206.526 81.162C206.802 82.23 207.054 83.226 207.282 84.102C208.349 85.4966 209.294 86.98 210.108 88.536C210.314 88.9473 210.481 89.3772 210.606 89.82C210.638 89.958 210.658 90.0985 210.666 90.24Z" fill="#FF9A6C"/>
<path d="M202.44 92.5913C202.404 92.6213 202.098 92.3093 201.528 91.8953C200.787 91.3674 199.98 90.9397 199.128 90.6233C198.266 90.2959 197.384 90.0253 196.488 89.8133C195.798 89.6873 195.354 89.6993 195.348 89.6453C195.729 89.5423 196.129 89.5259 196.518 89.5973C197.447 89.7467 198.357 89.992 199.236 90.3293C200.127 90.6502 200.957 91.1209 201.69 91.7213C202.002 91.9513 202.258 92.2487 202.44 92.5913Z" fill="#FF9A6C"/>
<path d="M203.796 84.1737C203.568 84.2318 203.334 84.26 203.1 84.2577L201.204 84.3657C199.602 84.4437 197.388 84.5277 194.946 84.6057L191.496 84.6957C190.563 84.6968 189.632 84.7509 188.706 84.8577C188.08 84.9248 187.462 85.0452 186.858 85.2177C186.438 85.3497 186.216 85.4637 186.204 85.4397C186.38 85.2893 186.583 85.1751 186.804 85.1037C187.401 84.8827 188.021 84.7259 188.652 84.6357C189.586 84.5014 190.528 84.4253 191.472 84.4077L194.922 84.2877C197.364 84.2157 199.578 84.1677 201.18 84.1437H203.076C203.316 84.1299 203.557 84.1399 203.796 84.1737Z" fill="#FF9A6C"/>
<path d="M199.944 78.7919C199.717 78.869 199.481 78.9174 199.242 78.9359L197.316 79.2239C195.684 79.4639 193.44 79.8239 190.974 80.2739C188.508 80.7239 186.282 81.2039 184.674 81.5579L182.772 81.9779C182.541 82.0422 182.303 82.0824 182.064 82.0979C182.279 81.9887 182.506 81.908 182.742 81.8579C183.18 81.7259 183.828 81.5519 184.626 81.3419C186.222 80.9339 188.442 80.4239 190.914 79.9619C193.386 79.4999 195.648 79.1879 197.286 79.0079C198.102 78.9119 198.768 78.8459 199.23 78.8159C199.466 78.7829 199.706 78.7748 199.944 78.7919Z" fill="#FF9A6C"/>
<path d="M192.348 69.9658C192.426 69.9658 192.648 70.4398 192.612 71.1058C192.576 71.7718 192.312 72.2518 192.234 72.2158C192.156 72.1798 192.276 71.6938 192.3 71.0878C192.324 70.4818 192.258 69.9898 192.348 69.9658Z" fill="#FF9A6C"/>
<path d="M135.306 110.448C140.4 117.168 153.6 136.626 159 143.586C160.134 145.056 163.44 144.516 164.898 143.364C168.366 140.64 174.438 135.9 178.062 133.296C178.426 133.035 178.734 132.704 178.967 132.322C179.2 131.939 179.354 131.514 179.419 131.071C179.484 130.628 179.459 130.176 179.345 129.743C179.232 129.31 179.032 128.904 178.758 128.55L153 95.1C152.718 94.7339 152.363 94.4303 151.958 94.2085C151.553 93.9867 151.106 93.8514 150.646 93.8114C150.185 93.7713 149.722 93.8273 149.284 93.9758C148.847 94.1243 148.445 94.3621 148.104 94.674L135.732 105.972C135.117 106.531 134.732 107.3 134.654 108.128C134.575 108.955 134.807 109.783 135.306 110.448Z" fill="#455A64"/>
<path d="M154.74 212.004L151.8 204.108L155.196 152.718C155.196 152.718 148.44 140.4 147.684 137.67C146.928 134.94 146.742 127.11 146.742 127.11L151.476 132.6C151.476 132.6 151.608 123.162 151.608 120C151.608 120 152.28 108.138 152.394 106.488C152.508 104.838 154.194 103.962 155.256 103.962C156.318 103.962 157.374 105.918 157.374 105.918L158.82 125.328C158.82 125.328 161.22 115.128 162.108 113.766C162.996 112.404 166.134 111.768 168.24 111.918H168.3C168.653 111.968 168.984 112.121 169.25 112.36C169.516 112.598 169.705 112.91 169.793 113.256C169.882 113.602 169.865 113.967 169.745 114.303C169.626 114.64 169.408 114.933 169.122 115.146L166.344 117.09L165.294 126.828C165.294 126.828 167.85 118.428 169.206 117.342C170.562 116.256 172.968 117.342 173.406 118.542C173.844 119.742 172.206 122.142 172.206 122.142L171.75 128.142C171.75 128.142 173.55 125.586 174.444 124.23C175.338 122.874 177.624 124.23 177.9 124.83C178.176 125.43 176.28 132 176.28 132L173.568 153.798L174.426 185.184" fill="#FFBF9D"/>
<path d="M174.426 185.154C174.426 185.154 174.426 184.974 174.426 184.614C174.426 184.254 174.396 183.714 174.366 183.018C174.324 181.608 174.258 179.532 174.174 176.838C174.018 171.438 173.79 163.602 173.502 153.774C174.294 147.33 175.2 140.016 176.19 131.976C176.544 130.776 176.886 129.528 177.204 128.268C177.366 127.638 177.522 127.002 177.654 126.36C177.72 126.036 177.78 125.712 177.822 125.388C177.84 125.246 177.84 125.103 177.822 124.962C177.741 124.836 177.642 124.722 177.528 124.626C177.029 124.206 176.417 123.943 175.77 123.87C175.459 123.832 175.146 123.909 174.888 124.086C174.649 124.306 174.446 124.563 174.288 124.848L171.888 128.298L171.606 128.712L171.642 128.214C171.78 126.348 171.936 124.284 172.092 122.214V122.178V122.148C172.513 121.519 172.861 120.845 173.13 120.138C173.263 119.793 173.335 119.427 173.34 119.058C173.326 118.699 173.171 118.36 172.908 118.116C172.369 117.581 171.669 117.239 170.916 117.144C170.55 117.068 170.17 117.1 169.822 117.235C169.474 117.37 169.173 117.603 168.954 117.906C168.528 118.575 168.164 119.282 167.868 120.018C167.562 120.756 167.268 121.506 166.986 122.274C166.428 123.798 165.912 125.358 165.42 126.936L165.132 126.876C165.462 123.816 165.822 120.504 166.182 117.144V117L166.242 116.964L168.87 115.122C169.088 114.995 169.275 114.822 169.419 114.615C169.562 114.407 169.657 114.17 169.698 113.922C169.735 113.675 169.717 113.424 169.646 113.185C169.574 112.947 169.45 112.727 169.284 112.542C169.108 112.362 168.895 112.222 168.66 112.133C168.425 112.044 168.173 112.007 167.922 112.026C167.385 112.011 166.847 112.035 166.314 112.098C165.237 112.206 164.188 112.507 163.218 112.986C162.744 113.213 162.356 113.585 162.108 114.048C161.874 114.544 161.673 115.055 161.508 115.578C161.172 116.628 160.866 117.702 160.578 118.782C159.998 120.942 159.45 123.126 158.934 125.334L158.7 126.312L158.622 125.31C158.43 122.694 158.22 119.91 158.022 117.06C157.738 113.304 157.46 109.584 157.188 105.9V105.966C156.864 105.344 156.42 104.793 155.88 104.346C155.352 103.902 154.62 104.112 154.008 104.4C153.387 104.686 152.899 105.199 152.646 105.834C152.535 106.156 152.48 106.495 152.484 106.836L152.418 107.904C152.254 110.736 152.09 113.536 151.926 116.304C151.854 117.69 151.74 119.07 151.704 120.438C151.668 121.806 151.704 123.174 151.662 124.536C151.634 127.248 151.606 129.924 151.578 132.564V132.96L151.32 132.66L146.634 127.2L146.886 127.098C146.958 129.534 147.078 131.94 147.306 134.298C147.393 135.461 147.577 136.615 147.858 137.748C148.249 138.829 148.702 139.886 149.214 140.916C151.206 145.032 153.3 148.932 155.322 152.658V152.694C153.714 176.4 152.484 194.568 151.842 204.084C152.808 206.73 153.534 208.704 154.02 210.024C154.254 210.678 154.434 211.17 154.554 211.5C154.674 211.83 154.722 211.998 154.722 211.998L154.53 211.512L153.972 210.042C153.474 208.728 152.736 206.76 151.74 204.12C152.34 194.604 153.54 176.43 155.064 152.724V152.79C153.036 149.064 150.936 145.17 148.932 141.042C148.41 140.002 147.951 138.932 147.558 137.838C147.255 136.692 147.055 135.521 146.958 134.34C146.724 131.976 146.604 129.57 146.532 127.14V126.732L146.802 127.044L151.536 132.534L151.272 132.63C151.3 129.982 151.328 127.302 151.356 124.59C151.356 123.234 151.37 121.87 151.398 120.498C151.428 119.124 151.542 117.744 151.614 116.358C151.778 113.582 151.942 110.782 152.106 107.958L152.166 106.896C152.167 106.524 152.228 106.156 152.346 105.804C152.632 105.096 153.174 104.522 153.864 104.196C154.202 104.028 154.564 103.917 154.938 103.866C155.138 103.837 155.343 103.852 155.538 103.908C155.725 103.967 155.901 104.057 156.06 104.172C156.638 104.646 157.115 105.232 157.464 105.894V105.924V105.96C157.74 109.636 158.018 113.354 158.298 117.114C158.508 119.94 158.718 122.748 158.898 125.364H158.592C159.116 123.156 159.666 120.968 160.242 118.8C160.53 117.72 160.842 116.646 161.178 115.584C161.341 115.044 161.542 114.517 161.778 114.006C162.053 113.483 162.488 113.063 163.02 112.806C164.022 112.304 165.108 111.993 166.224 111.888C166.773 111.819 167.327 111.793 167.88 111.81C168.17 111.79 168.462 111.834 168.734 111.937C169.007 112.041 169.253 112.202 169.458 112.41C169.757 112.737 169.936 113.157 169.964 113.6C169.992 114.043 169.869 114.482 169.614 114.846C169.451 115.08 169.248 115.283 169.014 115.446L166.386 117.282L166.446 117.174C166.086 120.54 165.726 123.852 165.39 126.906L165.102 126.846C165.594 125.246 166.118 123.688 166.674 122.172C166.956 121.404 167.274 120.648 167.568 119.904C167.872 119.149 168.246 118.424 168.684 117.738C168.805 117.562 168.95 117.404 169.116 117.27C169.29 117.145 169.479 117.044 169.68 116.97C170.078 116.842 170.501 116.805 170.916 116.862C171.734 116.968 172.494 117.339 173.082 117.918C173.387 118.218 173.567 118.623 173.586 119.052C173.58 119.462 173.503 119.868 173.358 120.252C173.082 120.981 172.722 121.676 172.284 122.322V122.256C172.122 124.35 171.966 126.414 171.828 128.256L171.582 128.166L173.982 124.728L174.276 124.302C174.379 124.145 174.509 124.007 174.66 123.894C174.968 123.681 175.343 123.587 175.716 123.63C176.419 123.712 177.083 124 177.624 124.458C177.769 124.573 177.892 124.716 177.984 124.878C178.019 125.064 178.019 125.255 177.984 125.442C177.942 125.778 177.882 126.108 177.816 126.432C177.678 127.086 177.522 127.722 177.36 128.358C177.036 129.618 176.688 130.854 176.34 132.066C175.332 140.106 174.414 147.42 173.61 153.864C173.856 163.698 174.054 171.54 174.21 176.934C174.27 179.622 174.318 181.698 174.348 183.114C174.348 183.81 174.348 184.344 174.378 184.71C174.408 185.076 174.426 185.154 174.426 185.154Z" fill="#FF9A6C"/>
<path d="M151.8 143.586C151.685 142.882 151.627 142.169 151.626 141.456C151.56 140.136 151.494 138.318 151.44 136.302C151.386 134.286 151.35 132.468 151.338 131.148C151.304 130.435 151.322 129.721 151.392 129.012C151.498 129.717 151.554 130.429 151.56 131.142C151.626 132.462 151.692 134.28 151.752 136.296C151.812 138.312 151.842 140.13 151.848 141.45C151.881 142.162 151.865 142.876 151.8 143.586Z" fill="#FF9A6C"/>
<path d="M181.602 122.526C181.42 122.663 181.218 122.771 181.002 122.844C180.444 123.091 179.861 123.274 179.262 123.39C178.369 123.568 177.455 123.609 176.55 123.51C176.268 123.475 175.999 123.375 175.764 123.216C175.638 123.123 175.535 123.003 175.461 122.865C175.387 122.727 175.345 122.574 175.338 122.418C175.312 121.839 175.334 121.259 175.404 120.684C175.468 120.092 175.688 119.527 176.04 119.046C176.209 118.814 176.424 118.618 176.672 118.473C176.919 118.327 177.195 118.234 177.48 118.2C178.395 118.152 179.31 118.284 180.174 118.59C180.748 118.791 181.294 119.063 181.8 119.4C181.997 119.506 182.175 119.644 182.328 119.808C181.611 119.415 180.86 119.087 180.084 118.83C179.248 118.57 178.372 118.464 177.498 118.518C177.254 118.549 177.019 118.631 176.807 118.757C176.595 118.882 176.412 119.05 176.268 119.25C175.952 119.692 175.758 120.209 175.704 120.75C175.639 121.302 175.615 121.857 175.632 122.412C175.632 122.928 176.106 123.174 176.586 123.24C177.46 123.35 178.345 123.334 179.214 123.192C180.024 123.025 180.822 122.803 181.602 122.526Z" fill="#263238"/>
<path d="M250.428 135.599C249.888 135.67 249.342 135.67 248.802 135.599C246.179 135.422 243.624 134.688 241.308 133.445C240.816 133.214 240.358 132.917 239.946 132.563C240.446 132.76 240.933 132.989 241.404 133.247C242.566 133.8 243.769 134.259 245.004 134.621C246.245 134.976 247.513 135.229 248.796 135.377C249.344 135.419 249.889 135.493 250.428 135.599Z" fill="#FF9A6C"/>
</svg>
