<svg width="24" height="25" viewBox="0 0 24 25" fill="none" xmlns="http://www.w3.org/2000/svg">
<circle cx="12" cy="12.3418" r="12" fill="#3C3C3C"/>
<g clip-path="url(#clip0_1165_12959)">
<path d="M12.7792 8.25838C13.3489 8.36955 13.8726 8.6482 14.283 9.05868C14.6935 9.46916 14.9722 9.99279 15.0833 10.5625M12.7792 5.92505C13.9629 6.05655 15.0668 6.58665 15.9095 7.4283C16.7522 8.26996 17.2837 9.37314 17.4167 10.5567M16.8333 15.2117V16.9617C16.834 17.1242 16.8007 17.285 16.7356 17.4338C16.6705 17.5827 16.5751 17.7163 16.4554 17.8261C16.3357 17.936 16.1943 18.0196 16.0404 18.0716C15.8865 18.1237 15.7235 18.143 15.5617 18.1284C13.7667 17.9333 12.0424 17.32 10.5275 16.3375C9.11807 15.4419 7.92311 14.247 7.0275 12.8375C6.04166 11.3158 5.42814 9.58313 5.23667 7.78005C5.22209 7.61874 5.24126 7.45616 5.29296 7.30266C5.34466 7.14917 5.42775 7.00812 5.53695 6.88849C5.64615 6.76887 5.77905 6.6733 5.92721 6.60785C6.07537 6.54241 6.23553 6.50853 6.3975 6.50838H8.1475C8.4306 6.5056 8.70505 6.60584 8.9197 6.79044C9.13435 6.97504 9.27455 7.23139 9.31417 7.51172C9.38803 8.07175 9.52501 8.62164 9.7225 9.15088C9.80099 9.35967 9.81797 9.58658 9.77145 9.80473C9.72492 10.0229 9.61684 10.2231 9.46 10.3817L8.71917 11.1225C9.54958 12.583 10.7588 13.7921 12.2192 14.6225L12.96 13.8817C13.1186 13.7249 13.3188 13.6168 13.537 13.5703C13.7551 13.5237 13.982 13.5407 14.1908 13.6192C14.7201 13.8167 15.27 13.9537 15.83 14.0275C16.1134 14.0675 16.3722 14.2103 16.5571 14.4286C16.7421 14.6469 16.8404 14.9256 16.8333 15.2117Z" stroke="white" stroke-linecap="round" stroke-linejoin="round"/>
</g>
<defs>
<clipPath id="clip0_1165_12959">
<rect width="14" height="14" fill="white" transform="translate(4 5.3418)"/>
</clipPath>
</defs>
</svg>
