<svg width="300" height="300" viewBox="0 0 300 300" fill="none" xmlns="http://www.w3.org/2000/svg">
<path d="M288.753 68.6582H259.562V76.3802H288.753V68.6582Z" fill="#EBEBEB"/>
<path d="M137.493 247.423C137.496 244.831 136.901 242.273 135.755 239.948C134.608 237.623 132.941 235.594 130.883 234.018C128.825 232.442 126.431 231.362 123.888 230.862C121.344 230.362 118.72 230.454 116.218 231.133C113.716 231.812 111.405 233.059 109.463 234.776C107.522 236.494 106.002 238.636 105.023 241.036C104.044 243.436 103.631 246.029 103.817 248.615C104.003 251.2 104.783 253.708 106.095 255.943L106.143 256.003C106.791 257.095 107.601 257.875 108.423 259.003L118.203 271.987C118.487 272.364 118.854 272.669 119.276 272.88C119.697 273.09 120.162 273.199 120.633 273.199C121.105 273.199 121.569 273.09 121.991 272.88C122.413 272.669 122.78 272.364 123.063 271.987L132.663 259.231C133.541 258.197 134.358 257.113 135.111 255.985L135.147 255.943C136.676 253.364 137.486 250.422 137.493 247.423ZM120.603 254.761C119.135 254.761 117.7 254.326 116.479 253.51C115.259 252.694 114.307 251.535 113.746 250.178C113.184 248.822 113.038 247.329 113.324 245.889C113.611 244.449 114.319 243.127 115.357 242.089C116.396 241.051 117.719 240.345 119.159 240.059C120.599 239.774 122.092 239.921 123.448 240.484C124.804 241.047 125.963 241.999 126.778 243.22C127.592 244.442 128.027 245.877 128.025 247.345C128.025 248.32 127.833 249.285 127.46 250.185C127.087 251.085 126.54 251.903 125.851 252.591C125.162 253.28 124.344 253.826 123.443 254.199C122.543 254.571 121.578 254.762 120.603 254.761Z" fill="#E0E0E0"/>
<path d="M74.9009 31.9512H45.7109V39.6732H74.9009V31.9512Z" fill="#EBEBEB"/>
<path d="M62.1874 47.8092C62.1848 47.7633 62.1848 47.7172 62.1874 47.6712V47.2752C62.1874 46.9092 62.1874 46.4052 62.1874 45.7512C62.1874 44.4192 62.1874 42.5052 62.1394 40.0872L62.2294 40.1772L33.0034 40.2372L33.1534 40.0872V42.0612C33.1534 42.7152 33.1534 43.3692 33.1534 44.0112V47.8092L33.0034 47.6652L53.8054 47.7312L59.9434 47.7732H61.6054H62.0374H62.1934C62.1934 47.7732 62.1514 47.7732 62.0614 47.7732H61.6414H60.0154L53.9074 47.8152L33.0034 47.9532H32.8594V47.8092C32.8594 46.5652 32.8594 45.2992 32.8594 44.0112V40.0992L33.0094 39.9492L62.1994 40.0092H62.2894V40.0992C62.2894 42.5412 62.2534 44.4732 62.2414 45.8172C62.2414 46.4592 62.2414 46.9632 62.2414 47.3172C62.2414 47.4732 62.2414 47.5992 62.2414 47.7012C62.2414 47.8032 62.1934 47.8152 62.1874 47.8092Z" fill="#E0E0E0"/>
<path d="M285.518 235.98H256.328V243.702H285.518V235.98Z" fill="#EBEBEB"/>
<path d="M272.805 251.833C272.8 251.787 272.8 251.741 272.805 251.695C272.805 251.593 272.805 251.461 272.805 251.299C272.805 250.933 272.805 250.429 272.805 249.781C272.805 248.443 272.775 246.529 272.757 244.111L272.847 244.201L243.657 244.261C243.723 244.195 243.507 244.411 243.801 244.111V251.827L243.657 251.683L264.459 251.749L270.597 251.791H272.259H272.691H272.847H272.709H272.295H270.663L264.561 251.833L243.603 252.001H243.453V244.117C243.747 243.823 243.537 244.039 243.603 243.967L272.793 244.027H272.883V244.117C272.883 246.559 272.847 248.491 272.835 249.841C272.835 250.477 272.835 250.981 272.835 251.341C272.835 251.497 272.835 251.617 272.835 251.719C272.828 251.758 272.818 251.796 272.805 251.833Z" fill="#E0E0E0"/>
<path d="M208.201 35.5514C208.199 35.5054 208.199 35.4594 208.201 35.4134V35.0174C208.201 34.6514 208.201 34.1474 208.201 33.4994C208.201 32.1674 208.201 30.2474 208.153 27.8294L208.243 27.9194L179.053 27.9794L179.203 27.8294V31.7474C179.203 33.0354 179.203 34.3014 179.203 35.5454L179.059 35.4014L199.861 35.4674L205.999 35.5094H207.661H208.099H208.201C208.201 35.5094 208.159 35.5094 208.069 35.5094H207.649H206.023L199.915 35.5514L179.011 35.6174H178.867V35.4674C178.867 34.2254 178.867 32.9594 178.867 31.6694V27.8354L179.017 27.6914L208.207 27.7454H208.297V27.8354C208.297 30.2774 208.261 32.2094 208.249 33.5594C208.249 34.2014 208.249 34.6994 208.249 35.0594V35.4374C208.201 35.5154 208.201 35.5574 208.201 35.5514Z" fill="#E0E0E0"/>
<path d="M212.157 27.8289C212.152 27.781 212.152 27.7328 212.157 27.6849V27.2769C212.157 26.8929 212.157 26.3769 212.157 25.7289C212.157 24.3729 212.121 22.4589 212.097 20.1069L212.205 20.2149L194.667 20.2569C194.535 20.3889 194.847 20.0769 194.811 20.1069V24.0789C194.811 25.3749 194.811 26.6229 194.811 27.8229L194.673 27.6849L207.219 27.7509L210.873 27.7869H211.857H212.211C212.105 27.7955 211.999 27.7955 211.893 27.7869H210.933L207.333 27.8289L194.691 27.8949H194.547V27.7509C194.547 26.5509 194.547 25.3029 194.547 24.0069V20.1129L194.697 19.9629L212.235 20.0049H212.343V20.1129C212.343 22.5129 212.295 24.4269 212.283 25.7949C212.283 26.4369 212.283 26.9469 212.283 27.3189C212.283 27.6909 212.163 27.8409 212.157 27.8289Z" fill="#E0E0E0"/>
<path d="M43.4639 255.235C43.4639 255.235 43.4639 255.181 43.4639 255.091V254.695C43.4639 254.335 43.4639 253.825 43.4639 253.177C43.4639 251.845 43.4639 249.925 43.4099 247.513L43.4999 247.603L14.3099 247.657L14.4599 247.513V251.425C14.4599 252.709 14.4599 253.981 14.4599 255.223L14.3159 255.073L35.1179 255.145L41.2559 255.181H42.9179H43.3559H43.5059H43.3739H42.9539H41.3279L35.2199 255.223L14.3159 255.289H14.1719V255.145C14.1719 253.903 14.1719 252.631 14.1719 251.347V247.435L14.3219 247.285L43.5119 247.345H43.6019V247.435C43.6019 249.871 43.5659 251.809 43.5539 253.153C43.5539 253.795 43.5539 254.293 43.5539 254.653V255.031C43.5393 255.105 43.5086 255.175 43.4639 255.235Z" fill="#E0E0E0"/>
<path d="M47.3991 247.512C47.3946 247.462 47.3946 247.412 47.3991 247.362C47.3991 247.254 47.3991 247.116 47.3991 246.954C47.3991 246.576 47.3991 246.06 47.3991 245.406C47.3991 244.05 47.3631 242.136 47.3391 239.79L47.4471 239.892L29.9091 239.934L30.0531 239.79V243.756C30.0531 245.046 30.0531 246.3 30.0531 247.5L29.9151 247.356L42.4611 247.422L46.1151 247.464H47.0991H47.4531C47.3472 247.473 47.2409 247.473 47.1351 247.464H46.1751L42.5751 247.5L29.9331 247.566H29.7891V247.428C29.7891 246.228 29.7891 244.974 29.7891 243.684V239.718L29.9391 239.568L47.4771 239.61H47.5851V239.718C47.5851 242.118 47.5371 244.026 47.5251 245.4C47.5251 246.042 47.5251 246.546 47.5251 246.924C47.5251 247.302 47.4291 247.518 47.3991 247.512Z" fill="#E0E0E0"/>
<path d="M274.16 277.566C274.16 277.65 216.698 277.722 145.832 277.722C74.9662 277.722 17.4922 277.65 17.4922 277.566C17.4922 277.482 74.9422 277.41 145.832 277.41C216.722 277.41 274.16 277.482 274.16 277.566Z" fill="#263238"/>
<path d="M261.912 50.9941H29.7839C25.5324 50.9941 22.0859 54.4407 22.0859 58.6921V215.778C22.0859 220.03 25.5324 223.476 29.7839 223.476H261.912C266.163 223.476 269.61 220.03 269.61 215.778V58.6921C269.61 54.4407 266.163 50.9941 261.912 50.9941Z" fill="#263238"/>
<path d="M269.611 58.6914L269.575 58.1514C269.565 57.9298 269.539 57.7092 269.497 57.4914C269.452 57.1846 269.384 56.8817 269.293 56.5854C269.005 55.5825 268.516 54.649 267.854 53.8422C267.193 53.0353 266.374 52.3722 265.447 51.8934C264.801 51.5628 264.112 51.3225 263.401 51.1794C262.608 51.0489 261.803 51.0006 261.001 51.0354H255.427H241.525L152.935 51.0894H91.7346H30.7386C29.9845 51.0596 29.2293 51.0997 28.4826 51.2094C27.7399 51.3353 27.0213 51.5762 26.3526 51.9234C25.0017 52.6168 23.8898 53.6994 23.1606 55.0314C22.8068 55.7022 22.5483 56.4191 22.3926 57.1614C22.2689 57.9187 22.2207 58.6865 22.2486 59.4534V73.5714C22.2486 79.9034 22.2486 86.3034 22.2486 92.7714V132.371C22.2486 159.281 22.2486 187.139 22.2486 215.675C22.2435 217.432 22.8533 219.134 23.9723 220.488C25.0913 221.841 26.6488 222.76 28.3746 223.085C29.2423 223.214 30.1204 223.258 30.9966 223.217H101.005H178.609H248.809H261.019C261.68 223.239 262.342 223.209 262.999 223.127C264.601 222.905 266.09 222.172 267.243 221.038C268.396 219.903 269.153 218.426 269.401 216.827C269.475 216.188 269.501 215.544 269.479 214.901C269.479 214.253 269.479 213.611 269.479 212.963V209.117C269.479 198.913 269.479 189.127 269.479 179.759C269.479 142.361 269.521 112.091 269.533 91.1694C269.533 80.7174 269.533 72.5694 269.563 67.0854C269.563 64.3374 269.563 62.2374 269.563 60.8214C269.563 59.4054 269.563 58.6914 269.563 58.6914C269.563 58.6914 269.563 59.4114 269.563 60.8214C269.563 62.2314 269.563 64.3374 269.563 67.0854C269.563 72.5934 269.563 80.7174 269.563 91.1694C269.563 112.091 269.599 142.361 269.623 179.759C269.623 189.111 269.623 198.897 269.623 209.117C269.623 210.395 269.623 211.673 269.623 212.963V214.901C269.642 215.557 269.614 216.212 269.539 216.863C269.35 218.195 268.823 219.455 268.007 220.525C267.192 221.594 266.116 222.437 264.883 222.971C264.258 223.235 263.603 223.418 262.933 223.517C262.264 223.6 261.59 223.632 260.917 223.613H248.833H178.633H101.029H31.0086C30.1123 223.654 29.2141 223.608 28.3266 223.475C26.5208 223.135 24.891 222.174 23.7195 220.758C22.5481 219.342 21.9089 217.561 21.9126 215.723C21.9126 187.187 21.9126 159.323 21.9126 132.419C21.9126 118.967 21.9126 105.767 21.9126 92.8194V59.5134C21.8869 58.7262 21.9391 57.9383 22.0686 57.1614C22.2306 56.388 22.4992 55.6409 22.8666 54.9414C23.6324 53.5548 24.7909 52.4255 26.1966 51.6954C26.8942 51.3365 27.643 51.0876 28.4166 50.9574C29.1811 50.844 29.9544 50.8019 30.7266 50.8314H57.6606H91.7406H152.941L241.531 50.8854H255.433H261.001C261.804 50.8582 262.608 50.9105 263.401 51.0414C264.12 51.1858 264.815 51.4323 265.465 51.7734C266.397 52.2587 267.221 52.9303 267.883 53.7467C268.546 54.563 269.034 55.5068 269.317 56.5194C269.404 56.8159 269.469 57.1188 269.509 57.4254C269.549 57.6453 269.573 57.8679 269.581 58.0914C269.611 58.5054 269.611 58.6914 269.611 58.6914Z" fill="#263238"/>
<path d="M257.17 130.613C258.476 130.613 259.752 131 260.837 131.726C261.922 132.451 262.768 133.482 263.268 134.688C263.767 135.894 263.898 137.221 263.643 138.501C263.389 139.781 262.76 140.957 261.837 141.88C260.914 142.803 259.738 143.432 258.458 143.686C257.178 143.941 255.851 143.81 254.645 143.311C253.439 142.811 252.408 141.965 251.683 140.88C250.957 139.795 250.57 138.519 250.57 137.213C250.57 135.463 251.266 133.784 252.503 132.546C253.741 131.309 255.42 130.613 257.17 130.613Z" fill="#455A64"/>
<path d="M35.164 119.561V154.799C35.1648 155.122 35.1019 155.442 34.9789 155.74C34.856 156.039 34.6753 156.31 34.4474 156.538C34.2194 156.767 33.9486 156.948 33.6505 157.072C33.3524 157.195 33.0328 157.259 32.71 157.259C32.3869 157.259 32.0671 157.196 31.7686 157.072C31.4701 156.948 31.1989 156.767 30.9705 156.539C30.7421 156.31 30.5609 156.039 30.4373 155.741C30.3136 155.442 30.25 155.122 30.25 154.799V119.579C30.25 118.927 30.5092 118.301 30.9705 117.84C31.4319 117.378 32.0576 117.119 32.71 117.119C33.3588 117.119 33.9811 117.376 34.441 117.834C34.9009 118.291 35.1608 118.912 35.164 119.561Z" fill="#455A64"/>
<path d="M246.454 56.5801H39.7422V218.184H246.454V56.5801Z" fill="#EBEBEB"/>
<path d="M173.023 173.238L189.007 201.408L228.307 200.826L226.081 170.256L173.023 173.238Z" fill="#E0E0E0"/>
<path d="M121.077 78.1075L115.305 122.634L127.227 125.478L150.537 123.162L146.259 74.5195L121.077 78.1075Z" fill="#E0E0E0"/>
<path d="M84.8645 169.235H57.3125V136.061L87.2525 136.361L84.8645 169.235Z" fill="#F5F5F5"/>
<path d="M198.289 170.255C198.289 169.313 203.143 136.361 203.143 136.361C203.143 136.361 222.139 131.159 222.211 131.903C222.283 132.647 225.991 169.379 225.991 169.379L198.289 170.255Z" fill="#F5F5F5"/>
<path d="M60.4844 85.8604C60.5384 86.6644 73.6424 113.016 73.6424 113.016L88.8164 108.996V78.6784L73.1684 78.3184L60.4844 85.8604Z" fill="#E0E0E0"/>
<path d="M153.146 140.844H132.164V150.744H153.146V140.844Z" fill="#E0E0E0"/>
<path d="M153.237 154.025L132.105 155.093L131.031 175.157L155.163 173.237L153.237 154.025Z" fill="#E0E0E0"/>
<path d="M237.887 116.82L234.953 76.0918H246.401L246.455 116.01L237.887 116.82Z" fill="#E0E0E0"/>
<path d="M191.008 69.4199L195.778 120.174L220.804 117.93L216.436 74.6399L196.624 69.4199H191.008Z" fill="#E0E0E0"/>
<path d="M76.0226 78.4977L39.8906 77.9517L39.9266 75.5517L74.0666 76.0677L78.0086 56.5977L80.3666 57.0717L76.0226 78.4977Z" fill="white"/>
<path d="M57.1408 117.701L39.6328 78.4374L40.1788 78.1914L57.4828 116.987L88.7428 108.701L88.8928 109.283L57.1408 117.701Z" fill="white"/>
<path d="M87.2601 135.762H39.9141V136.962H87.2601V135.762Z" fill="white"/>
<path d="M57.6078 117.348H57.0078V169.242H57.6078V117.348Z" fill="white"/>
<path d="M85.0281 168.971H39.9141V169.571H85.0281V168.971Z" fill="white"/>
<path d="M82.6848 216.186L39.7188 206.706L40.2348 204.36L80.4948 213.246L87.4008 117.156L88.4388 77.1902L90.0528 56.7422L92.4408 56.9282L90.8328 77.3462L89.8008 117.276L82.6848 216.186Z" fill="white"/>
<path d="M89.5379 79.9547L74.9219 78.4787L75.1679 76.0907L88.0859 77.3987L90.2219 72.8387L109.476 77.5067L196.056 67.6367L226.218 75.4727L246.366 74.8907L246.438 77.2847L225.948 77.8847L195.882 70.0727L109.326 79.9367L91.5659 75.6347L89.5379 79.9547Z" fill="white"/>
<path d="M190.202 172.122L187.82 171.81L194.564 120.162L189.38 69.4681V56.5801H191.78V69.4081L196.982 120.192L190.202 172.122Z" fill="white"/>
<path d="M83.8471 179.226L83.7031 176.832L225.225 168.228L244.485 129.012L246.639 130.068L226.767 170.538L226.071 170.58L83.8471 179.226Z" fill="white"/>
<path d="M154.704 174.684L145.656 74.5743L145.164 56.8563L146.364 56.8203L146.856 74.5083L155.898 174.576L154.704 174.684Z" fill="white"/>
<path d="M135.711 217.541L125.247 174.809V126.473L113.469 123.545L118.581 77.6628L118.107 56.6028L120.507 56.5488L120.987 77.7708L120.981 77.8488L116.085 121.721L127.647 124.601V174.515L138.045 216.971L135.711 217.541Z" fill="white"/>
<path d="M126.442 136.061H87.25V136.661H126.442V136.061Z" fill="white"/>
<path d="M88.66 116.944L88.5391 117.531L114.714 122.919L114.835 122.331L88.66 116.944Z" fill="white"/>
<path d="M126.382 156.227L117.07 154.169V136.361H117.67V153.689L126.514 155.639L126.382 156.227Z" fill="white"/>
<path d="M111.842 217.512L106.61 200.718H82.6641V198.318H108.374L114.134 216.798L111.842 217.512Z" fill="white"/>
<path d="M188.834 201.714L172.766 173.382L173.288 173.088L189.182 201.108L246.326 200.256L246.338 200.856L188.834 201.714Z" fill="white"/>
<path d="M216.952 201.408H216.352V217.584H216.952V201.408Z" fill="white"/>
<path d="M228.011 200.849L225.784 170.279L214.312 56.6088L214.912 56.5488L226.384 170.225L228.611 200.801L228.011 200.849Z" fill="white"/>
<path d="M246.434 115.699L126.422 125.229L126.469 125.827L246.482 116.297L246.434 115.699Z" fill="white"/>
<path d="M235.547 77.0782L234.352 77.1855L237.915 116.884L239.111 116.777L235.547 77.0782Z" fill="white"/>
<path d="M236.912 99.3809L219.328 103.732L219.472 104.315L237.056 99.9634L236.912 99.3809Z" fill="white"/>
<path d="M229.181 101.381L226.067 83.7291L217.289 82.7991L217.349 82.2051L226.577 83.1831L229.769 101.273L229.181 101.381Z" fill="white"/>
<path d="M169.758 72.4698L168.562 72.5723L172.73 121.186L173.926 121.083L169.758 72.4698Z" fill="white"/>
<path d="M193.07 99.0511L171.805 103.73L171.934 104.316L193.199 99.6371L193.07 99.0511Z" fill="white"/>
<path d="M188.427 201.338L186.242 218.273L187.432 218.427L189.617 201.491L188.427 201.338Z" fill="white"/>
<path d="M89.638 137.381L87.25 174.629L124.48 172.817V158.201L114.73 156.047V138.983L89.638 137.381Z" fill="#E0E0E0"/>
<path d="M79.3888 146.453C79.3894 145.152 79.0903 143.869 78.5147 142.703C77.939 141.537 77.1023 140.52 76.0695 139.729C75.0367 138.939 73.8357 138.398 72.5596 138.147C71.2836 137.896 69.967 137.943 68.712 138.284C67.457 138.625 66.2975 139.25 65.3235 140.112C64.3494 140.973 63.5872 142.048 63.0958 143.252C62.6045 144.456 62.3973 145.757 62.4905 147.054C62.5836 148.351 62.9745 149.609 63.6328 150.731V150.761C63.9568 151.307 64.3588 151.697 64.7728 152.273L69.6808 158.777C69.8234 158.966 70.0079 159.119 70.2197 159.224C70.4316 159.33 70.6651 159.385 70.9018 159.385C71.1384 159.385 71.3719 159.33 71.5838 159.224C71.7956 159.119 71.9801 158.966 72.1228 158.777L76.9228 152.381C77.3619 151.861 77.7725 151.319 78.1528 150.755C78.9463 149.459 79.3734 147.972 79.3888 146.453ZM70.9288 150.137C70.1913 150.138 69.4701 149.92 68.8564 149.511C68.2428 149.102 67.7643 148.521 67.4815 147.839C67.1988 147.158 67.1245 146.409 67.2681 145.685C67.4116 144.962 67.7666 144.298 68.2881 143.776C68.8095 143.255 69.474 142.9 70.1973 142.756C70.9207 142.613 71.6703 142.687 72.3514 142.97C73.0325 143.252 73.6143 143.731 74.0233 144.344C74.4323 144.958 74.6499 145.679 74.6488 146.417C74.6472 147.403 74.2547 148.348 73.5574 149.045C72.8601 149.743 71.9149 150.135 70.9288 150.137Z" fill="#B0BEC5"/>
<path d="M158.998 116.688C159.001 115.386 158.704 114.101 158.13 112.933C157.555 111.765 156.719 110.746 155.686 109.954C154.653 109.162 153.452 108.619 152.175 108.367C150.898 108.115 149.58 108.161 148.323 108.502C147.067 108.843 145.907 109.469 144.932 110.331C143.957 111.194 143.194 112.27 142.703 113.475C142.212 114.68 142.006 115.983 142.1 117.281C142.195 118.579 142.588 119.838 143.248 120.96V120.996C143.572 121.542 143.98 121.932 144.394 122.508L149.314 129C149.457 129.189 149.641 129.342 149.853 129.447C150.065 129.553 150.298 129.608 150.535 129.608C150.772 129.608 151.005 129.553 151.217 129.447C151.429 129.342 151.613 129.189 151.756 129L156.598 122.61C157.028 122.091 157.429 121.548 157.798 120.984C158.578 119.686 158.993 118.202 158.998 116.688ZM150.538 120.372C149.801 120.372 149.081 120.153 148.468 119.744C147.855 119.334 147.378 118.752 147.096 118.072C146.814 117.391 146.74 116.642 146.884 115.919C147.027 115.196 147.382 114.532 147.903 114.011C148.425 113.49 149.088 113.135 149.811 112.991C150.534 112.848 151.283 112.921 151.964 113.203C152.645 113.485 153.227 113.963 153.636 114.576C154.046 115.188 154.264 115.909 154.264 116.646C154.264 117.136 154.168 117.621 153.98 118.073C153.792 118.525 153.517 118.936 153.171 119.283C152.824 119.629 152.413 119.903 151.96 120.09C151.507 120.277 151.022 120.373 150.532 120.372H150.538Z" fill="#B0BEC5"/>
<path d="M123.877 189.971C123.88 189.078 123.677 188.197 123.283 187.395C122.89 186.593 122.316 185.894 121.608 185.35C120.9 184.806 120.075 184.433 119.199 184.26C118.323 184.087 117.419 184.119 116.557 184.353C115.695 184.586 114.899 185.016 114.23 185.607C113.562 186.199 113.039 186.937 112.702 187.764C112.365 188.591 112.224 189.485 112.289 190.376C112.354 191.266 112.624 192.13 113.077 192.899C113.299 193.271 113.581 193.541 113.863 193.931L117.229 198.395C117.327 198.523 117.454 198.627 117.598 198.699C117.743 198.77 117.902 198.807 118.063 198.807C118.225 198.807 118.384 198.77 118.529 198.699C118.673 198.627 118.799 198.523 118.897 198.395L122.209 194.009C122.511 193.652 122.793 193.28 123.055 192.893C123.585 192.01 123.869 191.001 123.877 189.971ZM118.075 192.497C117.57 192.498 117.075 192.349 116.654 192.069C116.233 191.789 115.904 191.39 115.71 190.923C115.515 190.456 115.464 189.942 115.562 189.446C115.66 188.95 115.903 188.494 116.26 188.136C116.617 187.778 117.073 187.534 117.569 187.435C118.065 187.336 118.579 187.386 119.046 187.579C119.514 187.772 119.913 188.1 120.194 188.52C120.475 188.941 120.625 189.435 120.625 189.941C120.626 190.276 120.561 190.609 120.433 190.919C120.305 191.229 120.118 191.511 119.881 191.748C119.644 191.985 119.362 192.174 119.053 192.302C118.743 192.431 118.411 192.497 118.075 192.497Z" fill="#B0BEC5"/>
<path d="M229.124 84.66C229.118 83.2147 228.573 81.8238 227.595 80.7595C226.617 79.6951 225.277 79.0341 223.838 78.9057C222.398 78.7774 220.962 79.191 219.812 80.0655C218.661 80.9401 217.878 82.2126 217.616 83.634C217.369 84.9943 217.62 86.3983 218.324 87.588C218.546 87.96 218.828 88.23 219.11 88.626L222.476 93.084C222.574 93.2122 222.701 93.316 222.845 93.3875C222.99 93.4589 223.149 93.4961 223.31 93.4961C223.472 93.4961 223.631 93.4589 223.776 93.3875C223.92 93.316 224.046 93.2122 224.144 93.084L227.456 88.698C227.758 88.3412 228.04 87.9687 228.302 87.582C228.832 86.6988 229.116 85.6899 229.124 84.66ZM223.322 87.186C222.816 87.1872 222.321 87.0382 221.9 86.7578C221.479 86.4774 221.15 86.0782 220.956 85.6109C220.762 85.1437 220.711 84.6292 220.809 84.1329C220.908 83.6365 221.151 83.1805 221.509 82.8227C221.867 82.4649 222.323 82.2213 222.819 82.1229C223.316 82.0244 223.83 82.0756 224.297 82.2698C224.765 82.464 225.164 82.7925 225.444 83.2137C225.725 83.635 225.874 84.13 225.872 84.636C225.872 85.3123 225.604 85.9609 225.126 86.4392C224.647 86.9174 223.999 87.186 223.322 87.186Z" fill="#B0BEC5"/>
<path d="M105.599 87.4186C105.601 85.8375 105.238 84.2773 104.539 82.8591C103.84 81.441 102.823 80.2032 101.568 79.242C100.312 78.2807 98.8521 77.6218 97.3008 77.3165C95.7494 77.0113 94.1485 77.0678 92.6225 77.4818C91.0965 77.8958 89.6866 78.6561 88.5022 79.7036C87.3178 80.7511 86.3909 82.0576 85.7935 83.5215C85.1961 84.9854 84.9443 86.5674 85.0577 88.1445C85.1711 89.7215 85.6466 91.2512 86.4472 92.6146L86.4772 92.6506C86.8672 93.3166 87.3652 93.7906 87.8632 94.4866L93.8332 102.401C94.0067 102.629 94.2308 102.815 94.4879 102.943C94.745 103.07 95.0282 103.137 95.3152 103.137C95.6023 103.137 95.8855 103.07 96.1426 102.943C96.3997 102.815 96.6238 102.629 96.7972 102.401L102.671 94.6006C103.206 93.9694 103.705 93.3084 104.165 92.6206C105.099 91.0455 105.594 89.2495 105.599 87.4186ZM95.3093 91.8947C94.413 91.8946 93.537 91.6288 92.7919 91.1308C92.0468 90.6328 91.4662 89.9249 91.1235 89.0968C90.7808 88.2687 90.6915 87.3576 90.8667 86.4787C91.042 85.5998 91.4741 84.7926 92.1082 84.1593C92.7423 83.526 93.55 83.0951 94.4292 82.921C95.3083 82.7469 96.2193 82.8374 97.047 83.1812C97.8746 83.525 98.5817 84.1065 99.0787 84.8523C99.5758 85.598 99.8404 86.4744 99.8392 87.3706C99.8377 88.571 99.3597 89.7217 98.5103 90.57C97.661 91.4182 96.5096 91.8947 95.3093 91.8947Z" fill="#B0BEC5"/>
<path d="M50.4036 251.743C50.4036 251.743 36.8916 236.233 31.8036 220.717C26.7156 205.201 29.1396 207.001 29.1396 207.001C29.1396 207.001 36.0036 222.055 41.2176 229.333C46.4316 236.611 55.7136 247.297 55.7136 247.297L50.4036 251.743Z" fill="#455A64"/>
<path d="M53.0584 209.401C52.9688 209.241 52.8257 209.116 52.6541 209.05C52.4824 208.984 52.293 208.981 52.1188 209.04C51.9447 209.099 51.7968 209.218 51.701 209.375C51.6052 209.532 51.5675 209.717 51.5944 209.899C52.4164 215.353 54.1924 228.139 54.1204 236.431C54.0304 247.231 54.1204 251.371 54.1204 251.371H59.7304C59.7304 251.371 58.7344 229.099 57.4684 222.307C56.5864 217.549 54.6964 212.263 53.0584 209.401Z" fill="#455A64"/>
<path d="M56.1172 249.558C58.4707 244.233 60.0274 238.591 60.7372 232.812C61.1992 228.846 60.3772 223.482 59.1472 216.33C58.6747 213.715 58.4377 211.062 58.4392 208.404C58.4474 208.11 58.5524 207.827 58.7381 207.598C58.9238 207.369 59.1796 207.208 59.4661 207.14C59.7525 207.072 60.0535 207.1 60.3223 207.22C60.5912 207.34 60.8129 207.545 60.9532 207.804C61.6312 209.004 63.5872 213.138 64.0852 215.73C65.4472 222.792 66.9832 226.32 65.8072 233.022C64.6312 239.724 60.2872 250.044 60.2872 250.044L56.1172 249.558Z" fill="#455A64"/>
<path d="M61.2031 250.015C61.2031 250.015 75.9991 218.215 77.0251 213.493C78.0511 208.771 81.5371 197.893 81.9511 198.493C82.3651 199.093 82.9771 204.853 80.3071 211.417C77.6371 217.981 66.2551 250.957 66.2551 250.957H61.2031" fill="#455A64"/>
<path d="M54.4942 248.592C54.3489 248.507 54.2104 248.41 54.0802 248.304C53.8162 248.106 53.4202 247.824 52.9342 247.428C51.9502 246.654 50.5702 245.478 48.9562 243.918C44.7887 239.808 41.1798 235.168 38.2222 230.118C35.2725 225.081 32.817 219.77 30.8902 214.26C30.1462 212.148 29.6062 210.42 29.2522 209.22C29.0722 208.62 28.9462 208.152 28.8562 207.834C28.8073 207.673 28.7692 207.508 28.7422 207.342C28.8149 207.495 28.8751 207.653 28.9222 207.816C29.0302 208.152 29.1802 208.608 29.3722 209.184C29.7562 210.384 30.3322 212.088 31.1002 214.188C33.0822 219.662 35.5563 224.946 38.4922 229.974C41.443 234.999 45.0107 239.635 49.1122 243.774C50.6962 245.346 52.0522 246.546 53.0122 247.374C53.4862 247.788 53.8702 248.082 54.1222 248.298C54.2553 248.384 54.3799 248.482 54.4942 248.592Z" fill="#263238"/>
<path d="M56.1123 233.335C56.0445 233.027 56.0004 232.714 55.9803 232.399C55.9083 231.739 55.8183 230.881 55.7103 229.849C55.4763 227.701 55.1103 224.731 54.5823 221.449C54.0543 218.167 53.4783 215.257 53.0223 213.139C52.8063 212.125 52.6263 211.279 52.4823 210.631C52.3984 210.327 52.3442 210.016 52.3203 209.701C52.4368 209.994 52.531 210.295 52.6023 210.601C52.7703 211.201 52.9923 212.035 53.2443 213.091C53.7543 215.197 54.3723 218.131 54.8943 221.395C55.4163 224.659 55.7523 227.647 55.9323 229.795C56.0223 230.875 56.0763 231.751 56.1063 232.357C56.1392 232.682 56.1412 233.01 56.1123 233.335Z" fill="#263238"/>
<path d="M59.5836 207.521C59.6552 207.651 59.7135 207.788 59.7576 207.929L60.2016 209.129C60.3996 209.639 60.6216 210.269 60.8376 211.019C61.0536 211.769 61.3416 212.609 61.5576 213.569C61.6716 214.043 61.7976 214.541 61.9236 215.063C62.0496 215.585 62.1336 216.137 62.2476 216.701C62.4876 217.829 62.6376 219.053 62.8476 220.337C63.166 223.135 63.2843 225.953 63.2016 228.767C63.0848 231.587 62.7659 234.394 62.2476 237.167C61.9776 238.439 61.7376 239.651 61.4196 240.767C61.2636 241.319 61.1376 241.865 60.9756 242.375C60.8136 242.885 60.6516 243.371 60.5016 243.839C60.2196 244.781 59.9016 245.597 59.6016 246.329C59.3016 247.061 59.0676 247.673 58.8336 248.171L58.3056 249.317C58.2532 249.455 58.1848 249.586 58.1016 249.707C58.139 249.566 58.1871 249.428 58.2456 249.293L58.7196 248.123C58.9356 247.619 59.1876 247.001 59.4396 246.263C59.6916 245.525 60.0396 244.709 60.2916 243.773L60.7416 242.303C60.8976 241.793 61.0176 241.253 61.1616 240.701C61.4736 239.591 61.6956 238.385 61.9596 237.101C62.4569 234.346 62.7676 231.559 62.8896 228.761C62.9685 225.957 62.8583 223.151 62.5596 220.361C62.3916 219.083 62.2476 217.859 62.0196 216.761C61.9116 216.197 61.8336 215.645 61.7136 215.129L61.3716 213.635C61.1676 212.675 60.9036 211.835 60.6996 211.085C60.4956 210.335 60.2916 209.699 60.0996 209.177C59.9076 208.655 59.8056 208.283 59.7096 207.977C59.6501 207.831 59.6078 207.678 59.5836 207.521Z" fill="#263238"/>
<path d="M81.7516 199.152C81.7542 199.2 81.7542 199.248 81.7516 199.296C81.7516 199.41 81.7096 199.542 81.6856 199.71C81.6196 200.07 81.5356 200.61 81.3916 201.294C81.1036 202.662 80.6296 204.63 79.8916 207.018C79.1536 209.406 78.1396 212.208 76.9396 215.286C75.7396 218.364 74.3596 221.718 73.0456 225.288C71.7316 228.858 70.6876 232.338 69.7216 235.488C68.7556 238.638 67.8556 241.488 66.9736 243.828C66.2973 245.682 65.5181 247.497 64.6396 249.264C64.3396 249.894 64.0396 250.362 63.8896 250.686L63.6796 251.052C63.6575 251.095 63.6314 251.135 63.6016 251.172C63.6016 251.172 63.6016 251.124 63.6556 251.034L63.8296 250.656C63.9916 250.326 64.2436 249.846 64.5316 249.21C65.1316 247.95 65.9296 246.096 66.7696 243.75C67.6096 241.404 68.4976 238.566 69.4396 235.404C70.3816 232.242 71.4136 228.75 72.7516 225.174C74.0896 221.598 75.4636 218.244 76.6696 215.172C77.8756 212.1 78.9136 209.316 79.6696 206.946C80.4256 204.576 80.9416 202.614 81.2656 201.258C81.4276 200.58 81.5296 200.058 81.6136 199.692C81.6556 199.53 81.6856 199.392 81.7096 199.284C81.7166 199.238 81.7307 199.194 81.7516 199.152Z" fill="#263238"/>
<path d="M36.1166 192.126C35.9116 191.933 35.6483 191.812 35.3678 191.784C35.0872 191.755 34.8052 191.821 34.5655 191.969C34.3258 192.118 34.1421 192.341 34.0428 192.605C33.9435 192.869 33.9343 193.159 34.0166 193.428C34.522 195.07 35.1436 196.674 35.8766 198.228C37.9106 202.548 43.8866 218.064 46.6766 226.584C49.4666 235.104 53.4026 250.98 53.4026 250.98L59.4026 250.014C59.4026 250.014 53.9366 223.896 48.6026 214.488C44.3006 206.928 40.0106 195.996 36.1166 192.126Z" fill="#455A64"/>
<path d="M48.3203 231.895C48.4438 232.125 48.5462 232.366 48.6263 232.615C48.8063 233.083 49.0463 233.767 49.3163 234.619C49.8683 236.323 50.5163 238.705 51.2183 241.345C51.9203 243.985 52.4603 246.397 52.8503 248.143L53.3003 250.213C53.3596 250.465 53.3938 250.722 53.4023 250.981C53.2926 250.745 53.21 250.497 53.1563 250.243C53.0123 249.697 52.8263 249.013 52.6103 248.197C52.1543 246.397 51.5543 244.039 50.8883 241.423C50.2223 238.807 49.5743 236.401 49.0883 234.685L48.4883 232.651C48.4036 232.406 48.3472 232.152 48.3203 231.895Z" fill="#263238"/>
<path d="M56.405 250.501C56.3856 250.449 56.3734 250.395 56.369 250.339C56.369 250.213 56.327 250.057 56.303 249.871C56.237 249.457 56.183 248.839 56.057 248.071C55.841 246.499 55.457 244.243 54.803 241.471C54.0408 238.242 53.1075 235.055 52.007 231.925C50.807 228.385 49.247 224.563 47.507 220.603C43.991 212.695 40.481 205.687 38.171 200.497C37.007 197.911 36.101 195.799 35.507 194.329C35.207 193.597 34.991 193.021 34.835 192.631L34.673 192.187C34.6505 192.137 34.6344 192.085 34.625 192.031C34.625 192.031 34.625 192.073 34.703 192.175L34.895 192.607L35.621 194.281C36.275 195.739 37.205 197.833 38.405 200.401C40.763 205.561 44.303 212.551 47.825 220.471C49.571 224.437 51.101 228.271 52.313 231.823C53.4046 234.97 54.32 238.175 55.055 241.423C55.5485 243.603 55.933 245.805 56.207 248.023C56.315 248.809 56.351 249.427 56.393 249.823C56.393 250.021 56.393 250.177 56.435 250.297C56.4368 250.366 56.4267 250.436 56.405 250.501Z" fill="#263238"/>
<path d="M59.4072 250.015C59.3173 249.684 59.2511 249.347 59.2092 249.007C59.0892 248.311 58.9332 247.381 58.7412 246.265C58.3332 243.949 57.7032 240.763 56.7972 237.265C55.8912 233.767 54.8952 230.707 54.1212 228.487L53.1852 225.859C53.0549 225.543 52.9486 225.218 52.8672 224.887C53.0377 225.184 53.1822 225.495 53.2992 225.817C53.5572 226.417 53.8992 227.305 54.3312 228.409C55.4105 231.283 56.3358 234.214 57.1032 237.187C57.8745 240.153 58.4953 243.157 58.9632 246.187C59.1312 247.351 59.2632 248.293 59.3292 248.953C59.3876 249.304 59.4137 249.659 59.4072 250.015Z" fill="#263238"/>
<path d="M71.6519 249.156H48.3359V277.566H71.6519V249.156Z" fill="#B0BEC5"/>
<g opacity="0.3">
<path d="M71.6519 249.156H48.3359V277.566H71.6519V249.156Z" fill="black"/>
</g>
<path d="M64.2192 249.156H43.5312V277.566H64.2192V249.156Z" fill="#B0BEC5"/>
<path d="M154.072 189.307C154.072 189.307 154.072 210.403 153.808 211.591C153.544 212.779 152.926 219.103 154.468 222.037C156.01 224.971 159.676 230.917 162.868 231.745C166.06 232.573 167.866 231.745 167.866 231.745C167.866 231.745 169.828 218.005 169.186 214.063C168.544 210.121 167.086 201.517 167.086 201.517L157.198 190.297L154.072 189.307Z" fill="#FFBE9D"/>
<path d="M178.93 160.351L188.248 157.489L205.87 156.312L216.532 158.335L204.952 176.893L188.248 175.633L178.93 160.351Z" fill="#FFBE9D"/>
<path d="M215.813 122.053C215.911 126.514 215.064 130.947 213.327 135.057C211.589 139.168 209.001 142.864 205.733 145.903C204.229 141.555 202.727 137.203 201.227 132.847" fill="#263238"/>
<path d="M181.844 96.0847C185.714 93.9727 190.388 93.6847 194.708 94.5367C199.028 95.3887 203.06 97.3567 206.876 99.5647C209.012 100.801 211.148 102.163 212.69 104.101C215.498 107.635 218.27 113.437 218.546 117.943C218.762 121.585 217.346 130.705 215.828 134.017C214.412 137.053 207.8 139.363 204.536 140.113L174.602 105.277C175.139 103.341 176.056 101.532 177.3 99.9535C178.543 98.3755 180.087 97.0604 181.844 96.0847Z" fill="#263238"/>
<path d="M176.681 100.802L183.881 99.5176C179.957 108.866 178.895 130.238 176.645 140.126C173.999 136.286 167.855 124.592 168.185 119.936C168.515 115.28 168.149 99.9916 176.681 100.802Z" fill="#263238"/>
<path d="M210.725 116.346C210.597 113.724 209.632 111.212 207.971 109.18C206.31 107.148 204.041 105.701 201.497 105.054L184.961 100.854C177.815 100.086 173.039 108.876 172.571 116.052C172.055 124.02 171.731 132.426 172.661 138.378C174.533 150.336 183.695 151.884 183.695 151.884C183.695 151.884 183.695 157.572 183.695 161.064L198.467 172.77L207.059 159.336L210.755 116.514C210.767 116.286 210.743 116.616 210.725 116.346Z" fill="#FFBE9D"/>
<path d="M176.164 125.059C176.159 125.459 176.311 125.846 176.586 126.136C176.862 126.426 177.24 126.597 177.64 126.613C177.835 126.628 178.031 126.605 178.217 126.544C178.403 126.482 178.575 126.384 178.722 126.256C178.87 126.127 178.99 125.971 179.076 125.795C179.163 125.619 179.213 125.428 179.224 125.233C179.229 124.833 179.078 124.446 178.802 124.156C178.526 123.866 178.148 123.695 177.748 123.679C177.553 123.663 177.356 123.686 177.17 123.747C176.984 123.808 176.812 123.905 176.664 124.034C176.517 124.163 176.396 124.32 176.31 124.496C176.224 124.672 176.175 124.863 176.164 125.059Z" fill="#263238"/>
<path d="M174.366 120.71C174.558 120.914 175.722 120.056 177.366 120.062C179.01 120.068 180.223 120.902 180.403 120.698C180.493 120.608 180.301 120.248 179.773 119.864C179.06 119.366 178.211 119.102 177.343 119.108C176.482 119.1 175.641 119.367 174.943 119.87C174.451 120.26 174.276 120.602 174.366 120.71Z" fill="#263238"/>
<path d="M190.555 125.059C190.551 125.453 190.699 125.833 190.969 126.12C191.238 126.407 191.608 126.58 192.001 126.601C192.196 126.618 192.392 126.595 192.579 126.534C192.765 126.473 192.937 126.375 193.085 126.246C193.232 126.118 193.353 125.961 193.439 125.785C193.524 125.608 193.574 125.417 193.585 125.221C193.591 124.822 193.441 124.435 193.166 124.145C192.892 123.854 192.514 123.683 192.115 123.667C191.921 123.654 191.726 123.68 191.541 123.743C191.357 123.807 191.188 123.906 191.042 124.036C190.897 124.165 190.779 124.323 190.695 124.498C190.612 124.674 190.564 124.865 190.555 125.059Z" fill="#263238"/>
<path d="M190.038 120.71C190.23 120.914 191.394 120.056 193.038 120.062C194.682 120.068 195.9 120.902 196.074 120.698C196.164 120.608 195.972 120.248 195.444 119.864C194.732 119.366 193.883 119.102 193.014 119.108C192.154 119.101 191.313 119.368 190.614 119.87C190.122 120.26 189.948 120.602 190.038 120.71Z" fill="#263238"/>
<path d="M184.887 133.676C184.887 133.58 183.867 133.4 182.205 133.184C181.785 133.142 181.383 133.052 181.317 132.77C181.28 132.333 181.379 131.895 181.599 131.516L182.853 128.312C184.593 123.746 185.853 119.996 185.673 119.912C185.493 119.828 183.927 123.512 182.187 128.054L180.987 131.282C180.725 131.79 180.646 132.372 180.765 132.932C180.828 133.078 180.924 133.207 181.044 133.311C181.165 133.415 181.307 133.49 181.461 133.532C181.693 133.597 181.933 133.631 182.175 133.634C183.843 133.76 184.881 133.766 184.887 133.676Z" fill="#263238"/>
<path d="M199.561 147.602C199.561 147.602 195.667 155.816 183.703 154.67V151.862C189.282 151.937 194.771 150.462 199.561 147.602Z" fill="#EB996E"/>
<path d="M190.564 114.745C190.726 115.195 192.364 114.985 194.308 115.225C196.252 115.465 197.806 115.993 198.064 115.591C198.184 115.399 197.908 114.991 197.278 114.541C196.44 113.999 195.486 113.664 194.494 113.563C193.505 113.437 192.5 113.553 191.566 113.899C190.852 114.181 190.492 114.535 190.564 114.745Z" fill="#263238"/>
<path d="M174.909 115.664C175.197 116.042 176.337 115.664 177.705 115.664C179.073 115.664 180.231 115.922 180.495 115.526C180.615 115.34 180.429 114.962 179.925 114.608C179.247 114.179 178.457 113.962 177.656 113.984C176.854 114.006 176.077 114.267 175.425 114.734C174.939 115.094 174.783 115.478 174.909 115.664Z" fill="#263238"/>
<path d="M175.803 105.103C176.535 103.303 178.509 102.223 180.447 102.103C182.401 102.1 184.315 102.658 185.961 103.711C193.083 107.827 196.761 117.769 203.781 122.029C205.515 123.079 207.765 122.119 209.235 123.505C210.705 124.891 211.665 127.105 210.849 128.959C211.857 127.708 212.68 126.318 213.291 124.831C213.593 124.085 213.732 123.283 213.697 122.479C213.663 121.675 213.457 120.887 213.093 120.169C212.493 119.113 211.407 118.309 211.113 117.127C210.855 116.089 211.263 115.003 211.221 113.929C211.1 112.841 210.724 111.797 210.123 110.881C207.369 106.003 203.577 101.599 198.693 98.8815C195.508 97.0366 191.879 96.0968 188.199 96.1635C184.504 96.2507 180.963 97.6576 178.215 100.129C176.637 101.593 174.987 103.129 175.815 105.103" fill="#263238"/>
<path d="M209.086 125.011C209.212 124.669 215.446 122.419 215.53 129.049C215.608 135.487 209.11 134.221 209.098 134.035C209.086 133.849 209.086 125.011 209.086 125.011Z" fill="#FFBE9D"/>
<path d="M211.067 131.575C211.097 131.575 211.181 131.653 211.373 131.737C211.642 131.845 211.943 131.845 212.213 131.737C212.891 131.479 213.455 130.393 213.473 129.235C213.486 128.681 213.373 128.131 213.143 127.627C213.08 127.427 212.97 127.245 212.822 127.096C212.673 126.948 212.491 126.838 212.291 126.775C212.161 126.748 212.026 126.764 211.906 126.822C211.787 126.879 211.69 126.975 211.631 127.093C211.547 127.273 211.589 127.399 211.559 127.411C211.529 127.423 211.415 127.303 211.469 127.039C211.5 126.878 211.587 126.734 211.715 126.631C211.886 126.502 212.101 126.442 212.315 126.463C212.582 126.51 212.834 126.625 213.044 126.797C213.254 126.97 213.416 127.194 213.515 127.447C213.797 128.004 213.937 128.623 213.923 129.247C213.923 130.543 213.239 131.767 212.309 132.043C212.136 132.095 211.955 132.107 211.777 132.079C211.6 132.051 211.431 131.983 211.283 131.881C211.085 131.731 211.049 131.587 211.067 131.575Z" fill="#EB996E"/>
<path d="M211.651 121.698C211.514 121.639 211.383 121.567 211.261 121.482C211.015 121.326 210.631 121.116 210.181 120.798C208.913 119.866 207.747 118.804 206.701 117.63C205.182 115.869 203.764 114.024 202.453 112.104C200.865 109.761 199.087 107.554 197.137 105.504C196.093 104.481 194.943 103.574 193.705 102.798C192.542 102.087 191.297 101.521 189.997 101.112C187.796 100.404 185.481 100.121 183.175 100.278C181.618 100.371 180.08 100.671 178.603 101.172C178.075 101.334 177.685 101.508 177.403 101.616C177.265 101.677 177.123 101.725 176.977 101.76C177.105 101.684 177.24 101.618 177.379 101.562C177.767 101.37 178.168 101.203 178.579 101.064C180.056 100.516 181.603 100.18 183.175 100.068C185.51 99.8846 187.858 100.151 190.093 100.854C191.415 101.263 192.682 101.831 193.867 102.546C195.123 103.334 196.292 104.256 197.353 105.294C199.318 107.36 201.1 109.592 202.681 111.966C203.982 113.886 205.384 115.737 206.881 117.51C207.903 118.688 209.038 119.763 210.271 120.72C210.715 121.056 211.081 121.278 211.315 121.452C211.433 121.525 211.545 121.607 211.651 121.698Z" fill="#455A64"/>
<path d="M211.802 132.714C212.118 132.659 212.443 132.726 212.712 132.902C212.981 133.078 213.173 133.349 213.249 133.661C213.325 133.972 213.28 134.302 213.123 134.582C212.965 134.861 212.708 135.071 212.402 135.168C212.092 135.276 211.753 135.26 211.455 135.122C211.157 134.985 210.924 134.738 210.805 134.432C210.686 134.126 210.69 133.787 210.817 133.484C210.943 133.182 211.183 132.94 211.484 132.81" fill="white"/>
<path d="M211.492 132.811C211.208 133.03 210.998 133.331 210.892 133.675C210.846 133.851 210.844 134.037 210.888 134.214C210.933 134.391 211.021 134.554 211.144 134.689C211.289 134.857 211.48 134.979 211.694 135.04C211.908 135.1 212.134 135.096 212.346 135.028C212.557 134.96 212.744 134.832 212.882 134.658C213.021 134.484 213.105 134.274 213.124 134.053C213.146 133.873 213.123 133.69 213.057 133.522C212.992 133.353 212.885 133.204 212.746 133.087C212.466 132.867 212.125 132.737 211.768 132.715C211.768 132.715 211.87 132.649 212.074 132.643C212.258 132.645 212.439 132.686 212.606 132.761C212.773 132.836 212.923 132.945 213.047 133.08C213.171 133.216 213.265 133.375 213.325 133.548C213.385 133.722 213.408 133.906 213.394 134.089C213.375 134.365 213.272 134.629 213.101 134.847C212.929 135.065 212.696 135.226 212.432 135.31C212.168 135.394 211.884 135.397 211.618 135.318C211.352 135.24 211.116 135.083 210.94 134.869C210.795 134.7 210.695 134.496 210.651 134.278C210.606 134.059 210.62 133.833 210.688 133.621C210.774 133.342 210.947 133.098 211.18 132.925C211.378 132.811 211.486 132.793 211.492 132.811Z" fill="#263238"/>
<path d="M210.035 123.523C210.137 125.281 210.215 127.123 209.405 128.701C208.595 130.279 206.537 131.329 205.013 130.453C203.765 129.745 203.387 128.143 203.177 126.721C202.577 122.623 202.289 118.471 201.641 114.373L210.035 123.523Z" fill="#263238"/>
<path d="M177.406 102.042C177.406 102.078 177.976 101.934 179.008 101.898C180.466 101.875 181.914 102.14 183.268 102.678C184.204 103.041 185.099 103.502 185.938 104.052C186.898 104.7 187.82 105.403 188.698 106.158C190.724 107.874 192.537 109.826 194.098 111.972C194.92 113.118 195.646 114.3 196.426 115.398C197.17 116.464 198.038 117.436 199.012 118.296C200.679 119.717 202.505 120.94 204.454 121.938C206.104 122.814 207.454 123.42 208.432 123.846L209.53 124.314C209.656 124.375 209.789 124.422 209.926 124.452C209.814 124.368 209.691 124.3 209.56 124.248L208.492 123.714C207.556 123.258 206.2 122.61 204.574 121.716C202.667 120.691 200.876 119.462 199.234 118.05C198.287 117.198 197.443 116.238 196.72 115.188C195.946 114.108 195.22 112.926 194.398 111.762C192.821 109.589 190.981 107.62 188.92 105.9C188.03 105.144 187.094 104.442 186.118 103.8C185.255 103.246 184.334 102.789 183.37 102.438C181.982 101.909 180.498 101.678 179.014 101.76C178.611 101.782 178.209 101.836 177.814 101.922C177.674 101.946 177.537 101.986 177.406 102.042Z" fill="#455A64"/>
<path d="M210.203 119.545C210.387 119.697 210.589 119.826 210.803 119.929L212.435 120.889L212.987 121.201C213.202 121.329 213.441 121.409 213.689 121.435C213.842 121.45 213.996 121.414 214.127 121.333C214.195 121.283 214.251 121.219 214.292 121.146C214.334 121.072 214.359 120.991 214.367 120.907C214.351 120.61 214.244 120.326 214.061 120.091C213.461 119.161 212.861 118.141 212.171 117.061L211.913 117.301C213.175 118.231 214.722 118.692 216.287 118.603C216.491 118.602 216.694 118.568 216.887 118.501C216.997 118.47 217.098 118.415 217.184 118.341C217.27 118.266 217.339 118.173 217.385 118.069C217.422 117.96 217.432 117.843 217.413 117.729C217.394 117.615 217.348 117.507 217.277 117.415C217.167 117.271 217.045 117.136 216.911 117.013C216.062 116.191 215.324 115.261 214.715 114.247C214.181 113.292 213.716 112.299 213.323 111.277C213.351 111.575 213.419 111.868 213.527 112.147C213.775 112.919 214.099 113.665 214.493 114.373C215.084 115.43 215.819 116.399 216.677 117.253C216.917 117.481 217.157 117.739 217.061 117.943C216.965 118.147 216.623 118.249 216.281 118.249C214.799 118.321 213.336 117.885 212.135 117.013L211.367 116.449L211.883 117.253L213.815 120.253C213.959 120.424 214.053 120.632 214.085 120.853C214.082 120.896 214.069 120.938 214.049 120.976C214.028 121.014 213.999 121.047 213.964 121.072C213.929 121.098 213.889 121.116 213.847 121.125C213.805 121.133 213.761 121.133 213.719 121.123C213.305 121.044 212.912 120.883 212.561 120.649L210.875 119.785C210.662 119.677 210.436 119.596 210.203 119.545Z" fill="#455A64"/>
<path d="M191.164 136.716C191.043 136.226 190.754 135.794 190.348 135.494C189.941 135.195 189.442 135.048 188.938 135.078C188.571 135.126 188.221 135.264 187.919 135.478C187.616 135.692 187.371 135.977 187.204 136.308C187.046 136.643 186.957 137.006 186.94 137.375C186.924 137.745 186.981 138.115 187.108 138.462L187.144 138.618C187.486 138.99 187.935 139.248 188.429 139.355C188.923 139.462 189.438 139.415 189.904 139.218C190.361 138.998 190.732 138.634 190.96 138.181C191.187 137.729 191.259 137.214 191.164 136.716Z" fill="#EB996E"/>
<path d="M185.946 138.655C185.946 138.403 187.614 138.481 188.874 137.113C190.134 135.745 190.032 133.957 190.266 133.957C190.374 133.957 190.572 134.371 190.554 135.121C190.519 136.099 190.141 137.034 189.486 137.761C188.858 138.466 187.979 138.897 187.038 138.961C186.336 138.973 185.934 138.769 185.946 138.655Z" fill="#263238"/>
<path d="M167.102 228.252L167.882 232.794L167.15 235.266C167.15 235.266 159.608 244.866 157.19 251.934C154.772 259.002 154.586 277.62 154.586 277.62L240.506 277.566C240.506 277.566 237.506 249.912 226.706 241.206V239.22L229.376 235.266C229.376 235.266 230.276 232.206 226.376 232.662C224.828 232.842 167.102 228.252 167.102 228.252Z" fill="#455A64"/>
<path d="M227.188 238.549H226.588L224.842 238.507C223.33 238.471 221.14 238.441 218.428 238.459C215.716 238.477 212.494 238.537 208.912 238.609C205.33 238.681 201.394 238.753 197.254 238.687C193.362 238.634 189.475 238.385 185.608 237.943C182.45 237.579 179.319 237.007 176.236 236.233C174.158 235.715 172.112 235.073 170.11 234.313C169.396 234.055 168.862 233.803 168.49 233.653L168.076 233.467C167.98 233.425 167.932 233.401 167.938 233.395L168.088 233.437L168.514 233.593C168.892 233.725 169.432 233.959 170.152 234.193C172.166 234.898 174.214 235.499 176.29 235.993C179.371 236.732 182.495 237.277 185.644 237.625C189.196 238.039 193.126 238.267 197.26 238.345C201.394 238.423 205.324 238.345 208.906 238.291C212.488 238.237 215.716 238.189 218.428 238.207C221.14 238.225 223.336 238.279 224.848 238.357C225.604 238.387 226.192 238.429 226.588 238.459L227.044 238.495C227.14 238.531 227.194 238.543 227.188 238.549Z" fill="#263238"/>
<path d="M227.186 242.533C227.137 242.542 227.086 242.542 227.036 242.533H226.58L224.834 242.491C223.322 242.455 221.132 242.425 218.42 242.443C215.708 242.461 212.486 242.521 208.904 242.593C205.322 242.665 201.386 242.737 197.246 242.671C193.106 242.605 189.164 242.353 185.6 241.927C182.442 241.563 179.311 240.992 176.228 240.217C174.15 239.697 172.104 239.054 170.102 238.291C169.388 238.033 168.854 237.787 168.482 237.637L168.068 237.451C167.972 237.409 167.924 237.385 167.93 237.379L168.08 237.421L168.506 237.577C168.884 237.709 169.424 237.937 170.144 238.177C172.158 238.883 174.206 239.484 176.282 239.977C179.363 240.716 182.487 241.262 185.636 241.609C189.188 242.023 193.118 242.251 197.252 242.329C201.386 242.407 205.316 242.329 208.898 242.275C212.48 242.221 215.708 242.173 218.42 242.191C221.132 242.209 223.328 242.263 224.84 242.341C225.596 242.371 226.184 242.413 226.58 242.443L227.036 242.479C227.138 242.521 227.192 242.527 227.186 242.533Z" fill="#263238"/>
<path d="M170.781 247.2C170.829 246.775 170.942 246.36 171.117 245.97C171.473 245.004 171.927 244.077 172.473 243.204C173.013 242.329 173.64 241.511 174.345 240.762C174.618 240.433 174.94 240.148 175.299 239.916C175.371 239.982 173.979 241.344 172.737 243.366C171.495 245.388 170.871 247.2 170.781 247.2Z" fill="#263238"/>
<path d="M173.836 252.726C173.798 252.561 173.788 252.391 173.806 252.222C173.81 251.763 173.84 251.304 173.896 250.848C174.079 249.343 174.404 247.858 174.868 246.414C175.321 244.972 175.887 243.568 176.56 242.214C176.811 241.639 177.123 241.092 177.49 240.582C177.281 241.17 177.036 241.745 176.758 242.304C176.154 243.675 175.624 245.077 175.168 246.504C174.711 247.934 174.36 249.396 174.118 250.878C173.932 252 173.884 252.732 173.836 252.726Z" fill="#263238"/>
<path d="M175.865 231C175.955 231.273 176.013 231.554 176.039 231.84C176.18 232.509 176.368 233.166 176.603 233.808C177.137 235.32 177.851 236.43 177.803 236.478C177.126 235.747 176.625 234.871 176.339 233.916C176.09 233.258 175.926 232.57 175.853 231.87C175.785 231.584 175.789 231.284 175.865 231Z" fill="#263238"/>
<path d="M178.414 232.801C178.721 233.427 178.935 234.093 179.05 234.781C179.268 235.443 179.383 236.135 179.392 236.833C178.864 235.546 178.535 234.186 178.414 232.801Z" fill="#263238"/>
<path d="M193.765 232.201C193.973 234.236 193.973 236.286 193.765 238.321C193.557 236.286 193.557 234.236 193.765 232.201Z" fill="#263238"/>
<path d="M195.685 233.768C196.133 235.302 196.092 236.938 195.565 238.448C195.475 238.448 195.649 237.392 195.679 236.108C195.709 234.824 195.601 233.78 195.685 233.768Z" fill="#263238"/>
<path d="M200.875 247.932C200.653 247.067 200.485 246.19 200.371 245.304C200.152 244.436 199.991 243.554 199.891 242.664C200.296 243.474 200.561 244.346 200.677 245.244C200.897 246.122 200.964 247.031 200.875 247.932Z" fill="#263238"/>
<path d="M149.402 188.106C149.234 187.56 155.546 169.506 159.29 166.77C163.034 164.034 179.936 160.116 179.936 160.116C179.936 160.116 187.052 167.136 196.592 165.678C206.132 164.22 213.458 157.488 213.458 157.488C213.458 157.488 231.512 159.852 234.578 162.036C237.644 164.22 245.978 184.014 245.978 184.014L231.266 196.272L229.964 207.372C229.964 207.372 230.648 230.49 229.112 232.86C227.576 235.23 167.456 229.2 167.456 229.2C167.456 229.2 164.39 228.654 166.772 223.2C169.154 217.746 170.864 214.098 170.864 214.098C170.864 214.098 166.604 209.364 165.92 200.988C165.236 192.612 163.562 191.712 163.562 191.712L149.402 188.106Z" fill="#B0BEC5"/>
<path d="M229.889 206.947C229.799 206.947 230.705 199.411 231.911 190.147C233.117 180.883 234.155 173.347 234.239 173.377C234.323 173.407 233.405 180.907 232.205 190.201C231.005 199.495 229.973 206.959 229.889 206.947Z" fill="#263238"/>
<path d="M165.447 194.784C165.369 194.814 164.247 192.114 162.933 188.748C161.619 185.382 160.629 182.634 160.707 182.604C160.785 182.574 161.907 185.274 163.227 188.634C164.547 191.994 165.531 194.754 165.447 194.784Z" fill="#263238"/>
<g opacity="0.3">
<path d="M184.508 204.402C184.236 202.838 183.585 201.365 182.612 200.112C181.202 198.516 178.97 197.838 176.846 197.85C174.716 197.963 172.613 198.377 170.6 199.08L166.766 205.08C166.891 205.442 167.096 205.772 167.366 206.044C167.636 206.316 167.964 206.524 168.326 206.652C169.048 206.903 169.805 207.039 170.57 207.054C174.538 207.342 178.506 207.508 182.474 207.552C182.986 207.605 183.503 207.509 183.962 207.276C184.802 206.688 184.742 205.41 184.508 204.402Z" fill="black"/>
</g>
<path d="M158.305 176.893C158.432 177.09 158.537 177.301 158.617 177.523C158.803 177.931 159.055 178.531 159.355 179.281C159.955 180.775 160.759 182.881 161.569 185.179C162.379 187.477 163.051 189.625 163.501 191.179C163.729 191.947 163.909 192.577 164.017 193.015C164.094 193.235 164.142 193.465 164.161 193.699C164.052 193.492 163.966 193.275 163.903 193.051L163.303 191.251C162.799 189.721 162.103 187.609 161.287 185.293C160.471 182.977 159.715 180.883 159.163 179.371C158.905 178.663 158.689 178.063 158.515 177.571C158.418 177.354 158.348 177.126 158.305 176.893Z" fill="#263238"/>
<path d="M158.277 178.8L165.003 203.334C165.12 203.736 165.366 204.088 165.704 204.335C166.041 204.582 166.45 204.711 166.869 204.702H181.455C181.735 204.712 182.015 204.658 182.271 204.543C182.528 204.429 182.755 204.258 182.936 204.043C183.117 203.828 183.247 203.575 183.316 203.302C183.384 203.03 183.39 202.745 183.333 202.47L177.435 177.948C177.327 177.535 177.083 177.17 176.742 176.912C176.401 176.654 175.984 176.518 175.557 176.526H160.137C159.853 176.517 159.57 176.573 159.311 176.69C159.052 176.808 158.824 176.983 158.644 177.203C158.464 177.423 158.337 177.682 158.274 177.959C158.21 178.236 158.211 178.524 158.277 178.8Z" fill="#263238"/>
<path d="M163.338 183.386C163.338 183.386 161.598 182.558 160.224 183.386C158.85 184.214 156.624 187.874 156.624 187.874L155.25 193.694L156.192 201.602L156.564 205.268L165.444 206.276V203.342L175.614 195.74C175.614 195.74 179.184 194.75 178.908 193.688C178.632 192.626 178.176 191.888 177.168 192.08C176.16 192.272 165.264 195.08 165.264 195.08C165.264 195.08 163.524 195.446 163.614 194.984C163.704 194.522 168.744 192.146 169.566 191.594C170.388 191.042 174.24 190.13 173.766 188.39C173.709 188.076 173.581 187.779 173.393 187.522C173.204 187.264 172.96 187.053 172.678 186.903C172.397 186.754 172.085 186.67 171.766 186.658C171.447 186.647 171.13 186.707 170.838 186.836L162.042 190.04L160.578 190.406L160.764 188.114L162.318 186.008C162.457 186.052 162.603 186.067 162.749 186.053C162.894 186.04 163.035 185.997 163.163 185.927C163.291 185.858 163.404 185.763 163.495 185.649C163.586 185.535 163.653 185.404 163.692 185.264C163.815 184.949 163.847 184.606 163.785 184.274C163.722 183.942 163.567 183.634 163.338 183.386Z" fill="#FFBE9D"/>
<path d="M162.154 189.996C161.478 190.383 160.754 190.678 160 190.872C159.281 191.175 158.524 191.377 157.75 191.472C158.427 191.088 159.151 190.794 159.904 190.596C160.624 190.297 161.381 190.095 162.154 189.996Z" fill="#EB996E"/>
<path d="M164.165 195.283C163.534 195.631 162.857 195.887 162.155 196.045C161.481 196.303 160.774 196.46 160.055 196.513C161.358 195.912 162.743 195.508 164.165 195.313V195.283Z" fill="#EB996E"/>
<path d="M175.061 195.828C174.905 195.952 174.734 196.055 174.551 196.134C174.209 196.314 173.711 196.56 173.081 196.848C171.45 197.585 169.782 198.238 168.083 198.804C166.384 199.375 164.656 199.854 162.905 200.238C162.233 200.388 161.705 200.49 161.303 200.55C161.106 200.596 160.905 200.618 160.703 200.616C161.405 200.374 162.12 200.174 162.845 200.016C164.171 199.674 165.995 199.164 167.975 198.504C169.955 197.844 171.719 197.154 172.991 196.638C173.665 196.329 174.356 196.059 175.061 195.828Z" fill="#EB996E"/>
<path d="M158.954 200.13C158.924 200.208 158.354 199.908 158.174 199.212C157.994 198.516 158.294 197.97 158.36 198.012C158.426 198.054 158.306 198.54 158.474 199.116C158.642 199.692 159.002 200.058 158.954 200.13Z" fill="#EB996E"/>
<path d="M157.199 195.505C157.199 195.541 157.037 195.505 156.833 195.403C156.578 195.228 156.387 194.975 156.287 194.682C156.188 194.388 156.186 194.071 156.281 193.777C156.365 193.555 156.473 193.453 156.509 193.471C156.545 193.489 156.377 194.005 156.587 194.581C156.797 195.157 157.199 195.421 157.199 195.505Z" fill="#EB996E"/>
<path d="M156.188 189.84C156.193 189.937 156.183 190.034 156.158 190.128C156.116 190.35 156.062 190.614 156.002 190.944C155.852 191.7 155.642 192.744 155.402 193.98V193.944C155.792 196.728 156.326 200.76 156.908 205.284V205.32V205.362C156.794 205.668 156.668 205.992 156.548 206.322C155.239 210.023 154.629 213.936 154.748 217.86C154.781 219.048 154.88 220.234 155.042 221.412C155.096 221.802 155.138 222.12 155.174 222.372C155.199 222.484 155.209 222.599 155.204 222.714C155.164 222.607 155.134 222.496 155.114 222.384C155.066 222.168 154.988 221.85 154.916 221.43C154.712 220.251 154.582 219.061 154.526 217.866C154.339 213.906 154.926 209.949 156.254 206.214C156.374 205.884 156.5 205.554 156.614 205.248V205.326C156.014 200.796 155.534 196.764 155.21 193.968L155.924 190.968C156.008 190.644 156.074 190.368 156.128 190.164C156.14 190.054 156.16 189.946 156.188 189.84Z" fill="#EB996E"/>
<path d="M166.911 202.484C166.335 203.078 165.643 203.548 164.877 203.864C164.155 204.269 163.356 204.52 162.531 204.602C162.531 204.518 163.539 204.17 164.739 203.582C165.939 202.994 166.857 202.406 166.911 202.484Z" fill="#EB996E"/>
<path d="M223.203 214.951C223.203 214.951 225.525 215.551 225.753 217.063C225.981 218.575 224.127 244.663 224.127 244.663H226.335C226.335 244.663 227.217 218.821 227.181 216.973C227.145 215.125 226.269 215.005 225.939 214.873C225.041 214.614 224.085 214.642 223.203 214.951Z" fill="#263238"/>
<path d="M222.028 214.902L232.654 215.31L230.536 202.482L231.262 196.272L245.344 184.512C245.344 184.512 250.27 213.084 250.714 216.384C251.242 220.344 250.474 225.594 248.554 227.472C246.916 229.068 235.114 227.472 230.554 227.472C228.034 227.472 222.01 227.514 222.01 227.514L219.898 217.662L222.028 214.902Z" fill="#FFBE9D"/>
<path d="M248.554 215.346C248.512 215.4 247.792 214.746 246.406 214.146C244.611 213.335 242.642 212.98 240.676 213.114C239.6 213.186 238.539 213.413 237.526 213.786C236.596 214.122 235.792 214.566 235.078 214.842C234.516 215.082 233.922 215.239 233.314 215.31C233.094 215.352 232.869 215.352 232.648 215.31C233.458 215.22 234.248 215.001 234.988 214.662C235.684 214.362 236.47 213.906 237.424 213.54C238.46 213.14 239.551 212.899 240.658 212.826C242.673 212.687 244.688 213.08 246.502 213.966C247.045 214.236 247.563 214.553 248.05 214.914C248.235 215.038 248.404 215.183 248.554 215.346Z" fill="#EB996E"/>
<path d="M211.073 238.561C210.683 239.059 206.195 277.723 206.195 277.723L252.833 277.567L245.441 238.681L211.073 238.561Z" fill="#B0BEC5"/>
<path d="M218.81 277.621C218.726 277.621 218.24 268.933 217.73 258.205C217.22 247.477 216.878 238.801 216.968 238.801C217.058 238.801 217.532 247.489 218.042 258.217C218.552 268.945 218.894 277.615 218.81 277.621Z" fill="#263238"/>
<path d="M199.802 215.551C201.09 215.364 202.365 215.093 203.618 214.741C204.205 214.456 204.772 214.131 205.316 213.769L211.316 213.283L222.026 214.903C222.026 214.903 223.826 216.199 223.568 220.177C223.349 222.841 222.776 225.464 221.864 227.977C221.864 227.977 217.064 231.883 215.78 232.123C214.496 232.363 207.176 231.955 206.45 231.385C206.021 231.06 205.662 230.652 205.394 230.185C205.003 229.986 204.688 229.663 204.497 229.268C204.307 228.872 204.251 228.425 204.338 227.995C204.338 227.995 201.824 224.749 201.5 223.369C201.176 221.989 201.578 221.665 201.578 221.665C201.578 221.665 200.852 219.799 201.416 219.151C201.558 218.993 201.73 218.865 201.923 218.775C202.115 218.685 202.324 218.635 202.536 218.628C202.749 218.621 202.96 218.656 203.159 218.733C203.357 218.809 203.538 218.925 203.69 219.073C204.26 219.721 207.83 219.235 207.83 219.235L210.992 217.123C209.365 217.537 207.711 217.835 206.042 218.017C204.344 218.065 199.232 219.205 199.802 215.551Z" fill="#FFBE9D"/>
<path d="M212.212 223.201C212.212 223.249 211.558 223.363 210.538 223.717C210.028 223.891 209.422 224.119 208.738 224.317C207.987 224.57 207.202 224.711 206.41 224.737C205.599 224.763 204.797 224.555 204.1 224.137C203.55 223.789 203.061 223.351 202.654 222.841C202.382 222.506 202.131 222.153 201.904 221.785C201.742 221.527 201.664 221.377 201.682 221.365C201.7 221.353 202.108 221.893 202.822 222.697C203.231 223.169 203.711 223.574 204.244 223.897C204.901 224.271 205.649 224.454 206.404 224.425C208.024 224.383 209.404 223.765 210.478 223.489C211.035 223.294 211.622 223.196 212.212 223.201Z" fill="#EB996E"/>
<path d="M214.4 220.344C214.43 220.344 214.544 220.416 214.628 220.638C214.73 220.927 214.73 221.242 214.628 221.532C214.53 221.824 214.332 222.072 214.07 222.234C213.866 222.354 213.722 222.354 213.704 222.318C213.686 222.282 214.142 222 214.334 221.43C214.526 220.86 214.322 220.38 214.4 220.344Z" fill="#EB996E"/>
<path d="M214.161 227.443C213.67 227.585 213.165 227.675 212.655 227.713C211.719 227.845 210.423 228.001 208.995 228.151C208.319 228.242 207.637 228.294 206.955 228.307C206.388 228.318 205.823 228.229 205.287 228.043C204.774 227.905 204.329 227.582 204.039 227.137C204.439 227.437 204.885 227.672 205.359 227.833C205.877 227.982 206.416 228.045 206.955 228.019C207.555 228.019 208.245 227.917 208.959 227.845C210.393 227.689 211.689 227.569 212.631 227.497C213.138 227.427 213.651 227.409 214.161 227.443Z" fill="#EB996E"/>
<path d="M216.936 224.875C216.972 224.875 217.086 224.995 217.164 225.265C217.266 225.618 217.266 225.992 217.164 226.345C217.063 226.699 216.868 227.018 216.6 227.269C216.39 227.449 216.222 227.503 216.204 227.473C216.186 227.443 216.666 226.993 216.864 226.273C216.944 225.812 216.968 225.342 216.936 224.875Z" fill="#EB996E"/>
<path d="M215.209 230.713C214.745 230.85 214.265 230.922 213.781 230.929C211.46 231.114 209.125 230.969 206.845 230.497C206.365 230.432 205.897 230.301 205.453 230.107C205.933 230.122 206.411 230.181 206.881 230.281C207.757 230.413 208.969 230.563 210.313 230.647C211.657 230.731 212.881 230.731 213.769 230.713C214.248 230.668 214.73 230.668 215.209 230.713Z" fill="#EB996E"/>
<path d="M225.359 214.729C225.359 214.729 227.459 216.301 227.849 217.255C228.239 218.209 232.433 238.555 232.433 238.555H234.233C234.233 238.555 229.955 216.511 228.911 215.659C228.536 215.356 228.135 215.087 227.711 214.855C227.358 214.669 226.97 214.56 226.571 214.536C226.173 214.512 225.774 214.574 225.401 214.717L225.359 214.729Z" fill="#263238"/>
<path d="M184.389 218.725C183.791 218.804 183.186 218.804 182.589 218.725C179.735 218.457 176.983 217.524 174.555 216.001C174.038 215.707 173.561 215.35 173.133 214.939C173.163 214.897 173.733 215.281 174.669 215.809C175.897 216.506 177.189 217.085 178.527 217.537C179.864 217.985 181.24 218.31 182.637 218.509C183.717 218.641 184.389 218.677 184.389 218.725Z" fill="#263238"/>
<g opacity="0.3">
<path d="M194.905 218.4C193.804 218.304 192.695 218.346 191.605 218.526C185.995 219.126 180.205 219.126 175.062 216.252C175.801 217.795 177.064 219.024 178.627 219.72C180.405 220.328 182.273 220.634 184.153 220.626C188.665 220.81 193.186 220.61 197.665 220.026C197.353 219.568 196.944 219.184 196.467 218.903C195.99 218.622 195.456 218.45 194.905 218.4Z" fill="black"/>
</g>
<path d="M177.775 160.801C177.775 158.672 176.929 156.63 175.424 155.125C173.918 153.619 171.876 152.773 169.747 152.773H120.871C118.781 152.831 116.795 153.701 115.337 155.2C113.878 156.699 113.062 158.707 113.062 160.798C113.062 162.89 113.878 164.898 115.337 166.397C116.795 167.896 118.781 168.766 120.871 168.823H150.085C152.827 171.469 157.513 175.039 157.513 175.039V168.529L170.335 168.787C174.721 168.655 177.775 165.001 177.775 160.801Z" fill="white"/>
<path d="M177.776 160.801C177.776 160.801 177.776 160.945 177.776 161.239C177.765 161.67 177.717 162.1 177.632 162.523C177.5 163.213 177.282 163.884 176.984 164.521C176.562 165.389 175.989 166.175 175.292 166.843C174.409 167.673 173.335 168.275 172.166 168.595C171.84 168.682 171.509 168.752 171.176 168.805C170.827 168.845 170.477 168.867 170.126 168.871L167.912 168.835L157.52 168.649L157.634 168.535C157.634 170.587 157.634 172.765 157.634 175.033V175.291L157.436 175.135C155.036 173.281 152.474 171.265 149.984 168.919L150.08 168.961H132.38H122.75C121.922 168.961 121.112 168.991 120.26 168.931C118.625 168.802 117.065 168.186 115.782 167.164C114.499 166.142 113.551 164.76 113.06 163.195C112.864 162.539 112.747 161.862 112.712 161.179C112.682 160.5 112.73 159.819 112.856 159.151C112.997 158.489 113.216 157.847 113.51 157.237C114.085 156.038 114.945 154.998 116.015 154.208C117.085 153.418 118.333 152.903 119.648 152.707C120.286 152.62 120.93 152.585 121.574 152.605H134.402L159.356 152.641H168.956C169.64 152.619 170.324 152.655 171.002 152.749C171.631 152.848 172.247 153.019 172.838 153.259C173.867 153.689 174.796 154.326 175.568 155.131C176.186 155.768 176.69 156.506 177.056 157.315C177.205 157.637 177.335 157.968 177.446 158.305C177.53 158.617 177.602 158.905 177.656 159.157C177.731 159.553 177.773 159.954 177.782 160.357C177.782 160.627 177.782 160.765 177.782 160.765C177.782 160.765 177.782 160.627 177.746 160.357C177.721 159.954 177.668 159.553 177.59 159.157C177.53 158.905 177.452 158.623 177.362 158.317C177.252 157.984 177.12 157.66 176.966 157.345C176.597 156.549 176.091 155.824 175.472 155.203C174.706 154.426 173.789 153.814 172.778 153.403C172.198 153.173 171.595 153.01 170.978 152.917C170.308 152.826 169.631 152.794 168.956 152.821H159.356H134.402H121.574C120.946 152.799 120.318 152.831 119.696 152.917C118.106 153.167 116.63 153.894 115.463 155.002C114.297 156.11 113.494 157.546 113.162 159.121C112.913 160.416 112.979 161.751 113.354 163.015C113.557 163.646 113.835 164.25 114.182 164.815C114.83 165.875 115.721 166.765 116.783 167.411C117.844 168.058 119.045 168.441 120.284 168.529C121.088 168.589 121.934 168.529 122.75 168.559H132.386H150.086H150.14L150.182 168.595C152.648 170.929 155.204 172.951 157.592 174.811L157.388 174.907C157.388 172.639 157.388 170.461 157.388 168.409V168.295H157.508L167.894 168.529C169.418 168.529 170.858 168.715 172.094 168.319C173.241 168.05 174.307 167.509 175.202 166.741C175.894 166.091 176.465 165.323 176.888 164.473C177.381 163.459 177.671 162.358 177.74 161.233C177.758 160.939 177.776 160.801 177.776 160.801Z" fill="#263238"/>
<path d="M167.229 163.302C167.101 163.31 166.973 163.31 166.845 163.302C166.268 163.225 165.727 162.978 165.29 162.594C164.853 162.21 164.539 161.704 164.389 161.142C164.239 160.58 164.258 159.985 164.446 159.434C164.633 158.883 164.979 158.4 165.441 158.045C165.902 157.691 166.458 157.481 167.039 157.442C167.62 157.403 168.199 157.538 168.704 157.828C169.208 158.118 169.616 158.551 169.874 159.072C170.133 159.594 170.231 160.18 170.157 160.758C170.057 161.463 169.706 162.109 169.168 162.577C168.63 163.044 167.942 163.301 167.229 163.302ZM167.229 158.004C166.659 158.003 166.109 158.211 165.681 158.588C165.254 158.965 164.979 159.484 164.907 160.05C164.829 160.667 164.997 161.29 165.376 161.783C165.754 162.276 166.313 162.6 166.929 162.684C167.547 162.764 168.172 162.595 168.666 162.215C169.16 161.834 169.482 161.274 169.563 160.656C169.603 160.35 169.583 160.039 169.503 159.741C169.424 159.443 169.286 159.164 169.098 158.919C168.91 158.675 168.676 158.469 168.409 158.315C168.142 158.161 167.847 158.062 167.541 158.022C167.435 158.009 167.329 158.003 167.223 158.004H167.229Z" fill="#263238"/>
<path d="M171.234 163.991C171.164 163.989 171.096 163.964 171.042 163.919L169.116 162.311C169.086 162.285 169.061 162.255 169.042 162.22C169.024 162.185 169.013 162.147 169.009 162.107C169.005 162.068 169.01 162.028 169.021 161.991C169.033 161.953 169.052 161.918 169.077 161.888C169.102 161.857 169.133 161.832 169.168 161.814C169.203 161.796 169.241 161.784 169.281 161.781C169.32 161.777 169.359 161.781 169.397 161.793C169.435 161.804 169.47 161.823 169.5 161.849L171.426 163.457C171.487 163.508 171.526 163.581 171.534 163.661C171.542 163.741 171.518 163.82 171.468 163.883C171.44 163.917 171.404 163.944 171.363 163.963C171.323 163.982 171.279 163.991 171.234 163.991Z" fill="#263238"/>
<path d="M121.461 163.199L121.857 162.305C122.276 162.575 122.762 162.723 123.261 162.731C123.765 162.731 123.957 162.587 123.957 162.383C123.957 161.705 121.557 162.197 121.557 160.613C121.557 159.851 122.157 159.227 123.447 159.227C123.986 159.22 124.518 159.348 124.995 159.599L124.623 160.499C124.257 160.289 123.844 160.175 123.423 160.169C122.913 160.169 122.733 160.337 122.733 160.553C122.733 161.201 125.133 160.715 125.133 162.287C125.133 163.031 124.533 163.667 123.243 163.667C122.617 163.681 121.999 163.519 121.461 163.199Z" fill="#263238"/>
<path d="M129.763 159.293V163.565H128.563V161.897H126.919V163.565H125.719V159.293H126.919V160.901H128.563V159.293H129.763Z" fill="#263238"/>
<path d="M130.397 161.43C130.361 160.949 130.471 160.468 130.711 160.051C130.952 159.633 131.313 159.298 131.747 159.088C132.181 158.879 132.669 158.805 133.145 158.876C133.622 158.947 134.066 159.16 134.42 159.488C134.774 159.815 135.021 160.241 135.129 160.711C135.238 161.181 135.202 161.672 135.027 162.122C134.851 162.571 134.545 162.957 134.148 163.229C133.75 163.502 133.279 163.648 132.797 163.65C132.491 163.673 132.184 163.632 131.894 163.531C131.605 163.43 131.339 163.271 131.114 163.062C130.889 162.854 130.709 162.602 130.585 162.321C130.462 162.04 130.398 161.736 130.397 161.43ZM133.925 161.43C133.917 161.203 133.842 160.983 133.71 160.798C133.578 160.613 133.394 160.471 133.182 160.39C132.97 160.309 132.739 160.292 132.517 160.341C132.295 160.391 132.093 160.504 131.935 160.667C131.777 160.831 131.671 161.037 131.63 161.261C131.588 161.484 131.613 161.715 131.702 161.924C131.791 162.133 131.939 162.311 132.129 162.437C132.318 162.562 132.54 162.629 132.767 162.63C132.924 162.631 133.078 162.601 133.223 162.541C133.367 162.481 133.497 162.392 133.605 162.279C133.714 162.167 133.798 162.034 133.853 161.888C133.908 161.741 133.933 161.586 133.925 161.43Z" fill="#263238"/>
<path d="M139.621 160.877C139.621 161.843 138.889 162.449 137.725 162.449H136.981V163.565H135.781V159.293H137.737C138.889 159.293 139.621 159.899 139.621 160.877ZM138.421 160.877C138.421 160.481 138.175 160.247 137.671 160.247H136.981V161.495H137.647C138.151 161.495 138.397 161.267 138.397 160.877H138.421Z" fill="#263238"/>
</svg>
