<svg width="24" height="22" viewBox="0 0 24 22" fill="none" xmlns="http://www.w3.org/2000/svg">
<path d="M24 6.91762C24 7.41876 24 7.9199 24 8.42169C23.925 8.44568 23.9531 8.5144 23.9462 8.56432C23.8406 9.30209 23.6442 10.0126 23.3629 10.6992C22.7188 12.2726 21.7628 13.6334 20.6617 14.8885C18.2595 17.627 15.4327 19.8228 12.4008 21.7509C12.1207 21.9291 11.8456 21.9052 11.5642 21.7295C9.97853 20.7408 8.4604 19.651 7.0148 18.4555C5.11776 16.8866 3.34827 15.1835 1.93143 13.1232C1.15798 11.9984 0.541476 10.7925 0.205085 9.44602C0.124427 9.12316 0.116298 8.78409 0 8.46967C0 7.95232 0 7.43497 0 6.91762C0.0837849 6.8865 0.0493956 6.80806 0.0568987 6.7523C0.261359 5.20156 0.820342 3.81094 1.83577 2.6414C3.2376 1.02712 4.9902 0.227108 7.09108 0.433918C9.13943 0.635541 10.6901 1.73701 11.8306 3.48549C11.8843 3.56783 11.9181 3.67026 12.015 3.73185C12.297 3.26053 12.6009 2.82033 12.9742 2.43848C14.7887 0.583676 16.9346 -0.101583 19.3806 0.732138C21.8128 1.56132 23.1978 3.43687 23.8149 5.96332C23.8918 6.27904 23.8912 6.60903 24 6.91762Z" fill="#3C3C3C"/>
</svg>
