<svg width="51" height="51" viewBox="0 0 51 51" fill="none" xmlns="http://www.w3.org/2000/svg">
<circle cx="25.5" cy="25.5" r="25" fill="#3C3C3C" fill-opacity="0.1"/>
<path d="M22.6348 34.2733V31.2156C22.6348 30.4351 23.2722 29.8023 24.0584 29.8023H26.9326C27.3102 29.8023 27.6723 29.9512 27.9393 30.2163C28.2063 30.4813 28.3563 30.8408 28.3563 31.2156V34.2733C28.3539 34.5978 28.4821 34.9099 28.7124 35.1402C28.9427 35.3705 29.2561 35.5 29.5829 35.5H31.5438C32.4596 35.5023 33.3388 35.1428 33.9872 34.5008C34.6356 33.8588 35 32.987 35 32.0778V23.3669C35 22.6325 34.6721 21.9358 34.1046 21.4647L27.434 16.1759C26.2737 15.2486 24.6111 15.2785 23.4854 16.247L16.967 21.4647C16.3727 21.922 16.0176 22.6206 16 23.3669V32.0689C16 33.9639 17.5474 35.5 19.4562 35.5H21.3723C22.0512 35.5 22.603 34.9562 22.6079 34.2822L22.6348 34.2733Z" fill="#3C3C3C"/>
</svg>
