<svg width="25" height="25" viewBox="0 0 25 25" fill="none" xmlns="http://www.w3.org/2000/svg">
<path d="M5.88125 3.13986C6.36941 2.6517 7.16086 2.6517 7.64902 3.13986L10.1505 5.64135C10.6387 6.1295 10.6387 6.92096 10.1505 7.40911L8.75055 8.80907C8.46669 9.09293 8.42596 9.52806 8.62839 9.85661C9.48734 11.2507 10.2238 12.2815 11.1255 13.1887C12.0278 14.0966 13.0684 14.8534 14.5054 15.7332L14.8943 15.0981L14.5054 15.7332C14.8336 15.9341 15.2676 15.8932 15.5509 15.6098L16.9511 14.2097C17.4392 13.7215 18.2307 13.7215 18.7188 14.2097L21.2203 16.7112C21.7085 17.1993 21.7085 17.9908 21.2203 18.4789L19.8997 19.7996C18.7449 20.9544 17.0813 21.3354 15.7185 20.6682C10.626 18.1752 6.18501 13.7342 3.692 8.6417C3.02484 7.27889 3.40579 5.61532 4.56062 4.46049L5.88125 3.13986Z" stroke="#3C3C3C" stroke-width="1.5"/>
</svg>
