<svg width="20" height="20" viewBox="0 0 20 20" fill="none" xmlns="http://www.w3.org/2000/svg">
<g clip-path="url(#clip0_4741_1249)">
<path d="M14.7679 3.27832C14.5142 3.27832 14.2664 3.32673 14.0302 3.42289C13.0278 3.82821 12.5438 4.97446 12.9498 5.98066C13.2524 6.72417 13.9669 7.20436 14.7711 7.20436C15.0228 7.20436 15.2687 7.1566 15.5024 7.06172C15.9903 6.86422 16.3711 6.48989 16.575 6.00647C16.7803 5.52306 16.7854 4.99124 16.5886 4.50525C16.2878 3.7598 15.5708 3.27832 14.7679 3.27832ZM15.6998 5.63407C15.5934 5.8832 15.3965 6.07682 15.1461 6.1788C15.0254 6.22656 14.8989 6.25173 14.7717 6.25173C14.3561 6.25173 13.9876 6.00454 13.8333 5.62116C13.6236 5.10419 13.8733 4.51299 14.3884 4.30452C14.5097 4.25547 14.6381 4.2303 14.7679 4.2303C15.1822 4.2303 15.5514 4.47879 15.7076 4.86151C15.8076 5.11129 15.805 5.38559 15.6998 5.63407Z" fill="#3C3C3C"/>
<path d="M6.42594 10.7158C4.85049 10.7158 3.56741 11.9976 3.56741 13.575C3.56741 15.1485 4.84985 16.429 6.42594 16.429C8.00074 16.429 9.28253 15.1485 9.28253 13.575C9.28253 11.9983 8.00074 10.7158 6.42594 10.7158ZM6.42594 15.477C5.37521 15.477 4.51939 14.6238 4.51939 13.575C4.51939 12.5236 5.37521 11.6684 6.42594 11.6684C7.47667 11.6684 8.33055 12.5236 8.33055 13.575C8.33055 14.6238 7.47667 15.477 6.42594 15.477Z" fill="#3C3C3C"/>
<path d="M12.3359 12.3846L11.1658 11.9567C11.0974 11.7547 11.0154 11.5579 10.9212 11.3655L11.4446 10.2335C11.5692 9.96562 11.5266 9.64679 11.3362 9.42348C11.107 9.15111 10.8508 8.89553 10.5765 8.66383C10.4397 8.5483 10.2654 8.48376 10.0847 8.48376C9.97693 8.48376 9.87237 8.50635 9.77362 8.54959C9.77169 8.55088 9.7691 8.55217 9.76652 8.55346L8.63447 9.07818C8.44472 8.98524 8.24723 8.90328 8.04521 8.83551L7.61279 7.66021C7.51081 7.38591 7.25587 7.19294 6.96415 7.16777C6.60982 7.13679 6.24387 7.13679 5.89018 7.16777C5.59781 7.19294 5.34288 7.38591 5.23961 7.6628L4.81041 8.83293C4.60969 8.90199 4.41219 8.98395 4.21986 9.07818L3.08587 8.55346C3.08394 8.55217 3.082 8.55088 3.08006 8.54959C2.98067 8.50699 2.87611 8.48376 2.76833 8.48376C2.58697 8.48376 2.41206 8.54895 2.27588 8.66447C2.00094 8.89747 1.746 9.15305 1.51881 9.4209C1.32777 9.64421 1.28453 9.96175 1.4078 10.2322L1.93252 11.3642C1.83958 11.554 1.75762 11.7515 1.6892 11.9541L0.517136 12.3846C0.2409 12.486 0.046631 12.7415 0.0208145 13.0378C-0.00693817 13.3928 -0.00693817 13.7516 0.0208145 14.1079C0.0459855 14.4015 0.240254 14.6571 0.51649 14.7578L1.68791 15.1889C1.75633 15.3903 1.83829 15.5872 1.93252 15.7782L1.40716 16.9161C1.28582 17.18 1.32842 17.495 1.51623 17.7222C1.74535 17.9939 2.00223 18.2501 2.27782 18.4838C2.27975 18.4851 2.28104 18.4863 2.28234 18.4876C2.41916 18.6006 2.59149 18.6612 2.76833 18.6612C2.87934 18.6612 2.99035 18.6367 3.08716 18.5909L4.21663 18.0662C4.40638 18.1604 4.60453 18.2417 4.80848 18.3114L5.23961 19.4829C5.34288 19.7623 5.5991 19.9553 5.89277 19.9766C6.07284 19.9914 6.25291 19.9998 6.42652 19.9998C6.60078 19.9998 6.78021 19.9914 6.96092 19.9766C7.25458 19.9559 7.51081 19.7623 7.61343 19.4816L8.04328 18.3134C8.24335 18.2443 8.44085 18.1611 8.63318 18.0681L9.77233 18.5948C9.87043 18.638 9.97499 18.6606 10.0834 18.6606C10.259 18.6606 10.4319 18.5999 10.5681 18.4883C10.5707 18.487 10.5733 18.4844 10.5759 18.4818C10.8495 18.2501 11.1051 17.9945 11.3336 17.7254C11.5266 17.5021 11.5704 17.182 11.4446 16.9141L10.9212 15.7801C11.0147 15.5878 11.0961 15.3903 11.1645 15.1883L12.3359 14.7584C12.6128 14.6565 12.8064 14.4009 12.8322 14.1072C12.8606 13.7523 12.8606 13.3921 12.8316 13.0333C12.8071 12.7415 12.6115 12.4866 12.3359 12.3846ZM11.8919 13.9071L10.6159 14.3777C10.4732 14.4306 10.3635 14.5474 10.3222 14.6933C10.2383 14.9863 10.1209 15.2715 9.9737 15.5394C9.90012 15.6717 9.89496 15.8318 9.95886 15.9699L10.5288 17.202C10.3803 17.3691 10.2202 17.5279 10.0531 17.6763L8.82035 17.1045C8.68352 17.0413 8.52346 17.0477 8.39051 17.1194C8.11943 17.2691 7.83416 17.3872 7.54437 17.473C7.39851 17.5137 7.28169 17.6228 7.22941 17.7654L6.76343 19.0362C6.53495 19.0511 6.31874 19.0511 6.09091 19.0362L5.62169 17.7628C5.56877 17.6202 5.45195 17.5111 5.30673 17.4692C5.00726 17.3833 4.72263 17.2646 4.46189 17.1194C4.32829 17.0451 4.16823 17.0387 4.03011 17.1032L2.79866 17.6738C2.62957 17.5253 2.4708 17.3646 2.32429 17.2007L2.89418 15.966C2.95808 15.8279 2.95163 15.6685 2.87805 15.5355C2.72961 15.2664 2.6115 14.983 2.52824 14.6913C2.48629 14.5455 2.37721 14.4267 2.23393 14.3751L0.961178 13.9071C0.94827 13.6838 0.94827 13.4586 0.961178 13.2366L2.23651 12.7674C2.3785 12.7157 2.48693 12.5976 2.53017 12.453C2.61601 12.1542 2.73348 11.8702 2.87934 11.6069C2.95292 11.4733 2.95937 11.3132 2.89548 11.1758L2.32558 9.94562C2.47273 9.77974 2.63215 9.62097 2.80125 9.46995L4.03398 10.0405C4.17145 10.105 4.33152 10.0986 4.46447 10.0256C4.73425 9.87591 5.01823 9.7578 5.30802 9.67519C5.45453 9.63324 5.572 9.52416 5.62427 9.38088L6.09091 8.10748C6.31422 8.09393 6.54011 8.09393 6.76343 8.10748L7.23264 9.38346C7.28492 9.52803 7.40238 9.63711 7.54824 9.67777C7.84384 9.76296 8.12847 9.87978 8.39309 10.0256C8.5254 10.0986 8.68546 10.105 8.82358 10.0405L10.0537 9.46995C10.2222 9.61839 10.381 9.77781 10.5294 9.94562L9.9595 11.1796C9.89561 11.3171 9.90141 11.4772 9.97499 11.6095C10.1228 11.8773 10.2409 12.1613 10.3254 12.4556C10.3668 12.6008 10.4765 12.7183 10.6191 12.7699L11.8925 13.2366C11.9041 13.4592 11.9041 13.6851 11.8919 13.9071Z" fill="#3C3C3C"/>
<path d="M19.0251 5.50729C19.0335 5.35239 19.036 5.19556 19.0276 5.03872L19.7724 4.36169C19.9758 4.17839 20.0564 3.88796 19.9745 3.6214C19.8835 3.32774 19.7686 3.04376 19.6311 2.77462C19.5085 2.53518 19.2639 2.38609 18.998 2.38609C18.9876 2.38609 18.9779 2.38609 18.9728 2.38609L17.9685 2.41965C17.8672 2.30412 17.7562 2.19246 17.64 2.08597L17.6878 1.07913C17.6878 1.07525 17.6878 1.07009 17.6891 1.06557C17.6942 0.791274 17.5413 0.535046 17.3057 0.414354C17.0398 0.2743 16.759 0.155544 16.4654 0.0574414C16.395 0.0354974 16.3201 0.0225893 16.2453 0.0225893C16.0497 0.0225893 15.86 0.104556 15.7244 0.248483L15.0384 0.983607C14.8809 0.973926 14.726 0.972635 14.5691 0.98038L13.8921 0.233639C13.7585 0.0851943 13.5649 0 13.3635 0C13.2919 0 13.2209 0.0109721 13.1518 0.0322707C12.8633 0.122628 12.5793 0.23622 12.3083 0.374338C12.0598 0.498903 11.9062 0.759649 11.9178 1.0333L11.9507 2.03885C11.8332 2.14341 11.7222 2.25249 11.617 2.36801L10.6108 2.31961C10.332 2.30605 10.0739 2.45514 9.94735 2.69911C9.80665 2.96566 9.68661 3.24835 9.59044 3.53879C9.58979 3.54202 9.5885 3.54589 9.58721 3.54847C9.50783 3.80986 9.57947 4.09062 9.78213 4.28424L10.5166 4.96902C10.5063 5.12585 10.505 5.28334 10.5127 5.43952L9.76535 6.11656C9.56269 6.30373 9.48459 6.59223 9.56462 6.85104C9.60786 6.99497 9.65821 7.13567 9.71823 7.28476C9.7789 7.4332 9.84086 7.56874 9.90669 7.69782C10.028 7.94114 10.272 8.09087 10.5437 8.09087C10.5515 8.09087 10.5573 8.09087 10.5676 8.08958L11.5699 8.05602C11.6732 8.17349 11.7842 8.28514 11.9004 8.39099L11.852 9.40106C11.8403 9.67407 11.9901 9.93288 12.2308 10.06C12.4883 10.1969 12.7704 10.3169 13.0718 10.4176C13.1434 10.4421 13.2196 10.4537 13.2951 10.4537C13.4932 10.4537 13.683 10.3705 13.8159 10.2252L14.5014 9.49335C14.6576 9.50239 14.8138 9.50368 14.9719 9.49593L15.6476 10.2388C15.7832 10.3885 15.9768 10.4737 16.1769 10.4737C16.2472 10.4737 16.3189 10.4641 16.3866 10.4428C16.6771 10.3524 16.9623 10.2375 17.2282 10.102C17.4767 9.97999 17.6316 9.71989 17.6226 9.43914L17.589 8.43746C17.7058 8.33419 17.8175 8.22254 17.9227 8.10701L18.9289 8.15541C18.9412 8.15671 18.9521 8.1567 18.9644 8.1567C19.2316 8.1567 19.4717 8.0102 19.5937 7.77591C19.7337 7.51323 19.8538 7.23183 19.9506 6.93752C20.0364 6.67742 19.9635 6.38634 19.7615 6.1953L19.0251 5.50729ZM18.0615 4.89415C18.0892 5.14328 18.0866 5.39306 18.0563 5.63638C18.0369 5.7874 18.0931 5.93907 18.2035 6.04298L18.9947 6.78392C18.9424 6.9272 18.8837 7.06467 18.8185 7.19698L17.7375 7.14406C17.5851 7.1376 17.4399 7.20214 17.3451 7.31961C17.1863 7.51581 17.0062 7.69266 16.8107 7.84626C16.6913 7.93985 16.6241 8.08442 16.6293 8.23674L16.6661 9.31522C16.5305 9.37847 16.3905 9.43591 16.2491 9.48561L15.5205 8.68207C15.4295 8.58332 15.301 8.52717 15.1687 8.52717C15.1513 8.52717 15.1332 8.52717 15.1171 8.52975C14.8634 8.55686 14.613 8.55428 14.3723 8.52459C14.2226 8.50523 14.0696 8.56073 13.9663 8.67239L13.2267 9.46237C13.0815 9.40945 12.944 9.34943 12.8117 9.28682L12.864 8.20447C12.8717 8.05215 12.8052 7.90693 12.6878 7.81141C12.4922 7.65264 12.3167 7.47451 12.165 7.28088C12.0714 7.15955 11.9262 7.09242 11.7732 7.0963L10.6928 7.13373C10.6625 7.06661 10.6321 6.99884 10.6024 6.92591C10.5734 6.85556 10.5476 6.78521 10.5231 6.71744L11.3253 5.98877C11.4376 5.88679 11.4957 5.73641 11.4783 5.58668C11.4525 5.34142 11.455 5.08842 11.4841 4.83671C11.5021 4.68698 11.4473 4.53659 11.3363 4.43268L10.5456 3.69369C10.5973 3.5517 10.6554 3.41423 10.7212 3.27998L11.8055 3.33097C11.9572 3.33871 12.1024 3.27288 12.1979 3.15542C12.3528 2.96437 12.5335 2.78624 12.731 2.62876C12.8498 2.53518 12.9162 2.39189 12.9111 2.24022L12.8756 1.15916C13.0118 1.09655 13.1518 1.03976 13.2925 0.990061L14.0199 1.7936C14.1225 1.90525 14.2716 1.96205 14.4213 1.94721C14.6692 1.92074 14.9222 1.92203 15.1726 1.95237C15.3223 1.96915 15.4734 1.91493 15.5753 1.80392L16.3137 1.01523C16.455 1.06686 16.5944 1.12689 16.7306 1.19078L16.679 2.27185C16.6712 2.42287 16.7358 2.56809 16.852 2.66361C17.0527 2.82561 17.2276 3.00697 17.3773 3.19801C17.4716 3.31677 17.6155 3.38389 17.7678 3.38002L18.8508 3.34388C18.9128 3.47877 18.9696 3.61753 19.0193 3.76146L18.2157 4.49013C18.1034 4.59275 18.046 4.74248 18.0615 4.89415Z" fill="#3C3C3C"/>
</g>
<defs>
<clipPath id="clip0_4741_1249">
<rect width="20" height="20" fill="white"/>
</clipPath>
</defs>
</svg>
