<svg width="24" height="25" viewBox="0 0 24 25" fill="none" xmlns="http://www.w3.org/2000/svg">
<path fill-rule="evenodd" clip-rule="evenodd" d="M23.0455 17.1152V17.503C23.0455 18.9487 21.8733 20.1209 20.4276 20.1209H18.7933V19.8913C18.8063 19.7355 18.8208 19.5816 18.8208 19.4111C18.8208 16.6446 17.1878 14.2888 14.8901 12.8108C16.724 12.7392 18.3577 11.8926 19.4656 10.5807C21.5667 11.9648 23.0699 14.1807 23.0699 16.687C23.0699 16.8391 23.057 16.9765 23.0455 17.1152ZM15.3718 11.7048C15.5933 11.0608 15.7193 10.3727 15.7193 9.65368C15.7193 6.5069 13.4143 3.90514 10.4021 3.4267C11.3566 2.11705 12.8978 1.2627 14.6423 1.2627C17.5415 1.2627 19.8917 3.6128 19.8917 6.51207C19.8919 9.16312 17.9248 11.3488 15.3718 11.7048ZM14.6558 9.65368C14.6558 12.5529 12.3057 14.9031 9.40641 14.9031C6.5074 14.9031 4.15703 12.5529 4.15703 9.65368C4.15703 6.75445 6.50714 4.4043 9.40641 4.4043C12.3056 4.4043 14.6558 6.75419 14.6558 9.65368ZM9.40641 15.9666C11.3366 15.9666 13.0617 15.0981 14.2194 13.7334C16.3118 15.1181 17.8074 17.3292 17.8074 19.8289C17.8074 19.981 17.7944 20.1183 17.7829 20.2571V20.6448C17.7829 22.0906 16.6108 23.2627 15.165 23.2627H3.62134C2.17556 23.2627 1.00344 22.0906 1.00344 20.6448V20.2514H1V19.8264H1.01416C1.01517 17.3299 2.50789 15.1214 4.59625 13.7367C5.75439 15.0991 7.47821 15.9666 9.40641 15.9666Z" fill="#3C3C3C"/>
</svg>
