<svg width="300" height="300" viewBox="0 0 300 300" fill="none" xmlns="http://www.w3.org/2000/svg">
<path d="M249.99 243C252.39 243 257.676 222.372 258.282 220.2C263.714 200.917 265.914 180.867 264.792 160.866C263.322 136.056 260.592 109.068 246.408 89.8916C217.668 50.9936 164.208 55.8956 137.034 94.2656C129 105.6 120.6 117.222 109.8 124.71C97.5299 133.254 83.0879 132.096 69.9179 137.388C49.9079 145.428 34.3679 173.442 34.8959 199.494C35.3219 220.59 48.3959 241.932 66.3659 243.474C83.5859 244.95 249.918 243 249.99 243Z" fill="#B0BEC5"/>
<path opacity="0.7" d="M249.99 243C252.39 243 257.676 222.372 258.282 220.2C263.714 200.917 265.914 180.867 264.792 160.866C263.322 136.056 260.592 109.068 246.408 89.8916C217.668 50.9936 164.208 55.8956 137.034 94.2656C129 105.6 120.6 117.222 109.8 124.71C97.5299 133.254 83.0879 132.096 69.9179 137.388C49.9079 145.428 34.3679 173.442 34.8959 199.494C35.3219 220.59 48.3959 241.932 66.3659 243.474C83.5859 244.95 249.918 243 249.99 243Z" fill="white"/>
<path d="M223.47 84.1561C221.07 82.8601 220.014 83.9401 219.15 82.8601C218.286 81.7801 221.55 78.9721 215.046 76.1581C215.046 76.1581 214.614 70.1101 205.752 69.8941C196.89 69.6781 199.272 75.9421 196.896 77.4541C194.52 78.9661 193.896 76.5901 191.496 78.1081C189.096 79.6261 190.2 82.6441 188.256 83.0761C186.312 83.5081 183.714 81.1321 181.338 82.6441C178.962 84.1561 178.938 85.4521 177.882 85.4521C176.826 85.4521 174.642 84.5881 173.346 85.4521C172.05 86.3161 170.538 87.3961 170.538 87.3961H225.198C225.198 87.3961 225.846 85.4521 223.47 84.1561Z" fill="white"/>
<path d="M120.402 85.3795C118.908 84.5635 118.224 85.2415 117.684 84.5635C117.144 83.8855 119.178 82.1215 115.098 80.3635C115.098 80.3635 114.828 76.5595 109.26 76.4215C103.692 76.2835 105.18 80.2255 103.686 81.1795C102.192 82.1335 101.784 80.6335 100.29 81.5875C98.7959 82.5415 99.4739 84.4435 98.2499 84.7135C97.0259 84.9835 95.3999 83.5135 93.9059 84.4435C92.4119 85.3735 92.4059 86.2075 91.7279 86.2075C91.0499 86.2075 89.6879 85.6615 88.8779 86.2075L87.1079 87.4075H121.488C121.488 87.4075 121.896 86.1955 120.402 85.3795Z" fill="#B0BEC5"/>
<path d="M120.402 85.3795C118.908 84.5635 118.224 85.2415 117.684 84.5635C117.144 83.8855 119.178 82.1215 115.098 80.3635C115.098 80.3635 114.828 76.5595 109.26 76.4215C103.692 76.2835 105.18 80.2255 103.686 81.1795C102.192 82.1335 101.784 80.6335 100.29 81.5875C98.7959 82.5415 99.4739 84.4435 98.2499 84.7135C97.0259 84.9835 95.3999 83.5135 93.9059 84.4435C92.4119 85.3735 92.4059 86.2075 91.7279 86.2075C91.0499 86.2075 89.6879 85.6615 88.8779 86.2075L87.1079 87.4075H121.488C121.488 87.4075 121.896 86.1955 120.402 85.3795Z" fill="#B0BEC5"/>
<path opacity="0.7" d="M120.402 85.3795C118.908 84.5635 118.224 85.2415 117.684 84.5635C117.144 83.8855 119.178 82.1215 115.098 80.3635C115.098 80.3635 114.828 76.5595 109.26 76.4215C103.692 76.2835 105.18 80.2255 103.686 81.1795C102.192 82.1335 101.784 80.6335 100.29 81.5875C98.7959 82.5415 99.4739 84.4435 98.2499 84.7135C97.0259 84.9835 95.3999 83.5135 93.9059 84.4435C92.4119 85.3735 92.4059 86.2075 91.7279 86.2075C91.0499 86.2075 89.6879 85.6615 88.8779 86.2075L87.1079 87.4075H121.488C121.488 87.4075 121.896 86.1955 120.402 85.3795Z" fill="white"/>
<path d="M275.784 241.086H39V244.92H275.784V241.086Z" fill="#263238"/>
<path d="M266.184 184.512C264.984 174.048 261.06 174.504 259.836 164.04C258.612 153.576 262.506 153.12 261.282 142.656C260.058 132.192 256.158 132.648 254.928 122.184C253.698 111.72 257.604 111.264 256.374 100.8C255.144 90.336 251.25 90.792 250.026 80.334L249.426 82.452C248.226 90.852 244.794 91.284 243.96 101.052C243.06 111.552 246.96 111.888 246.072 122.394C245.184 132.9 241.272 132.564 240.36 143.07C239.448 153.576 243.36 153.906 242.472 164.412C241.584 174.918 237.672 174.612 236.766 185.088C236.386 188.499 236.696 191.951 237.678 195.24C238.488 197.118 241.908 204.066 248.802 206.082C249.239 206.209 249.684 206.309 250.134 206.382V241.47H251.712V206.508C258.048 206.55 262.26 200.304 265.458 195.078L265.5 195.012C266.445 191.596 266.678 188.022 266.184 184.512ZM259.056 180.372L251.226 194.904V205.836H250.554V194.916L241.836 180.6C241.789 180.52 241.776 180.425 241.798 180.336C241.82 180.246 241.877 180.168 241.956 180.12C242.036 180.074 242.132 180.061 242.222 180.085C242.311 180.108 242.388 180.166 242.436 180.246L250.578 193.608V152.4C250.517 152.379 250.463 152.342 250.422 152.292L243.456 143.292C243.429 143.257 243.409 143.217 243.397 143.174C243.385 143.131 243.382 143.087 243.388 143.043C243.393 142.999 243.407 142.956 243.429 142.918C243.451 142.879 243.481 142.845 243.516 142.818C243.551 142.791 243.591 142.771 243.634 142.759C243.676 142.747 243.721 142.744 243.765 142.75C243.809 142.755 243.852 142.77 243.89 142.792C243.929 142.814 243.963 142.843 243.99 142.878L250.59 151.38V112.2L245.904 102.828C245.869 102.746 245.868 102.654 245.901 102.571C245.933 102.488 245.997 102.421 246.078 102.384C246.154 102.351 246.24 102.348 246.318 102.374C246.397 102.401 246.463 102.456 246.504 102.528L250.584 110.694V97.038C250.584 96.9489 250.619 96.8634 250.682 96.8004C250.745 96.7374 250.831 96.702 250.92 96.702C251.009 96.702 251.094 96.7374 251.157 96.8004C251.22 96.8634 251.256 96.9489 251.256 97.038V110.322L253.98 103.434C253.996 103.393 254.02 103.355 254.051 103.323C254.082 103.291 254.118 103.265 254.159 103.247C254.2 103.229 254.243 103.22 254.288 103.219C254.332 103.218 254.376 103.226 254.418 103.242C254.459 103.258 254.497 103.282 254.529 103.313C254.561 103.344 254.587 103.381 254.604 103.421C254.622 103.462 254.632 103.506 254.633 103.55C254.634 103.594 254.626 103.639 254.61 103.68L251.256 112.164V150.918L257.634 143.352C257.662 143.318 257.697 143.29 257.736 143.27C257.775 143.249 257.818 143.237 257.862 143.233C257.906 143.229 257.95 143.234 257.993 143.247C258.035 143.26 258.074 143.282 258.108 143.31C258.142 143.338 258.17 143.373 258.19 143.412C258.21 143.451 258.223 143.494 258.227 143.538C258.231 143.582 258.226 143.627 258.213 143.669C258.2 143.711 258.178 143.75 258.15 143.784L251.256 151.968V193.482L258.492 180.048C258.535 179.97 258.607 179.912 258.692 179.888C258.778 179.863 258.87 179.873 258.948 179.916C258.985 179.939 259.017 179.969 259.043 180.004C259.068 180.039 259.087 180.079 259.097 180.121C259.107 180.164 259.108 180.208 259.101 180.251C259.094 180.294 259.079 180.335 259.056 180.372Z" fill="#263238"/>
<path d="M270.6 241.458L268.728 240.858C267.762 240.564 267.444 239.688 266.484 237.936C265.524 236.184 262.956 238.812 261.03 238.812C259.104 238.812 261.348 236.766 260.388 235.014C259.428 233.262 256.86 235.308 254.616 234.72C252.372 234.132 255.576 228.876 252.372 229.17C251.772 229.224 251.334 229.698 250.998 230.43C250.692 229.698 250.29 229.23 249.75 229.17C246.828 228.876 249.75 234.138 247.704 234.72C245.658 235.302 243.324 233.262 242.448 235.014C241.572 236.766 243.612 238.812 241.848 238.812C240.084 238.812 237.756 236.184 236.88 237.936C236.004 239.688 235.71 240.564 234.834 240.858L233.13 241.458H270.6Z" fill="#263238"/>
<path d="M105 155.766V155.736H104.964V155.706C104.13 155.622 95.4959 154.884 87.6179 158.976C91.0965 154.604 92.6997 149.03 92.0759 143.478C90.1799 124.458 72.2279 113.568 70.8479 112.758V112.71H70.7639V112.8C69.3779 113.61 51.4319 124.5 49.5299 143.52C49.1236 147.202 49.6904 150.926 51.1739 154.32C41.0699 148.278 29.2859 149.298 28.1999 149.4H28.0799V149.436C27.5459 150.636 20.8019 166.884 28.9019 180.636C36.1499 192.954 51.3479 189.702 55.4759 188.544C58.9439 192.186 65.2679 200.472 68.0759 214.626H64.1399L66.0419 241.422H74.8979L76.7999 214.662H72.1619C74.2867 205.072 78.1198 195.942 83.4779 187.71C87.6059 188.742 98.7959 190.482 104.31 181.11C110.886 169.92 105.408 156.768 105 155.766ZM70.5239 155.664L61.1639 142.662C61.1441 142.635 61.1297 142.605 61.1217 142.573C61.1137 142.54 61.1121 142.507 61.1171 142.474C61.1221 142.441 61.1336 142.409 61.1509 142.381C61.1682 142.352 61.191 142.328 61.2179 142.308C61.2729 142.268 61.3416 142.251 61.4091 142.261C61.4766 142.271 61.5373 142.307 61.5779 142.362L70.5119 154.8V141.642L61.1519 128.646C61.1115 128.591 61.0945 128.522 61.1046 128.455C61.1147 128.387 61.1512 128.327 61.2059 128.286C61.2621 128.248 61.3309 128.233 61.398 128.244C61.465 128.255 61.5252 128.292 61.5659 128.346L70.5239 140.796V121.596C70.5357 121.529 70.5729 121.469 70.6276 121.429C70.6824 121.389 70.7506 121.371 70.8179 121.38C70.8726 121.387 70.9234 121.412 70.9624 121.451C71.0014 121.491 71.0266 121.541 71.0339 121.596V140.13L80.7539 127.8C80.7954 127.748 80.8553 127.714 80.9213 127.705C80.9873 127.696 81.0541 127.713 81.1079 127.752C81.1591 127.794 81.1921 127.855 81.1999 127.921C81.2077 127.986 81.1898 128.053 81.1499 128.106L71.0219 141V154.2L80.7419 141.87C80.7625 141.843 80.7882 141.821 80.8176 141.804C80.847 141.787 80.8794 141.776 80.913 141.773C80.9466 141.769 80.9807 141.772 81.0131 141.781C81.0456 141.791 81.0758 141.807 81.1019 141.828C81.1279 141.848 81.1497 141.874 81.1659 141.903C81.182 141.932 81.1924 141.963 81.1963 141.996C81.2002 142.029 81.1976 142.062 81.1886 142.094C81.1796 142.126 81.1644 142.156 81.1439 142.182L71.0219 155.022V166.158L80.7419 153.834C80.7834 153.782 80.8433 153.748 80.9093 153.739C80.9753 153.73 81.0421 153.747 81.0959 153.786C81.1472 153.828 81.1801 153.889 81.1879 153.955C81.1957 154.02 81.1778 154.087 81.1379 154.14L71.0219 166.98V167.226H70.1999L61.1459 154.626C61.1055 154.571 61.0885 154.502 61.0986 154.435C61.1087 154.367 61.1452 154.307 61.1999 154.266C61.2561 154.228 61.3249 154.213 61.392 154.224C61.459 154.235 61.5192 154.272 61.5599 154.326L70.5119 166.8V155.64L70.5239 155.664ZM55.6259 187.398L54.7079 186.138L41.5079 182.466C41.4585 182.446 41.4181 182.409 41.3943 182.361C41.3706 182.314 41.3653 182.259 41.3795 182.208C41.3936 182.157 41.4261 182.112 41.4709 182.084C41.5156 182.055 41.5694 182.044 41.6219 182.052L54.2999 185.58L48.7979 178.056L35.6279 174.384C35.5732 174.369 35.5268 174.332 35.4987 174.283C35.4706 174.233 35.4632 174.175 35.4779 174.12C35.4933 174.067 35.529 174.022 35.5773 173.995C35.6256 173.968 35.6826 173.961 35.7359 173.976L48.3899 177.504L41.8859 168.6L28.6859 164.928C28.6601 164.922 28.6357 164.91 28.6144 164.894C28.593 164.879 28.5751 164.859 28.5617 164.836C28.5482 164.813 28.5396 164.787 28.5362 164.761C28.5328 164.734 28.5347 164.708 28.5419 164.682C28.5489 164.655 28.5611 164.63 28.5779 164.608C28.5947 164.586 28.6157 164.567 28.6397 164.553C28.6636 164.539 28.6902 164.53 28.7177 164.527C28.7452 164.523 28.7731 164.525 28.7999 164.532L41.4539 168.06L32.3339 155.544C32.3008 155.498 32.2873 155.44 32.2963 155.384C32.3053 155.328 32.336 155.278 32.3819 155.244C32.4253 155.212 32.4795 155.197 32.5332 155.204C32.5868 155.211 32.6358 155.238 32.6699 155.28L42.1379 168.228L42.0479 155.4C42.0428 155.372 42.0435 155.343 42.0499 155.315C42.0562 155.287 42.0682 155.261 42.085 155.238C42.1019 155.215 42.1233 155.196 42.1478 155.181C42.1724 155.167 42.1996 155.158 42.2279 155.154C42.2556 155.149 42.2839 155.149 42.3114 155.155C42.3388 155.161 42.3648 155.173 42.3877 155.189C42.4107 155.205 42.4301 155.226 42.4449 155.25C42.4597 155.274 42.4696 155.3 42.4739 155.328C42.48 155.352 42.48 155.376 42.4739 155.4L42.5999 168.792L49.0979 177.69L49.0079 164.856C49.0028 164.828 49.0035 164.799 49.0099 164.771C49.0162 164.743 49.0282 164.717 49.0451 164.694C49.0619 164.671 49.0833 164.652 49.1078 164.637C49.1324 164.623 49.1596 164.614 49.1879 164.61C49.2156 164.605 49.2439 164.605 49.2714 164.611C49.2988 164.617 49.3248 164.629 49.3477 164.645C49.3707 164.661 49.3901 164.682 49.4049 164.706C49.4197 164.73 49.4296 164.756 49.4339 164.784C49.44 164.808 49.44 164.832 49.4339 164.856L49.5299 178.26L54.9299 185.76L54.8339 172.926C54.8369 172.87 54.8608 172.818 54.9009 172.779C54.9409 172.74 54.9941 172.717 55.0499 172.716C55.1056 172.716 55.159 172.738 55.1984 172.777C55.2378 172.817 55.2599 172.87 55.2599 172.926L55.3559 186.324L56.1419 187.398H55.6259ZM57.1259 187.398C59.0459 184.476 64.5899 174.882 61.2779 165.648C63.8524 167.347 66.6072 168.756 69.4919 169.848V211.512C66.4499 198.744 60.7199 191.112 57.2339 187.398H57.1259ZM71.5259 208.944V170.04C74.2716 169.04 76.9042 167.752 79.3799 166.2C74.0939 174.672 79.9799 184.458 81.5759 186.768C77.1345 193.615 73.7467 201.09 71.5259 208.944ZM104.478 168.33L93.7919 171.33L88.5119 178.53L98.7779 175.662C98.8004 175.656 98.8239 175.654 98.847 175.657C98.8702 175.66 98.8925 175.667 98.9126 175.679C98.9328 175.691 98.9504 175.707 98.9643 175.725C98.9783 175.744 98.9884 175.765 98.9939 175.788C99.0051 175.832 98.9988 175.878 98.9764 175.917C98.954 175.956 98.9173 175.985 98.8739 175.998L88.1819 178.998L83.7239 185.1L93.9899 182.238C94.0337 182.227 94.08 182.233 94.1192 182.256C94.1584 182.278 94.1873 182.315 94.1999 182.358C94.2113 182.402 94.2052 182.45 94.1829 182.49C94.1605 182.53 94.1237 182.56 94.0799 182.574L83.3939 185.574L82.8299 186.342C82.7279 186.282 82.6259 186.228 82.5359 186.162L82.8539 185.724L82.9319 174.852C82.9334 174.806 82.9523 174.763 82.9846 174.731C83.0169 174.698 83.0603 174.679 83.1059 174.678C83.1521 174.678 83.1963 174.696 83.229 174.729C83.2616 174.762 83.2799 174.806 83.2799 174.852L83.2079 185.262L87.6659 179.166L87.7439 168.294C87.7439 168.248 87.7623 168.204 87.7949 168.171C87.8275 168.138 87.8718 168.12 87.9179 168.12C87.9636 168.121 88.007 168.14 88.0393 168.173C88.0716 168.205 88.0904 168.248 88.0919 168.294L88.0139 178.71L93.2879 171.51L93.3659 160.632C93.3734 160.592 93.3946 160.556 93.4259 160.53C93.4571 160.504 93.4964 160.49 93.5369 160.49C93.5775 160.49 93.6168 160.504 93.648 160.53C93.6793 160.556 93.7004 160.592 93.7079 160.632L93.5999 171L101.28 160.494C101.307 160.458 101.348 160.434 101.393 160.427C101.437 160.42 101.483 160.432 101.52 160.458C101.538 160.471 101.554 160.487 101.565 160.505C101.577 160.524 101.586 160.545 101.589 160.566C101.593 160.588 101.593 160.61 101.588 160.632C101.583 160.653 101.575 160.674 101.562 160.692L94.1399 170.85L104.4 168C104.444 167.989 104.49 167.995 104.529 168.017C104.568 168.04 104.597 168.077 104.61 168.12C104.623 168.161 104.62 168.205 104.601 168.243C104.582 168.281 104.548 168.31 104.508 168.324L104.478 168.33Z" fill="#263238"/>
<path d="M206.94 119.094L205.35 114.33L202.002 109.746L200.082 115.092L204.468 120.858L206.94 119.094Z" fill="white"/>
<path d="M204.408 121.272L199.746 115.146L201.906 109.11L205.638 114.24L207.294 119.214L204.408 121.272ZM200.4 115.044L204.516 120.444L206.568 118.98L205.062 114.474L202.062 110.376L200.4 115.044Z" fill="#263238"/>
<path d="M230.64 133.902L217.296 134.37C216.803 134.389 216.315 134.266 215.889 134.016C215.464 133.766 215.119 133.4 214.896 132.96L206.94 119.094C206.94 119.094 204.648 120.33 204.468 120.858C204.288 121.386 209.784 134.718 212.142 140.658C212.339 141.158 212.688 141.584 213.14 141.876C213.592 142.167 214.124 142.31 214.662 142.284L229.584 141.684" fill="#B0BEC5"/>
<path d="M214.554 142.596C213.977 142.599 213.413 142.429 212.934 142.108C212.455 141.787 212.083 141.33 211.866 140.796C211.386 139.596 210.78 138.072 210.114 136.422C204.912 123.444 204.072 121.134 204.186 120.786C204.378 120.186 206.076 119.244 206.796 118.854L207.054 118.716L215.154 132.834C215.352 133.225 215.658 133.551 216.035 133.774C216.413 133.997 216.846 134.108 217.284 134.094L230.628 133.626V134.226L217.284 134.694C216.734 134.711 216.19 134.573 215.716 134.295C215.241 134.017 214.855 133.61 214.602 133.122L206.802 119.526C206.053 119.898 205.362 120.377 204.75 120.948C204.912 121.89 208.35 130.482 210.648 136.2C211.308 137.85 211.92 139.368 212.4 140.574C212.574 141.016 212.882 141.393 213.281 141.652C213.681 141.91 214.151 142.037 214.626 142.014L229.548 141.414V142.014L214.626 142.614L214.554 142.596Z" fill="#263238"/>
<path d="M207.838 121.369L205.749 122.235L205.921 122.651L208.01 121.785L207.838 121.369Z" fill="#263238"/>
<path d="M212.868 144.936H86.688V240.318H212.868V144.936Z" fill="#B0BEC5"/>
<path d="M212.868 240.6H86.6877C86.6081 240.6 86.5318 240.568 86.4756 240.512C86.4193 240.455 86.3877 240.379 86.3877 240.3V144.9C86.3877 144.82 86.4193 144.744 86.4756 144.687C86.5318 144.631 86.6081 144.6 86.6877 144.6H212.868C212.946 144.603 213.021 144.635 213.077 144.691C213.132 144.746 213.165 144.821 213.168 144.9V240.3C213.168 240.379 213.136 240.455 213.08 240.512C213.024 240.568 212.947 240.6 212.868 240.6ZM86.9997 240H212.58V145.2H86.9997V240Z" fill="#263238"/>
<path d="M86.688 144.936L142.644 90.2877C144.346 88.8456 146.501 88.0462 148.732 88.0286C150.963 88.0111 153.129 88.7765 154.854 90.1917L212.868 144.936H86.688Z" fill="#B0BEC5"/>
<path d="M212.868 145.236H86.688C86.6286 145.236 86.5704 145.219 86.5212 145.186C86.4719 145.153 86.4339 145.105 86.412 145.05C86.3896 144.995 86.3839 144.934 86.3956 144.875C86.4073 144.816 86.436 144.762 86.478 144.72L142.434 90.078C144.188 88.586 146.41 87.7568 148.712 87.7348C151.015 87.7129 153.252 88.4996 155.034 89.958L213.06 144.72C213.104 144.761 213.135 144.815 213.148 144.874C213.161 144.933 213.155 144.994 213.132 145.05C213.11 145.103 213.074 145.149 213.027 145.182C212.98 145.214 212.925 145.233 212.868 145.236ZM87.426 144.636H212.112L154.65 90.408C152.98 89.0415 150.883 88.3045 148.725 88.3254C146.568 88.3462 144.486 89.1236 142.842 90.522L87.426 144.636Z" fill="#263238"/>
<path d="M202.404 99.4082H97.1519V188.232H202.404V99.4082Z" fill="white"/>
<path d="M202.404 188.526H97.1516C97.072 188.526 96.9957 188.494 96.9394 188.438C96.8832 188.382 96.8516 188.306 96.8516 188.226V99.426C96.8516 99.3464 96.8832 99.2701 96.9394 99.2138C96.9957 99.1576 97.072 99.126 97.1516 99.126H202.404C202.483 99.126 202.559 99.1576 202.616 99.2138C202.672 99.2701 202.704 99.3464 202.704 99.426V188.226C202.704 188.306 202.672 188.382 202.616 188.438C202.559 188.494 202.483 188.526 202.404 188.526ZM97.4516 187.926H202.104V99.726H97.4516V187.926Z" fill="#263238"/>
<path d="M197.79 182.825H101.79C101.73 182.825 101.672 182.801 101.629 182.759C101.586 182.716 101.562 182.658 101.562 182.597V105.035C101.564 104.976 101.588 104.92 101.631 104.878C101.673 104.837 101.731 104.813 101.79 104.813H197.79C197.848 104.816 197.903 104.841 197.944 104.882C197.985 104.923 198.009 104.978 198.012 105.035V182.597C198.012 182.657 197.989 182.714 197.947 182.757C197.906 182.799 197.849 182.824 197.79 182.825ZM102 182.399H197.562V105.263H102V182.399Z" fill="#B0BEC5"/>
<path d="M194.724 180.72H104.832C104.673 180.72 104.52 180.657 104.408 180.544C104.295 180.432 104.232 180.279 104.232 180.12V107.52C104.232 107.361 104.295 107.208 104.408 107.096C104.52 106.983 104.673 106.92 104.832 106.92H194.724C194.883 106.92 195.036 106.983 195.148 107.096C195.261 107.208 195.324 107.361 195.324 107.52V180.12C195.324 180.279 195.261 180.432 195.148 180.544C195.036 180.657 194.883 180.72 194.724 180.72ZM105.432 179.52H194.124V108.12H105.432V179.52Z" fill="#B0BEC5"/>
<path d="M146.286 132.966C146.73 133.668 147.192 134.022 147.672 134.022V134.076C147.36 134.076 146.952 134.352 146.472 134.904C146.472 135.054 146.418 135.126 146.304 135.126C146.304 134.844 146.124 134.604 145.752 134.406C145.389 134.234 144.988 134.157 144.588 134.184H132.222L131.058 134.628L130.89 134.796H130.8C130.704 134.735 130.621 134.655 130.556 134.561C130.491 134.467 130.445 134.361 130.422 134.249C130.398 134.137 130.397 134.022 130.419 133.91C130.441 133.798 130.484 133.691 130.548 133.596C130.613 133.495 130.699 133.409 130.8 133.344H130.908C131.262 133.603 131.674 133.774 132.108 133.842L132.222 133.956H144.96C145.842 133.8 146.286 133.494 146.286 132.966ZM148.284 132.582C148.77 132.582 149.16 132.93 149.442 133.632V133.746H149.28C148.5 133.494 148.116 133.2 148.116 132.858V132.744L148.284 132.582ZM149.22 134.382H149.334L149.442 134.496C149.442 134.802 149.13 135.15 148.5 135.546H148.446C148.254 135.546 148.14 135.492 148.116 135.384V135.162C148.378 134.782 148.771 134.51 149.22 134.4V134.382ZM151.326 132.582L151.44 132.744V132.858C151.44 133.116 151.104 133.41 150.444 133.746H150.108V133.632C150.108 133.326 150.402 132.996 150.996 132.636L151.326 132.582ZM150.222 134.382C150.485 134.399 150.737 134.497 150.942 134.664C151.272 134.856 151.44 135.06 151.44 135.264V135.378C151.404 135.486 151.29 135.54 151.104 135.54H151.05C150.707 135.365 150.42 135.096 150.222 134.766L150.108 134.598V134.49L150.222 134.382ZM153.264 132.942C153.264 133.47 153.708 133.8 154.596 133.944H167.334C167.573 133.765 167.863 133.667 168.162 133.662L168.66 133.332H168.774C168.893 133.411 168.99 133.518 169.058 133.643C169.125 133.769 169.16 133.909 169.16 134.052C169.16 134.195 169.125 134.335 169.058 134.461C168.99 134.586 168.893 134.693 168.774 134.772H168.66C168.225 134.477 167.735 134.273 167.22 134.172H154.98C154.08 134.172 153.504 134.436 153.264 134.952V135.114C152.802 134.514 152.418 134.172 152.1 134.172C152.1 134.1 152.028 134.064 151.884 134.064C151.884 133.992 152.01 133.956 152.268 133.956C152.702 133.76 153.041 133.4 153.21 132.954L153.264 132.942Z" fill="#B0BEC5"/>
<path d="M86.688 145.482L149.778 193.17L212.862 145.482V240.858H86.688V145.482Z" fill="#B0BEC5"/>
<path d="M212.868 241.158H86.6877C86.6081 241.158 86.5318 241.127 86.4756 241.07C86.4193 241.014 86.3877 240.938 86.3877 240.858V145.458C86.391 145.404 86.4081 145.351 86.4373 145.305C86.4666 145.258 86.507 145.22 86.555 145.194C86.6029 145.168 86.6567 145.154 86.7114 145.154C86.766 145.154 86.8198 145.168 86.8677 145.194L149.778 192.744L212.682 145.2C212.744 145.151 212.823 145.129 212.902 145.138C212.98 145.147 213.052 145.186 213.102 145.248C213.144 145.301 213.167 145.367 213.168 145.434V240.834C213.172 240.874 213.168 240.914 213.157 240.952C213.145 240.989 213.127 241.025 213.102 241.056C213.076 241.086 213.045 241.112 213.01 241.13C212.976 241.149 212.937 241.16 212.898 241.164L212.868 241.158ZM86.9877 240.558H212.568V146.082L149.958 193.41C149.905 193.448 149.842 193.469 149.778 193.469C149.713 193.469 149.65 193.448 149.598 193.41L86.9997 146.082L86.9877 240.558Z" fill="#263238"/>
<path d="M86.688 240.858L141.006 186.54H158.544L212.862 240.858H86.688Z" fill="#B0BEC5"/>
<path d="M212.868 241.158H86.6878C86.6294 241.158 86.5724 241.14 86.5235 241.109C86.4746 241.077 86.4358 241.031 86.4118 240.978C86.3877 240.923 86.3811 240.862 86.3929 240.803C86.4047 240.744 86.4343 240.69 86.4778 240.648L140.796 186.33C140.823 186.301 140.855 186.279 140.891 186.263C140.927 186.248 140.966 186.24 141.006 186.24H158.544C158.583 186.24 158.622 186.248 158.658 186.263C158.694 186.279 158.727 186.301 158.754 186.33L213.078 240.648C213.119 240.692 213.146 240.745 213.158 240.804C213.17 240.862 213.165 240.923 213.144 240.978C213.12 241.031 213.081 241.077 213.032 241.109C212.983 241.14 212.926 241.158 212.868 241.158ZM87.4138 240.558H212.142L158.4 186.84H141.132L87.4138 240.558Z" fill="#263238"/>
<path d="M227.1 127.236L226.926 132.294L232.956 131.334L233.166 122.514L227.1 127.236Z" fill="white"/>
<path d="M226.614 132.648L226.8 127.086L233.484 121.89L233.25 131.592L226.614 132.648ZM227.394 127.386L227.238 131.94L232.638 131.076L232.824 123.138L227.394 127.386Z" fill="#263238"/>
<path d="M222 239.646C221.874 239.293 221.772 238.933 221.694 238.566L221.352 236.028L216.912 235.32L213.21 237.954L210.858 239.25H210.81C210.231 239.485 209.678 239.778 209.16 240.126C208.77 240.468 208.962 240.852 210.132 240.852H221.76C221.76 240.852 222.324 240.522 222 239.646Z" fill="white"/>
<path d="M221.82 241.158H210.114C209.304 241.158 208.824 240.978 208.692 240.624C208.65 240.493 208.652 240.352 208.698 240.222C208.743 240.093 208.83 239.981 208.944 239.904C209.487 239.535 210.068 239.225 210.678 238.98H210.744L213.048 237.714L216.822 235.026L221.622 235.794L221.988 238.548C222.067 238.891 222.166 239.23 222.282 239.562C222.421 239.827 222.46 240.133 222.391 240.424C222.323 240.715 222.152 240.971 221.91 241.146L221.82 241.158ZM209.262 240.444C209.537 240.533 209.825 240.572 210.114 240.558H221.64C221.73 240.468 221.886 240.228 221.706 239.754C221.573 239.388 221.465 239.013 221.382 238.632L221.07 236.292L216.972 235.632L213.372 238.2L210.894 239.544C210.351 239.76 209.832 240.032 209.346 240.354C209.314 240.378 209.287 240.409 209.268 240.444H209.262Z" fill="#263238"/>
<path d="M222.072 240H209.34C209.269 240.043 209.202 240.093 209.142 240.15C208.752 240.492 208.944 240.876 210.114 240.876H221.742C221.876 240.778 221.979 240.643 222.038 240.487C222.096 240.332 222.108 240.162 222.072 240Z" fill="white"/>
<path d="M221.82 241.158H210.114C209.304 241.158 208.824 240.978 208.692 240.624C208.65 240.493 208.652 240.351 208.698 240.222C208.743 240.092 208.83 239.98 208.944 239.904C209.017 239.841 209.095 239.785 209.178 239.736L209.25 239.682H222.33L222.372 239.94C222.421 240.165 222.401 240.399 222.316 240.613C222.23 240.827 222.083 241.011 221.892 241.14L221.82 241.158ZM209.262 240.444C209.537 240.533 209.825 240.571 210.114 240.558H221.634C221.706 240.481 221.754 240.385 221.772 240.282H209.43L209.34 240.354C209.308 240.378 209.281 240.408 209.262 240.444Z" fill="#263238"/>
<path d="M241.59 239.646C241.465 239.293 241.361 238.932 241.278 238.566L240.942 236.028L236.502 235.32L232.8 237.954L230.448 239.25H230.4C229.819 239.485 229.264 239.778 228.744 240.126C228.354 240.468 228.552 240.852 229.716 240.852H241.344C241.344 240.852 241.926 240.522 241.59 239.646Z" fill="white"/>
<path d="M241.428 241.158H229.716C228.906 241.158 228.432 240.978 228.294 240.624C228.252 240.493 228.254 240.352 228.3 240.222C228.345 240.093 228.432 239.981 228.546 239.904C229.089 239.535 229.67 239.225 230.28 238.98H230.352L232.65 237.714L236.43 235.026L241.23 235.794L241.596 238.548C241.674 238.891 241.77 239.23 241.884 239.562C242.025 239.826 242.066 240.133 241.997 240.425C241.929 240.716 241.756 240.973 241.512 241.146L241.428 241.158ZM228.87 240.444C229.142 240.536 229.429 240.575 229.716 240.558H241.242C241.332 240.468 241.494 240.228 241.308 239.754C241.181 239.387 241.075 239.012 240.99 238.632L240.672 236.292L236.574 235.632L232.974 238.2L230.496 239.544C229.953 239.76 229.434 240.032 228.948 240.354C228.917 240.38 228.891 240.41 228.87 240.444Z" fill="#263238"/>
<path d="M241.68 240H228.948C228.876 240.045 228.808 240.095 228.744 240.15C228.354 240.492 228.552 240.876 229.716 240.876H241.344C241.479 240.778 241.582 240.644 241.642 240.488C241.702 240.332 241.715 240.163 241.68 240Z" fill="white"/>
<path d="M241.428 241.158H229.716C228.906 241.158 228.432 240.978 228.294 240.624C228.252 240.493 228.254 240.351 228.3 240.222C228.345 240.092 228.432 239.98 228.546 239.904C228.619 239.841 228.697 239.785 228.78 239.736L228.858 239.682H241.938L241.974 239.94C242.024 240.164 242.006 240.399 241.922 240.613C241.837 240.827 241.69 241.01 241.5 241.14L241.428 241.158ZM228.87 240.444C229.142 240.536 229.429 240.574 229.716 240.558H241.242C241.313 240.481 241.361 240.385 241.38 240.282H229.038L228.942 240.354C228.911 240.379 228.885 240.41 228.864 240.444H228.87Z" fill="#263238"/>
<path d="M220.368 165.318L219.834 171.918C219.834 171.918 216.144 198.174 216.318 201.192C216.492 204.21 216.918 235.35 216.918 235.35L221.358 236.058L226.35 201.516L233.358 166.416L220.368 165.318Z" fill="#B0BEC5"/>
<path d="M221.592 236.4L216.6 235.572V235.32C216.6 235.008 216.204 204.162 216.03 201.18C215.856 198.198 219.396 172.92 219.546 171.846L220.098 164.994L233.7 166.11L233.634 166.44L226.62 201.546L221.592 236.4ZM217.2 235.062L221.088 235.662L226.032 201.42L232.98 166.62L220.65 165.6L220.14 171.87C220.104 172.152 216.456 198.15 216.624 201.102C216.792 204.054 217.152 232.086 217.2 235.062Z" fill="#263238"/>
<path d="M220.014 234.666L219.6 234.6C219.6 234.504 221.52 224.73 221.52 219.468C221.52 214.206 221.52 209.178 222.804 204.234C224.07 199.386 225.804 189.39 225.804 189.288L226.248 189.366C226.248 189.468 224.52 199.476 223.248 204.366C221.976 209.256 222 214.2 222 219.486C222 224.772 220.032 234.6 220.014 234.666Z" fill="#263238"/>
<path d="M229.38 163.698C232.314 162.168 235.464 161.142 236.352 163.188C238.152 167.274 235.998 173.49 235.998 173.49L237.6 202.134L240.786 236.046L235.776 235.998C235.776 235.998 229.302 206.814 228.24 205.038C227.178 203.262 225.492 178.284 225.492 178.284L222.132 175.2" fill="#B0BEC5"/>
<path d="M241.14 236.346L235.56 236.292L235.506 236.058C233.274 225.984 228.828 206.562 228.006 205.188C226.95 203.43 225.432 181.5 225.228 178.422L221.928 175.422L222.33 174.978L225.81 178.128V178.248C226.482 188.262 227.76 203.61 228.516 204.87C229.554 206.604 235.374 232.728 236.034 235.686L240.474 235.728L237.318 202.128L235.686 173.4V173.34C235.686 173.28 237.756 167.184 236.046 163.26C235.969 163.063 235.849 162.885 235.696 162.74C235.542 162.595 235.358 162.485 235.158 162.42C234.066 162.03 232.104 162.552 229.488 163.914L229.212 163.38C232.014 161.916 234.084 161.406 235.362 161.856C235.64 161.949 235.894 162.101 236.107 162.302C236.321 162.503 236.488 162.748 236.598 163.02C238.326 167.004 236.496 172.806 236.268 173.478L237.894 202.068L241.14 236.346Z" fill="#263238"/>
<path d="M238.596 234.432C238.596 234.312 237.294 222.162 235.392 213.51C233.952 206.952 234.06 206.556 234.192 205.962C234.271 205.689 234.305 205.405 234.294 205.122V203.922C234.33 201.882 234.384 198.798 233.862 197.076C233.064 194.406 232.662 190.596 232.554 185.424H233.004C233.082 190.554 233.508 194.322 234.294 196.956C234.834 198.756 234.78 201.87 234.744 203.934V205.134C234.754 205.458 234.716 205.781 234.63 206.094C234.498 206.586 234.39 206.97 235.83 213.426C237.738 222.102 239.028 234.276 239.046 234.426L238.596 234.432Z" fill="#263238"/>
<path d="M233.034 182.106H232.584V180.534C232.764 172.044 232.638 171.102 232.584 171L232.788 170.922L232.584 170.82L232.842 170.7C233.07 170.754 233.22 170.79 233.01 180.546C233.046 181.08 233.04 181.602 233.034 182.106Z" fill="#263238"/>
<path d="M223.2 175.553C223.167 175.553 223.135 175.545 223.105 175.532C223.075 175.519 223.048 175.499 223.026 175.475L221.988 174.275C221.961 174.247 221.943 174.212 221.935 174.174C221.928 174.135 221.932 174.096 221.946 174.059L222.63 172.001L222.768 169.001C222.769 168.972 222.775 168.943 222.788 168.916C222.8 168.888 222.818 168.864 222.839 168.844C222.861 168.824 222.887 168.808 222.915 168.798C222.943 168.788 222.972 168.784 223.002 168.785C223.06 168.789 223.115 168.814 223.156 168.856C223.196 168.899 223.218 168.955 223.218 169.013L223.074 172.013C223.08 172.035 223.08 172.058 223.074 172.079L222.42 174.041L223.38 175.163C223.421 175.205 223.444 175.261 223.444 175.319C223.444 175.378 223.421 175.434 223.38 175.475C223.358 175.501 223.33 175.521 223.299 175.535C223.268 175.548 223.234 175.555 223.2 175.553Z" fill="#263238"/>
<path d="M226.242 172.35C222.888 172.35 221.526 171.03 221.442 170.964C221.422 170.944 221.406 170.92 221.395 170.894C221.384 170.867 221.378 170.839 221.378 170.811C221.378 170.782 221.384 170.754 221.395 170.728C221.406 170.702 221.422 170.678 221.442 170.658C221.484 170.617 221.54 170.594 221.598 170.594C221.656 170.594 221.712 170.617 221.754 170.658C221.754 170.658 223.494 172.314 227.832 171.81C227.86 171.806 227.889 171.807 227.917 171.814C227.945 171.821 227.971 171.834 227.994 171.851C228.017 171.868 228.036 171.89 228.051 171.915C228.065 171.94 228.074 171.967 228.078 171.996C228.087 172.054 228.072 172.113 228.037 172.16C228.002 172.207 227.95 172.239 227.892 172.248C227.345 172.315 226.794 172.349 226.242 172.35Z" fill="#263238"/>
<path d="M232.296 169.308C235.68 168.648 235.896 167.694 237.054 166.908C237.065 165.632 236.827 164.366 236.352 163.182C235.464 161.136 232.314 162.162 229.38 163.692L228 165.942L220.398 165.342L220.158 168.342C224.065 169.644 228.231 169.975 232.296 169.308Z" fill="#263238"/>
<path d="M221.124 167.382L221.052 168.57L222.984 169.014L223.128 167.46L221.124 167.382Z" fill="white"/>
<path d="M223.2 169.296L220.836 168.75L220.932 167.148L223.392 167.244L223.2 169.296ZM221.304 168.396L222.798 168.738L222.9 167.676L221.358 167.616L221.304 168.396Z" fill="#263238"/>
<path d="M234.594 169.14L234.264 166.194L235.248 165.864L235.74 168.486" fill="#B0BEC5"/>
<path d="M234.294 169.176L233.94 165.984L235.476 165.468L236.034 168.432L235.446 168.54L235.014 166.26L234.588 166.398L234.888 169.11L234.294 169.176Z" fill="#263238"/>
<path d="M227.052 170.13L226.392 166.686H228.03L228.69 169.638" fill="#B0BEC5"/>
<path d="M226.752 170.184L226.032 166.386H228.276L228.984 169.572L228.396 169.698L227.79 166.986H226.758L227.346 170.07L226.752 170.184Z" fill="#263238"/>
<path d="M225.24 132.318C225.24 132.318 222.054 135.918 220.782 137.412C219.51 138.906 219.51 154.812 219.51 157.158C219.51 159.504 218.238 165.852 220.362 167.124C222.486 168.396 235.434 167.976 236.706 165.852C237.978 163.728 238.824 138.252 238.614 135.93C238.404 133.608 236.484 131.73 235.014 131.046C233.544 130.362 225.24 132.318 225.24 132.318Z" fill="white"/>
<path d="M226.128 168.138C223.578 168.138 221.112 167.922 220.206 167.382C218.406 166.308 218.79 162.276 219.06 159.33C219.138 158.448 219.21 157.692 219.21 157.158C219.21 150.294 219.384 138.558 220.554 137.22C221.814 135.75 224.982 132.156 225.018 132.12L225.078 132.048H225.174C226.032 131.844 233.574 130.086 235.128 130.794C236.85 131.586 238.698 133.596 238.914 135.918C239.13 138.24 238.272 163.848 236.964 166.02C236.076 167.508 231.006 167.952 228.87 168.078C228 168.114 227.052 168.138 226.128 168.138ZM225.402 132.6C224.946 133.116 222.168 136.272 221.01 137.622C220.272 138.486 219.81 145.974 219.81 157.17C219.81 157.734 219.738 158.502 219.66 159.396C219.42 162.024 219.06 165.996 220.518 166.878C221.448 167.436 225.024 167.694 228.834 167.478C232.896 167.244 235.956 166.536 236.448 165.714C237.648 163.686 238.524 138.276 238.314 135.972C238.104 133.668 236.142 131.916 234.876 131.334C233.874 130.854 228.696 131.82 225.402 132.6Z" fill="#263238"/>
<mask id="mask0_3884_10946" style="mask-type:luminance" maskUnits="userSpaceOnUse" x="219" y="130" width="20" height="38">
<mask id="mask1_3884_10946" style="mask-type:luminance" maskUnits="userSpaceOnUse" x="219" y="130" width="20" height="38">
<path d="M225.24 132.318C225.24 132.318 222.054 135.918 220.782 137.412C219.51 138.906 219.51 154.812 219.51 157.158C219.51 159.504 218.238 165.852 220.362 167.124C222.486 168.396 235.434 167.976 236.706 165.852C237.978 163.728 238.824 138.252 238.614 135.93C238.404 133.608 236.484 131.73 235.014 131.046C233.544 130.362 225.24 132.318 225.24 132.318Z" fill="white"/>
</mask>
<g mask="url(#mask1_3884_10946)">
<path d="M226.128 168.137C223.578 168.137 221.112 167.921 220.206 167.381C218.406 166.307 218.79 162.275 219.06 159.329C219.138 158.447 219.21 157.691 219.21 157.157C219.21 150.293 219.384 138.557 220.554 137.219C221.814 135.749 224.982 132.155 225.018 132.119L225.078 132.047H225.174C226.032 131.843 233.574 130.085 235.128 130.793C236.85 131.585 238.698 133.595 238.914 135.917C239.13 138.239 238.272 163.847 236.964 166.019C236.076 167.507 231.006 167.951 228.87 168.077C228 168.113 227.052 168.137 226.128 168.137ZM225.402 132.599C224.946 133.115 222.168 136.271 221.01 137.621C220.272 138.485 219.81 145.973 219.81 157.169C219.81 157.733 219.738 158.501 219.66 159.395C219.42 162.023 219.06 165.995 220.518 166.877C221.448 167.435 225.024 167.693 228.834 167.477C232.896 167.243 235.956 166.535 236.448 165.713C237.648 163.685 238.524 138.275 238.314 135.971C238.104 133.667 236.142 131.915 234.876 131.333C233.874 130.853 228.696 131.819 225.402 132.599Z" fill="white"/>
</g>
</mask>
<g mask="url(#mask0_3884_10946)">
<path d="M235.002 131.046C234.826 130.973 234.639 130.932 234.45 130.926L233.532 131.406C233.532 131.406 236.076 133.374 236.532 136.38C236.959 139.219 236.921 142.109 236.418 144.936C235.956 148.062 228.552 144.936 229.944 146.094C231.336 147.252 236.544 149.22 236.766 150.258C236.988 151.296 234.222 153.036 233.166 153.15C232.11 153.264 233.862 155.58 234.906 157.548C235.95 159.516 235.596 162.288 233.166 164.148C230.736 166.008 225.174 166.944 222.762 167.04C221.976 167.07 221.484 167.244 221.346 167.478C225.048 168.3 235.548 167.766 236.688 165.864C237.966 163.74 238.806 138.264 238.596 135.942C238.386 133.62 236.484 131.73 235.002 131.046Z" fill="#B0BEC5"/>
</g>
<path d="M231.762 148.476C228.342 147.408 225.354 144.414 225.354 144.414C226.109 147.957 228.17 151.086 231.126 153.18" fill="white"/>
<path d="M231.126 153.402C231.078 153.404 231.032 153.389 230.994 153.36C228.001 151.221 225.911 148.045 225.132 144.45C225.123 144.403 225.131 144.355 225.152 144.312C225.174 144.27 225.209 144.236 225.252 144.216C225.293 144.193 225.34 144.184 225.387 144.191C225.434 144.197 225.477 144.219 225.51 144.252C225.51 144.282 228.51 147.252 231.834 148.26C231.89 148.279 231.936 148.319 231.963 148.372C231.99 148.424 231.995 148.485 231.978 148.542C231.97 148.57 231.957 148.597 231.939 148.62C231.921 148.643 231.898 148.662 231.872 148.676C231.846 148.69 231.818 148.699 231.789 148.702C231.759 148.704 231.73 148.701 231.702 148.692C229.497 147.899 227.472 146.675 225.744 145.092C226.617 148.282 228.562 151.075 231.252 153C231.276 153.016 231.296 153.037 231.312 153.061C231.328 153.086 231.339 153.113 231.344 153.141C231.349 153.17 231.348 153.199 231.342 153.227C231.335 153.256 231.323 153.282 231.306 153.306C231.286 153.335 231.259 153.36 231.228 153.376C231.197 153.393 231.162 153.402 231.126 153.402Z" fill="#263238"/>
<path d="M234.366 128.712L224.178 131.046L223.542 134.016L235.002 131.046L234.366 128.712Z" fill="white"/>
<path d="M223.146 134.43L223.926 130.794L234.6 128.352L235.392 131.262L223.146 134.43ZM224.43 131.298L223.938 133.608L234.636 130.83L234.156 129.066L224.43 131.298Z" fill="#263238"/>
<path d="M205.002 115.2L202.26 113.616C202.26 113.616 201.198 113.478 201.66 114.672L204.396 116.784" fill="white"/>
<path d="M204.39 117.096C204.324 117.098 204.261 117.077 204.21 117.036L201.468 114.918C201.424 114.886 201.391 114.843 201.372 114.792C201.277 114.615 201.231 114.416 201.237 114.215C201.243 114.014 201.302 113.818 201.408 113.646C201.52 113.527 201.659 113.437 201.814 113.381C201.968 113.326 202.133 113.308 202.296 113.328C202.335 113.334 202.374 113.346 202.41 113.364L205.152 114.954C205.19 114.969 205.225 114.991 205.254 115.02C205.284 115.048 205.307 115.082 205.323 115.12C205.338 115.158 205.346 115.199 205.345 115.24C205.345 115.281 205.336 115.321 205.319 115.358C205.302 115.396 205.278 115.429 205.248 115.457C205.217 115.484 205.182 115.505 205.143 115.519C205.104 115.532 205.063 115.537 205.022 115.534C204.982 115.531 204.942 115.52 204.906 115.5L204.852 115.47L202.2 113.922C202.092 113.912 201.984 113.944 201.9 114.012C201.84 114.09 201.852 114.27 201.93 114.498L204.6 116.562C204.631 116.586 204.657 116.615 204.677 116.648C204.697 116.681 204.711 116.718 204.716 116.757C204.722 116.795 204.72 116.835 204.71 116.872C204.7 116.91 204.683 116.945 204.66 116.976C204.628 117.017 204.586 117.049 204.539 117.07C204.492 117.091 204.441 117.1 204.39 117.096Z" fill="#263238"/>
<path d="M204.6 119.334C204.474 119.006 204.284 118.706 204.042 118.452L203.532 117.9L200.748 114.45C200.748 114.45 199.884 113.85 200.076 115.122L201.804 118.476L198.732 115.602C198.732 115.602 198.132 115.122 198.132 115.788C198.132 116.454 200.916 119.436 200.916 119.436L197.844 117.996C197.844 117.996 197.172 118.476 197.652 118.956C198.132 119.436 200.724 120.396 200.724 120.396L198.42 120.3C198.42 120.3 197.748 120.9 198.228 121.068C198.708 121.236 201.396 121.836 201.396 121.836C201.738 122.125 202.128 122.352 202.548 122.508L203.22 123.756L205.8 122.46L204.6 119.334Z" fill="white"/>
<path d="M203.25 124.032C203.196 124.032 203.143 124.017 203.097 123.99C203.05 123.962 203.012 123.923 202.986 123.876L202.386 122.724C201.988 122.573 201.617 122.358 201.288 122.088C200.748 121.968 198.624 121.488 198.168 121.326C198.079 121.294 197.999 121.24 197.937 121.168C197.875 121.097 197.833 121.011 197.814 120.918C197.754 120.534 198.156 120.156 198.276 120.048C198.335 120.001 198.409 119.975 198.486 119.976H199.05C198.495 119.765 197.972 119.479 197.496 119.124C197.406 119.043 197.336 118.942 197.292 118.83C197.247 118.718 197.228 118.597 197.238 118.476C197.293 118.166 197.467 117.891 197.724 117.708C197.766 117.676 197.816 117.656 197.869 117.651C197.922 117.646 197.976 117.655 198.024 117.678L199.746 118.488C198.864 117.474 197.886 116.244 197.886 115.74C197.871 115.621 197.892 115.5 197.947 115.393C198.001 115.286 198.087 115.198 198.192 115.14C198.324 115.103 198.465 115.101 198.598 115.135C198.732 115.169 198.854 115.237 198.954 115.332L200.754 117.036L199.818 115.236C199.812 115.207 199.812 115.176 199.818 115.146C199.818 114.948 199.698 114.336 200.088 114.084C200.228 114.019 200.383 113.994 200.536 114.011C200.689 114.028 200.835 114.086 200.958 114.18C200.982 114.197 201.005 114.217 201.024 114.24L203.808 117.696C203.827 117.722 203.843 117.75 203.856 117.78L204.294 118.254C204.553 118.538 204.756 118.868 204.894 119.226L206.124 122.328C206.153 122.398 206.154 122.476 206.127 122.546C206.1 122.616 206.048 122.674 205.98 122.706L203.4 124.008C203.352 124.025 203.301 124.034 203.25 124.032ZM198.408 120.78C198.906 120.954 200.778 121.38 201.486 121.518C201.562 121.534 201.629 121.579 201.672 121.644C201.976 121.887 202.319 122.078 202.686 122.208C202.751 122.233 202.806 122.28 202.842 122.34L203.376 123.336L205.452 122.292L204.318 119.442C204.199 119.153 204.03 118.887 203.82 118.656L203.304 118.104C203.274 118.069 203.251 118.028 203.238 117.984L200.55 114.654C200.491 114.623 200.429 114.601 200.364 114.588C200.34 114.725 200.34 114.865 200.364 115.002L202.068 118.32C202.1 118.382 202.11 118.454 202.094 118.522C202.079 118.59 202.04 118.65 201.984 118.692C201.93 118.738 201.862 118.764 201.792 118.764C201.721 118.764 201.653 118.738 201.6 118.692L198.528 115.812L198.456 115.764C198.456 116.136 199.878 117.84 201.156 119.208C201.184 119.236 201.206 119.269 201.221 119.306C201.237 119.342 201.244 119.382 201.244 119.421C201.244 119.461 201.237 119.5 201.221 119.537C201.206 119.573 201.184 119.606 201.156 119.634C201.113 119.676 201.058 119.704 200.999 119.714C200.94 119.724 200.879 119.715 200.826 119.688L197.934 118.332C197.873 118.393 197.832 118.47 197.814 118.554C197.821 118.618 197.85 118.678 197.898 118.722C198.831 119.288 199.826 119.747 200.862 120.09C200.929 120.116 200.985 120.164 201.02 120.226C201.055 120.289 201.067 120.362 201.054 120.432C201.039 120.502 201.001 120.565 200.945 120.609C200.889 120.652 200.819 120.675 200.748 120.672L198.57 120.582C198.507 120.641 198.453 120.707 198.408 120.78Z" fill="#263238"/>
<path d="M234.21 142.2L214.548 146.892C213.76 147.03 212.949 146.891 212.252 146.498C211.556 146.105 211.016 145.484 210.726 144.738L203.25 123.738L205.83 122.442L214.326 136.302C214.572 136.754 214.957 137.114 215.424 137.33C215.891 137.546 216.414 137.606 216.918 137.502L228.684 134.172" fill="white"/>
<path d="M213.966 147.21C213.206 147.21 212.465 146.981 211.837 146.553C211.21 146.124 210.726 145.517 210.45 144.81L202.878 123.6L205.938 122.058L214.584 136.158C214.795 136.56 215.13 136.883 215.541 137.077C215.951 137.272 216.413 137.328 216.858 137.238L228.6 133.902L228.762 134.502L216.996 137.832C216.425 137.949 215.831 137.88 215.302 137.633C214.774 137.387 214.339 136.977 214.062 136.464L205.716 122.85L203.622 123.906L211.008 144.6C211.274 145.278 211.766 145.844 212.401 146.202C213.036 146.559 213.776 146.687 214.494 146.562L234.138 141.87L234.276 142.47L214.62 147.168C214.403 147.2 214.185 147.214 213.966 147.21Z" fill="#263238"/>
<mask id="mask2_3884_10946" style="mask-type:luminance" maskUnits="userSpaceOnUse" x="203" y="122" width="32" height="25">
<mask id="mask3_3884_10946" style="mask-type:luminance" maskUnits="userSpaceOnUse" x="203" y="122" width="32" height="25">
<path d="M234.21 142.2L214.548 146.892C213.76 147.03 212.949 146.891 212.252 146.498C211.556 146.105 211.016 145.484 210.726 144.738L203.25 123.738L205.83 122.442L214.326 136.302C214.572 136.754 214.957 137.114 215.424 137.33C215.891 137.546 216.414 137.606 216.918 137.502L228.684 134.172" fill="white"/>
</mask>
<g mask="url(#mask3_3884_10946)">
<path d="M213.966 147.211C213.206 147.211 212.465 146.982 211.837 146.554C211.21 146.125 210.726 145.518 210.45 144.811L202.878 123.601L205.938 122.059L214.584 136.159C214.795 136.561 215.13 136.884 215.541 137.078C215.951 137.273 216.413 137.329 216.858 137.239L228.6 133.903L228.762 134.503L216.996 137.833C216.425 137.95 215.831 137.881 215.302 137.634C214.774 137.388 214.339 136.978 214.062 136.465L205.716 122.851L203.622 123.907L211.008 144.601C211.274 145.279 211.766 145.845 212.401 146.203C213.036 146.56 213.776 146.688 214.494 146.563L234.138 141.871L234.276 142.471L214.62 147.169C214.403 147.201 214.185 147.215 213.966 147.211Z" fill="white"/>
</g>
</mask>
<g mask="url(#mask2_3884_10946)">
<path d="M206.01 132.103C206.01 132.103 212.136 143.665 214.452 144.475C216.768 145.285 221.622 143.551 221.622 143.551C221.622 143.551 214.914 142.951 217.224 142.741C219.534 142.531 222.198 143.089 226.596 142.051C230.994 141.013 233.196 139.051 232.032 141.007C230.868 142.963 224.394 144.247 222.084 145.057C219.774 145.867 214.68 147.139 213.18 146.905C212.706 146.8 212.262 146.59 211.88 146.29C211.499 145.989 211.191 145.607 210.978 145.171L206.01 132.103Z" fill="#B0BEC5"/>
</g>
<path d="M207.177 124.783L204.183 126.282L204.385 126.685L207.378 125.185L207.177 124.783Z" fill="#263238"/>
<path d="M236.292 118.896C236.57 118.851 236.856 118.897 237.106 119.028C237.356 119.159 237.557 119.368 237.678 119.622C237.843 119.959 237.921 120.331 237.905 120.705C237.889 121.079 237.78 121.443 237.588 121.764C236.652 123.408 234.426 123.99 234.426 123.99C234.426 123.99 232.314 127.038 230.226 127.86C228.138 128.682 224.742 128.868 223.776 124.578C223.356 122.694 224.598 114.978 224.598 114.978C224.635 114.416 224.784 113.866 225.035 113.362C225.286 112.857 225.635 112.407 226.062 112.038C227.454 110.976 230.694 110.778 232.548 111.372C234.402 111.966 235.548 113.688 236.058 115.014C236.387 115.993 236.521 117.026 236.454 118.056L236.256 118.92L236.292 118.896Z" fill="white"/>
<path d="M227.856 128.628C227.138 128.64 226.429 128.473 225.792 128.142C224.628 127.542 223.842 126.342 223.464 124.644C223.032 122.724 224.226 115.236 224.28 114.918C224.318 114.316 224.477 113.729 224.749 113.191C225.02 112.653 225.397 112.175 225.858 111.786C227.358 110.646 230.724 110.466 232.62 111.078C234.864 111.798 235.95 113.982 236.31 114.888C236.658 115.91 236.801 116.991 236.73 118.068L236.616 118.59C236.898 118.608 237.171 118.702 237.405 118.861C237.64 119.02 237.827 119.24 237.948 119.496C238.131 119.873 238.218 120.289 238.202 120.708C238.185 121.127 238.065 121.535 237.852 121.896C236.97 123.432 235.086 124.086 234.606 124.236C234.234 124.758 232.302 127.35 230.31 128.124C229.528 128.438 228.697 128.608 227.856 128.628ZM230.052 111.33C228.594 111.33 227.052 111.63 226.224 112.26C225.431 112.951 224.945 113.929 224.874 114.978C224.874 115.086 223.638 122.706 224.046 124.512C224.388 126.036 225.072 127.08 226.074 127.614C227.574 128.412 229.386 127.86 230.094 127.584C232.092 126.804 234.156 123.852 234.18 123.822L234.24 123.732L234.348 123.702C234.348 123.702 236.466 123.102 237.348 121.614C237.519 121.335 237.616 121.018 237.63 120.691C237.643 120.364 237.573 120.04 237.426 119.748C237.329 119.553 237.173 119.394 236.98 119.295C236.786 119.195 236.566 119.161 236.352 119.196L235.86 119.274L236.16 117.978C236.21 117.008 236.08 116.038 235.776 115.116C235.44 114.288 234.456 112.29 232.452 111.648C231.673 111.42 230.863 111.313 230.052 111.33Z" fill="#263238"/>
<path d="M229.338 118.89C229.266 119.196 229.338 119.49 229.482 119.49C229.626 119.49 229.818 119.31 229.89 119.004C229.962 118.698 229.89 118.404 229.746 118.404C229.602 118.404 229.41 118.584 229.338 118.89Z" fill="#263238"/>
<path d="M226.08 118.278C226.008 118.578 226.08 118.878 226.224 118.878C226.368 118.878 226.56 118.698 226.632 118.398C226.704 118.098 226.632 117.798 226.488 117.798C226.344 117.798 226.152 117.972 226.08 118.278Z" fill="#263238"/>
<path d="M231.378 117.804C231.33 117.804 231.283 117.79 231.243 117.765C231.202 117.74 231.17 117.703 231.15 117.66C230.987 117.382 230.759 117.149 230.485 116.982C230.21 116.814 229.899 116.718 229.578 116.7C229.544 116.698 229.511 116.689 229.48 116.674C229.45 116.658 229.423 116.637 229.4 116.612C229.378 116.586 229.361 116.556 229.35 116.524C229.339 116.492 229.335 116.458 229.338 116.424C229.345 116.356 229.379 116.293 229.431 116.248C229.483 116.203 229.551 116.18 229.62 116.184C230.03 116.208 230.427 116.335 230.775 116.553C231.123 116.771 231.411 117.073 231.612 117.432C231.627 117.461 231.637 117.493 231.641 117.526C231.644 117.559 231.641 117.592 231.632 117.624C231.622 117.656 231.606 117.685 231.585 117.711C231.565 117.737 231.539 117.758 231.51 117.774C231.469 117.796 231.424 117.806 231.378 117.804Z" fill="#263238"/>
<path d="M225.27 117.108C225.2 117.107 225.133 117.079 225.084 117.03C225.06 117.006 225.041 116.977 225.028 116.946C225.015 116.914 225.008 116.881 225.008 116.847C225.008 116.813 225.015 116.779 225.028 116.748C225.041 116.716 225.06 116.688 225.084 116.664C225.35 116.389 225.695 116.204 226.071 116.133C226.447 116.062 226.836 116.109 227.184 116.268C227.214 116.285 227.24 116.307 227.261 116.334C227.282 116.361 227.297 116.392 227.306 116.425C227.315 116.458 227.317 116.492 227.313 116.526C227.308 116.56 227.297 116.592 227.28 116.622C227.249 116.677 227.199 116.719 227.139 116.739C227.079 116.759 227.014 116.756 226.956 116.73C226.702 116.621 226.42 116.591 226.149 116.646C225.878 116.701 225.63 116.837 225.438 117.036C225.393 117.08 225.333 117.106 225.27 117.108Z" fill="#263238"/>
<path d="M227.46 121.488C227.237 121.482 227.022 121.408 226.843 121.276C226.663 121.144 226.529 120.961 226.458 120.75C226.356 120.348 226.626 120.066 226.866 119.82C227.056 119.663 227.198 119.454 227.274 119.22C227.4 118.62 227.556 117.516 227.556 117.51C227.56 117.476 227.572 117.443 227.589 117.414C227.606 117.384 227.629 117.358 227.657 117.338C227.684 117.317 227.715 117.302 227.748 117.294C227.781 117.285 227.816 117.283 227.85 117.288C227.884 117.292 227.916 117.304 227.946 117.321C227.975 117.338 228.001 117.361 228.022 117.389C228.042 117.416 228.057 117.447 228.066 117.48C228.074 117.513 228.076 117.548 228.072 117.582C228.072 117.63 227.91 118.686 227.778 119.322C227.689 119.656 227.5 119.955 227.238 120.18C227.028 120.396 226.932 120.504 226.956 120.612C227.034 120.918 227.496 120.96 227.496 120.966C227.53 120.968 227.563 120.977 227.593 120.992C227.624 121.007 227.651 121.028 227.673 121.054C227.695 121.079 227.712 121.109 227.723 121.141C227.734 121.174 227.738 121.208 227.736 121.242C227.734 121.276 227.726 121.309 227.712 121.34C227.697 121.37 227.677 121.398 227.652 121.421C227.627 121.444 227.597 121.461 227.565 121.473C227.533 121.484 227.5 121.489 227.466 121.488H227.46Z" fill="#263238"/>
<path d="M228.78 123.6C228.53 123.601 228.281 123.564 228.042 123.492C228.01 123.482 227.98 123.466 227.954 123.444C227.928 123.422 227.906 123.395 227.891 123.365C227.875 123.335 227.866 123.302 227.863 123.268C227.86 123.235 227.864 123.201 227.874 123.168C227.896 123.103 227.943 123.048 228.005 123.017C228.066 122.985 228.138 122.979 228.204 123C228.435 123.074 228.679 123.098 228.92 123.07C229.162 123.042 229.394 122.963 229.602 122.838C229.629 122.818 229.66 122.803 229.693 122.794C229.726 122.786 229.76 122.784 229.794 122.789C229.828 122.793 229.86 122.805 229.889 122.822C229.919 122.839 229.944 122.862 229.965 122.889C229.985 122.917 230 122.947 230.009 122.98C230.017 123.013 230.019 123.048 230.015 123.081C230.01 123.115 229.999 123.148 229.981 123.177C229.964 123.206 229.941 123.232 229.914 123.252C229.582 123.486 229.185 123.608 228.78 123.6Z" fill="#263238"/>
<path d="M234.192 109.572C234.192 109.572 231.612 107.34 229.146 107.34C226.68 107.34 224.694 108.75 223.146 108.864C221.598 108.978 220.566 107.574 219.624 109.464C218.682 111.354 222.204 114.504 224.55 114.978C226.896 115.452 230.178 114.744 231.12 114.624C232.017 114.558 232.917 114.558 233.814 114.624C233.814 114.624 233.112 116.85 233.814 117.558C234.062 117.754 234.265 118.002 234.407 118.285C234.549 118.568 234.627 118.879 234.636 119.196C234.678 119.709 234.756 120.218 234.87 120.72L235.572 120.954L235.926 119.664C236.876 118.65 237.525 117.391 237.798 116.028C238.152 113.922 236.394 111.828 236.394 111.828L234.192 109.572Z" fill="#263238"/>
<path d="M227.04 114.354C226.119 114.354 225.201 114.282 224.292 114.138C224.259 114.132 224.23 114.114 224.211 114.087C224.192 114.06 224.184 114.027 224.19 113.994C224.191 113.978 224.196 113.962 224.204 113.948C224.212 113.933 224.222 113.921 224.235 113.91C224.248 113.9 224.263 113.893 224.279 113.889C224.295 113.885 224.311 113.884 224.328 113.886C224.364 113.886 228.336 114.624 231.402 113.352C232.236 113.01 232.71 112.548 232.818 111.972C233.028 110.868 231.81 109.68 231.798 109.668C231.785 109.657 231.774 109.642 231.767 109.626C231.76 109.61 231.757 109.593 231.757 109.575C231.757 109.558 231.76 109.541 231.767 109.525C231.774 109.509 231.785 109.494 231.798 109.482C231.823 109.459 231.856 109.446 231.891 109.446C231.925 109.446 231.958 109.459 231.984 109.482C232.038 109.53 233.316 110.778 233.076 112.02C232.973 112.396 232.775 112.738 232.5 113.013C232.226 113.289 231.884 113.489 231.51 113.592C230.081 114.127 228.564 114.386 227.04 114.354Z" fill="white"/>
<path d="M233.4 114.678C233.368 114.678 233.337 114.667 233.312 114.646C233.288 114.625 233.272 114.595 233.268 114.564C233.265 114.53 233.275 114.495 233.296 114.469C233.317 114.442 233.348 114.424 233.382 114.42C233.424 114.42 234.396 114.294 234.9 112.884C234.963 112.635 234.968 112.375 234.916 112.123C234.864 111.872 234.756 111.635 234.6 111.432C234.084 110.619 233.372 109.948 232.53 109.482C232.495 109.482 232.461 109.468 232.437 109.443C232.412 109.418 232.398 109.385 232.398 109.35C232.398 109.316 232.411 109.284 232.435 109.261C232.458 109.237 232.491 109.224 232.524 109.224C232.8 109.224 233.97 110.076 234.666 111.066C234.894 111.32 235.057 111.626 235.139 111.958C235.222 112.289 235.222 112.636 235.14 112.968C234.576 114.546 233.454 114.678 233.406 114.678H233.4Z" fill="white"/>
<path d="M110.708 127V117.2H111.422V127H110.708ZM114.837 127V117.2H115.439L122.425 126.118H122.103V117.2H122.817V127H122.229L115.229 118.082H115.551V127H114.837ZM128.86 127L124.492 117.2H125.276L129.448 126.566H129.014L133.2 117.2H133.942L129.574 127H128.86ZM135.522 127V117.2H136.236V127H135.522ZM141.527 127V117.844H137.999V117.2H145.769V117.844H142.241V127H141.527ZM145.41 127L149.918 117.2H150.632L155.14 127H154.37L150.114 117.648H150.422L146.18 127H145.41ZM147.062 124.242L147.3 123.64H153.166L153.404 124.242H147.062ZM158.303 127V117.844H154.775V117.2H162.545V117.844H159.017V127H158.303ZM164.315 127V117.2H165.029V127H164.315ZM172.602 127.07C171.874 127.07 171.198 126.949 170.572 126.706C169.956 126.454 169.415 126.104 168.948 125.656C168.491 125.199 168.136 124.671 167.884 124.074C167.632 123.467 167.506 122.809 167.506 122.1C167.506 121.391 167.632 120.737 167.884 120.14C168.136 119.533 168.491 119.006 168.948 118.558C169.415 118.101 169.956 117.751 170.572 117.508C171.198 117.256 171.874 117.13 172.602 117.13C173.33 117.13 174.002 117.256 174.618 117.508C175.244 117.751 175.785 118.096 176.242 118.544C176.7 118.992 177.054 119.519 177.306 120.126C177.568 120.723 177.698 121.381 177.698 122.1C177.698 122.819 177.568 123.481 177.306 124.088C177.054 124.685 176.7 125.208 176.242 125.656C175.785 126.104 175.244 126.454 174.618 126.706C174.002 126.949 173.33 127.07 172.602 127.07ZM172.602 126.412C173.228 126.412 173.806 126.305 174.338 126.09C174.87 125.875 175.332 125.572 175.724 125.18C176.116 124.788 176.42 124.331 176.634 123.808C176.858 123.285 176.97 122.716 176.97 122.1C176.97 121.475 176.858 120.905 176.634 120.392C176.42 119.869 176.116 119.412 175.724 119.02C175.332 118.628 174.87 118.325 174.338 118.11C173.806 117.895 173.228 117.788 172.602 117.788C171.977 117.788 171.398 117.895 170.866 118.11C170.334 118.325 169.868 118.628 169.466 119.02C169.074 119.412 168.766 119.869 168.542 120.392C168.328 120.905 168.22 121.475 168.22 122.1C168.22 122.716 168.328 123.285 168.542 123.808C168.766 124.331 169.074 124.788 169.466 125.18C169.868 125.572 170.334 125.875 170.866 126.09C171.398 126.305 171.977 126.412 172.602 126.412ZM180.175 127V117.2H180.777L187.763 126.118H187.441V117.2H188.155V127H187.567L180.567 118.082H180.889V127H180.175Z" fill="#263238"/>
</svg>
