<svg width="15" height="19" viewBox="0 0 15 19" fill="none" xmlns="http://www.w3.org/2000/svg">
<g id="Icons/24px/Location">
<path id="Shape" d="M7.58278 0.5C4.13931 0.5 0.539307 3.16087 0.539307 7.54348C0.539307 11.6913 6.80018 18.0304 7.03496 18.2652C7.19148 18.4217 7.348 18.5 7.58278 18.5C7.81757 18.5 7.97409 18.4217 8.13061 18.2652C8.36539 18.0304 14.6263 11.6913 14.6263 7.54348C14.6263 3.16087 11.0263 0.5 7.58278 0.5ZM7.58278 9.8913C6.25235 9.8913 5.23496 8.87391 5.23496 7.54348C5.23496 6.21304 6.25235 5.19565 7.58278 5.19565C8.91322 5.19565 9.93061 6.21304 9.93061 7.54348C9.93061 8.87391 8.91322 9.8913 7.58278 9.8913Z" fill="#3C3C3C"/>
</g>
</svg>
