<svg width="300" height="200" viewBox="0 0 300 200" fill="none" xmlns="http://www.w3.org/2000/svg">
<path d="M138.764 171.2C138.616 169.435 138.945 167.663 139.716 166.068C140.486 164.474 141.671 163.115 143.146 162.135C144.62 161.154 146.331 160.587 148.1 160.493C149.868 160.399 151.629 160.781 153.2 161.6C153.96 159.568 154.74 157.5 156.084 155.8C157.428 154.1 159.46 152.796 161.628 152.876V171.2H138.764Z" fill="#EBEBEB"/>
<path d="M78.5238 100.212L66.8358 123.796L70.3278 123.928L60.4198 142.668H65.6238L57.5078 159.316H102.876L92.8838 142.668L97.6718 142.46L88.0998 123.728L91.6358 123.52L78.5238 100.212Z" fill="#EBEBEB"/>
<path d="M80.5036 127.568C80.5596 127.568 80.4596 137.568 80.2796 149.872C80.0996 162.176 79.9076 172.176 79.8476 172.172C79.7876 172.168 79.8916 162.172 80.0716 149.868C80.2516 137.564 80.4436 127.568 80.5036 127.568Z" fill="#E0E0E0"/>
<path d="M86.0638 133.068C85.839 133.451 85.5835 133.815 85.2998 134.156C84.8078 134.812 84.0998 135.696 83.2998 136.664L81.2598 139.132C80.9911 139.485 80.6984 139.82 80.3838 140.132C80.6053 139.747 80.8596 139.382 81.1438 139.04C81.6398 138.388 82.3438 137.5 83.1438 136.532L85.1838 134.064C85.4516 133.711 85.7458 133.378 86.0638 133.068Z" fill="#E0E0E0"/>
<path d="M80.3998 140.132C79.5079 139.566 78.6529 138.943 77.8398 138.268C76.9843 137.645 76.1706 136.966 75.4038 136.236C76.2974 136.802 77.1538 137.425 77.9678 138.1C78.8235 138.722 79.6361 139.401 80.3998 140.132Z" fill="#E0E0E0"/>
<path d="M80.084 151.696C79.7771 151.498 79.4904 151.27 79.228 151.016C78.716 150.58 78.028 149.98 77.228 149.332C76.428 148.684 75.7 148.112 75.172 147.7C74.8724 147.491 74.5913 147.257 74.332 147C74.6585 147.162 74.9681 147.356 75.256 147.58C75.812 147.98 76.56 148.52 77.36 149.18C78.16 149.84 78.852 150.452 79.34 150.916C79.6125 151.151 79.8617 151.413 80.084 151.696Z" fill="#E0E0E0"/>
<path d="M86.548 144.548C86.4904 144.663 86.4192 144.77 86.336 144.868C86.192 145.064 85.972 145.34 85.692 145.668C85.128 146.336 84.312 147.224 83.388 148.188C82.464 149.152 81.636 150.016 81.048 150.66C80.7454 151.02 80.4236 151.363 80.084 151.688C80.1362 151.572 80.2064 151.466 80.292 151.372C80.436 151.172 80.656 150.896 80.936 150.572C81.5 149.9 82.316 149.012 83.24 148.052C84.164 147.092 84.992 146.22 85.58 145.576C85.8831 145.215 86.2062 144.872 86.548 144.548Z" fill="#E0E0E0"/>
<path d="M173.684 127.048H221.084L229.94 114.472L239.224 127.404L250.132 127.228L238.376 111.392L185.524 111.612L173.684 127.048Z" fill="#E0E0E0"/>
<path d="M197.388 127.228V171.312H244.72V127.228H239.296L229.94 114.472L221.056 127.036L197.388 127.228Z" fill="#F5F5F5"/>
<path d="M215.148 152.2H204.076V171.312H215.148V152.2Z" fill="#E0E0E0"/>
<path d="M239.224 151.66H221.784V162.464H239.224V151.66Z" fill="#E0E0E0"/>
<path d="M227.02 151.66H226.62V162.564H227.02V151.66Z" fill="#EBEBEB"/>
<path d="M234.272 151.66H233.872V162.564H234.272V151.66Z" fill="#EBEBEB"/>
<path d="M234.072 157.24H226.82V157.64H234.072V157.24Z" fill="#EBEBEB"/>
<path d="M239.224 130.04H221.784V140.844H239.224V130.04Z" fill="#E0E0E0"/>
<path d="M227.02 130.04H226.62V140.944H227.02V130.04Z" fill="#EBEBEB"/>
<path d="M234.272 130.04H233.872V140.944H234.272V130.04Z" fill="#EBEBEB"/>
<path d="M234.072 135.62H226.82V136.02H234.072V135.62Z" fill="#EBEBEB"/>
<path d="M213.992 130.136H202.992V140.552H213.992V130.136Z" fill="#E0E0E0"/>
<path d="M197.392 127.228H178.18V171.308H197.392V127.228Z" fill="#E0E0E0"/>
<path d="M208.692 130.136H208.292V140.552H208.692V130.136Z" fill="#EBEBEB"/>
<path d="M213.992 135.4H202.992V135.8H213.992V135.4Z" fill="#EBEBEB"/>
<path d="M229.916 125.22C231.204 125.22 232.248 124.176 232.248 122.888C232.248 121.6 231.204 120.556 229.916 120.556C228.628 120.556 227.584 121.6 227.584 122.888C227.584 124.176 228.628 125.22 229.916 125.22Z" fill="#E0E0E0"/>
<path d="M213.28 120.028L216.22 116.396V107.664H210.06V120.096L213.28 120.028Z" fill="#F5F5F5"/>
<path d="M213.28 120.028V107.664H216.22V116.396L213.28 120.028Z" fill="#EBEBEB"/>
<path d="M216.636 106.38H209.372V107.664H216.636V106.38Z" fill="#EBEBEB"/>
<path d="M197.388 146.512H161.644V171.312H197.388V146.512Z" fill="#F5F5F5"/>
<path d="M184.024 146.512H161.644V171.312H184.024V146.512Z" fill="#E0E0E0"/>
<path d="M180.692 154.508H166.056V171.268H180.692V154.508Z" fill="#F5F5F5"/>
<path d="M195.42 154.439H185.992V156.839H195.42V154.439Z" fill="#EBEBEB"/>
<path d="M173.684 127.048V128.324H221.056V127.036L173.684 127.048Z" fill="#EBEBEB"/>
<path d="M221.056 128.324L229.916 115.888L229.94 114.472L221.084 127.048L221.056 128.324Z" fill="#EBEBEB"/>
<path d="M249.904 127.228H239.296V128.052H249.904V127.228Z" fill="#EBEBEB"/>
<path d="M211.372 149.271H207.456V150.759H211.372V149.271Z" fill="#E0E0E0"/>
<path d="M270.068 171.312C270.068 171.368 216.308 171.416 150.004 171.416C83.7001 171.416 29.9321 171.368 29.9321 171.312C29.9321 171.256 83.6801 171.2 150 171.2C216.32 171.2 270.068 171.252 270.068 171.312Z" fill="#263238"/>
<path d="M177.172 55.2889C168.312 43.1009 155.432 37.4209 141.972 37.4209C141.972 37.4209 109.056 37.4209 99.3079 66.8889C95.7079 77.7489 96.5079 89.5409 100.868 100.117C102.505 104.137 104.567 107.971 107.02 111.553C115.536 123.833 142 157.357 142 157.357H147.752C155.136 147.101 173.724 113.033 179.292 102.109C186.272 88.4009 187.344 69.2809 177.172 55.2889ZM147.48 109.797C141.918 109.797 136.481 108.148 131.857 105.058C127.232 101.968 123.628 97.5755 121.5 92.437C119.372 87.2985 118.815 81.6443 119.9 76.1895C120.986 70.7346 123.664 65.7241 127.597 61.7916C131.53 57.8591 136.541 55.1813 141.996 54.0967C147.451 53.0122 153.105 53.5696 158.244 55.6986C163.382 57.8275 167.773 61.4323 170.863 66.0572C173.952 70.682 175.601 76.1191 175.6 81.6809C175.599 89.1381 172.636 96.2895 167.362 101.562C162.089 106.835 154.937 109.797 147.48 109.797Z" fill="#B0BEC5"/>
<path opacity="0.4" d="M177.172 55.2889C168.312 43.1009 155.432 37.4209 141.972 37.4209C141.972 37.4209 109.056 37.4209 99.3079 66.8889C95.7079 77.7489 96.5079 89.5409 100.868 100.117C102.505 104.137 104.567 107.971 107.02 111.553C115.536 123.833 142 157.357 142 157.357H147.752C155.136 147.101 173.724 113.033 179.292 102.109C186.272 88.4009 187.344 69.2809 177.172 55.2889ZM147.48 109.797C141.918 109.797 136.481 108.148 131.857 105.058C127.232 101.968 123.628 97.5755 121.5 92.437C119.372 87.2985 118.815 81.6443 119.9 76.1895C120.986 70.7346 123.664 65.7241 127.597 61.7916C131.53 57.8591 136.541 55.1813 141.996 54.0967C147.451 53.0122 153.105 53.5696 158.244 55.6986C163.382 57.8275 167.773 61.4323 170.863 66.0572C173.952 70.682 175.601 76.1191 175.6 81.6809C175.599 89.1381 172.636 96.2895 167.362 101.562C162.089 106.835 154.937 109.797 147.48 109.797Z" fill="black"/>
<path d="M182.96 55.5163C174.1 43.3323 161.22 37.6523 147.76 37.6523C147.76 37.6523 114.844 37.6523 105.096 67.1203C101.496 77.9803 102.296 89.7723 106.66 100.348C108.294 104.369 110.355 108.203 112.808 111.784C121.324 124.06 147.776 157.6 147.776 157.6C147.776 157.6 178.34 115.556 185.068 102.356C192.06 88.6243 193.136 69.5123 182.96 55.5163ZM147.516 110.028C141.954 110.028 136.517 108.379 131.893 105.289C127.269 102.199 123.664 97.8077 121.536 92.6694C119.408 87.5311 118.851 81.8771 119.936 76.4224C121.021 70.9677 123.699 65.9572 127.632 62.0245C131.564 58.0919 136.575 55.4137 142.03 54.3287C147.484 53.2436 153.138 53.8005 158.277 55.9289C163.415 58.0572 167.807 61.6614 170.897 66.2857C173.986 70.91 175.636 76.3467 175.636 81.9083C175.663 85.6088 174.955 89.2779 173.552 92.7021C172.148 96.1262 170.078 99.2372 167.461 101.854C164.844 104.471 161.734 106.541 158.309 107.944C154.885 109.348 151.216 110.056 147.516 110.028Z" fill="#B0BEC5"/>
<path d="M147.48 53.5605C141.669 53.5605 136.001 55.3607 131.255 58.7137C126.509 62.0666 122.918 66.8075 120.976 72.2846C123.146 67.4895 126.826 63.5369 131.454 61.0307C136.082 58.5246 141.403 57.6029 146.604 58.4065C151.806 59.2102 156.601 61.6949 160.257 65.4809C163.913 69.2669 166.228 74.1459 166.849 79.3721C167.471 84.5984 166.363 89.8842 163.697 94.4218C161.031 98.9594 156.952 102.499 152.084 104.5C147.216 106.5 141.827 106.852 136.74 105.5C131.653 104.149 127.149 101.169 123.916 97.0165C126.574 101.099 130.247 104.421 134.575 106.657C138.904 108.893 143.739 109.965 148.606 109.77C153.474 109.575 158.207 108.118 162.342 105.542C166.478 102.967 169.873 99.3614 172.195 95.0789C174.517 90.7964 175.687 85.984 175.589 81.1134C175.491 76.2428 174.13 71.4811 171.638 67.2951C169.146 63.109 165.61 59.6422 161.375 57.2345C157.14 54.8268 152.352 53.5608 147.48 53.5605Z" fill="#B0BEC5"/>
<path opacity="0.4" d="M147.48 53.5605C141.669 53.5605 136.001 55.3607 131.255 58.7137C126.509 62.0666 122.918 66.8075 120.976 72.2846C123.146 67.4895 126.826 63.5369 131.454 61.0307C136.082 58.5246 141.403 57.6029 146.604 58.4065C151.806 59.2102 156.601 61.6949 160.257 65.4809C163.913 69.2669 166.228 74.1459 166.849 79.3721C167.471 84.5984 166.363 89.8842 163.697 94.4218C161.031 98.9594 156.952 102.499 152.084 104.5C147.216 106.5 141.827 106.852 136.74 105.5C131.653 104.149 127.149 101.169 123.916 97.0165C126.574 101.099 130.247 104.421 134.575 106.657C138.904 108.893 143.739 109.965 148.606 109.77C153.474 109.575 158.207 108.118 162.342 105.542C166.478 102.967 169.873 99.3614 172.195 95.0789C174.517 90.7964 175.687 85.984 175.589 81.1134C175.491 76.2428 174.13 71.4811 171.638 67.2951C169.146 63.109 165.61 59.6422 161.375 57.2345C157.14 54.8268 152.352 53.5608 147.48 53.5605Z" fill="black"/>
<path d="M203.548 94.5722C202.417 93.7949 201.044 93.45 199.68 93.6002C197.376 93.8642 194.036 94.2042 194.036 94.2042V94.3122L177.904 95.3042L172.964 85.2842L165.48 90.2162C165.48 90.2162 166.464 91.7922 170.66 99.5402C171.479 101.052 172.743 102.277 174.28 103.048C175.817 103.819 177.554 104.1 179.256 103.852L198.252 101.052V101.016C200.216 100.908 202.34 100.724 202.652 100.44C203.244 99.9042 203.78 97.9442 203.78 97.9442C203.78 97.9442 207.164 99.9442 207.816 100C208.468 100.056 208.588 99.5002 208.992 98.9242C209.28 98.5682 205.792 96.1002 203.548 94.5722Z" fill="#FFBE9D"/>
<path d="M173.972 84.6443C173.972 84.6443 170.836 78.6083 167.972 72.9083C164.444 65.9123 156.664 64.5083 156.664 64.5083L145.392 63.0283C145.392 63.0283 135.96 58.7683 127.2 69.3483L120 77.3923L121.532 78.7723L128.672 85.1723L130.084 86.4443L133.316 83.1163L131.816 91.5443L129.164 103.296L134.896 102.604L138.772 78.9043L160.628 80.6443L158.884 95.6003C159.236 95.5483 161.88 95.0283 162.74 91.4363C163.016 90.2901 163.016 89.0946 162.74 87.9483L164.004 91.1843L173.972 84.6443Z" fill="#455A64"/>
<path d="M138.744 78.916L134.868 102.616L129.136 103.308C132.965 106.611 137.614 108.82 142.594 109.7C147.574 110.58 152.699 110.099 157.428 108.308L158.884 95.6L160.6 80.656L138.744 78.916Z" fill="#263238"/>
<path d="M140.04 61.8527L139.568 81.1047L143.2 81.6807L143.688 62.1687C143.688 62.1687 142.42 61.5687 140.04 61.8527Z" fill="#263238"/>
<path d="M155.464 81.2002L158.468 64.6642C158.64 64.4802 161.104 65.3642 161.848 66.2042L159.152 81.5442L155.464 81.2002Z" fill="#263238"/>
<path d="M143.344 78.8489C143.382 78.9539 143.401 79.065 143.4 79.1769C143.427 79.4803 143.427 79.7855 143.4 80.0889C143.372 80.5543 143.215 81.0029 142.948 81.3849C142.783 81.613 142.564 81.7971 142.312 81.9209C142.032 82.0469 141.721 82.0846 141.42 82.0289C141.137 81.9692 140.87 81.8521 140.635 81.6849C140.4 81.5177 140.201 81.3039 140.052 81.0569C139.82 80.6572 139.683 80.2097 139.652 79.7489C139.625 79.4455 139.625 79.1403 139.652 78.8369C139.65 78.7233 139.67 78.6105 139.712 78.5049C139.748 78.5049 139.712 78.9849 139.796 79.7329C139.852 80.1576 139.995 80.5661 140.216 80.9329C140.354 81.1537 140.536 81.3444 140.749 81.4935C140.963 81.6426 141.205 81.7472 141.46 81.8009C141.712 81.8455 141.973 81.8173 142.21 81.7196C142.447 81.6219 142.652 81.4586 142.8 81.2489C143.055 80.8958 143.214 80.4821 143.26 80.0489C143.348 79.3289 143.304 78.8489 143.344 78.8489Z" fill="#455A64"/>
<path d="M141.2 80.5484C140.995 80.4667 140.83 80.3069 140.743 80.1039C140.655 79.901 140.652 79.6717 140.734 79.4664C140.816 79.2612 140.975 79.0967 141.178 79.0093C141.381 78.922 141.611 78.9187 141.816 79.0004C141.917 79.0409 142.01 79.101 142.089 79.1772C142.167 79.2535 142.23 79.3445 142.273 79.4449C142.316 79.5454 142.339 79.6534 142.341 79.7628C142.342 79.8722 142.322 79.9808 142.282 80.0824C142.241 80.1841 142.181 80.2768 142.105 80.3552C142.029 80.4336 141.938 80.4963 141.837 80.5395C141.737 80.5828 141.629 80.6059 141.519 80.6074C141.41 80.6089 141.301 80.5889 141.2 80.5484Z" fill="#455A64"/>
<path d="M158.288 80.6523C158.289 80.8178 158.24 80.9798 158.149 81.1179C158.057 81.2559 157.927 81.3636 157.774 81.4275C157.622 81.4914 157.454 81.5085 157.291 81.4767C157.129 81.4449 156.979 81.3656 156.862 81.2489C156.745 81.1321 156.665 80.9832 156.632 80.8209C156.6 80.6586 156.616 80.4903 156.679 80.3373C156.742 80.1843 156.849 80.0535 156.987 79.9615C157.124 79.8694 157.286 79.8203 157.452 79.8203C157.673 79.8203 157.885 79.9078 158.041 80.0638C158.198 80.2197 158.287 80.4313 158.288 80.6523Z" fill="#455A64"/>
<path d="M159.404 80.0765C159.397 80.4089 159.334 80.7377 159.216 81.0485C159.104 81.402 158.914 81.7259 158.66 81.9965C158.498 82.1643 158.3 82.2932 158.081 82.3736C157.862 82.4539 157.628 82.4837 157.396 82.4605C156.933 82.4104 156.505 82.1893 156.196 81.8405C155.956 81.5557 155.795 81.2119 155.732 80.8445C155.686 80.6033 155.678 80.3563 155.708 80.1125C155.713 80.0217 155.738 79.933 155.78 79.8525C155.786 80.176 155.818 80.4984 155.876 80.8165C155.954 81.1491 156.113 81.457 156.34 81.7125C156.622 82.0163 157.004 82.208 157.416 82.2525C157.62 82.2738 157.825 82.2489 158.018 82.1796C158.21 82.1104 158.385 81.9986 158.528 81.8525C158.77 81.609 158.958 81.3174 159.08 80.9965C159.288 80.4405 159.368 80.0645 159.404 80.0765Z" fill="#455A64"/>
<path d="M141.132 88.0005C141.104 88.0005 141.092 87.8405 141.1 87.6005C141.1 87.4765 141.1 87.3245 141.12 87.1605C141.12 87.0725 141.12 86.9845 141.14 86.9005V86.7645V86.6925V86.6245L141.256 86.5205C141.726 86.5365 142.191 86.6214 142.636 86.7725C142.168 86.8249 141.695 86.8087 141.232 86.7245C141.208 86.7485 141.452 86.5285 141.348 86.6245V86.6845V86.7565V86.8965C141.348 86.9845 141.328 87.0685 141.316 87.1605C141.316 87.3285 141.272 87.4765 141.252 87.6045C141.2 87.8325 141.16 88.0005 141.132 88.0005Z" fill="#455A64"/>
<path d="M140.548 93.4962C140.495 93.0339 140.51 92.5663 140.592 92.1082C140.607 91.6425 140.69 91.1815 140.84 90.7402C140.898 91.2022 140.884 91.6703 140.8 92.1282C140.782 92.5939 140.697 93.0546 140.548 93.4962Z" fill="#455A64"/>
<path d="M141.36 98.2687C140.903 98.1561 140.465 97.9769 140.06 97.7367C140.06 97.7607 139.952 97.5407 140 97.6327V97.5727V97.5007V97.3607L140.036 97.1007C140.06 96.9367 140.084 96.7847 140.104 96.6607C140.152 96.4127 140.192 96.2607 140.22 96.2607C140.248 96.2607 140.26 96.4247 140.252 96.6607C140.252 96.7887 140.244 96.9367 140.228 97.1047C140.228 97.1967 140.228 97.2807 140.204 97.3687V97.5047V97.5767V97.6407C140.256 97.7327 140.136 97.5127 140.148 97.5367C140.586 97.72 140.994 97.9667 141.36 98.2687Z" fill="#455A64"/>
<path d="M145.056 100.104C144.383 99.9299 143.752 99.6225 143.2 99.2002C143.544 99.2568 143.873 99.382 144.168 99.5682C144.496 99.6863 144.798 99.8685 145.056 100.104Z" fill="#455A64"/>
<path d="M149.456 101.117C149.069 101.386 148.644 101.596 148.196 101.741H148.096H148.064L148 101.709L147.876 101.645L147.644 101.525L147.244 101.305C147.028 101.177 146.9 101.085 146.912 101.057C146.924 101.029 147.076 101.057 147.312 101.173C147.428 101.221 147.568 101.281 147.712 101.353L147.948 101.465L148.076 101.525L148.14 101.553H148.172H148.104C148.53 101.341 148.986 101.194 149.456 101.117Z" fill="#455A64"/>
<path d="M152.444 99.9042C152.464 99.9602 152.148 100.136 151.736 100.304C151.324 100.472 150.972 100.564 150.936 100.512C150.9 100.46 151.232 100.28 151.644 100.112C152.056 99.9442 152.42 99.8522 152.444 99.9042Z" fill="#455A64"/>
<path d="M155.38 97.3809C155.433 97.8484 155.419 98.3211 155.34 98.7849L155.272 98.8729H155.24L155.172 98.9009L155.044 98.9529L154.8 99.0449C154.64 99.1009 154.5 99.1529 154.376 99.1889C154.136 99.2689 153.976 99.3049 153.976 99.2769C153.976 99.2489 154.104 99.1689 154.328 99.0529L154.728 98.8649L154.972 98.7609L155.1 98.7089L155.164 98.6809H155.2L155.136 98.7689C155.147 98.2966 155.23 97.8287 155.38 97.3809Z" fill="#455A64"/>
<path d="M155.912 92.1963C155.965 93.0691 155.874 93.9447 155.644 94.7883C155.588 94.3545 155.599 93.9148 155.676 93.4843C155.687 93.0453 155.767 92.6107 155.912 92.1963Z" fill="#455A64"/>
<path d="M154.932 88.0642C155.399 88.0119 155.872 88.028 156.336 88.1122L156.428 88.2242V88.2882V88.3602V88.4962C156.428 88.5842 156.408 88.6682 156.396 88.7562C156.372 88.9242 156.352 89.0722 156.328 89.2002C156.284 89.4482 156.24 89.6002 156.212 89.6002C156.184 89.6002 156.176 89.4362 156.18 89.2002C156.18 89.0722 156.18 88.9202 156.204 88.7522L156.224 88.4922V88.3522V88.2202L156.316 88.3322C155.844 88.3115 155.377 88.2212 154.932 88.0642Z" fill="#455A64"/>
<path d="M150.024 87.5366C150.852 87.4851 151.682 87.5744 152.48 87.8006C152.068 87.8589 151.649 87.8494 151.24 87.7726C150.825 87.759 150.414 87.6793 150.024 87.5366Z" fill="#455A64"/>
<path d="M145.116 87.0044C145.528 86.9462 145.947 86.9556 146.356 87.0324C146.766 87.0477 147.17 87.1273 147.556 87.2684C146.728 87.3199 145.897 87.2306 145.1 87.0044H145.116Z" fill="#455A64"/>
<path d="M119.4 80.228C119.372 80.708 119.36 81.192 119.36 81.68C119.359 83.5799 119.55 85.4749 119.932 87.336V87.392C119.98 87.624 120.036 87.852 120.092 88.08C120.308 88.984 120.568 89.876 120.856 90.756C120.892 90.864 120.928 90.976 120.968 91.084C122 90.852 124.992 88.26 128.436 85.024L121.3 78.624C120.312 79.6 119.724 80.116 119.4 80.228Z" fill="#FFBE9D"/>
<path d="M164.448 38.6846C164.696 41.4486 167.844 43.7766 170.62 43.6926C172.148 43.6446 173.696 42.9646 175.164 43.3886C177.628 44.1046 178.624 47.5406 181.164 48.0006C183.052 48.3446 184.792 46.8006 186.708 46.7126C188.116 46.6366 189.444 47.3406 190.612 48.1326C191.78 48.9246 192.892 49.8406 194.212 50.2926C195.532 50.7446 196.772 49.9446 198.12 49.5326C198.452 50.3886 198.672 51.4446 199.1 52.3326C199.528 53.2206 200.048 54.8646 199.288 55.2166C199.288 55.2166 197.164 56.3166 195.936 56.2566C196.432 56.7567 197.051 57.117 197.731 57.301C198.411 57.485 199.127 57.4863 199.808 57.3046C200.148 59.3606 200.404 61.7326 199.008 63.2806C198.355 63.9516 197.521 64.4174 196.608 64.6206C192.152 65.7726 187.492 62.6566 182.968 63.5046C181.112 63.8566 179.412 64.8566 177.536 65.1046C176.611 65.2192 175.672 65.1477 174.775 64.8942C173.877 64.6408 173.04 64.2104 172.312 63.6286C170.528 62.1846 169.3 59.7686 167.036 59.3886C166.032 59.2246 165.016 59.5126 164.032 59.7886C163.048 60.0646 162.032 60.3286 161.028 60.1166C160.024 59.9046 159.096 59.0566 159.14 58.0406" fill="#263238"/>
<path d="M155.6 65.5287C156.1 62.7287 156.676 59.8207 156.676 59.8207C156.676 59.8207 160.372 59.8567 161.944 55.3007C163.44 50.9567 164.52 40.5007 164.52 40.5007C162.149 39.0249 159.383 38.3105 156.594 38.4535C153.805 38.5965 151.127 39.5901 148.92 41.3007L145.236 64.0007C144.808 66.6367 146.732 69.1007 149.556 69.5367C152.4 70.0007 155.108 68.1847 155.6 65.5287Z" fill="#FFBE9D"/>
<path d="M161.756 48.3327C161.73 48.4894 161.644 48.6298 161.516 48.724C161.389 48.8182 161.229 48.8586 161.072 48.8367C160.994 48.8297 160.918 48.8072 160.849 48.7704C160.78 48.7336 160.719 48.6833 160.67 48.6225C160.62 48.5617 160.584 48.4916 160.562 48.4164C160.541 48.3412 160.534 48.2624 160.544 48.1847C160.57 48.0277 160.657 47.8872 160.786 47.7931C160.914 47.699 161.074 47.6587 161.232 47.6807C161.309 47.6881 161.385 47.711 161.453 47.748C161.522 47.785 161.582 47.8354 161.631 47.8962C161.68 47.9569 161.716 48.0269 161.738 48.1018C161.759 48.1768 161.765 48.2553 161.756 48.3327Z" fill="#263238"/>
<path d="M162.848 47.8326C162.76 47.8966 162.364 47.4806 161.716 47.3686C161.068 47.2566 160.54 47.4926 160.484 47.4046C160.428 47.3166 160.556 47.2326 160.788 47.1206C161.102 46.9744 161.455 46.9297 161.796 46.9926C162.131 47.0535 162.438 47.2171 162.676 47.4606C162.848 47.6486 162.892 47.8006 162.848 47.8326Z" fill="#263238"/>
<path d="M155.116 47.2809C155.089 47.4379 155.002 47.5784 154.874 47.6725C154.745 47.7666 154.585 47.8069 154.428 47.7849C154.35 47.7775 154.275 47.7546 154.206 47.7176C154.138 47.6806 154.077 47.6302 154.028 47.5694C153.979 47.5087 153.943 47.4387 153.922 47.3638C153.9 47.2888 153.894 47.2103 153.904 47.1329C153.93 46.9759 154.017 46.8354 154.145 46.7413C154.274 46.6472 154.434 46.6069 154.592 46.6289C154.669 46.6364 154.745 46.6593 154.813 46.6963C154.882 46.7333 154.942 46.7837 154.991 46.8444C155.04 46.9052 155.076 46.9751 155.098 47.0501C155.119 47.125 155.125 47.2035 155.116 47.2809Z" fill="#263238"/>
<path d="M156.06 46.8762C155.972 46.9402 155.576 46.5242 154.928 46.4122C154.28 46.3002 153.752 46.5402 153.692 46.4482C153.632 46.3562 153.764 46.2802 154 46.1642C154.314 46.0215 154.664 45.9782 155.004 46.0402C155.341 46.0978 155.651 46.2618 155.888 46.5082C156.06 46.6962 156.104 46.8482 156.06 46.8762Z" fill="#263238"/>
<path d="M157.56 52.0885C157.92 52.0425 158.284 52.0425 158.644 52.0885C158.812 52.0885 158.976 52.0885 159.024 51.9885C159.067 51.8205 159.059 51.6436 159 51.4805C158.916 51.0525 158.828 50.6045 158.732 50.1365C158.368 48.2285 158.14 46.6685 158.216 46.6525C158.292 46.6365 158.648 48.1765 159.016 50.0885C159.1 50.5565 159.184 51.0045 159.26 51.4325C159.33 51.65 159.32 51.8856 159.232 52.0965C159.198 52.1503 159.152 52.1958 159.098 52.2298C159.044 52.2637 158.983 52.2851 158.92 52.2925C158.824 52.3032 158.728 52.3032 158.632 52.2925C158.268 52.269 157.908 52.2004 157.56 52.0885Z" fill="#263238"/>
<path d="M156.66 59.8205C154.445 59.4596 152.375 58.4902 150.68 57.0205C150.68 57.0205 151.636 60.5085 156.404 60.8925L156.66 59.8205Z" fill="#EB996E"/>
<path d="M157.012 53.6007C156.915 53.4254 156.775 53.2771 156.606 53.1695C156.437 53.0619 156.244 52.9984 156.044 52.9847C155.9 52.9735 155.755 52.9911 155.617 53.0364C155.48 53.0818 155.353 53.1539 155.244 53.2487C155.138 53.3417 155.064 53.4649 155.031 53.6016C154.998 53.7383 155.008 53.8819 155.06 54.0127C155.143 54.1448 155.263 54.2497 155.405 54.3144C155.548 54.3791 155.706 54.4007 155.86 54.3767C156.183 54.3202 156.493 54.202 156.772 54.0287C156.854 53.9894 156.929 53.9352 156.992 53.8687C157.022 53.8373 157.042 53.7977 157.049 53.7549C157.056 53.7121 157.05 53.6681 157.032 53.6287" fill="#EB996E"/>
<path d="M155.6 52.2003C155.708 52.2003 155.6 52.9123 156.096 53.5163C156.592 54.1203 157.372 54.1763 157.36 54.2763C157.348 54.3763 157.168 54.3803 156.852 54.3363C156.44 54.2696 156.065 54.06 155.792 53.7443C155.528 53.4406 155.395 53.0456 155.42 52.6443C155.424 52.3483 155.532 52.1843 155.6 52.2003Z" fill="#263238"/>
<path d="M152.092 37.9485C153.344 40.7125 157.4 44.0725 160.536 45.2645C160.248 44.6965 158.488 43.0925 158.204 42.5245C159.468 43.8965 161.296 45.7605 163.228 46.2285C163.45 46.3022 163.689 46.3091 163.916 46.2485C164.041 46.1847 164.149 46.0931 164.233 45.9808C164.317 45.8684 164.374 45.7383 164.4 45.6005C164.774 44.2073 164.997 42.7776 165.064 41.3365C165.13 40.1211 164.729 38.9264 163.944 37.9965C162.876 36.7965 161.144 36.2205 159.456 35.8605C158.067 35.502 156.62 35.4204 155.2 35.6205C153.812 35.8845 152.516 36.6845 152.1 37.8645" fill="#263238"/>
<path d="M144.616 48.3522C144.593 47.2841 144.633 46.2155 144.736 45.1522C145.052 42.7122 145.816 33.8442 154 36.1242L153.128 38.4002C153.128 38.4002 153.756 44.1082 149.556 47.1722C149.556 47.1722 149.576 52.8722 146.664 54.9282C146.664 54.9282 144.636 51.0642 144.616 48.3682" fill="#263238"/>
<path d="M149.732 46.7723C149.248 46.5762 148.72 46.5167 148.204 46.6003C147.689 46.6895 147.23 46.9767 146.924 47.4003C146.646 47.8462 146.548 48.3807 146.648 48.8963C146.751 49.408 146.967 49.8903 147.28 50.3083C147.483 50.6226 147.757 50.8844 148.08 51.0723C148.245 51.1609 148.429 51.2072 148.616 51.2072C148.803 51.2072 148.987 51.1609 149.152 51.0723" fill="#FFBE9D"/>
<path d="M148.92 49.7609C148.972 49.7889 148.7 50.0529 148.264 49.8489C148.15 49.7865 148.049 49.7021 147.967 49.6005C147.885 49.4989 147.824 49.3821 147.788 49.2569C147.695 48.9748 147.66 48.6769 147.684 48.3809C147.701 48.0644 147.831 47.7646 148.052 47.5369C148.144 47.4392 148.257 47.3639 148.382 47.3167C148.508 47.2695 148.643 47.2518 148.776 47.2649C149.252 47.3369 149.34 47.6889 149.284 47.6889C149.228 47.6889 149.088 47.5169 148.764 47.5369C148.563 47.5768 148.383 47.6868 148.257 47.8474C148.13 48.0079 148.064 48.2085 148.072 48.4129C148.036 48.9409 148.152 49.4489 148.404 49.6129C148.656 49.7769 148.896 49.7129 148.92 49.7609Z" fill="#EB996E"/>
<path d="M197.12 47.1567C197.065 47.2774 196.991 47.3882 196.9 47.4847C196.638 47.7626 196.3 47.9573 195.928 48.0447C195.338 48.1925 194.716 48.1491 194.152 47.9207C193.428 47.6015 192.754 47.1784 192.152 46.6647C191.464 46.1447 190.696 45.5287 189.712 45.3167C189.203 45.2205 188.679 45.2424 188.18 45.3807C187.647 45.5358 187.131 45.7435 186.64 46.0007C186.128 46.2607 185.608 46.5487 185.04 46.8007C184.474 47.0777 183.86 47.2408 183.232 47.2807C182.569 47.3026 181.916 47.1135 181.368 46.7407C180.826 46.3466 180.353 45.8654 179.968 45.3167C179.168 44.2527 178.52 43.0967 177.544 42.3407C177.07 41.9685 176.505 41.7308 175.908 41.6527C175.33 41.5875 174.746 41.6132 174.176 41.7287C173.056 41.9367 172.008 42.2927 170.976 42.4247C170.018 42.5403 169.047 42.4558 168.124 42.1767C166.784 41.778 165.587 41.005 164.672 39.9487C164.336 39.5676 164.056 39.1406 163.84 38.6807C163.864 38.7041 163.884 38.7311 163.9 38.7607C163.94 38.8287 163.992 38.9087 164.056 39.0087C165.009 40.4858 166.47 41.5618 168.164 42.0327C169.072 42.2991 170.025 42.374 170.964 42.2527C171.972 42.1167 173.012 41.7567 174.164 41.5407C174.753 41.4159 175.358 41.3875 175.956 41.4567C176.587 41.5375 177.185 41.7862 177.688 42.1767C178.712 42.9767 179.364 44.1447 180.156 45.1927C180.525 45.7232 180.981 46.1883 181.504 46.5687C182.015 46.9183 182.625 47.0962 183.244 47.0767C183.847 47.0393 184.437 46.883 184.98 46.6167C185.528 46.3767 186.044 46.0927 186.56 45.8167C187.064 45.5531 187.593 45.3413 188.14 45.1847C188.662 45.0439 189.209 45.0233 189.74 45.1247C190.666 45.401 191.519 45.8807 192.236 46.5287C192.823 47.0405 193.48 47.4662 194.188 47.7927C194.729 48.0198 195.327 48.0743 195.9 47.9487C196.261 47.8678 196.594 47.6909 196.864 47.4367C197.048 47.2727 197.112 47.1527 197.12 47.1567Z" fill="#263238"/>
<path d="M104.992 126.616L97.7358 141.252L99.8998 141.332L93.7518 152.964H96.9839L91.9438 163.296H120.1L113.9 152.964L116.872 152.832L110.932 141.208L113.128 141.08L104.992 126.616Z" fill="#455A64"/>
<path d="M106.216 143.601C106.276 143.601 106.216 149.801 106.12 157.445C106.024 165.089 105.868 171.285 105.812 171.285C105.756 171.285 105.812 165.085 105.912 157.441C106.012 149.797 106.16 143.601 106.216 143.601Z" fill="#263238"/>
<path d="M109.668 147.356C109.557 147.591 109.41 147.807 109.232 147.996C108.837 148.477 108.415 148.935 107.968 149.368C107.456 149.884 106.992 150.344 106.668 150.692C106.505 150.893 106.323 151.076 106.124 151.24C106.234 151.005 106.379 150.787 106.556 150.596C106.953 150.118 107.375 149.66 107.82 149.224C108.336 148.708 108.8 148.248 109.124 147.9C109.285 147.699 109.467 147.517 109.668 147.356Z" fill="#263238"/>
<path d="M106.148 151.389C105.578 151.069 105.042 150.693 104.548 150.265C104.009 149.887 103.51 149.454 103.06 148.973C103.631 149.291 104.167 149.668 104.66 150.097C105.2 150.474 105.699 150.907 106.148 151.389Z" fill="#263238"/>
<path d="M105.956 158.568C105.328 158.124 104.726 157.645 104.152 157.132C103.533 156.673 102.942 156.179 102.38 155.652C103.065 156.013 103.705 156.454 104.284 156.968C104.905 157.431 105.467 157.968 105.956 158.568Z" fill="#263238"/>
<path d="M109.968 154.128C110.02 154.168 109.196 155.24 108.036 156.42L106.576 157.948C106.391 158.176 106.184 158.383 105.956 158.568C105.904 158.528 106.728 157.456 107.888 156.276L109.348 154.752C109.533 154.524 109.741 154.315 109.968 154.128Z" fill="#263238"/>
</svg>
