<svg width="211" height="200" viewBox="0 0 211 200" fill="none" xmlns="http://www.w3.org/2000/svg">
<g clip-path="url(#clip0_4611_19576)">
<mask id="mask0_4611_19576" style="mask-type:luminance" maskUnits="userSpaceOnUse" x="0" y="0" width="211" height="200">
<path d="M210.293 0H0V200H210.293V0Z" fill="white"/>
</mask>
<g mask="url(#mask0_4611_19576)">
<path d="M210.293 76.3921L154.879 71.6691L147.515 52.1738C149.426 79.0353 141.326 105.894 123.913 126.431C115.232 136.668 104.517 145.476 91.9655 152.198C78.0155 159.669 63.1752 163.798 48.3475 164.913L22.5117 166.247L46.499 172.831L40.1617 199.994L105.145 160.748L170.129 199.994L152.885 126.064L210.29 76.3888L210.293 76.3921Z" fill="url(#paint0_linear_4611_19576)"/>
<path d="M138.667 70.2897L134.65 69.9477L122.881 42.0477C116.262 26.3567 94.027 26.3565 87.408 42.0472L76.5612 67.7602L110.188 97.7149C111.319 98.7225 111.421 100.457 110.413 101.587C109.406 102.718 107.671 102.82 106.54 101.812L71.1945 70.3267L53.2673 71.8547L93.2315 107.456C94.362 108.464 94.4638 110.198 93.4563 111.329C92.449 112.46 90.7145 112.561 89.5837 111.554L45.7378 72.4954L28.8088 73.9372L76.7582 116.65C77.889 117.657 77.9908 119.391 76.9833 120.522C75.9758 121.653 74.2412 121.754 73.1107 120.747L21.2792 74.5812L0 76.3927L57.4048 126.068L56.0308 131.961L35.7928 138.871L42.737 138.619C60.0788 137.987 77.1558 133.708 92.4768 125.559C92.6 125.495 92.72 125.43 92.8432 125.362C108.028 117.229 120.515 106.039 129.97 92.9582C137.038 83.1797 142.053 72.0672 145.245 60.431L147.509 52.1745L138.664 70.2864L138.667 70.2897Z" fill="url(#paint1_linear_4611_19576)"/>
<path d="M104.75 25C97.8464 25 92.25 19.4036 92.25 12.5C92.25 5.59644 97.8464 0 104.75 0C111.654 0 117.25 5.59644 117.25 12.5C117.25 19.4036 111.654 25 104.75 25Z" fill="url(#paint2_linear_4611_19576)"/>
<path d="M148.328 26.6797L152.247 35.9652L162.29 36.8217L154.668 43.4177L156.958 53.2332L148.328 48.0204L139.702 53.2332L141.991 43.4177L134.369 36.8217L144.412 35.9652L148.328 26.6797Z" fill="url(#paint3_linear_4611_19576)"/>
<path d="M16.6152 143.785C17.792 144.244 19.4464 144.762 20.9529 145.156C22.4902 145.585 24.08 145.936 25.6698 146.269C27.2685 146.57 28.8705 146.903 30.5002 147.11C32.1208 147.368 33.7537 147.578 35.3988 147.713C41.967 148.357 48.6463 148.413 55.3255 147.935C56.9922 147.803 58.6558 147.59 60.3257 147.424C62.0017 147.279 63.6652 147.036 65.3197 146.737L70.3075 145.899L75.249 144.78C78.5825 144.13 81.7773 142.997 85.0645 142.103C88.3087 141.087 91.482 139.851 94.7105 138.727C91.6483 140.218 88.623 141.835 85.496 143.24C82.3258 144.522 79.2203 146.053 75.9453 147.11L71.0685 148.841L66.096 150.298C64.4385 150.803 62.7657 151.256 61.0682 151.611C59.3767 151.99 57.6855 152.409 55.9787 152.751C49.1423 154.066 42.1675 154.849 35.1123 155C33.347 155.061 31.5817 155.049 29.8072 154.978C28.0325 154.963 26.258 154.818 24.4774 154.695C22.6966 154.537 20.9129 154.362 19.1168 154.088C17.2806 153.82 15.617 153.542 13.5312 153.009L16.6059 143.782L16.6152 143.785Z" fill="url(#paint4_linear_4611_19576)"/>
</g>
</g>
<defs>
<linearGradient id="paint0_linear_4611_19576" x1="16.9663" y1="29.9366" x2="163.662" y2="176.629" gradientUnits="userSpaceOnUse">
<stop offset="1" stop-color="#6E6E6E"/>
</linearGradient>
<linearGradient id="paint1_linear_4611_19576" x1="-19.3629" y1="-20.3971" x2="100.749" y2="99.7175" gradientUnits="userSpaceOnUse">
<stop offset="1" stop-color="#3C3C3C"/>
</linearGradient>
<linearGradient id="paint2_linear_4611_19576" x1="96.5" y1="4" x2="108.75" y2="25" gradientUnits="userSpaceOnUse">
<stop stop-color="#3C3C3C"/>
</linearGradient>
<linearGradient id="paint3_linear_4611_19576" x1="123.327" y1="17.3603" x2="154.872" y2="48.9017" gradientUnits="userSpaceOnUse">
<stop offset="1" stop-color="#3C3C3C"/>
</linearGradient>
<linearGradient id="paint4_linear_4611_19576" x1="-2.15621" y1="116.456" x2="74.0785" y2="165.822" gradientUnits="userSpaceOnUse">
<stop offset="1" stop-color="#3C3C3C"/>
</linearGradient>
<clipPath id="clip0_4611_19576">
<rect width="210.5" height="200" fill="white"/>
</clipPath>
</defs>
</svg>
