<svg width="40" height="40" viewBox="0 0 40 40" fill="none" xmlns="http://www.w3.org/2000/svg">
<circle cx="20" cy="20" r="20" fill="#ECECEC"/>
<path d="M20 20V26" stroke="#3C3C3C" stroke-width="2" stroke-miterlimit="10" stroke-linecap="round"/>
<path d="M20 19.6552C22.6662 19.6552 24.8276 17.4938 24.8276 14.8276C24.8276 12.1614 22.6662 10 20 10C17.3338 10 15.1724 12.1614 15.1724 14.8276C15.1724 17.4938 17.3338 19.6552 20 19.6552Z" fill="#3C3C3C"/>
<path d="M18.2759 14.4828C18.8472 14.4828 19.3104 14.0196 19.3104 13.4483C19.3104 12.877 18.8472 12.4138 18.2759 12.4138C17.7045 12.4138 17.2414 12.877 17.2414 13.4483C17.2414 14.0196 17.7045 14.4828 18.2759 14.4828Z" fill="white"/>
</svg>
