<svg width="38" height="38" viewBox="0 0 38 38" fill="none" xmlns="http://www.w3.org/2000/svg">
<circle cx="19" cy="19" r="19" fill="#3C3C3C"/>
<path fill-rule="evenodd" clip-rule="evenodd" d="M9 19.015C9 13.7471 13.21 9 19.02 9C24.7 9 29 13.657 29 18.985C29 25.1642 23.96 29 19 29C17.36 29 15.54 28.5593 14.08 27.698C13.57 27.3876 13.14 27.1572 12.59 27.3375L10.57 27.9384C10.06 28.0986 9.6 27.698 9.75 27.1572L10.42 24.9139C10.53 24.6034 10.51 24.2729 10.35 24.0125C9.49 22.4301 9 20.6975 9 19.015ZM17.7 19.015C17.7 19.7261 18.27 20.2969 18.98 20.307C19.69 20.307 20.26 19.7261 20.26 19.025C20.26 18.314 19.69 17.7431 18.98 17.7431C18.28 17.7331 17.7 18.314 17.7 19.015ZM22.31 19.025C22.31 19.7261 22.88 20.307 23.59 20.307C24.3 20.307 24.87 19.7261 24.87 19.025C24.87 18.314 24.3 17.7431 23.59 17.7431C22.88 17.7431 22.31 18.314 22.31 19.025ZM14.37 20.307C13.67 20.307 13.09 19.7261 13.09 19.025C13.09 18.314 13.66 17.7431 14.37 17.7431C15.08 17.7431 15.65 18.314 15.65 19.025C15.65 19.7261 15.08 20.2969 14.37 20.307Z" fill="white"/>
</svg>
