<svg width="25" height="25" viewBox="0 0 25 25" fill="none" xmlns="http://www.w3.org/2000/svg">
<g clip-path="url(#clip0_1173_18829)">
<path d="M20.7259 4.44531H4.9347C4.5422 4.44574 4.1659 4.60187 3.88836 4.87946C3.61082 5.15704 3.45471 5.5334 3.45428 5.92596V8.39368C3.45428 8.52458 3.50628 8.65012 3.59882 8.74268C3.69137 8.83525 3.81689 8.88725 3.94777 8.88725H21.7128C21.8437 8.88725 21.9692 8.83525 22.0617 8.74268C22.1543 8.65012 22.2063 8.52458 22.2063 8.39368V5.92596C22.2058 5.5334 22.0497 5.15704 21.7722 4.87946C21.4947 4.60187 21.1184 4.44574 20.7259 4.44531Z" fill="#00CF66"/>
<path d="M21.7128 6.41992H3.94776C3.55526 6.42035 3.17896 6.57648 2.90142 6.85407C2.62388 7.13165 2.46777 7.50801 2.46735 7.90057V10.6151C2.46735 10.746 2.51934 10.8715 2.61189 10.9641C2.70443 11.0567 2.82995 11.1087 2.96083 11.1087H22.6997C22.8306 11.1087 22.9561 11.0567 23.0487 10.9641C23.1412 10.8715 23.1932 10.746 23.1932 10.6151V7.90057C23.1928 7.50801 23.0367 7.13165 22.7591 6.85407C22.4816 6.57648 22.1053 6.42035 21.7128 6.41992Z" fill="#00B157"/>
<path d="M22.6998 8.39355H2.96086C2.14324 8.39355 1.48044 9.05646 1.48044 9.8742V18.7581C1.48044 19.5758 2.14324 20.2387 2.96086 20.2387H22.6998C23.5174 20.2387 24.1802 19.5758 24.1802 18.7581V9.8742C24.1802 9.05646 23.5174 8.39355 22.6998 8.39355Z" fill="#00CF66"/>
<path d="M2.06459 8.69824C1.88319 8.83593 1.73607 9.0137 1.63473 9.21766C1.53339 9.42162 1.48056 9.64626 1.48038 9.87401V18.7579C1.48081 19.1504 1.63692 19.5268 1.91445 19.8044C2.19199 20.082 2.5683 20.2381 2.96079 20.2385H22.6997C23.0239 20.2384 23.3389 20.1312 23.5959 19.9336L2.06459 8.69824Z" fill="#00B157"/>
<path d="M7.89554 18.2649H5.42819C5.29731 18.2649 5.17179 18.2129 5.07924 18.1204C4.98669 18.0278 4.9347 17.9023 4.9347 17.7714C4.93442 17.5097 4.83035 17.2588 4.64533 17.0737C4.4603 16.8887 4.20944 16.7846 3.94777 16.7843C3.81689 16.7843 3.69137 16.7323 3.59882 16.6397C3.50628 16.5472 3.45428 16.4216 3.45428 16.2907V12.3424C3.45428 12.2115 3.50628 12.0859 3.59882 11.9934C3.69137 11.9008 3.81689 11.8488 3.94777 11.8488C4.20944 11.8485 4.4603 11.7444 4.64533 11.5594C4.83035 11.3743 4.93442 11.1234 4.9347 10.8617C4.9347 10.7308 4.98669 10.6053 5.07924 10.5127C5.17179 10.4202 5.29731 10.3682 5.42819 10.3682H7.89554C8.02558 10.3694 8.14988 10.422 8.24139 10.5144C8.33291 10.6068 8.38425 10.7316 8.38425 10.8617C8.38425 10.9918 8.33291 11.1166 8.24139 11.209C8.14988 11.3014 8.02558 11.354 7.89554 11.3552H5.85927C5.77042 11.6964 5.59217 12.0077 5.34291 12.257C5.09364 12.5063 4.78239 12.6846 4.44126 12.7735V15.8597C4.78239 15.9485 5.09364 16.1268 5.34291 16.3761C5.59217 16.6254 5.77042 16.9367 5.85927 17.2779H7.89558C7.96079 17.2773 8.02547 17.2896 8.0859 17.3141C8.14632 17.3386 8.20129 17.3749 8.24762 17.4208C8.29395 17.4667 8.33073 17.5213 8.35583 17.5815C8.38093 17.6417 8.39385 17.7062 8.39385 17.7715C8.39385 17.8367 8.38093 17.9012 8.35583 17.9614C8.33073 18.0216 8.29395 18.0762 8.24762 18.1221C8.20129 18.168 8.14632 18.2043 8.0859 18.2288C8.02547 18.2533 7.96079 18.2656 7.89558 18.265L7.89554 18.2649Z" fill="#00B157"/>
<path d="M5.85927 11.3549H7.15537L5.30023 10.3867C5.19558 10.4146 5.10305 10.4762 5.03696 10.562C4.97088 10.6478 4.93494 10.753 4.9347 10.8613C4.93442 11.123 4.83035 11.3739 4.64533 11.559C4.4603 11.744 4.20944 11.8481 3.94777 11.8484C3.81689 11.8484 3.69137 11.9004 3.59882 11.993C3.50628 12.0855 3.45428 12.2111 3.45428 12.342V16.2903C3.45428 16.3551 3.46705 16.4193 3.49185 16.4792C3.51665 16.5391 3.553 16.5935 3.59882 16.6393C3.64465 16.6852 3.69905 16.7215 3.75892 16.7463C3.8188 16.7711 3.88297 16.7839 3.94777 16.7839C4.20944 16.7842 4.4603 16.8883 4.64533 17.0733C4.83035 17.2584 4.93442 17.5093 4.9347 17.771C4.9347 17.9019 4.98669 18.0274 5.07924 18.12C5.17179 18.2125 5.29731 18.2645 5.42819 18.2645H7.89554C7.96074 18.2652 8.02542 18.2529 8.08585 18.2283C8.14627 18.2038 8.20124 18.1676 8.24757 18.1217C8.2939 18.0758 8.33068 18.0212 8.35578 17.961C8.38088 17.9008 8.3938 17.8362 8.3938 17.771C8.3938 17.7058 8.38088 17.6412 8.35578 17.581C8.33068 17.5208 8.2939 17.4662 8.24757 17.4203C8.20124 17.3744 8.14627 17.3382 8.08585 17.3136C8.02542 17.2891 7.96074 17.2768 7.89554 17.2775H5.85927C5.77042 16.9363 5.59217 16.625 5.34291 16.3757C5.09364 16.1264 4.78239 15.9481 4.44126 15.8592V12.773C4.78238 12.6842 5.09363 12.5059 5.34289 12.2566C5.59215 12.0073 5.77041 11.696 5.85927 11.3549Z" fill="#009148"/>
<path d="M20.2324 18.265H17.765C17.6998 18.2656 17.6351 18.2533 17.5747 18.2288C17.5143 18.2043 17.4593 18.1681 17.413 18.1222C17.3667 18.0763 17.3299 18.0217 17.3048 17.9615C17.2797 17.9013 17.2668 17.8367 17.2668 17.7715C17.2668 17.7063 17.2797 17.6417 17.3048 17.5815C17.3299 17.5213 17.3667 17.4667 17.413 17.4208C17.4593 17.3749 17.5143 17.3386 17.5747 17.3141C17.6351 17.2896 17.6998 17.2773 17.765 17.2779H19.8013C19.8902 16.9368 20.0684 16.6255 20.3177 16.3762C20.567 16.1268 20.8782 15.9486 21.2193 15.8597V12.7735C20.8782 12.6846 20.567 12.5064 20.3177 12.2571C20.0684 12.0078 19.8902 11.6965 19.8013 11.3553H17.765C17.6998 11.3559 17.6351 11.3436 17.5747 11.3191C17.5143 11.2946 17.4593 11.2583 17.413 11.2124C17.3667 11.1665 17.3299 11.1119 17.3048 11.0517C17.2797 10.9915 17.2668 10.9269 17.2668 10.8617C17.2668 10.7965 17.2797 10.7319 17.3048 10.6717C17.3299 10.6116 17.3667 10.5569 17.413 10.511C17.4593 10.4651 17.5143 10.4289 17.5747 10.4044C17.6351 10.3799 17.6998 10.3676 17.765 10.3682H20.2324C20.2972 10.3682 20.3614 10.381 20.4212 10.4058C20.4811 10.4306 20.5355 10.4669 20.5813 10.5128C20.6272 10.5586 20.6635 10.613 20.6883 10.6729C20.7131 10.7328 20.7259 10.797 20.7259 10.8618C20.7261 11.1235 20.8302 11.3744 21.0152 11.5595C21.2003 11.7445 21.4511 11.8486 21.7128 11.8489C21.8437 11.8489 21.9692 11.9009 22.0617 11.9934C22.1543 12.086 22.2063 12.2115 22.2063 12.3424V16.2908C22.2063 16.3556 22.1935 16.4198 22.1687 16.4797C22.1439 16.5396 22.1076 16.594 22.0617 16.6398C22.0159 16.6856 21.9615 16.722 21.9016 16.7468C21.8418 16.7716 21.7776 16.7844 21.7128 16.7844C21.4511 16.7847 21.2003 16.8887 21.0152 17.0738C20.8302 17.2588 20.7261 17.5098 20.7259 17.7715C20.7259 17.9024 20.6739 18.0279 20.5813 18.1205C20.4888 18.213 20.3632 18.265 20.2324 18.265Z" fill="#00B157"/>
<path d="M18.5052 17.2774H17.765C17.6998 17.2767 17.6351 17.289 17.5747 17.3136C17.5143 17.3381 17.4593 17.3743 17.413 17.4202C17.3667 17.4661 17.3299 17.5207 17.3048 17.5809C17.2797 17.6411 17.2668 17.7057 17.2668 17.7709C17.2668 17.8361 17.2797 17.9007 17.3048 17.9609C17.3299 18.0211 17.3667 18.0757 17.413 18.1216C17.4593 18.1675 17.5143 18.2037 17.5747 18.2283C17.6351 18.2528 17.6998 18.2651 17.765 18.2644H20.2324C20.2758 18.2638 20.3189 18.2575 20.3606 18.2455L18.5052 17.2774Z" fill="#009148"/>
<path d="M12.8303 18.5114C15.1468 18.5114 17.0248 16.6332 17.0248 14.3163C17.0248 11.9993 15.1468 10.1211 12.8303 10.1211C10.5137 10.1211 8.63574 11.9993 8.63574 14.3163C8.63574 16.6332 10.5137 18.5114 12.8303 18.5114Z" fill="#FAC100"/>
<path d="M9.1131 12.377C8.85842 12.8652 8.70238 13.3988 8.65389 13.9473C8.60541 14.4959 8.66542 15.0486 8.83051 15.574C8.9956 16.0993 9.26253 16.587 9.61607 17.0091C9.9696 17.4313 10.4028 17.7797 10.891 18.0344C11.3791 18.2891 11.9127 18.4452 12.4611 18.4937C13.0096 18.5422 13.5622 18.4822 14.0875 18.3171C14.6127 18.1519 15.1003 17.885 15.5225 17.5314C15.9446 17.1778 16.2929 16.7445 16.5476 16.2563L9.1131 12.377Z" fill="#FF9500"/>
<path d="M13.1789 13.9123C13.1245 13.8914 13.0734 13.8722 13.0295 13.8529C12.9787 13.8303 12.9173 13.8066 12.8495 13.7811C12.5247 13.6577 12.3368 13.5613 12.3368 13.4333C12.3368 13.3969 12.3956 13.2991 12.5373 13.2275C12.6428 13.174 13.0254 13.0285 13.5249 13.3954C13.6304 13.472 13.7619 13.5037 13.8907 13.4836C14.0195 13.4635 14.1351 13.3933 14.2123 13.2883C14.2895 13.1833 14.322 13.052 14.3027 12.923C14.2835 12.7941 14.214 12.6781 14.1095 12.6002C13.8744 12.425 13.6076 12.2972 13.3237 12.2239V11.8491C13.3225 11.7191 13.2699 11.5948 13.1775 11.5032C13.0851 11.4117 12.9603 11.3604 12.8303 11.3604C12.7002 11.3604 12.5754 11.4117 12.483 11.5032C12.3906 11.5948 12.3381 11.7191 12.3368 11.8491V12.2467C12.2526 12.2736 12.1706 12.3071 12.0916 12.3469C11.634 12.5785 11.3497 12.9947 11.3497 13.4335C11.3497 14.2674 12.1261 14.5625 12.4991 14.704C12.5485 14.7228 12.5936 14.7395 12.6311 14.7562C12.6887 14.7816 12.7552 14.8071 12.8265 14.8345C13.2075 14.9801 13.3236 15.0597 13.3236 15.1755C13.3236 15.2119 13.2648 15.3097 13.1232 15.3815C13.0177 15.4347 12.6345 15.5805 12.1355 15.2134C12.0301 15.1359 11.8981 15.1034 11.7688 15.1232C11.6394 15.1429 11.5232 15.2133 11.4457 15.3187C11.3681 15.4242 11.3357 15.5561 11.3554 15.6855C11.3752 15.8149 11.4455 15.9312 11.551 16.0087C11.7862 16.1824 12.0531 16.3086 12.3367 16.38V16.7844C12.338 16.9145 12.3905 17.0388 12.4829 17.1303C12.5753 17.2218 12.7001 17.2732 12.8302 17.2732C12.9602 17.2732 13.085 17.2218 13.1774 17.1303C13.2698 17.0388 13.3224 16.9145 13.3236 16.7844V16.36C13.4078 16.3338 13.4898 16.301 13.5688 16.2619C14.0264 16.0303 14.3107 15.6141 14.3107 15.1753C14.3107 14.3446 13.5462 14.0525 13.1789 13.9123Z" fill="#FF9500"/>
<path d="M12.4992 14.704C12.5486 14.7228 12.5937 14.7395 12.6313 14.7562C12.6888 14.7816 12.7553 14.8071 12.8267 14.8345C13.2076 14.9801 13.3238 15.0597 13.3238 15.1755C13.3238 15.2119 13.265 15.3097 13.1233 15.3815C13.0178 15.4347 12.6347 15.5805 12.1356 15.2134C12.0302 15.1359 11.8983 15.1034 11.7689 15.1232C11.6395 15.1429 11.5233 15.2133 11.4458 15.3187C11.3683 15.4242 11.3358 15.5561 11.3556 15.6855C11.3753 15.8149 11.4457 15.9312 11.5511 16.0087C11.7863 16.1824 12.0532 16.3086 12.3368 16.38V16.7846C12.3381 16.9147 12.3906 17.039 12.483 17.1305C12.5754 17.222 12.7002 17.2734 12.8303 17.2734C12.9604 17.2734 13.0851 17.222 13.1776 17.1305C13.27 17.039 13.3225 16.9147 13.3238 16.7846V16.3602C13.4079 16.334 13.4899 16.3012 13.569 16.2621C14.0265 16.0305 14.3108 15.6143 14.3108 15.1755C14.3108 15.1446 14.3077 15.116 14.3056 15.0867L11.3567 13.5479C11.4244 14.294 12.144 14.569 12.4992 14.704Z" fill="#F87600"/>
</g>
<defs>
<clipPath id="clip0_1173_18829">
<rect width="23.6867" height="23.6903" fill="white" transform="translate(0.986938 0.49707)"/>
</clipPath>
</defs>
</svg>
