<svg width="64" height="64" viewBox="0 0 64 64" fill="none" xmlns="http://www.w3.org/2000/svg">
<circle cx="31.6348" cy="31.6348" r="31.6348" fill="white"/>
<path d="M23.6449 32H22.2163C22.22 34.3371 23.1043 36.5871 24.6928 38.3013C26.2814 40.0156 28.4576 41.0683 30.7877 41.2496V45.5714H27.9306V47H35.0735V45.5714H32.2163V41.2496C33.6903 41.1375 35.1157 40.6728 36.3725 39.8946L35.5189 39.041L35.3269 38.8491C34.1599 39.5088 32.8425 39.856 31.502 39.8571C29.419 39.8545 27.422 39.0259 25.9491 37.553C24.4761 36.08 23.6475 34.083 23.6449 32Z" fill="#3C3C3C"/>
<path d="M33.175 36.697L32.4619 35.984L26.9239 30.446L26.5024 30.0244V32.0003C26.504 33.3259 27.0313 34.5967 27.9687 35.5341C28.906 36.4714 30.1768 36.9987 31.5024 37.0003C32.0735 36.9987 32.6398 36.896 33.175 36.697Z" fill="#3C3C3C"/>
<path d="M37.5387 39.0409L41 42.502L42.007 41.495L38.5459 38.0337C39.9924 36.3563 40.788 34.215 40.7877 32H39.3591C39.3604 33.8368 38.715 35.6154 37.536 37.0239L35.4924 34.981C36.1442 34.1236 36.4986 33.077 36.502 32V22C36.502 20.6739 35.9752 19.4021 35.0375 18.4645C34.0999 17.5268 32.8281 17 31.502 17C30.1759 17 28.9041 17.5268 27.9665 18.4645C27.0288 19.4021 26.502 20.6739 26.502 22V25.99L22.007 21.495L21 22.502L25.4949 26.997L26.9234 28.4256L33.4716 34.9736L34.4859 35.9879L36.5287 38.0307L37.5387 39.0409Z" fill="#3C3C3C"/>
</svg>
