<svg width="26" height="24" viewBox="0 0 26 24" fill="none" xmlns="http://www.w3.org/2000/svg">
<ellipse cx="12.884" cy="12" rx="12.3386" ry="12" fill="#3C3C3C" fill-opacity="0.1"/>
<path d="M12.9664 12.0003C13.6477 12.0003 14.2293 11.7658 14.7112 11.2971C15.1932 10.8284 15.4342 10.2628 15.4342 9.60017C15.4342 8.93769 15.1932 8.37206 14.7112 7.90324C14.2291 7.43454 13.6476 7.2002 12.9664 7.2002C12.2852 7.2002 11.7035 7.43454 11.2216 7.90324C10.7396 8.37206 10.4986 8.93767 10.4986 9.60017C10.4986 10.2628 10.7396 10.8284 11.2216 11.2971C11.7036 11.7658 12.2852 12.0003 12.9664 12.0003Z" fill="#3C3C3C"/>
<path d="M17.468 14.5345C17.453 14.3242 17.423 14.097 17.3781 13.8532C17.3331 13.6094 17.2762 13.3835 17.2077 13.1751C17.1391 12.9668 17.047 12.7636 16.9313 12.5657C16.8157 12.3678 16.6829 12.1991 16.5328 12.0594C16.3828 11.9198 16.1997 11.8084 15.9835 11.7251C15.767 11.6418 15.5281 11.6001 15.2668 11.6001C15.2283 11.6001 15.1383 11.6449 14.9969 11.7345C14.8556 11.8241 14.696 11.9241 14.5182 12.0346C14.3404 12.1448 14.1089 12.2449 13.8242 12.3344C13.5392 12.424 13.2533 12.4688 12.9662 12.4688C12.6791 12.4688 12.3932 12.424 12.1083 12.3344C11.8234 12.2449 11.592 12.1448 11.4142 12.0346C11.2365 11.9241 11.0769 11.8241 10.9355 11.7345C10.7941 11.6449 10.7042 11.6001 10.6656 11.6001C10.4043 11.6001 10.1654 11.6418 9.9491 11.7251C9.73272 11.8084 9.54959 11.9199 9.39961 12.0594C9.24968 12.1991 9.11685 12.3678 9.00122 12.5657C8.8856 12.7636 8.79349 12.9669 8.72493 13.1751C8.65639 13.3835 8.5996 13.6094 8.55462 13.8532C8.50961 14.097 8.47962 14.324 8.46461 14.5345C8.44962 14.745 8.44215 14.9606 8.44215 15.1815C8.44215 15.6814 8.59856 16.0763 8.91128 16.3659C9.22406 16.6554 9.63967 16.8001 10.1581 16.8001H15.7748C16.2931 16.8001 16.7087 16.6554 17.0215 16.3659C17.3344 16.0763 17.4907 15.6815 17.4907 15.1815C17.4907 14.9606 17.4832 14.745 17.468 14.5345Z" fill="#3C3C3C"/>
</svg>
