<svg width="428" height="241" viewBox="0 0 428 241" fill="none" xmlns="http://www.w3.org/2000/svg">
<g clip-path="url(#clip0_3452_7373)">
<path d="M428 0H0V240.75H428V0Z" fill="white"/>
<path d="M107.314 158.185C250.133 140.429 399.67 149.443 402.382 160.385C403.311 164.135 388.476 167.135 305.463 170.73C368.32 183.106 -155.543 183.429 107.314 158.185Z" fill="#D6D6D6"/>
<path d="M86.3072 155.865L73.5402 133.716C73.2288 133.175 73.5986 132.33 74.0149 132.631C86.0031 142.52 65.1737 116.784 68.8736 117.108L71.0585 118.351C71.4511 118.574 71.7815 117.83 71.5272 117.295L69.1963 112.394C68.9207 111.815 69.327 111.035 69.7242 111.38L73.6245 114.775C74.0156 115.116 74.4206 114.362 74.16 113.778L66.6318 96.9184C66.3781 96.3503 66.7571 95.6067 67.1479 95.9055L68.8934 97.2402C69.2605 97.5208 69.6336 96.8723 69.4365 96.2962L68.2638 92.8665C68.0547 92.2549 68.4828 91.5913 68.849 91.9596L70.8465 93.9687C71.2455 94.3699 71.6858 93.5627 71.3926 92.9674C71.5841 92.4866 61.4968 74.9652 63.4484 75.0687L65.9967 75.0686C66.3635 75.0686 66.5523 74.3554 66.3001 73.9228L63.3881 68.9287C63.0946 68.4252 63.3998 67.6148 63.8093 67.8105L65.6658 68.6977C66.0332 68.8733 66.3402 68.2204 66.1396 67.6906L58.8085 48.3348C58.6446 47.902 58.2569 47.9046 58.0952 48.3392L52.2174 64.1334C51.9421 65.512 52.8195 65.1266 53.564 64.8824C53.9332 64.7734 54.1968 65.4489 53.9788 65.945L48.9529 77.3773C48.6832 78.3486 49.2226 78.7316 49.8384 78.1485C51.3604 77.8171 49.0537 81.7937 50.6709 81.2527C53.8525 80.2636 42.6764 95.6387 45.407 95.2681L47.4356 94.6502C48.4026 94.6567 47.641 96.2958 47.4231 96.8102C47.1929 97.3982 47.5922 98.1008 47.9712 97.7747L48.6043 97.23C49.0256 96.8677 49.4318 97.75 49.0988 98.3043L41.3686 111.17C41.0777 111.655 41.3541 112.457 41.7602 112.307C45.9906 110.735 46.3877 110.092 44.4225 114.855C44.2044 115.406 44.5459 116.09 44.9227 115.856L47.7287 114.12C48.1261 113.874 48.4692 114.637 48.2042 115.177L36.0578 139.936C35.7832 140.495 36.1596 141.275 36.5596 140.975C41.7525 137.075 42.0521 136.142 39.938 143.085C39.7611 143.692 40.1761 144.304 40.5306 143.958L44.3296 140.254C44.705 139.889 45.13 140.588 44.9003 141.193L37.0202 161.955C36.7995 162.537 37.1864 163.224 37.5627 162.919C51.8806 152.375 46.3505 150.663 55.6182 160.499L53.2432 171.758H61.8823L60.8309 156.805C68.0942 163.152 64.4291 163.435 70.8889 156.267C71.01 155.441 76.7939 161.038 76.9745 160.981C77.2445 161.209 77.5693 160.906 77.5845 160.413L77.7836 153.944C77.7971 153.504 78.0604 153.201 78.3199 153.327L85.8831 156.98C86.2917 157.178 86.5985 156.371 86.3072 155.865Z" fill="#EDEAE2"/>
<path d="M90.3555 155.769L81.9922 141.259C81.7882 140.905 82.0305 140.352 82.3031 140.549C90.1562 147.027 76.5115 130.168 78.9352 130.38L80.3665 131.194C80.6237 131.341 80.8401 130.853 80.6735 130.503L79.1465 127.292C78.966 126.913 79.2322 126.402 79.4924 126.628L82.0473 128.852C82.3036 129.075 82.5689 128.581 82.3982 128.199L77.4667 117.155C77.1925 115.617 78.5426 117.138 78.9482 117.365C79.9723 117.607 78.5403 114.84 78.5358 114.5C78.3987 114.1 78.6792 113.665 78.919 113.906L80.2276 115.222C80.4889 115.485 80.7774 114.956 80.5854 114.566C80.7108 114.251 74.103 102.774 75.3813 102.841H77.0506C77.2909 102.841 77.4146 102.374 77.2493 102.091L75.3418 98.8194C74.9471 97.3981 76.3451 98.5076 76.8339 98.668C77.0745 98.783 77.2757 98.3554 77.1442 98.0083L72.3418 85.3288C72.2345 85.0454 71.9805 85.0469 71.8745 85.3318L68.0242 95.6781C67.8438 96.5812 68.4186 96.3287 68.9063 96.1688C70.2112 95.8634 65.7587 104.116 65.8859 104.354C65.709 104.99 66.0624 105.241 66.4657 104.859C67.4616 104.662 65.9523 107.226 67.0111 106.892C69.0954 106.245 61.7741 116.316 63.5628 116.074L64.8917 115.669C65.5159 115.664 65.0297 116.753 64.8835 117.084C64.7328 117.469 64.9943 117.929 65.2426 117.716L65.6574 117.359C65.9334 117.121 66.1994 117.699 65.9813 118.062L60.9176 126.49C60.7271 126.808 60.9081 127.333 61.1741 127.235C63.9454 126.206 64.2055 125.784 62.9181 128.904C62.7753 129.265 62.999 129.713 63.2458 129.56L65.0838 128.422C65.3441 128.261 65.5689 128.761 65.3953 129.115L57.4386 145.334C57.2587 145.701 57.5053 146.211 57.7673 146.015C61.169 143.46 61.3652 142.848 59.9804 147.397C59.8645 147.795 60.1364 148.195 60.3686 147.969L62.8572 145.543C63.1031 145.303 63.3815 145.761 63.231 146.157L58.069 159.758C57.9243 160.139 58.1779 160.59 58.4244 160.389L65.8771 154.335C66.1726 154.045 70.0371 158.719 70.252 158.804L68.6962 166.18H74.3554L73.6666 156.385C78.4246 160.542 76.0237 160.728 80.2553 156.032C80.3467 155.504 84.1167 159.15 84.2418 159.12C84.4187 159.27 84.6314 159.071 84.6414 158.748L84.7718 154.51C84.7807 154.222 84.9531 154.024 85.1232 154.106L90.0776 156.499C90.3454 156.629 90.5464 156.1 90.3555 155.769Z" fill="#D1CCC0"/>
<path d="M282.87 154.039C283.451 175.833 303.338 175.544 303.29 153.744C302.709 131.95 282.822 132.239 282.87 154.039Z" fill="#131F2D"/>
<path d="M292.517 154.506C292.837 169.118 302.041 168.985 301.94 154.37C301.62 139.759 292.416 139.892 292.517 154.506Z" fill="#ECFCFB"/>
<path d="M266.798 151.713C267.264 167.053 286.927 166.768 286.95 151.423C286.484 136.083 266.821 136.369 266.798 151.713Z" fill="#131F2D"/>
<path d="M275.508 151.84C275.797 163.369 285.105 163.234 285.061 151.702C284.772 140.173 275.465 140.308 275.508 151.84Z" fill="#ECFCFB"/>
<path d="M322.201 152.679C322.188 169.482 345.902 167.585 344.785 151.122C344.448 133.062 321.253 134.875 322.201 152.679Z" fill="#131F2D"/>
<path d="M328.79 152.944C328.866 158.194 331.464 161.597 335.936 161.533C345.24 161.711 344.97 141.96 335.592 142.481C331.12 142.545 328.715 147.694 328.79 152.944Z" fill="#ECFCFB"/>
<path d="M213.747 154.421C214.295 172.75 236.511 172.427 236.53 154.093C235.982 135.765 213.765 136.087 213.747 154.421Z" fill="#131F2D"/>
<path d="M220.296 154.527C220.725 170.049 236.118 169.825 236.099 154.299C235.67 138.778 220.277 139.001 220.296 154.527Z" fill="#131F2D"/>
<path d="M223.454 153.853C223.747 164.771 233.793 164.625 233.77 153.704C233.478 142.785 223.431 142.931 223.454 153.853Z" fill="#ECFCFB"/>
<path d="M287.296 158.999C287.296 158.999 241.204 160.448 232.553 159.34C223.902 158.232 225.287 149.352 225.287 149.352L287.14 152.491C287.14 152.491 287.339 157.352 287.296 158.999Z" fill="#131F2D"/>
<path d="M211.648 153.934C211.648 153.934 213.845 154.365 213.973 152.222L235.354 152.7L236.496 154.134L252.838 154.463L254.05 152.874L281.307 153.435C282.254 157.533 289.516 157.676 290.233 153.348C291.542 147.958 293.126 136.878 299.462 135.547C299.462 135.547 309.059 136.844 302.983 157.862L323.386 157.361C323.386 157.361 331.068 154.565 332.054 153.094C333.04 151.629 335.789 130.404 340.513 138.058C340.513 138.058 341.262 139.699 341.116 141.212L342.31 142.538C342.672 139.209 339.414 126.769 333.417 123.307C333.418 123.307 318.421 99.7991 305.633 97.7404C305.633 97.7404 267.315 91.0201 238.198 97.4828C238.198 97.4828 227.448 108.717 225.499 113.278C224.964 114.929 219.979 116.133 218.846 117.57C218.76 117.656 216.765 124.714 216.931 127.731C214.319 131.478 209.522 135 211.648 153.934Z" fill="#C6C6C6"/>
<path d="M279.946 117.193C279.946 117.193 227.047 120.03 223.102 117.958C223.102 117.958 222.018 136.687 226.852 137.263C235.635 138.311 261.068 140.292 271.499 136C276.065 134.121 279.287 118.042 279.946 117.193Z" fill="#E2E2E2"/>
<path d="M298.255 121.684C303.51 133.771 306.769 138.697 306.318 153.242L332.054 153.093C333.04 151.629 335.789 130.404 340.513 138.057C340.513 138.057 341.261 139.699 341.115 141.212L342.31 142.537C341.362 137.07 342.561 127.966 328.993 123.793C326.134 123.569 299.151 112.937 294.716 113.288C294.716 113.288 298.658 118.885 298.255 121.684Z" fill="#E2E2E2"/>
<path d="M213.981 152.774L235.362 153.252L236.504 154.686L252.846 155.014L254.058 153.426L281.315 153.987C281.315 153.987 280.796 149.707 272.135 149.7C259.094 149.69 219.975 149.33 219.975 149.33C219.975 149.33 212.168 149.026 213.981 152.774Z" fill="#131F2D"/>
<path d="M302.982 157.861C302.982 157.861 305.294 143.383 295.553 138.138C299.352 131.158 311.476 135.588 302.982 157.861Z" fill="#131F2D"/>
<path d="M317.731 153.319C317.043 153.072 317.677 141.109 318.134 132.904C318.721 124.71 314.602 119.789 314.985 119.231C315.584 119.036 318.936 124.84 318.614 132.934C317.706 141.123 318.404 153.061 317.731 153.319Z" fill="#C6C6C6"/>
<path d="M225.499 113.277C239.743 117.779 286.424 111.78 294.718 113.287C294.718 113.287 292.125 96.3696 281.66 96.2987C280.905 96.4882 249.146 94.7438 238.197 97.4816C235.026 100.818 226.931 109.718 225.499 113.277Z" fill="#ECFCFB"/>
<path d="M311.233 117.638C311.233 117.638 306.189 101.539 303.082 99.5134C303.082 99.5134 293.5 98.644 292.292 100.228C292.292 100.228 298.997 111.183 298.703 114.097C298.703 114.097 311.233 117.638 311.236 117.862" fill="#ECFCFB"/>
<path d="M325.096 120.573C325.096 120.573 316.83 117.782 315.555 118.584C315.555 118.584 310.469 103.493 306.471 99.7734C306.471 99.7734 312.271 100.389 321.131 109.439C323.184 111.536 324.805 119.738 325.096 120.573Z" fill="#ECFCFB"/>
<path d="M235.044 100.893C240.834 96.7554 266.946 98.9671 278.109 98.251C291.646 97.431 285.81 112.691 285.81 112.691L294.785 113.505C294.785 113.505 291.885 95.5296 281.66 96.2996C281.659 96.2973 254.881 94.4037 241.894 96.7446C237.657 97.3078 238.59 97.0566 235.044 100.893Z" fill="#131F2D"/>
<path d="M226.841 116L227.534 128.716L218.884 128.859L219.085 123.021C221.318 116.865 226.565 116.043 226.841 116Z" fill="#ED5426"/>
<path d="M240.207 124.238L239.864 134.21L263.019 133.826L263.363 123.854L240.207 124.238Z" fill="#ECFCFB"/>
<path d="M279.1 115.463C279.393 115.484 284.948 115.893 287.202 122.264L287.304 128.478L278.122 129.098L279.1 115.463Z" fill="#ED5426"/>
<path d="M152.847 149.817C152.571 169.146 131.714 169.144 131.44 149.816C131.715 130.487 152.573 130.489 152.847 149.817Z" fill="#131F2D"/>
<path d="M152.526 149.767C152.392 165.296 141.683 165.295 141.549 149.767C141.684 134.239 152.392 134.239 152.526 149.767Z" fill="#ECFCFB"/>
<path d="M229.489 145.022C229.309 173.87 212.967 173.868 212.788 145.021C212.968 116.175 229.31 116.176 229.489 145.022Z" fill="#131F2D"/>
<path d="M227.925 145.489C227.898 164.718 221.376 164.718 221.348 145.488C221.376 126.259 227.898 126.259 227.925 145.489Z" fill="#ECFCFB"/>
<path d="M108.593 149.609C108.201 177.118 78.5172 177.115 78.1273 149.609C78.5196 122.1 108.203 122.103 108.593 149.609Z" fill="#131F2D"/>
<path d="M106.165 150.48C105.932 173.784 88.0755 173.782 87.8438 150.479C88.0765 127.175 105.933 127.177 106.165 150.48Z" fill="#ECFCFB"/>
<path d="M206.171 149.331C205.809 176.844 178.771 176.841 178.411 149.33C178.773 121.818 205.811 121.821 206.171 149.331Z" fill="#131F2D"/>
<path d="M204.05 149.226C203.888 168.774 190.755 168.773 190.593 149.225C190.755 129.677 203.888 129.678 204.05 149.226Z" fill="#ECFCFB"/>
<path d="M229.442 147.405C229.442 147.405 230.568 125.78 227.537 127.976C217.982 140.258 234.363 156.165 205.528 155.481C205.528 155.481 207.91 146.719 203.37 136.694C202.229 110.21 192.048 134.994 193.088 151.451C192.683 153.052 191.812 155.524 190.436 156.886C162.011 157.598 105.275 159.759 80.2193 156.052C80.0098 155.992 77.2093 150.324 77.7161 148.25C77.7161 148.25 77.7819 129.228 82.5855 121.498C82.5855 121.498 82.1682 110.21 92.6212 107.076C99.7869 100.327 121.807 79.9629 126.269 79.0658C127.716 78.4524 216.482 57.4477 220.115 102.898C220.741 103.571 224.657 107.834 225.407 109.519C226.515 115.87 235.13 138.895 229.442 147.405Z" fill="#929292"/>
<path d="M206.321 80.9152C206.321 80.9152 195.348 72.7988 195.557 81.7861C195.557 81.7861 197.49 105.148 201.321 108.91C201.321 108.91 217.582 105.719 219.967 103.076C220.828 102.122 213.328 84.9191 206.321 80.9152Z" fill="#131F2D"/>
<path d="M197.543 88.3689C197.348 87.0561 195.94 78.1877 201.723 80.3222C204.753 84.6068 208.69 91.7827 210.815 100.909C210.815 100.909 204.858 104.672 202.245 102.686C199.633 100.701 197.543 88.3689 197.543 88.3689Z" fill="#ECFCFB"/>
<path d="M204.858 81.9239C204.858 81.9239 214.194 87.0794 216.702 98.7143C216.702 98.7143 212.103 100.456 211.616 100.038C211.128 99.6197 207.714 87.5672 204.509 82.969C204.509 82.969 203.673 81.7149 204.858 81.9239Z" fill="#ECFCFB"/>
<path d="M126.91 80.361C128.319 80.7112 174.041 70.2223 192.979 81.9473C193.077 86.4966 193.15 102.236 189.391 100.804C189.391 100.804 123.676 100.485 105.522 101.104C105.168 101.116 104.818 101.021 104.519 100.832C104.219 100.643 103.982 100.369 103.84 100.044C103.698 99.7196 103.657 99.3599 103.721 99.0115C103.786 98.6631 103.954 98.3421 104.203 98.09C109.535 92.7642 119.878 82.7579 126.91 80.361Z" fill="#131F2D"/>
<path d="M111.155 98.456C110.85 98.462 110.549 98.3754 110.294 98.2075C110.038 98.0397 109.84 97.7985 109.724 97.5156C109.608 97.2327 109.58 96.9214 109.645 96.6225C109.709 96.3237 109.862 96.0513 110.084 95.8412C115.683 90.5428 122.741 84.5638 127.433 82.8155C131.605 81.7143 180.378 74.6129 190.507 83.6136C190.263 88.4521 190.954 98.2781 188.08 98.2911C177.252 98.1798 119.065 98.1773 111.155 98.456Z" fill="#ECFCFB"/>
<path d="M226.671 128.988C226.671 128.988 228.197 124.068 229.357 131.159C230.517 138.249 229.615 145.512 229.228 145.512C228.841 145.512 229.443 137.734 226.671 128.988Z" fill="#787878"/>
<path d="M196.342 129.57C196.342 129.57 199.855 130.451 203.368 136.693C203.368 136.693 203.959 124.542 200.478 124.542C200.478 124.542 197.76 124.37 196.342 129.57Z" fill="#787878"/>
<path d="M229.357 147.447C229.467 145.444 230.745 114.496 224.501 134.512C224.501 134.512 223.726 129.092 226.766 126.33C231.799 122.296 232.57 145.27 229.357 147.447Z" fill="#787878"/>
<path d="M223.978 141.353C223.895 156.897 219.042 153.799 205.528 155.483L206.172 150.155L219.488 148.568C219.488 148.568 221.47 148.351 223.878 139.054C223.975 138.646 224.112 138.248 224.287 137.867C224.089 139.019 223.985 140.185 223.978 141.353Z" fill="#787878"/>
<path d="M194.676 136.058C194.676 136.058 195.809 120.445 201.982 123.531C203.271 124.175 204.689 127.184 203.4 136.531C203.4 136.531 202.799 123.832 199.833 124.799C199.833 124.799 198.114 124.369 194.676 136.058Z" fill="#787878"/>
<path d="M193.086 151.452C192.552 153.324 191.892 155.388 190.436 156.886C162.012 157.594 105.275 159.758 80.2218 156.05C80.2218 156.05 78.675 153.584 78.0062 150.942C80.7819 152.079 96.792 158.09 121.045 156.192C126.014 155.996 178.937 157.836 186.95 149.504C186.95 149.504 188.026 151.838 188.764 152.154C189.771 152.585 193.086 151.452 193.086 151.452Z" fill="#787878"/>
<path d="M214.89 150.153C218.69 132.283 217.762 116.116 213.694 105.732C218.801 114.107 220.015 133.575 214.89 150.153Z" fill="#787878"/>
<path d="M84.1621 130.889C84.1621 130.889 83.7603 134.053 89.9884 134.882C114.421 134.303 94.5343 147.975 111.586 150.629C121.531 151.984 146.955 153.491 148.407 149.423C149.859 145.354 146.845 138.574 153.174 137.368C159.502 136.163 173.968 137.67 177.433 135.711C180.899 133.752 181.05 131.341 178.94 129.684C176.831 128.026 98.1756 128.177 93.7304 128.177C89.2853 128.177 84.1612 127.725 84.1621 130.889Z" fill="#131F2D"/>
<path d="M112.13 134.034L142.578 133.803C142.818 133.801 143.055 133.853 143.272 133.956C143.489 134.059 143.68 134.209 143.831 134.396C143.981 134.583 144.088 134.801 144.142 135.035C144.197 135.269 144.198 135.512 144.145 135.746C143.671 136.918 143.839 140.212 141.896 140.08H112.893C111.077 140.214 111.05 137.158 110.6 136.033C110.539 135.798 110.532 135.552 110.579 135.314C110.627 135.076 110.729 134.852 110.876 134.659C111.024 134.467 111.213 134.31 111.431 134.202C111.648 134.093 111.887 134.036 112.13 134.034Z" fill="#ECFCFB"/>
<path d="M149.879 124.812H112.297C110.251 124.862 108.482 123.74 107.173 122.243C105.406 120.184 102.072 120.559 99.6525 120.556V120.149C108.79 119.295 106.284 123.847 112.297 124.405H149.879C157.184 123.096 155.301 119.33 165.734 120.149V120.556C163.781 120.677 159.639 120.127 157.928 121.265C156.027 122.153 152.083 125.015 149.879 124.812Z" fill="#131F2D"/>
<path d="M103.241 116.053C100.563 124.604 82.1041 129.535 86.3395 116.053C89.0181 107.502 107.477 102.571 103.241 116.053Z" fill="#F9E1B1"/>
<path d="M92.8406 124.042C79.5782 122.272 94.0465 104.638 101.491 108.517C91.0598 105.423 79.7726 126.07 95.4703 123.456C96.1109 123.795 93.0082 124.087 92.8406 124.042Z" fill="#131F2D"/>
<path d="M182.373 116.053C179.694 124.604 161.235 129.535 165.471 116.053C168.15 107.502 186.608 102.571 182.373 116.053Z" fill="#F9E1B1"/>
<path d="M171.972 124.043C158.642 122.284 173.285 104.616 180.622 108.518C170.542 105.304 158.681 126.003 174.602 123.458C175.136 123.84 172.211 124.064 171.972 124.043Z" fill="#131F2D"/>
<path d="M131.075 120.026C131.142 121.517 126.257 121.517 126.324 120.026C126.257 118.536 131.142 118.536 131.075 120.026Z" fill="#ECFCFB"/>
<path d="M91.3386 143.701C91.1691 150.482 82.1416 150.48 81.9734 143.7C82.1622 137.774 91.5812 136.914 91.3386 143.701Z" fill="#131F2D"/>
<path d="M181.755 143.701C181.586 150.482 172.558 150.48 172.39 143.7C172.579 137.774 181.998 136.914 181.755 143.701Z" fill="#131F2D"/>
<path d="M197.053 103.08C197.053 103.08 194.322 100.489 195.723 96.1469C197.123 91.805 207.908 94.7463 209.029 96.9173C210.149 99.0883 205.737 102.8 202.796 103.43C199.855 104.061 200.485 109.383 198.244 109.103C196.003 108.823 194.223 107.282 195.323 106.301C196.423 105.321 198.454 103.92 197.053 103.08Z" fill="#131F2D"/>
<path d="M215.79 118.265C216.787 121.901 213.035 122.948 212.006 119.32C211.009 115.683 214.761 114.637 215.79 118.265Z" fill="#131F2D"/>
<path d="M399.585 140.222L387.978 120.084C387.694 119.593 388.031 118.825 388.409 119.098C399.308 128.089 380.371 104.691 383.735 104.986L385.721 106.115C386.078 106.318 386.379 105.642 386.147 105.155L384.028 100.7C383.778 100.173 384.147 99.4638 384.508 99.7781L388.054 102.865C388.41 103.174 388.778 102.489 388.541 101.958L381.697 86.6299C381.466 86.1134 381.811 85.4373 382.166 85.709L383.753 86.9224C385.157 87.3704 383.196 83.3533 383.181 82.9461C382.991 82.39 383.38 81.7867 383.713 82.1215L385.529 83.9481C385.891 84.3129 386.292 83.5789 386.025 83.0377C386.199 82.6007 377.028 66.6709 378.803 66.7651L381.12 66.7649C381.453 66.7649 381.625 66.1166 381.395 65.7232L378.748 61.1828C378.481 60.7251 378.759 59.9883 379.131 60.1663L380.819 60.9729C381.153 61.1325 381.432 60.539 381.25 60.0573L374.584 42.4597C374.435 42.0663 374.083 42.0685 373.936 42.4639L368.592 56.8232C368.342 58.0766 369.139 57.7262 369.816 57.5042C370.152 57.4051 370.392 58.0193 370.193 58.4703L365.624 68.864C365.379 69.7471 365.869 70.0953 366.429 69.5651C367.813 69.2638 365.716 72.8792 367.186 72.3873C370.079 71.4881 359.918 85.4665 362.4 85.1295L364.245 84.5677C365.124 84.5737 364.431 86.0638 364.233 86.5315C364.024 87.066 364.387 87.7048 364.732 87.4083L365.307 86.9131C365.69 86.5837 366.06 87.3859 365.757 87.8898L358.729 99.5871C358.464 100.027 358.716 100.756 359.085 100.62C362.931 99.1917 363.292 98.6062 361.505 102.937C361.307 103.438 361.618 104.059 361.96 103.847L364.511 102.268C364.872 102.045 365.184 102.739 364.943 103.23L353.9 125.739C353.651 126.248 353.993 126.957 354.357 126.685C359.078 123.139 359.35 122.29 357.428 128.603C357.267 129.155 357.645 129.711 357.967 129.396L361.421 126.029C361.762 125.697 362.148 126.332 361.94 126.882L354.775 145.759C354.575 146.287 354.926 146.912 355.268 146.635C368.286 137.048 363.258 135.492 371.684 144.435L369.524 154.671H377.379L376.423 141.077C383.026 146.847 379.694 147.104 385.567 140.588C385.677 139.836 390.936 144.925 391.1 144.873C391.345 145.08 391.641 144.805 391.655 144.356L391.836 138.475C391.848 138.075 392.087 137.8 392.323 137.914L399.199 141.236C399.571 141.415 399.85 140.682 399.585 140.222Z" fill="#EDEAE2"/>
<path d="M375.944 146.345L368.341 133.153C368.155 132.832 368.376 132.329 368.624 132.508C375.763 138.397 363.358 123.069 365.562 123.263C365.977 123.397 367.469 124.76 367.142 123.374L365.754 120.455C365.59 120.11 365.832 119.646 366.068 119.852L368.391 121.873C368.624 122.076 368.865 121.627 368.71 121.28L364.226 111.238C363.969 109.848 365.211 111.221 365.573 111.43C366.504 111.65 365.202 109.134 365.198 108.825C365.02 107.278 366.428 109.289 366.737 109.482C366.974 109.721 367.236 109.24 367.062 108.885C367.176 108.599 361.168 98.1639 362.331 98.2255H363.848C364.067 98.2255 364.179 97.8008 364.029 97.5431L362.294 94.5688C361.927 93.286 363.214 94.2822 363.651 94.4312C363.87 94.5358 364.053 94.147 363.933 93.8314L359.567 82.3038C359.469 82.046 359.238 82.0474 359.142 82.3065L355.642 91.7129C355.478 92.5339 356 92.3044 356.444 92.159C357.625 91.9035 353.584 99.3724 353.698 99.6006C353.537 100.179 353.858 100.407 354.225 100.06C355.13 99.8808 353.758 102.211 354.72 101.909C356.615 101.319 349.959 110.476 351.586 110.256L352.794 109.888C353.361 109.883 352.919 110.874 352.786 111.174C352.649 111.524 352.887 111.943 353.113 111.748L353.49 111.424C353.741 111.208 353.983 111.734 353.784 112.064C353.853 112.402 347.952 120.65 349.413 120.403C351.933 119.467 352.17 119.084 350.999 121.921C350.869 122.249 351.073 122.656 351.297 122.517L352.968 121.483C353.205 121.336 353.409 121.791 353.251 122.113L346.018 136.858C345.854 137.191 346.078 137.656 346.317 137.477C349.409 135.154 349.588 134.598 348.329 138.734C348.223 139.095 348.471 139.459 348.682 139.253L350.944 137.048C351.168 136.83 351.421 137.246 351.284 137.607L346.591 149.972C346.46 150.318 346.69 150.728 346.914 150.546L353.69 145.041C353.959 144.778 357.472 149.027 357.667 149.105L356.253 155.81H361.398L360.772 146.905C365.098 150.685 362.915 150.853 366.762 146.584C366.845 146.104 370.273 149.419 370.386 149.391C370.547 149.527 370.741 149.347 370.75 149.053L370.868 145.2C370.876 144.939 371.033 144.758 371.188 144.833L375.692 147.009C375.935 147.126 376.118 146.646 375.944 146.345Z" fill="#D1CCC0"/>
</g>
<defs>
<clipPath id="clip0_3452_7373">
<rect width="428" height="240.75" fill="white"/>
</clipPath>
</defs>
</svg>
