<svg width="50" height="51" viewBox="0 0 50 51" fill="none" xmlns="http://www.w3.org/2000/svg">
<circle cx="25" cy="25.5" r="25" fill="#3C3C3C" fill-opacity="0.1"/>
<path fill-rule="evenodd" clip-rule="evenodd" d="M28.8498 16.0002C29.4808 16.0002 30.1108 16.0892 30.7098 16.2902C34.4008 17.4902 35.7308 21.5402 34.6198 25.0802C33.9898 26.8892 32.9598 28.5402 31.6108 29.8892C29.6798 31.7592 27.5608 33.4192 25.2798 34.8492L25.0298 35.0002L24.7698 34.8392C22.4808 33.4192 20.3498 31.7592 18.4008 29.8792C17.0608 28.5302 16.0298 26.8892 15.3898 25.0802C14.2598 21.5402 15.5898 17.4902 19.3208 16.2692C19.6108 16.1692 19.9098 16.0992 20.2098 16.0602H20.3298C20.6108 16.0192 20.8898 16.0002 21.1698 16.0002H21.2798C21.9098 16.0192 22.5198 16.1292 23.1108 16.3302H23.1698C23.2098 16.3492 23.2398 16.3702 23.2598 16.3892C23.4808 16.4602 23.6898 16.5402 23.8898 16.6502L24.2698 16.8202C24.3616 16.8691 24.4647 16.944 24.5537 17.0086C24.6102 17.0496 24.661 17.0865 24.6998 17.1102C24.7161 17.1198 24.7327 17.1295 24.7494 17.1392C24.8351 17.1893 24.9245 17.2414 24.9998 17.2992C26.1108 16.4502 27.4598 15.9902 28.8498 16.0002ZM31.5098 23.2002C31.9198 23.1892 32.2698 22.8602 32.2998 22.4392V22.3202C32.3298 20.9192 31.4808 19.6502 30.1898 19.1602C29.7798 19.0192 29.3298 19.2402 29.1798 19.6602C29.0398 20.0802 29.2598 20.5402 29.6798 20.6892C30.3208 20.9292 30.7498 21.5602 30.7498 22.2592V22.2902C30.7308 22.5192 30.7998 22.7402 30.9398 22.9102C31.0798 23.0802 31.2898 23.1792 31.5098 23.2002Z" fill="#3C3C3C"/>
</svg>
