<svg width="38" height="39" viewBox="0 0 38 39" fill="none" xmlns="http://www.w3.org/2000/svg">
<ellipse cx="18.5467" cy="19.4802" rx="18.5467" ry="18.9802" fill="#3C3C3C" fill-opacity="0.1"/>
<path d="M23.4293 9.8026L21.1455 8.6776C21.0572 8.63276 20.9548 8.62467 20.8605 8.6551C20.8137 8.67053 20.7705 8.69504 20.7331 8.72721C20.6958 8.75938 20.6652 8.79859 20.643 8.8426L18.3705 13.3876C18.3425 13.4448 18.3295 13.5083 18.3328 13.5719C18.3361 13.6355 18.3555 13.6973 18.3893 13.7513C18.4231 13.8054 18.4701 13.8499 18.5258 13.8808C18.5816 13.9116 18.6443 13.9277 18.708 13.9276C18.7773 13.9274 18.8451 13.908 18.904 13.8716C18.963 13.8352 19.0106 13.7832 19.0418 13.7213L19.113 13.5788H20.1893L22.923 10.3876L23.0918 10.4739C23.1358 10.496 23.1839 10.5093 23.2331 10.5129C23.2823 10.5165 23.3317 10.5104 23.3785 10.4949C23.4254 10.4794 23.4687 10.4548 23.506 10.4226C23.5434 10.3903 23.574 10.3511 23.5962 10.307C23.6183 10.2629 23.6316 10.2149 23.6352 10.1657C23.6388 10.1165 23.6327 10.0671 23.6172 10.0202C23.6017 9.97339 23.5771 9.93007 23.5449 9.89273C23.5126 9.85539 23.4733 9.82476 23.4293 9.8026Z" fill="#3C3C3C"/>
<path d="M27.108 12.1464L24.1868 9.21012C24.1165 9.14028 24.0215 9.10107 23.9224 9.10107C23.8233 9.10107 23.7283 9.14028 23.658 9.21012L19.578 13.2901C19.5082 13.3604 19.469 13.4554 19.469 13.5545C19.469 13.6536 19.5082 13.7486 19.578 13.8189C19.6129 13.854 19.6544 13.8819 19.7001 13.9009C19.7457 13.92 19.7948 13.9298 19.8443 13.9298C19.8938 13.9298 19.9428 13.92 19.9885 13.9009C20.0342 13.8819 20.0757 13.854 20.1105 13.8189L20.2268 13.7026H25.3718C25.3882 13.7463 25.4138 13.7859 25.4468 13.8189C25.4818 13.8536 25.5234 13.8811 25.569 13.8998C25.6148 13.9185 25.6637 13.9279 25.713 13.9276C25.7624 13.9279 25.8113 13.9185 25.857 13.8998C25.9027 13.8811 25.9442 13.8536 25.9793 13.8189L27.1043 12.6751C27.1741 12.6049 27.2133 12.5098 27.2133 12.4107C27.2133 12.3117 27.1741 12.2166 27.1043 12.1464H27.108Z" fill="#3C3C3C"/>
<path d="M29.6131 24.555C29.5302 24.3457 29.4057 24.1554 29.2472 23.9955C29.0886 23.8356 28.8993 23.7096 28.6906 23.625C28.4889 23.5397 28.2721 23.4956 28.0531 23.4956C27.8341 23.4956 27.6173 23.5397 27.4156 23.625L22.6419 25.3163C22.6582 25.2209 22.667 25.1243 22.6681 25.0275C22.6681 24.6019 22.499 24.1936 22.198 23.8926C21.897 23.5916 21.4888 23.4225 21.0631 23.4225H19.8256C18.7251 23.4216 17.6414 23.1526 16.6681 22.6388C15.5877 22.0674 14.384 21.7688 13.1619 21.7688H10.9119C10.8124 21.7688 10.717 21.8083 10.6467 21.8786C10.5764 21.9489 10.5369 22.0443 10.5369 22.1438V28.3913C10.5369 28.4907 10.5764 28.5861 10.6467 28.6565C10.717 28.7268 10.8124 28.7663 10.9119 28.7663C11.7127 28.766 12.5077 28.9016 13.2631 29.1675L15.1906 29.85C16.1786 30.1976 17.2183 30.3751 18.2656 30.375H18.6406C19.7633 30.3242 20.8674 30.0701 21.8994 29.625L28.8106 26.6738C29.1846 26.4844 29.4743 26.1621 29.6228 25.7701C29.7712 25.378 29.7678 24.9447 29.6131 24.555Z" fill="#3C3C3C"/>
<path d="M26.883 13.1775H17.2155C16.5259 13.1775 15.9668 13.7366 15.9668 14.4262V20.8312C15.9668 21.5209 16.5259 22.08 17.2155 22.08H26.883C27.5727 22.08 28.1318 21.5209 28.1318 20.8312V14.4262C28.1318 13.7366 27.5727 13.1775 26.883 13.1775Z" fill="#3C3C3C"/>
<path d="M27.9556 15.9375H25.8368C25.728 15.9375 25.6202 15.9589 25.5197 16.0006C25.4191 16.0422 25.3277 16.1033 25.2508 16.1802C25.1738 16.2572 25.1128 16.3485 25.0711 16.4491C25.0295 16.5496 25.0081 16.6574 25.0081 16.7662V18.1088C25.0081 18.2176 25.0295 18.3254 25.0711 18.4259C25.1128 18.5265 25.1738 18.6178 25.2508 18.6948C25.3277 18.7717 25.4191 18.8328 25.5197 18.8744C25.6202 18.9161 25.728 18.9375 25.8368 18.9375H27.9556C28.2181 18.9375 28.4699 18.8332 28.6556 18.6476C28.8413 18.4619 28.9456 18.2101 28.9456 17.9475V16.9275C28.9456 16.6649 28.8413 16.4131 28.6556 16.2274C28.4699 16.0418 28.2181 15.9375 27.9556 15.9375Z" fill="#3C3C3C"/>
<path d="M10.9119 20.0625H8.35815C8.15105 20.0625 7.98315 20.2304 7.98315 20.4375V29.625C7.98315 29.8321 8.15105 30 8.35815 30H10.9119C11.119 30 11.2869 29.8321 11.2869 29.625V20.4375C11.2869 20.2304 11.119 20.0625 10.9119 20.0625Z" fill="#3C3C3C"/>
<path d="M29.6132 24.555C29.5302 24.3457 29.4058 24.1553 29.2472 23.9955C29.0886 23.8356 28.8993 23.7096 28.6907 23.625C28.489 23.5396 28.2722 23.4956 28.0532 23.4956C27.8341 23.4956 27.6173 23.5396 27.4157 23.625L22.6419 25.3162C22.6583 25.2208 22.667 25.1243 22.6682 25.0275C22.6682 24.6018 22.4991 24.1936 22.1981 23.8926C21.8971 23.5916 21.4888 23.4225 21.0632 23.4225H19.8257C18.7251 23.4215 17.6414 23.1525 16.6682 22.6387C15.5877 22.0674 14.3841 21.7687 13.1619 21.7687H11.2869V20.4375C11.2869 20.3381 11.2474 20.2427 11.1771 20.1723C11.1068 20.102 11.0114 20.0625 10.9119 20.0625H8.35815C8.2587 20.0625 8.16332 20.102 8.09299 20.1723C8.02266 20.2427 7.98315 20.3381 7.98315 20.4375V29.625C7.98315 29.7245 8.02266 29.8198 8.09299 29.8902C8.16332 29.9605 8.2587 30 8.35815 30H10.9119C11.0114 30 11.1068 29.9605 11.1771 29.8902C11.2474 29.8198 11.2869 29.7245 11.2869 29.625V28.7812C11.9601 28.8122 12.6255 28.9384 13.2632 29.1562L15.1907 29.8387C16.1786 30.1863 17.2184 30.3638 18.2657 30.3638H18.6407C19.7633 30.3129 20.8675 30.0588 21.8994 29.6138L28.8107 26.6625C29.182 26.4733 29.4698 26.1529 29.6181 25.7634C29.7664 25.3739 29.7646 24.9432 29.6132 24.555ZM10.5369 29.25H8.73315V20.8125H10.5369V29.25ZM28.5069 25.995L21.6182 28.9387C20.6684 29.3476 19.6514 29.5778 18.6182 29.6175C17.535 29.6626 16.4533 29.501 15.4307 29.1412L13.5107 28.4625C12.7944 28.2112 12.0452 28.0659 11.2869 28.0312V22.5187H13.1619C14.2615 22.5174 15.3446 22.7866 16.3157 23.3025C17.3978 23.8729 18.6024 24.1714 19.8257 24.1725H21.0632C21.1758 24.1725 21.2873 24.1947 21.3912 24.2379C21.4952 24.2811 21.5896 24.3445 21.6691 24.4242C21.7485 24.504 21.8114 24.5987 21.8541 24.7029C21.8969 24.8071 21.9186 24.9186 21.9182 25.0312C21.9188 25.1533 21.8926 25.274 21.8414 25.3848C21.7902 25.4957 21.7153 25.5939 21.6219 25.6725L20.9919 25.8937H16.9007C16.8012 25.8937 16.7058 25.9333 16.6355 26.0036C16.5652 26.0739 16.5257 26.1693 16.5257 26.2687C16.5257 26.3682 16.5652 26.4636 16.6355 26.5339C16.7058 26.6042 16.8012 26.6437 16.9007 26.6437H21.0632L27.6932 24.3337C27.8061 24.2845 27.9281 24.2591 28.0513 24.2591C28.1745 24.2591 28.2964 24.2845 28.4094 24.3337C28.5239 24.3802 28.6277 24.4493 28.7147 24.537C28.8017 24.6246 28.8701 24.729 28.9157 24.8438C28.9998 25.053 29.0048 25.2858 28.9295 25.4985C28.8543 25.7111 28.704 25.889 28.5069 25.9988V25.995Z" fill="#3C3C3C"/>
<path d="M17.2155 22.0801H26.883C27.2136 22.0801 27.5307 21.9491 27.7647 21.7157C27.9988 21.4823 28.1308 21.1657 28.1318 20.8351V18.9189C28.3596 18.8777 28.5657 18.7579 28.7144 18.5805C28.8631 18.4031 28.9449 18.1791 28.9455 17.9476V16.9276C28.9456 16.6959 28.8641 16.4716 28.7153 16.294C28.5665 16.1165 28.3599 15.9969 28.1318 15.9564V14.4264C28.1308 14.0955 27.9989 13.7784 27.765 13.5445C27.531 13.3105 27.2139 13.1786 26.883 13.1776H26.6205L27.108 12.6751C27.1779 12.6049 27.2171 12.5098 27.2171 12.4107C27.2171 12.3117 27.1779 12.2166 27.108 12.1464L24.1868 9.21012C24.1166 9.14028 24.0215 9.10107 23.9224 9.10107C23.8234 9.10107 23.7283 9.14028 23.658 9.21012L23.1855 9.68262L21.1455 8.66637C21.0573 8.62153 20.9548 8.61344 20.8605 8.64387C20.8138 8.6593 20.7705 8.6838 20.7332 8.71598C20.6958 8.74815 20.6652 8.78736 20.643 8.83137L18.483 13.1776H17.2155C16.8847 13.1786 16.5676 13.3105 16.3337 13.5445C16.0997 13.7784 15.9678 14.0955 15.9668 14.4264V20.8351C15.9678 21.1657 16.0998 21.4823 16.3339 21.7157C16.568 21.9491 16.885 22.0801 17.2155 22.0801ZM28.1955 17.9551C28.1955 18.0188 28.1703 18.0798 28.1253 18.1248C28.0803 18.1698 28.0192 18.1951 27.9555 18.1951H25.8368C25.8159 18.1951 25.7959 18.1868 25.7811 18.1721C25.7664 18.1573 25.758 18.1373 25.758 18.1164V16.7664C25.758 16.7455 25.7664 16.7255 25.7811 16.7107C25.7959 16.6959 25.8159 16.6876 25.8368 16.6876H27.9555C28.0192 16.6876 28.0803 16.7129 28.1253 16.7579C28.1703 16.8029 28.1955 16.864 28.1955 16.9276V17.9551ZM23.9243 10.0051L26.328 12.4089L25.5593 13.1776H20.733L23.9243 10.0051ZM21.1455 9.50262L22.6268 10.2526L19.6868 13.1889H19.3118L21.1455 9.50262ZM16.7168 14.4264C16.7168 14.2941 16.7694 14.1672 16.8629 14.0737C16.9564 13.9802 17.0833 13.9276 17.2155 13.9276H26.883C27.015 13.9286 27.1413 13.9815 27.2346 14.0748C27.328 14.1681 27.3808 14.2944 27.3818 14.4264V15.9264H25.8368C25.617 15.9264 25.4062 16.0137 25.2508 16.1691C25.0954 16.3245 25.008 16.5353 25.008 16.7551V18.0976C25.008 18.3174 25.0954 18.5282 25.2508 18.6836C25.4062 18.8391 25.617 18.9264 25.8368 18.9264H27.3818V20.8239C27.3808 20.9555 27.3278 21.0814 27.2344 21.1741C27.141 21.2669 27.0147 21.3189 26.883 21.3189H17.2155C17.1503 21.3194 17.0855 21.3069 17.025 21.2823C16.9645 21.2576 16.9095 21.2213 16.8631 21.1752C16.8168 21.1292 16.7799 21.0745 16.7549 21.0142C16.7297 20.9539 16.7168 20.8892 16.7168 20.8239V14.4264Z" fill="#3C3C3C"/>
</svg>
