<svg width="25" height="25" viewBox="0 0 25 25" fill="none" xmlns="http://www.w3.org/2000/svg">
<g id="4521868331556258219 1" clip-path="url(#clip0_1165_12883)">
<g id="Icons">
<g id="Rounded">
<g id="Action">
<g id="-Round-/-Action-/-account_circle">
<g id="Group">
<path id="&#240;&#159;&#148;&#185;Icon-Color" fill-rule="evenodd" clip-rule="evenodd" d="M12.4844 0.965332C5.86038 0.965332 0.484375 6.34133 0.484375 12.9653C0.484375 19.5893 5.86038 24.9653 12.4844 24.9653C19.1084 24.9653 24.4844 19.5893 24.4844 12.9653C24.4844 6.34133 19.1084 0.965332 12.4844 0.965332ZM12.4844 4.56533C14.4764 4.56533 16.0844 6.17333 16.0844 8.16533C16.0844 10.1573 14.4764 11.7653 12.4844 11.7653C10.4924 11.7653 8.88438 10.1573 8.88438 8.16533C8.88438 6.17333 10.4924 4.56533 12.4844 4.56533ZM12.4844 21.6053C9.48438 21.6053 6.83238 20.0693 5.28438 17.7413C5.32037 15.3533 10.0844 14.0453 12.4844 14.0453C14.8724 14.0453 19.6484 15.3533 19.6844 17.7413C18.1364 20.0693 15.4844 21.6053 12.4844 21.6053Z" fill="#3C3C3C"/>
</g>
</g>
</g>
</g>
</g>
</g>
<defs>
<clipPath id="clip0_1165_12883">
<rect width="24" height="24" fill="white" transform="translate(0.484375 0.965332)"/>
</clipPath>
</defs>
</svg>
