<svg width="40" height="40" viewBox="0 0 40 40" fill="none" xmlns="http://www.w3.org/2000/svg">
<path fill-rule="evenodd" clip-rule="evenodd" d="M20.1252 19.25C19.6427 19.25 19.2502 19.6425 19.2502 20.1255C19.2502 20.608 19.6427 21 20.1252 21C20.6077 21 21.0002 20.608 21.0002 20.1255C21.0002 19.6425 20.6077 19.25 20.1252 19.25ZM20.1252 21.75C19.2292 21.75 18.5002 21.0215 18.5002 20.1255C18.5002 19.229 19.2292 18.5 20.1252 18.5C21.0212 18.5 21.7502 19.229 21.7502 20.1255C21.7502 21.0215 21.0212 21.75 20.1252 21.75Z" fill="black"/>
<mask id="mask0_3874_7185" style="mask-type:luminance" maskUnits="userSpaceOnUse" x="16" y="16" width="9" height="10">
<path fill-rule="evenodd" clip-rule="evenodd" d="M16 16H24.2498V25.75H16V16Z" fill="white"/>
</mask>
<g mask="url(#mask0_3874_7185)">
<path fill-rule="evenodd" clip-rule="evenodd" d="M20.1248 16.75C18.2638 16.75 16.7498 18.2785 16.7498 20.1565C16.7498 22.546 19.5618 24.874 20.1248 24.998C20.6878 24.8735 23.4998 22.5455 23.4998 20.1565C23.4998 18.2785 21.9858 16.75 20.1248 16.75ZM20.1248 25.75C19.2278 25.75 15.9998 22.974 15.9998 20.1565C15.9998 17.8645 17.8503 16 20.1248 16C22.3993 16 24.2498 17.8645 24.2498 20.1565C24.2498 22.974 21.0218 25.75 20.1248 25.75Z" fill="black"/>
</g>
<path d="M15.2281 24.7723C14.6122 24.157 14.1219 23.4279 13.7844 22.6254C13.4316 21.7952 13.2498 20.9024 13.2498 20.0004C13.2498 19.0984 13.4316 18.2056 13.7844 17.3754C14.1219 16.5729 14.6122 15.8437 15.2281 15.2285" stroke="black" stroke-width="0.8" stroke-linecap="round" stroke-linejoin="round"/>
<path d="M24.7719 15.2285C25.3878 15.8437 25.8782 16.5729 26.2156 17.3754C26.5684 18.2056 26.7502 19.0984 26.7502 20.0004C26.7502 20.9024 26.5684 21.7952 26.2156 22.6254C25.8782 23.4279 25.3878 24.157 24.7719 24.7723" stroke="black" stroke-width="0.8" stroke-linecap="round" stroke-linejoin="round"/>
<path d="M12.575 27.4242C11.6184 26.4659 10.8546 25.3329 10.325 24.0867C9.78045 22.7928 9.49994 21.4031 9.49994 19.9992C9.49994 18.5954 9.78045 17.2057 10.325 15.9117C10.8546 14.6655 11.6184 13.5326 12.575 12.5742" stroke="black" stroke-width="0.8" stroke-linecap="round" stroke-linejoin="round"/>
<path d="M27.425 12.5742C28.3816 13.5326 29.1454 14.6655 29.675 15.9117C30.2195 17.2057 30.5001 18.5954 30.5001 19.9992C30.5001 21.4031 30.2195 22.7928 29.675 24.0867C29.1454 25.3329 28.3816 26.4659 27.425 27.4242" stroke="black" stroke-width="0.8" stroke-linecap="round" stroke-linejoin="round"/>
</svg>
