<svg width="300" height="300" viewBox="0 0 300 300" fill="none" xmlns="http://www.w3.org/2000/svg">
<path d="M248.496 272.67C248.172 272.868 247.842 273.06 247.512 273.27L246.594 273.786L245.634 274.314L244.662 274.824L243.69 275.322L242.706 275.808L241.716 276.276L240.72 276.726C240.324 276.906 239.922 277.08 239.52 277.248L238.32 277.752C237.51 278.082 236.694 278.4 235.878 278.7L234.924 279.048L234.546 279.18C233.346 279.606 232.146 280.002 230.898 280.38C230.064 280.632 229.218 280.872 228.372 281.1L227.1 281.43C226.602 281.556 226.104 281.682 225.606 281.796L224.538 282.042C222.798 282.432 221.04 282.774 219.276 283.074C218.868 283.146 218.46 283.212 218.046 283.272C217.632 283.332 217.176 283.41 216.738 283.47C215.862 283.596 214.986 283.71 214.11 283.818L212.796 283.962L211.86 284.058L211.26 284.118C210.462 284.196 209.67 284.262 208.86 284.316C206.992 284.456 205.128 284.55 203.268 284.598H202.494H201.162H199.578C198.29 284.598 197.002 284.58 195.714 284.544C194.784 284.544 193.86 284.484 192.936 284.442L192.402 284.412C190.878 284.34 189.36 284.238 187.848 284.118C186.816 284.034 185.79 283.938 184.758 283.842H184.632L183.186 283.692L181.344 283.476L180.036 283.308L178.536 283.104C176.708 282.848 174.884 282.56 173.064 282.24L171.714 281.994C170.874 281.844 170.04 281.682 169.212 281.514L168.012 281.274C166.248 280.908 164.496 280.518 162.75 280.074C162.252 279.96 161.76 279.834 161.268 279.714L159.786 279.336C156.186 278.412 152.628 277.374 149.112 276.222L147.978 275.85C147.042 275.542 146.11 275.226 145.182 274.902L142.782 274.05C141.546 273.602 140.316 273.142 139.092 272.67C138.252 272.346 137.412 272.016 136.578 271.68C135.63 271.302 134.688 270.918 133.74 270.522C132.918 270.18 132.096 269.832 131.28 269.478L130.35 269.07C129.606 268.746 128.856 268.41 128.112 268.074C127.248 267.684 126.378 267.288 125.514 266.874L125.124 266.694C124.266 266.292 123.408 265.878 122.55 265.464C121.812 265.11 121.074 264.744 120.342 264.378C119.246 263.83 118.152 263.274 117.06 262.71C116.148 262.242 115.24 261.764 114.336 261.276L111.936 259.98L111.606 259.8C110.806 259.352 109.996 258.9 109.176 258.444C108.576 258.096 107.976 257.748 107.346 257.394C106.716 257.04 106.146 256.71 105.546 256.362L103.854 255.36C102.894 254.76 101.94 254.208 100.986 253.62C95.196 250.056 89.55 246.27 84.072 242.316C74.765 235.649 65.9685 228.297 57.756 220.32L56.076 218.658C53.268 215.838 50.55 212.94 47.958 209.958C41.1376 202.234 35.1878 193.783 30.216 184.758C26.5762 178.097 23.6442 171.072 21.468 163.8C20.988 162.186 20.55 160.566 20.16 158.928C19.83 157.584 19.56 156.24 19.266 154.878C18.1775 149.328 17.5872 143.691 17.502 138.036C17.47 136.264 17.49 134.494 17.562 132.726C18.027 121.476 20.2541 110.369 24.162 99.8101C30.3456 83.055 40.1838 67.8877 52.962 55.4101C79.254 29.7781 100.764 17.7421 137.712 15.2101C137.712 15.2101 167.634 9.12609 185.916 46.8121C192.45 60.2701 196.482 75.0121 204.96 87.3601C216.534 104.232 234.918 115.194 249.804 129.36C269.988 148.56 284.004 174.774 284.904 202.344C285.804 229.914 272.46 258.3 248.496 272.67Z" fill="#B0BEC5"/>
<g opacity="0.7">
<path d="M248.496 272.67C248.172 272.868 247.842 273.06 247.512 273.27L246.594 273.786L245.634 274.314L244.662 274.824L243.69 275.322L242.706 275.808L241.716 276.276L240.72 276.726C240.324 276.906 239.922 277.08 239.52 277.248L238.32 277.752C237.51 278.082 236.694 278.4 235.878 278.7L234.924 279.048L234.546 279.18C233.346 279.606 232.146 279.996 230.898 280.38C230.064 280.632 229.218 280.872 228.372 281.1L227.1 281.43C226.602 281.556 226.104 281.682 225.606 281.796L224.538 282.042C222.798 282.432 221.04 282.774 219.276 283.074C218.868 283.146 218.46 283.212 218.046 283.272C217.632 283.332 217.176 283.41 216.738 283.47C215.862 283.596 214.986 283.71 214.11 283.818L212.796 283.962L211.86 284.058L211.26 284.118C210.462 284.196 209.67 284.262 208.86 284.316C206.992 284.456 205.128 284.55 203.268 284.598H202.494H201.162H199.578C198.29 284.598 197.002 284.58 195.714 284.544C194.784 284.544 193.86 284.484 192.936 284.442L192.402 284.412C190.878 284.34 189.36 284.238 187.848 284.118C186.816 284.034 185.79 283.938 184.758 283.842H184.632L183.186 283.692L181.344 283.476L180.036 283.308L178.536 283.104C176.708 282.848 174.884 282.56 173.064 282.24L171.714 281.994C170.874 281.844 170.04 281.682 169.212 281.514L168.012 281.274C166.248 280.908 164.496 280.518 162.75 280.074C162.252 279.96 161.76 279.834 161.268 279.714L159.786 279.336C156.186 278.412 152.628 277.374 149.112 276.222L147.978 275.85C147.042 275.542 146.11 275.226 145.182 274.902L142.782 274.05C141.546 273.602 140.316 273.142 139.092 272.67C138.252 272.346 137.412 272.016 136.578 271.68C135.63 271.302 134.688 270.918 133.74 270.522C132.918 270.18 132.096 269.832 131.28 269.478L130.35 269.07C129.606 268.746 128.856 268.41 128.112 268.074C127.248 267.684 126.378 267.288 125.514 266.874L125.124 266.694C124.266 266.292 123.408 265.878 122.55 265.464C121.812 265.11 121.074 264.744 120.342 264.378C119.246 263.83 118.152 263.274 117.06 262.71C116.148 262.242 115.24 261.764 114.336 261.276L111.936 259.98L111.606 259.8C110.806 259.352 109.996 258.9 109.176 258.444C108.576 258.096 107.976 257.748 107.346 257.394C106.716 257.04 106.146 256.71 105.546 256.362L103.854 255.36C102.894 254.76 101.94 254.208 100.986 253.62C95.196 250.056 89.55 246.27 84.072 242.316C74.765 235.649 65.9685 228.297 57.756 220.32L56.076 218.658C53.268 215.838 50.55 212.94 47.958 209.958C41.1376 202.234 35.1878 193.783 30.216 184.758C26.5762 178.097 23.6442 171.072 21.468 163.8C20.988 162.186 20.55 160.566 20.16 158.928C19.83 157.584 19.56 156.24 19.266 154.878C18.1775 149.328 17.5872 143.691 17.502 138.036C17.47 136.264 17.49 134.494 17.562 132.726C18.027 121.476 20.2541 110.369 24.162 99.8101C30.3456 83.055 40.1838 67.8877 52.962 55.4101C79.254 29.7781 100.764 17.7421 137.712 15.2101C137.712 15.2101 167.634 9.12609 185.916 46.8121C192.45 60.2701 196.482 75.0121 204.96 87.3601C216.534 104.232 234.918 115.194 249.804 129.36C269.988 148.56 284.004 174.774 284.904 202.344C285.804 229.914 272.46 258.3 248.496 272.67Z" fill="white"/>
</g>
<path d="M215.658 78.5996H231.18C233.93 78.5996 236.567 79.6919 238.511 81.6363C240.456 83.5807 241.548 86.2178 241.548 88.9676C241.548 91.7174 240.456 94.3545 238.511 96.2989C236.567 98.2433 233.93 99.3356 231.18 99.3356H207.402C206.04 99.3364 204.692 99.0688 203.433 98.548C202.175 98.0272 201.032 97.2636 200.069 96.3007C199.106 95.3377 198.342 94.1945 197.822 92.9362C197.301 91.6779 197.033 90.3294 197.034 88.9676C197.034 86.2178 198.126 83.5807 200.071 81.6363C202.015 79.6919 204.652 78.5996 207.402 78.5996" stroke="#263238" stroke-miterlimit="10"/>
<path d="M210.948 78.5879H213.66" stroke="#263238" stroke-miterlimit="10"/>
<path d="M211.8 87.0598V87.7018H211.05V86.9998C211.05 86.3578 210.798 85.9738 210.216 85.9738C209.634 85.9738 209.4 86.3998 209.4 86.9998V90.7498C209.4 91.3918 209.664 91.7758 210.228 91.7758C210.792 91.7758 211.062 91.3918 211.062 90.7498V89.8258H211.8V90.7078C211.8 91.7878 211.29 92.5078 210.198 92.5078C209.106 92.5078 208.602 91.7998 208.602 90.7078V87.0598C208.602 85.9858 209.112 85.2598 210.198 85.2598C211.284 85.2598 211.8 85.9858 211.8 87.0598Z" fill="#263238"/>
<path d="M213.342 91.0196L213.066 92.4476H212.334L213.696 85.3496H214.842L216.198 92.4476H215.4L215.124 91.0196H213.342ZM213.444 90.3416H215.022L214.2 86.2376L213.444 90.3416Z" fill="#263238"/>
<path d="M217.524 92.4476H216.81V85.3496H217.8L219.444 90.4796V85.3496H220.14V92.4476H219.318L217.518 86.7056L217.524 92.4476Z" fill="#263238"/>
<path d="M224.106 87.0598V87.7018H223.356V86.9998C223.356 86.3578 223.104 85.9738 222.522 85.9738C221.94 85.9738 221.694 86.3578 221.694 86.9998V90.7498C221.694 91.3918 221.958 91.7758 222.522 91.7758C223.086 91.7758 223.356 91.3918 223.356 90.7498V89.8258H224.106V90.7078C224.106 91.7878 223.602 92.5078 222.504 92.5078C221.406 92.5078 220.914 91.7998 220.914 90.7078V87.0598C220.914 85.9858 221.418 85.2598 222.504 85.2598C223.59 85.2598 224.106 85.9858 224.106 87.0598Z" fill="#263238"/>
<path d="M227.352 88.4936V89.2016H225.6V91.7276H227.73V92.4476H224.808V85.3496H227.73V86.0696H225.6V88.4696L227.352 88.4936Z" fill="#263238"/>
<path d="M228.48 92.4476V85.3496H229.272V91.7276H231.3V92.4476H228.48Z" fill="#263238"/>
<path d="M156.162 15.1324C155.396 14.9266 154.616 14.7762 153.828 14.6824M151.902 14.5684C147.812 14.5582 143.864 16.0726 140.83 18.8161C137.797 21.5595 135.894 25.3351 135.494 29.4058C135.094 33.4765 136.225 37.5503 138.667 40.8318C141.108 44.1134 144.685 46.3673 148.7 47.1536C152.714 47.9399 156.877 47.2022 160.376 45.0844C163.875 42.9666 166.46 39.6207 167.625 35.6999C168.791 31.7791 168.453 27.5647 166.679 23.8794C164.904 20.194 161.82 17.3022 158.028 15.7684M147.228 29.4604L157.428 41.4004C155.06 42.6902 152.321 43.1283 149.669 42.6415C147.016 42.1548 144.611 40.7727 142.856 38.7261C141.1 36.6795 140.099 34.0923 140.022 31.3969C139.944 28.7014 140.793 26.0609 142.428 23.9164L145.902 27.9724L147.18 29.4604M156.63 33.3604L145.974 20.8204C147.769 19.7586 149.816 19.199 151.902 19.2004C154.128 19.1995 156.309 19.8294 158.191 21.0172C160.074 22.205 161.581 23.9019 162.539 25.9114C163.497 27.9209 163.865 30.1606 163.602 32.371C163.339 34.5814 162.455 36.672 161.052 38.4004L159.63 36.7384L156.63 33.3604Z" stroke="#263238" stroke-miterlimit="10"/>
<path d="M82.446 74.2443L83.37 73.3203" stroke="#263238" stroke-miterlimit="10"/>
<path d="M80.514 76.1756L71.688 67.3496L64.374 74.6636L73.2 83.4896L64.374 92.3156L71.688 99.6296L80.514 90.8036L89.34 99.6296L96.654 92.3156L87.828 83.4896L96.654 74.6636L89.34 67.3496L84.51 72.1796" stroke="#263238" stroke-miterlimit="10"/>
<path d="M56.556 220.481L87.564 178.481C92.886 165.281 92.202 157.757 93.6 144.569C94.8 132.989 97.968 123.413 98.286 119.411C98.4 118.001 99.546 101.039 99.57 99.6115C99.612 97.7455 101.97 93.3295 102.414 91.5115C106.014 76.1755 108.846 73.8775 112.872 76.1995C113.472 76.5415 119.892 79.5595 115.092 96.9895C113.994 100.985 115.284 126.275 115.284 126.275L180.906 99.8035V165.251L151.962 198.635C147.43 203.528 141.907 207.398 135.762 209.987C132.972 211.187 129.648 211.487 129.426 211.697C127.776 213.269 109.518 239.687 99.804 253.811C83.742 242.735 69 231.629 56.556 220.481Z" fill="white"/>
<path d="M115.284 126.269L114.51 126.581C114.51 126.581 112.968 100.979 114.066 96.9826C116.718 87.3406 116.256 82.1146 115.206 79.3066C114.96 83.5066 113.916 95.3686 109.806 100.307C116.124 109.187 112.698 126.311 110.562 129.707C110.562 129.707 113.298 150.935 118.716 165.707C116.682 164.903 114.564 164.783 113.358 166.529C110.91 170.063 114.132 178.385 115.242 181.937C116.442 185.765 117.642 189.595 118.842 193.427C125.99 192.556 133.187 192.155 140.388 192.227L140.19 192.311C129.888 196.307 118.266 197.879 107.754 194.501C106.086 192.923 104.424 191.165 104.328 191.129C101.538 190.211 102.528 194.729 101.832 196.841C100.89 199.841 99.222 202.565 97.572 205.241L80.832 232.475C95.406 217.253 101.712 206.735 110.772 197.267L113.376 199.565H113.316C111.096 199.949 110.094 204.527 109.296 206.303C106.708 212.087 103.964 217.795 101.064 223.427L109.692 212.159C112.17 208.913 115.092 205.433 118.938 204.467L120.738 206.051C121.374 206.615 122.022 207.179 122.682 207.725C119.808 210.725 108.024 231.221 94.362 249.533L99.876 253.781C109.59 239.657 127.848 213.239 129.498 211.667C129.886 211.524 130.288 211.425 130.698 211.373L130.734 211.301H131.034C132.675 211.01 134.282 210.558 135.834 209.951C141.979 207.361 147.502 203.491 152.034 198.599L168.636 179.399C169.68 177.473 170.022 175.547 166.956 177.089C166.422 177.359 165.906 177.689 165.384 177.971C165.214 177.786 165.027 177.617 164.826 177.467C163.53 176.543 161.826 176.477 160.23 176.561C155.082 176.843 150.078 178.361 144.96 178.961C139.842 179.561 134.274 179.171 130.152 176.069C127.782 174.269 126.102 171.767 124.098 169.565C126.895 153.641 128.051 137.472 127.548 121.313L115.284 126.263V126.269Z" fill="#B0BEC5"/>
<path opacity="0.5" d="M115.284 126.269L114.51 126.581C114.51 126.581 112.968 100.979 114.066 96.9826C116.718 87.3406 116.256 82.1146 115.206 79.3066C114.96 83.5066 113.916 95.3686 109.806 100.307C116.124 109.187 112.698 126.311 110.562 129.707C110.562 129.707 113.298 150.935 118.716 165.707C116.682 164.903 114.564 164.783 113.358 166.529C110.91 170.063 114.132 178.385 115.242 181.937C116.442 185.765 117.642 189.595 118.842 193.427C125.99 192.556 133.187 192.155 140.388 192.227L140.19 192.311C129.888 196.307 118.266 197.879 107.754 194.501C106.086 192.923 104.424 191.165 104.328 191.129C101.538 190.211 102.528 194.729 101.832 196.841C100.89 199.841 99.222 202.565 97.572 205.241L80.832 232.475C95.406 217.253 101.712 206.735 110.772 197.267L113.376 199.565H113.316C111.096 199.949 110.094 204.527 109.296 206.303C106.708 212.087 103.964 217.795 101.064 223.427L109.692 212.159C112.17 208.913 115.092 205.433 118.938 204.467L120.738 206.051C121.374 206.615 122.022 207.179 122.682 207.725C119.808 210.725 108.024 231.221 94.362 249.533L99.876 253.781C109.59 239.657 127.848 213.239 129.498 211.667C129.886 211.524 130.288 211.425 130.698 211.373L130.734 211.301H131.034C132.675 211.01 134.282 210.558 135.834 209.951C141.979 207.361 147.502 203.491 152.034 198.599L168.636 179.399C169.68 177.473 170.022 175.547 166.956 177.089C166.422 177.359 165.906 177.689 165.384 177.971C165.214 177.786 165.027 177.617 164.826 177.467C163.53 176.543 161.826 176.477 160.23 176.561C155.082 176.843 150.078 178.361 144.96 178.961C139.842 179.561 134.274 179.171 130.152 176.069C127.782 174.269 126.102 171.767 124.098 169.565C126.895 153.641 128.051 137.472 127.548 121.313L115.284 126.263V126.269Z" fill="white"/>
<path d="M56.556 220.481L87.564 178.481C92.886 165.281 92.202 157.757 93.6 144.569C94.8 132.989 97.968 123.413 98.286 119.411C98.4 118.001 99.546 101.039 99.57 99.6115C99.612 97.7455 101.97 93.3295 102.414 91.5115C106.014 76.1755 108.846 73.8775 112.872 76.1995C113.472 76.5415 119.892 79.5595 115.092 96.9895C113.994 100.985 115.284 126.275 115.284 126.275L180.906 99.8035V165.251L151.962 198.635C147.43 203.528 141.907 207.398 135.762 209.987C132.972 211.187 129.648 211.487 129.426 211.697C127.776 213.269 109.518 239.687 99.804 253.811" stroke="#263238" stroke-miterlimit="10"/>
<path d="M186.63 98.49C187.275 98.1898 187.936 97.9254 188.61 97.698C191.01 96.888 194.388 96.498 196.482 97.962C198.828 99.57 200.178 105.228 194.766 109.158C191.519 111.557 187.966 113.511 184.2 114.966C183.372 115.304 182.479 115.454 181.586 115.406C180.693 115.359 179.821 115.114 179.034 114.69C178.086 114.162 177.282 113.382 177.234 112.248C177 105.648 180.642 101.28 186.63 98.49Z" fill="white"/>
<mask id="mask0_3884_8511" style="mask-type:luminance" maskUnits="userSpaceOnUse" x="177" y="96" width="22" height="20">
<path d="M186.63 98.49C187.275 98.1898 187.936 97.9254 188.61 97.698C191.01 96.888 194.388 96.498 196.482 97.962C198.828 99.57 200.178 105.228 194.766 109.158C191.519 111.557 187.966 113.511 184.2 114.966C183.372 115.304 182.479 115.454 181.586 115.406C180.693 115.359 179.821 115.114 179.034 114.69C178.086 114.162 177.282 113.382 177.234 112.248C177 105.648 180.642 101.28 186.63 98.49Z" fill="white"/>
</mask>
<g mask="url(#mask0_3884_8511)">
<path d="M195.882 101.237C193.608 95.6452 186.252 97.1572 184.728 102.341C183.984 104.879 184.35 107.597 184.728 110.213C184.926 111.593 185.328 113.213 186.594 113.717C186.694 113.751 186.797 113.779 186.9 113.801C189.021 112.816 191.068 111.679 193.026 110.399C193.795 109.672 194.469 108.849 195.03 107.951C196.254 105.953 196.758 103.403 195.882 101.237Z" fill="#B0BEC5"/>
<path opacity="0.5" d="M195.882 101.237C193.608 95.6452 186.252 97.1572 184.728 102.341C183.984 104.879 184.35 107.597 184.728 110.213C184.926 111.593 185.328 113.213 186.594 113.717C186.694 113.751 186.797 113.779 186.9 113.801C189.021 112.816 191.068 111.679 193.026 110.399C193.795 109.672 194.469 108.849 195.03 107.951C196.254 105.953 196.758 103.403 195.882 101.237Z" fill="white"/>
</g>
<path d="M186.63 98.49C187.275 98.1898 187.936 97.9254 188.61 97.698C191.01 96.888 194.388 96.498 196.482 97.962C198.828 99.57 200.178 105.228 194.766 109.158C191.519 111.557 187.966 113.511 184.2 114.966C183.372 115.304 182.479 115.454 181.586 115.406C180.693 115.359 179.821 115.114 179.034 114.69C178.086 114.162 177.282 113.382 177.234 112.248C177 105.648 180.642 101.28 186.63 98.49Z" stroke="#263238" stroke-miterlimit="10"/>
<path d="M185.778 129.06L176.226 133.86V119.22L187.878 113.82C187.878 113.82 181.944 121.848 185.778 129.06Z" stroke="#263238" stroke-miterlimit="10"/>
<path d="M182.52 134.627L176.226 138.119V154.481L186.552 150.671L187.878 135.635C187.878 135.635 186.27 134.945 182.52 134.627Z" stroke="#263238" stroke-miterlimit="10"/>
<path d="M187.014 60.629V178.073C187.012 180.412 186.084 182.656 184.432 184.312C182.78 185.969 180.539 186.903 178.2 186.911H124.2C121.857 186.909 119.609 185.978 117.952 184.321C116.295 182.664 115.364 180.417 115.362 178.073V60.629C115.362 58.285 116.293 56.0371 117.951 54.3796C119.608 52.7222 121.856 51.791 124.2 51.791H178.2C178.842 51.7907 179.482 51.8611 180.108 52.001C182.068 52.4402 183.821 53.5341 185.076 55.1025C186.331 56.6708 187.015 58.6201 187.014 60.629Z" fill="#263238"/>
<path d="M174.546 55.3379H127.86C122.979 55.3379 119.022 59.2948 119.022 64.1759V174.438C119.022 179.319 122.979 183.276 127.86 183.276H174.546C179.427 183.276 183.384 179.319 183.384 174.438V64.1759C183.384 59.2948 179.427 55.3379 174.546 55.3379Z" fill="#B0BEC5"/>
<path d="M134.79 55.3379H169.092V56.3399C169.092 58.0505 168.412 59.6911 167.203 60.9007C165.993 62.1103 164.353 62.7899 162.642 62.7899H141.24C139.529 62.7899 137.889 62.1103 136.679 60.9007C135.47 59.6911 134.79 58.0505 134.79 56.3399V55.3379Z" fill="#263238"/>
<path d="M140.694 60.4431C141.612 60.4431 142.356 59.699 142.356 58.7811C142.356 57.8632 141.612 57.1191 140.694 57.1191C139.776 57.1191 139.032 57.8632 139.032 58.7811C139.032 59.699 139.776 60.4431 140.694 60.4431Z" fill="white" stroke="#263238" stroke-miterlimit="10"/>
<path d="M156.594 57.4492H147.288C146.496 57.4492 145.854 58.0912 145.854 58.8832V59.3332C145.854 60.1252 146.496 60.7672 147.288 60.7672H156.594C157.386 60.7672 158.028 60.1252 158.028 59.3332V58.8832C158.028 58.0912 157.386 57.4492 156.594 57.4492Z" fill="white" stroke="#263238" stroke-miterlimit="10"/>
<path d="M159.434 109.734C163.176 105.191 162.525 98.4749 157.982 94.7339C153.439 90.9929 146.724 91.6431 142.983 96.1861C139.241 100.729 139.892 107.445 144.435 111.186C148.978 114.927 155.693 114.277 159.434 109.734Z" stroke="#263238" stroke-miterlimit="10"/>
<path d="M149.364 108.943L143.994 103.147L145.314 101.923L149.442 106.375L157.818 98.3105L159.066 99.6065L149.364 108.943Z" fill="#263238"/>
<path d="M147.864 88.4819L146.802 85.2539H147.402L148.188 87.7259L148.98 85.2539H149.508L148.44 88.4819V90.2819H147.882L147.864 88.4819Z" fill="#263238"/>
<path d="M151.686 87.4856V87.9896H150.456V89.7896H151.968V90.2996H149.898V85.2656H151.968V85.7756H150.456V87.4976L151.686 87.4856Z" fill="#263238"/>
<path d="M154.668 86.4591V86.5971H154.134V86.4291C154.134 85.9791 153.966 85.7091 153.534 85.7091C153.102 85.7091 152.934 85.9791 152.934 86.4231C152.934 87.5571 154.626 87.6651 154.626 89.0811C154.626 89.8431 154.26 90.3411 153.492 90.3411C152.724 90.3411 152.358 89.8431 152.358 89.0811V88.7991H152.886V89.1171C152.886 89.5671 153.072 89.8371 153.486 89.8371C153.9 89.8371 154.086 89.5671 154.086 89.1171C154.086 87.9951 152.4 87.8871 152.4 86.4651C152.4 85.6911 152.76 85.2051 153.516 85.2051C154.272 85.2051 154.668 85.6971 154.668 86.4591Z" fill="#263238"/>
<path d="M151.764 162.761C161.079 162.761 168.63 155.21 168.63 145.895C168.63 136.58 161.079 129.029 151.764 129.029C142.449 129.029 134.898 136.58 134.898 145.895C134.898 155.21 142.449 162.761 151.764 162.761Z" fill="#263238"/>
<path d="M157.986 134.459L163.092 139.565L156.93 145.727L163.092 151.889L157.986 156.995L151.824 150.833L145.662 156.995L140.556 151.889L146.718 145.727L140.556 139.565L145.662 134.459L151.824 140.615L157.986 134.459Z" fill="#B0BEC5"/>
<path d="M143.67 121.446V122.088H142.92V121.41C142.92 120.768 142.662 120.378 142.08 120.378C141.498 120.378 141.246 120.768 141.246 121.41V125.178C141.246 125.82 141.51 126.21 142.08 126.21C142.65 126.21 142.92 125.82 142.92 125.178V124.254H143.67V125.136C143.67 126.216 143.16 126.936 142.062 126.936C140.964 126.936 140.46 126.222 140.46 125.136V121.446C140.46 120.366 140.97 119.646 142.062 119.646C143.154 119.646 143.67 120.366 143.67 121.446Z" fill="#263238"/>
<path d="M145.2 125.399L144.924 126.833H144.192L145.554 119.699H146.706L148.074 126.833H147.276L147 125.399H145.2ZM145.302 124.715H146.892L146.088 120.599L145.302 124.715Z" fill="#263238"/>
<path d="M149.4 126.857H148.686V119.723H149.694L151.344 124.883V119.723H152.046V126.857H151.2L149.4 121.091V126.857Z" fill="#263238"/>
<path d="M156 121.446V122.088H155.244V121.41C155.244 120.768 154.992 120.378 154.41 120.378C153.828 120.378 153.576 120.768 153.576 121.41V125.178C153.576 125.82 153.84 126.21 154.41 126.21C154.98 126.21 155.244 125.82 155.244 125.178V124.254H156V125.136C156 126.216 155.49 126.936 154.392 126.936C153.294 126.936 152.79 126.222 152.79 125.136V121.446C152.79 120.366 153.3 119.646 154.392 119.646C155.484 119.646 156 120.366 156 121.446Z" fill="#263238"/>
<path d="M159.276 122.885V123.599H157.53V126.137H159.672V126.857H156.738V119.723H159.672V120.449H157.53V122.885H159.276Z" fill="#263238"/>
<path d="M160.404 126.857V119.723H161.202V126.137H163.236V126.857H160.404Z" fill="#263238"/>
<path d="M142.08 71.597C142.872 71.597 143.208 72.065 143.208 72.797V73.397C143.208 74.195 142.836 74.597 142.008 74.597H141.51V76.583H141V71.543L142.08 71.597ZM142.038 74.147C142.452 74.147 142.638 73.955 142.638 73.469V72.803C142.638 72.341 142.47 72.113 142.038 72.113H141.498V74.147H142.038Z" fill="#263238"/>
<path d="M144.792 71.5977C145.584 71.5977 145.92 72.0057 145.92 72.7497V73.1637C145.92 73.7157 145.722 74.0637 145.32 74.1957C145.782 74.3337 145.956 74.7117 145.956 75.2457V76.0317C145.94 76.237 145.975 76.4432 146.058 76.6317H145.488C145.409 76.442 145.376 76.2364 145.392 76.0317V75.2397C145.392 74.6397 145.128 74.4897 144.66 74.4897H144.264V76.6437H143.7V71.6037L144.792 71.5977ZM144.648 73.9977C145.098 73.9977 145.362 73.8537 145.362 73.3077V72.8277C145.362 72.3717 145.2 72.1377 144.762 72.1377H144.216V73.9977H144.648Z" fill="#263238"/>
<path d="M146.466 72.8148C146.466 72.0468 146.85 71.5488 147.618 71.5488C148.386 71.5488 148.776 72.0468 148.776 72.8148V75.4188C148.799 75.5812 148.786 75.7468 148.738 75.9036C148.69 76.0604 148.607 76.2045 148.496 76.3256C148.386 76.4467 148.249 76.5417 148.097 76.6038C147.946 76.6659 147.782 76.6936 147.618 76.6848C146.85 76.6848 146.466 76.1808 146.466 75.4188V72.8148ZM147.018 75.4488C147.018 75.9108 147.216 76.1748 147.618 76.1748C148.02 76.1748 148.218 75.9108 148.218 75.4488V72.7848C148.218 72.3348 148.032 72.0588 147.618 72.0588C147.204 72.0588 147.018 72.3348 147.018 72.7848V75.4488Z" fill="#263238"/>
<path d="M151.53 72.8154V73.2714H151.002V72.7854C151.002 72.3354 150.822 72.0594 150.402 72.0594C149.982 72.0594 149.802 72.3354 149.802 72.7854V75.4494C149.802 75.9054 149.988 76.1754 150.402 76.1754C150.816 76.1754 151.002 75.9054 151.002 75.4494V74.7954H151.53V75.3954C151.53 76.1574 151.176 76.6614 150.396 76.6614C149.616 76.6614 149.268 76.1574 149.268 75.3954V72.7914C149.268 72.0294 149.628 71.5254 150.396 71.5254C151.164 71.5254 151.53 72.0534 151.53 72.8154Z" fill="#263238"/>
<path d="M153.84 73.8295V74.3335H152.604V76.1335H154.116V76.6435H152.046V71.6035H154.116V72.1195H152.604V73.8355L153.84 73.8295Z" fill="#263238"/>
<path d="M156.426 73.8295V74.3335H155.226V76.1335H156.738V76.6435H154.668V71.6035H156.738V72.1195H155.226V73.8355L156.426 73.8295Z" fill="#263238"/>
<path d="M158.4 71.5977C159.186 71.5977 159.546 72.0777 159.546 72.8517V75.3897C159.546 76.1637 159.186 76.6377 158.4 76.6377H157.2V71.5977H158.4ZM158.4 76.1277C158.802 76.1277 159 75.8757 159 75.4137V72.8217C159 72.3657 158.802 72.1137 158.4 72.1137H157.8V76.1277H158.4Z" fill="#263238"/>
<path d="M163.338 72.8225C163.338 74.0225 162.342 74.2805 162.342 75.2225C162.342 75.3157 162.354 75.4085 162.378 75.4985H161.874C161.849 75.4046 161.837 75.3077 161.838 75.2105C161.838 74.1065 162.78 73.9445 162.78 72.8105C162.78 72.3545 162.612 72.0665 162.18 72.0665C161.748 72.0665 161.58 72.3605 161.58 72.8105V73.2545H161.052V72.8405C161.052 72.0785 161.4 71.5625 162.168 71.5625C162.936 71.5625 163.338 72.0545 163.338 72.8225ZM162.384 75.9425V76.6385H161.85V75.9425H162.384Z" fill="#263238"/>
<path opacity="0.2" d="M137.82 51.8105L115.278 80.9585V60.6485C115.278 58.3046 116.209 56.0566 117.867 54.3991C119.524 52.7417 121.772 51.8105 124.116 51.8105H137.82Z" fill="white"/>
<path opacity="0.2" d="M180 51.8276L115.284 132.924V101.544L156.744 51.5996H178.098C178.738 51.6056 179.376 51.6821 180 51.8276Z" fill="white"/>
<path opacity="0.2" d="M187.014 141.881V155.465L183.39 159.911L164.334 183.275L161.37 186.911H149.616L152.634 183.275L183.39 146.243L187.014 141.881Z" fill="white"/>
<path d="M182.898 121.866C182.73 122.878 182.785 123.916 183.059 124.905C183.332 125.895 183.818 126.813 184.482 127.596C185.982 129.322 188.039 130.469 190.296 130.836C192.066 131.142 194.148 130.92 195.294 129.732C196.296 128.7 196.332 127.242 196.314 125.91C196.284 122.646 195.444 118.176 190.956 117.162C187.266 116.322 183.438 118.842 182.898 121.866Z" fill="white"/>
<mask id="mask1_3884_8511" style="mask-type:luminance" maskUnits="userSpaceOnUse" x="182" y="116" width="15" height="15">
<path d="M182.898 121.866C182.73 122.878 182.785 123.916 183.059 124.905C183.332 125.895 183.818 126.813 184.482 127.596C185.982 129.322 188.039 130.469 190.296 130.836C192.066 131.142 194.148 130.92 195.294 129.732C196.296 128.7 196.332 127.242 196.314 125.91C196.284 122.646 195.444 118.176 190.956 117.162C187.266 116.322 183.438 118.842 182.898 121.866Z" fill="white"/>
</mask>
<g mask="url(#mask1_3884_8511)">
<path d="M182.892 120.869C182.604 122.004 182.609 123.194 182.906 124.328C183.203 125.461 183.782 126.5 184.59 127.349C186.236 129.033 188.395 130.122 190.728 130.445C191.232 129.473 190.452 128.375 189.864 127.445C188.824 125.805 188.318 123.882 188.418 121.943C188.466 121.073 188.802 120.029 189.66 119.861C190.422 119.711 191.124 120.407 191.352 121.151C191.5 121.912 191.578 122.685 191.586 123.461C191.597 123.852 191.715 124.233 191.927 124.563C192.138 124.893 192.435 125.159 192.786 125.333C192.957 123.576 192.752 121.803 192.186 120.131C190.314 115.691 184.2 116.399 182.892 120.869Z" fill="#B0BEC5"/>
<path opacity="0.5" d="M182.892 120.869C182.604 122.004 182.609 123.194 182.906 124.328C183.203 125.461 183.782 126.5 184.59 127.349C186.236 129.033 188.395 130.122 190.728 130.445C191.232 129.473 190.452 128.375 189.864 127.445C188.824 125.805 188.318 123.882 188.418 121.943C188.466 121.073 188.802 120.029 189.66 119.861C190.422 119.711 191.124 120.407 191.352 121.151C191.5 121.912 191.578 122.685 191.586 123.461C191.597 123.852 191.715 124.233 191.927 124.563C192.138 124.893 192.435 125.159 192.786 125.333C192.957 123.576 192.752 121.803 192.186 120.131C190.314 115.691 184.2 116.399 182.892 120.869Z" fill="white"/>
</g>
<path d="M182.898 121.866C182.73 122.878 182.785 123.916 183.059 124.905C183.332 125.895 183.818 126.813 184.482 127.596C185.982 129.322 188.039 130.469 190.296 130.836C192.066 131.142 194.148 130.92 195.294 129.732C196.296 128.7 196.332 127.242 196.314 125.91C196.284 122.646 195.444 118.176 190.956 117.162C187.266 116.322 183.438 118.842 182.898 121.866Z" stroke="#263238" stroke-miterlimit="10"/>
<path d="M186.714 159.444L180.084 164.46C180.084 164.46 175.968 171.18 183.948 172.92L190.8 170.946C192.419 170.506 193.855 169.559 194.897 168.244C195.939 166.929 196.532 165.315 196.59 163.638C196.632 160.416 194.694 157.008 186.756 156.24L186.714 159.444Z" fill="white"/>
<mask id="mask2_3884_8511" style="mask-type:luminance" maskUnits="userSpaceOnUse" x="179" y="156" width="18" height="17">
<path d="M186.714 159.444L180.084 164.46C180.084 164.46 175.968 171.18 183.948 172.92L190.8 170.946C192.419 170.506 193.855 169.559 194.897 168.244C195.939 166.929 196.532 165.315 196.59 163.638C196.632 160.416 194.694 157.008 186.756 156.24L186.714 159.444Z" fill="white"/>
</mask>
<g mask="url(#mask2_3884_8511)">
<path d="M185.202 162.263C185.263 162.817 185.456 163.348 185.766 163.811C187.12 166.309 187.976 169.046 188.286 171.869C188.064 169.835 189.192 167.207 189.132 165.023C189.072 162.839 188.868 159.977 187.722 158.111C187.062 159.215 185.184 160.895 185.202 162.263Z" fill="#B0BEC5"/>
<path opacity="0.5" d="M185.202 162.263C185.263 162.817 185.456 163.348 185.766 163.811C187.12 166.309 187.976 169.046 188.286 171.869C188.064 169.835 189.192 167.207 189.132 165.023C189.072 162.839 188.868 159.977 187.722 158.111C187.062 159.215 185.184 160.895 185.202 162.263Z" fill="white"/>
</g>
<path d="M186.714 159.444L180.084 164.46C180.084 164.46 175.968 171.18 183.948 172.92L190.8 170.946C192.419 170.506 193.855 169.559 194.897 168.244C195.939 166.929 196.532 165.315 196.59 163.638C196.632 160.416 194.694 157.008 186.756 156.24L186.714 159.444Z" stroke="#263238" stroke-miterlimit="10"/>
<path d="M184.332 139.8L178.2 146.4C178.2 146.4 175.056 154.386 183.942 154.734L190.884 151.344C192.611 150.529 194.119 149.316 195.287 147.805C196.454 146.293 197.246 144.527 197.598 142.65C198.258 138.81 196.806 134.916 187.668 135.63L184.332 139.8Z" fill="white"/>
<mask id="mask3_3884_8511" style="mask-type:luminance" maskUnits="userSpaceOnUse" x="177" y="135" width="21" height="20">
<path d="M184.332 139.8L178.2 146.4C178.2 146.4 175.056 154.386 183.942 154.734L190.884 151.344C192.611 150.529 194.119 149.316 195.287 147.805C196.454 146.293 197.246 144.527 197.598 142.65C198.258 138.81 196.806 134.916 187.668 135.63L184.332 139.8Z" fill="white"/>
</mask>
<g mask="url(#mask3_3884_8511)">
<path d="M184.764 153.99C185.364 154.518 186.396 154.14 186.798 153.444C187.134 152.71 187.222 151.887 187.05 151.098C186.9 149.898 185.364 141.696 183.498 142.698C182.4 143.298 184.548 152.52 184.764 153.99Z" fill="#B0BEC5"/>
<path opacity="0.5" d="M184.764 153.99C185.364 154.518 186.396 154.14 186.798 153.444C187.134 152.71 187.222 151.887 187.05 151.098C186.9 149.898 185.364 141.696 183.498 142.698C182.4 143.298 184.548 152.52 184.764 153.99Z" fill="white"/>
</g>
<path d="M184.332 139.8L178.2 146.4C178.2 146.4 175.056 154.386 183.942 154.734L190.884 151.344C192.611 150.529 194.119 149.316 195.287 147.805C196.454 146.293 197.246 144.527 197.598 142.65C198.258 138.81 196.806 134.916 187.668 135.63L184.332 139.8Z" stroke="#263238" stroke-miterlimit="10"/>
<path d="M183.9 144.672C183.425 144.756 182.974 144.944 182.578 145.221C182.183 145.498 181.853 145.858 181.612 146.276C181.37 146.694 181.223 147.159 181.18 147.64C181.138 148.121 181.201 148.605 181.365 149.059C181.529 149.513 181.79 149.926 182.131 150.268C182.471 150.61 182.882 150.874 183.335 151.041C183.788 151.208 184.272 151.273 184.753 151.233C185.234 151.194 185.701 151.049 186.12 150.81" stroke="#263238" stroke-miterlimit="10"/>
<path d="M185.952 164.682C184.05 164.376 182.226 166.482 182.814 168.336C183.402 170.19 186.126 170.832 187.494 169.476" fill="white"/>
<path d="M185.952 164.682C184.05 164.376 182.226 166.482 182.814 168.336C183.402 170.19 186.126 170.832 187.494 169.476" stroke="#263238" stroke-miterlimit="10"/>
<path d="M106.944 100.331C109.869 100.553 112.771 99.6778 115.086 97.877" stroke="#263238" stroke-miterlimit="10"/>
<path d="M114 127.943C111.653 129.845 108.734 130.902 105.714 130.943" stroke="#263238" stroke-miterlimit="10"/>
<path d="M122.4 186.402C121.067 190.205 118.506 193.455 115.122 195.642" stroke="#263238" stroke-miterlimit="10"/>
<path d="M192.882 284.629L191.214 278.131C178.962 265.531 156.462 253.975 154.512 236.503C151.992 214.069 148.542 214.981 148.542 209.401C149.885 206.651 151.037 203.812 151.992 200.905C152.592 199.063 152.916 196.357 153.252 194.137C153.416 193.003 154.001 191.972 154.89 191.251C155.78 190.529 156.909 190.169 158.052 190.243C159.648 190.343 161.173 190.939 162.414 191.947C164.688 193.873 165.84 196.867 166.122 199.837C166.404 202.807 165.948 205.789 165.462 208.735C167.862 213.283 169.236 218.935 170.262 223.957C171.318 219.757 172.962 206.887 168.642 198.247C161.376 183.691 153.42 169.723 147.156 151.255C146.639 149.536 146.557 147.715 146.916 145.957C148.374 140.455 153.996 141.325 156.618 144.295C157.309 145.078 157.875 145.962 158.298 146.917C161.298 153.445 167.436 163.411 171.774 169.117L186.726 188.917L188.526 187.513C188.526 187.513 189.336 162.913 188.934 162.523C188.532 162.133 186.12 146.401 186.12 146.401C186.12 146.401 184.8 143.473 183.192 139.735C182.718 138.688 182.473 137.553 182.473 136.405C182.473 135.256 182.718 134.121 183.192 133.075C186 127.339 191.856 130.009 193.056 133.075C194.256 136.141 197.856 142.141 197.856 142.141L204.534 160.405C204.282 164.533 206.652 184.933 206.652 184.933L209.052 183.835L212.922 171.835L210 159.601C210 159.601 203.604 152.545 204.672 148.405C205.74 144.265 211.2 145.477 211.2 145.477L222.126 158.533H225.336L232.932 168.133C234.977 174.313 236.02 180.781 236.022 187.291C236.024 191.567 235.572 195.831 234.672 200.011L232.932 208.123V260.521C232.932 260.521 238.128 268.921 238.128 269.713C238.128 269.875 239.214 272.875 240.678 276.871C225.384 283.057 209.4 285.433 192.882 284.629Z" fill="white"/>
<path d="M159.066 202.334C159.72 203.084 159.384 204.602 158.388 204.626C157.067 204.203 155.646 204.208 154.328 204.639C153.01 205.07 151.861 205.905 151.044 207.026C150.804 207.368 150.372 207.782 150.048 207.518C149.838 207.344 149.886 207.014 149.952 206.75C150.048 206.39 150.144 206.03 150.234 205.67C150.756 204.422 151.356 202.856 151.992 200.924C152.124 200.54 152.232 200.108 152.34 199.658C152.538 200.203 152.909 200.668 153.396 200.984C154.242 201.512 155.31 201.458 156.306 201.464C157.302 201.47 158.4 201.602 159.066 202.334ZM163.38 227.912C163.53 227.642 163.656 227.366 163.782 227.084C163.649 227.175 163.543 227.3 163.472 227.445C163.402 227.59 163.37 227.751 163.38 227.912ZM170.256 223.958C169.236 218.912 167.856 213.284 165.456 208.736C165.942 205.79 166.41 202.808 166.116 199.838C165.822 196.868 164.682 193.874 162.408 191.948C161.167 190.94 159.642 190.344 158.046 190.244C157.644 190.215 157.241 190.241 156.846 190.322C154.836 191.114 153.606 192.872 154.992 195.566C155.41 196.349 156.1 196.953 156.932 197.263C157.764 197.574 158.681 197.57 159.51 197.252C159.907 197.065 160.263 196.8 160.556 196.473C160.849 196.147 161.074 195.764 161.217 195.35C161.36 194.935 161.419 194.495 161.389 194.057C161.36 193.619 161.243 193.192 161.046 192.8C162.761 195.513 163.609 198.685 163.476 201.892C163.343 205.099 162.236 208.19 160.302 210.752C164.814 214.664 166.248 221.672 163.776 227.084C164.075 226.88 164.428 226.771 164.79 226.771C165.152 226.771 165.505 226.88 165.804 227.084C166.668 227.732 166.956 228.884 167.376 229.868C167.796 230.852 168.612 231.902 169.692 231.83C170.766 229.196 170.802 226.304 170.37 223.43C170.334 223.622 170.298 223.802 170.256 223.958ZM192.342 157.436C192.372 157.64 192.39 157.844 192.414 158.036C192.458 157.833 192.433 157.622 192.342 157.436ZM156.078 149.252C161.519 156.022 164.443 164.47 164.352 173.156C166.092 171.788 168.468 173.684 169.83 175.43C178.188 186.162 185.998 197.31 193.23 208.832C191.832 203.738 191.796 198.338 190.284 193.28C189.706 191.419 188.99 189.604 188.142 187.85L186.744 188.936L171.792 169.136C167.454 163.412 161.316 153.446 158.316 146.936C157.893 145.981 157.327 145.096 156.636 144.314C155.94 143.539 155.084 142.925 154.128 142.514C153.234 144.452 154.86 147.38 152.928 149.198C153.414 149.198 155.82 148.94 156.078 149.252ZM206.598 184.46C206.244 181.364 204.306 164.168 204.534 160.412L197.856 142.148C197.856 142.148 194.256 136.148 193.056 133.082C192.95 132.822 192.819 132.573 192.666 132.338C192.445 132.115 192.182 131.937 191.892 131.816C189.048 130.79 190.968 134.48 190.596 136.34C195.268 142.403 197.889 149.796 198.078 157.448C196.749 157.671 195.549 158.377 194.708 159.43C193.867 160.482 193.443 161.808 193.518 163.154C193.776 161.354 196.416 160.85 197.862 161.954C199.308 163.058 199.806 164.954 200.13 166.754C202.044 177.308 200.592 188.162 201.36 198.86C201.648 202.898 205.074 211.712 207.36 230.156C206.76 216.74 207.36 202.49 206.76 189.08C206.718 187.484 206.658 185.96 206.598 184.46ZM238.116 269.714C238.116 268.916 232.92 260.522 232.92 260.522V217.202C232.08 214.898 231.096 212.65 229.974 210.47C229.956 210.438 229.929 210.413 229.896 210.397C229.863 210.382 229.826 210.377 229.791 210.384C229.755 210.39 229.722 210.408 229.697 210.434C229.672 210.46 229.655 210.494 229.65 210.53C229.146 214.73 227.508 213.71 224.928 210.338C224.928 210.338 221.112 212.912 221.094 212.888C219.804 211.148 219.252 209.036 218.946 206.888C218.988 206.792 219.036 206.696 219.084 206.594C219.132 206.492 219.222 206.306 219.294 206.162C219.366 206.018 219.492 205.742 219.594 205.526L219.804 205.076L220.11 204.41L220.314 203.96C220.422 203.726 220.524 203.486 220.632 203.246C220.692 203.102 220.758 202.964 220.818 202.82C220.938 202.544 221.058 202.274 221.172 201.998L221.316 201.662V201.608C221.364 201.5 221.406 201.392 221.448 201.284C221.58 200.972 221.712 200.684 221.838 200.342L222.036 199.856C222.15 199.58 222.258 199.304 222.366 199.034L222.57 198.494C222.672 198.236 222.774 197.972 222.87 197.714L223.068 197.168C223.164 196.916 223.254 196.664 223.344 196.406C223.434 196.148 223.476 196.046 223.536 195.872L223.65 195.548C223.817 198.848 225.187 201.973 227.502 204.332C227.149 200.401 227.351 196.44 228.102 192.566C228.36 191.276 228.408 186.782 229.416 185.966C230.424 185.15 232.248 185.18 232.794 186.374C232.749 185.941 232.604 185.525 232.371 185.158C232.138 184.791 231.823 184.483 231.451 184.258C231.079 184.033 230.66 183.897 230.227 183.861C229.794 183.826 229.358 183.891 228.954 184.052C230.238 183.452 228.444 176.852 228.138 175.574C227.946 174.77 227.454 172.574 226.788 170.378C227.467 169.438 228.341 168.656 229.35 168.086C229.903 167.794 230.525 167.656 231.15 167.687C231.775 167.717 232.38 167.915 232.902 168.26V168.194L232.488 167.666C231.726 166.778 230.994 165.866 230.304 164.912L225.306 158.588H222.906L222.846 158.654C222.324 159.488 223.086 160.982 223.332 161.768C223.482 162.242 223.632 162.716 223.776 163.19C223.11 161.282 222.285 159.433 221.31 157.664L211.944 146.402C211.617 146.19 211.271 146.007 210.912 145.856C208.512 144.884 205.272 146.966 205.83 149.792C205.781 149.052 206.005 148.319 206.459 147.733C206.913 147.147 207.566 146.747 208.294 146.609C209.023 146.471 209.777 146.604 210.414 146.984C211.051 147.363 211.527 147.963 211.752 148.67C211.422 148.666 211.095 148.729 210.79 148.853C210.485 148.978 210.207 149.162 209.974 149.395C209.74 149.628 209.555 149.905 209.43 150.21C209.305 150.515 209.242 150.842 209.244 151.172L212.358 149.972C212.784 153.05 214.83 155.63 216.858 157.982C218.886 160.334 219.048 161.918 219.792 164.93C220.536 167.942 221.304 172.562 218.34 173.498C219.654 173.234 220.92 174.38 221.286 175.67C221.652 176.96 221.37 178.34 221.1 179.654C219.331 188.245 218.213 196.958 217.758 205.718C216.787 207.505 216.07 209.42 215.628 211.406L216.042 232.316C217.9 230.435 219.309 228.158 220.164 225.656C220.296 225.26 220.566 224.924 220.925 224.711C221.283 224.497 221.707 224.42 222.118 224.492C222.529 224.565 222.9 224.783 223.164 225.107C223.427 225.431 223.566 225.838 223.554 226.256C223.554 226.556 223.554 226.856 223.506 227.15L221.76 256.7L228.42 231.548C229.62 238.952 226.416 259.814 224.16 266.948C229.638 267.854 231.654 274.64 231.84 280.208C234.844 279.273 237.791 278.163 240.666 276.884C239.202 272.876 238.116 269.876 238.116 269.714ZM193.02 273.914C192.056 272.557 190.865 271.377 189.498 270.428C186.166 268.062 182.184 266.784 178.098 266.768L181.554 269.558C181.692 269.624 181.83 269.684 181.956 269.756C184.128 270.956 186.108 272.882 187.77 274.694C187.926 274.868 188.094 275.066 188.268 275.294C189.306 276.248 190.302 277.196 191.232 278.156L192.432 282.776C192.702 283.406 192.96 284.042 193.2 284.666C193.86 284.698 194.52 284.722 195.18 284.738C195.348 281.738 195.27 278.582 194.514 276.656C194.138 275.673 193.636 274.743 193.02 273.89V273.914Z" fill="#B0BEC5"/>
<path opacity="0.5" d="M159.066 202.334C159.72 203.084 159.384 204.602 158.388 204.626C157.067 204.203 155.646 204.208 154.328 204.639C153.01 205.07 151.861 205.905 151.044 207.026C150.804 207.368 150.372 207.782 150.048 207.518C149.838 207.344 149.886 207.014 149.952 206.75C150.048 206.39 150.144 206.03 150.234 205.67C150.756 204.422 151.356 202.856 151.992 200.924C152.124 200.54 152.232 200.108 152.34 199.658C152.538 200.203 152.909 200.668 153.396 200.984C154.242 201.512 155.31 201.458 156.306 201.464C157.302 201.47 158.4 201.602 159.066 202.334ZM163.38 227.912C163.53 227.642 163.656 227.366 163.782 227.084C163.649 227.175 163.543 227.3 163.472 227.445C163.402 227.59 163.37 227.751 163.38 227.912ZM170.256 223.958C169.236 218.912 167.856 213.284 165.456 208.736C165.942 205.79 166.41 202.808 166.116 199.838C165.822 196.868 164.682 193.874 162.408 191.948C161.167 190.94 159.642 190.344 158.046 190.244C157.644 190.215 157.241 190.241 156.846 190.322C154.836 191.114 153.606 192.872 154.992 195.566C155.41 196.349 156.1 196.953 156.932 197.263C157.764 197.574 158.681 197.57 159.51 197.252C159.907 197.065 160.263 196.8 160.556 196.473C160.849 196.147 161.074 195.764 161.217 195.35C161.36 194.935 161.419 194.495 161.389 194.057C161.36 193.619 161.243 193.192 161.046 192.8C162.761 195.513 163.609 198.685 163.476 201.892C163.343 205.099 162.236 208.19 160.302 210.752C164.814 214.664 166.248 221.672 163.776 227.084C164.075 226.88 164.428 226.771 164.79 226.771C165.152 226.771 165.505 226.88 165.804 227.084C166.668 227.732 166.956 228.884 167.376 229.868C167.796 230.852 168.612 231.902 169.692 231.83C170.766 229.196 170.802 226.304 170.37 223.43C170.334 223.622 170.298 223.802 170.256 223.958ZM192.342 157.436C192.372 157.64 192.39 157.844 192.414 158.036C192.458 157.833 192.433 157.622 192.342 157.436ZM156.078 149.252C161.519 156.022 164.443 164.47 164.352 173.156C166.092 171.788 168.468 173.684 169.83 175.43C178.188 186.162 185.998 197.31 193.23 208.832C191.832 203.738 191.796 198.338 190.284 193.28C189.706 191.419 188.99 189.604 188.142 187.85L186.744 188.936L171.792 169.136C167.454 163.412 161.316 153.446 158.316 146.936C157.893 145.981 157.327 145.096 156.636 144.314C155.94 143.539 155.084 142.925 154.128 142.514C153.234 144.452 154.86 147.38 152.928 149.198C153.414 149.198 155.82 148.94 156.078 149.252ZM206.598 184.46C206.244 181.364 204.306 164.168 204.534 160.412L197.856 142.148C197.856 142.148 194.256 136.148 193.056 133.082C192.95 132.822 192.819 132.573 192.666 132.338C192.445 132.115 192.182 131.937 191.892 131.816C189.048 130.79 190.968 134.48 190.596 136.34C195.268 142.403 197.889 149.796 198.078 157.448C196.749 157.671 195.549 158.377 194.708 159.43C193.867 160.482 193.443 161.808 193.518 163.154C193.776 161.354 196.416 160.85 197.862 161.954C199.308 163.058 199.806 164.954 200.13 166.754C202.044 177.308 200.592 188.162 201.36 198.86C201.648 202.898 205.074 211.712 207.36 230.156C206.76 216.74 207.36 202.49 206.76 189.08C206.718 187.484 206.658 185.96 206.598 184.46ZM238.116 269.714C238.116 268.916 232.92 260.522 232.92 260.522V217.202C232.08 214.898 231.096 212.65 229.974 210.47C229.956 210.438 229.929 210.413 229.896 210.397C229.863 210.382 229.826 210.377 229.791 210.384C229.755 210.39 229.722 210.408 229.697 210.434C229.672 210.46 229.655 210.494 229.65 210.53C229.146 214.73 227.508 213.71 224.928 210.338C224.928 210.338 221.112 212.912 221.094 212.888C219.804 211.148 219.252 209.036 218.946 206.888C218.988 206.792 219.036 206.696 219.084 206.594C219.132 206.492 219.222 206.306 219.294 206.162C219.366 206.018 219.492 205.742 219.594 205.526L219.804 205.076L220.11 204.41L220.314 203.96C220.422 203.726 220.524 203.486 220.632 203.246C220.692 203.102 220.758 202.964 220.818 202.82C220.938 202.544 221.058 202.274 221.172 201.998L221.316 201.662V201.608C221.364 201.5 221.406 201.392 221.448 201.284C221.58 200.972 221.712 200.684 221.838 200.342L222.036 199.856C222.15 199.58 222.258 199.304 222.366 199.034L222.57 198.494C222.672 198.236 222.774 197.972 222.87 197.714L223.068 197.168C223.164 196.916 223.254 196.664 223.344 196.406C223.434 196.148 223.476 196.046 223.536 195.872L223.65 195.548C223.817 198.848 225.187 201.973 227.502 204.332C227.149 200.401 227.351 196.44 228.102 192.566C228.36 191.276 228.408 186.782 229.416 185.966C230.424 185.15 232.248 185.18 232.794 186.374C232.749 185.941 232.604 185.525 232.371 185.158C232.138 184.791 231.823 184.483 231.451 184.258C231.079 184.033 230.66 183.897 230.227 183.861C229.794 183.826 229.358 183.891 228.954 184.052C230.238 183.452 228.444 176.852 228.138 175.574C227.946 174.77 227.454 172.574 226.788 170.378C227.467 169.438 228.341 168.656 229.35 168.086C229.903 167.794 230.525 167.656 231.15 167.687C231.775 167.717 232.38 167.915 232.902 168.26V168.194L232.488 167.666C231.726 166.778 230.994 165.866 230.304 164.912L225.306 158.588H222.906L222.846 158.654C222.324 159.488 223.086 160.982 223.332 161.768C223.482 162.242 223.632 162.716 223.776 163.19C223.11 161.282 222.285 159.433 221.31 157.664L211.944 146.402C211.617 146.19 211.271 146.007 210.912 145.856C208.512 144.884 205.272 146.966 205.83 149.792C205.781 149.052 206.005 148.319 206.459 147.733C206.913 147.147 207.566 146.747 208.294 146.609C209.023 146.471 209.777 146.604 210.414 146.984C211.051 147.363 211.527 147.963 211.752 148.67C211.422 148.666 211.095 148.729 210.79 148.853C210.485 148.978 210.207 149.162 209.974 149.395C209.74 149.628 209.555 149.905 209.43 150.21C209.305 150.515 209.242 150.842 209.244 151.172L212.358 149.972C212.784 153.05 214.83 155.63 216.858 157.982C218.886 160.334 219.048 161.918 219.792 164.93C220.536 167.942 221.304 172.562 218.34 173.498C219.654 173.234 220.92 174.38 221.286 175.67C221.652 176.96 221.37 178.34 221.1 179.654C219.331 188.245 218.213 196.958 217.758 205.718C216.787 207.505 216.07 209.42 215.628 211.406L216.042 232.316C217.9 230.435 219.309 228.158 220.164 225.656C220.296 225.26 220.566 224.924 220.925 224.711C221.283 224.497 221.707 224.42 222.118 224.492C222.529 224.565 222.9 224.783 223.164 225.107C223.427 225.431 223.566 225.838 223.554 226.256C223.554 226.556 223.554 226.856 223.506 227.15L221.76 256.7L228.42 231.548C229.62 238.952 226.416 259.814 224.16 266.948C229.638 267.854 231.654 274.64 231.84 280.208C234.844 279.273 237.791 278.163 240.666 276.884C239.202 272.876 238.116 269.876 238.116 269.714ZM193.02 273.914C192.056 272.557 190.865 271.377 189.498 270.428C186.166 268.062 182.184 266.784 178.098 266.768L181.554 269.558C181.692 269.624 181.83 269.684 181.956 269.756C184.128 270.956 186.108 272.882 187.77 274.694C187.926 274.868 188.094 275.066 188.268 275.294C189.306 276.248 190.302 277.196 191.232 278.156L192.432 282.776C192.702 283.406 192.96 284.042 193.2 284.666C193.86 284.698 194.52 284.722 195.18 284.738C195.348 281.738 195.27 278.582 194.514 276.656C194.138 275.673 193.636 274.743 193.02 273.89V273.914Z" fill="white"/>
<path d="M192.882 284.629L191.214 278.131C178.962 265.531 156.462 253.975 154.512 236.503C151.992 214.069 148.542 214.981 148.542 209.401C149.885 206.651 151.037 203.812 151.992 200.905C152.592 199.063 152.916 196.357 153.252 194.137C153.416 193.003 154.001 191.972 154.89 191.251C155.78 190.529 156.909 190.169 158.052 190.243C159.648 190.343 161.173 190.939 162.414 191.947C164.688 193.873 165.84 196.867 166.122 199.837C166.404 202.807 165.948 205.789 165.462 208.735C167.862 213.283 169.236 218.935 170.262 223.957C171.318 219.757 172.962 206.887 168.642 198.247C161.376 183.691 153.42 169.723 147.156 151.255C146.639 149.536 146.557 147.715 146.916 145.957C148.374 140.455 153.996 141.325 156.618 144.295C157.309 145.078 157.875 145.962 158.298 146.917C161.298 153.445 167.436 163.411 171.774 169.117L186.726 188.917L188.526 187.513C188.526 187.513 189.336 162.913 188.934 162.523C188.532 162.133 186.12 146.401 186.12 146.401C186.12 146.401 184.8 143.473 183.192 139.735C182.718 138.688 182.473 137.553 182.473 136.405C182.473 135.256 182.718 134.121 183.192 133.075C186 127.339 191.856 130.009 193.056 133.075C194.256 136.141 197.856 142.141 197.856 142.141L204.534 160.405C204.282 164.533 206.652 184.933 206.652 184.933L209.052 183.835L212.922 171.835L210 159.601C210 159.601 203.604 152.545 204.672 148.405C205.74 144.265 211.2 145.477 211.2 145.477L222.126 158.533H225.336L232.932 168.133C234.977 174.313 236.02 180.781 236.022 187.291C236.024 191.567 235.572 195.831 234.672 200.011L232.932 208.123V260.521C232.932 260.521 238.128 268.921 238.128 269.713C238.128 269.875 239.214 272.875 240.678 276.871" stroke="#263238" stroke-miterlimit="10"/>
<path d="M163.272 174.001C164.244 172.937 165.453 172.118 166.801 171.611C168.149 171.103 169.598 170.921 171.03 171.079" stroke="#263238" stroke-miterlimit="10"/>
<path d="M158.292 148.951C157.197 148.767 156.077 148.803 154.997 149.056C153.916 149.31 152.897 149.776 151.998 150.427C151.998 150.427 148.848 147.283 149.52 144.715" stroke="#263238" stroke-miterlimit="10"/>
<path d="M227.208 204.534C225.468 201.852 223.788 198.168 224.25 195.012C225.162 188.82 227.982 181.698 226.716 175.572C225.916 171.66 225.104 167.748 224.28 163.836" stroke="#263238" stroke-miterlimit="10"/>
<path d="M193.494 138.186C192.886 138.623 192.169 138.882 191.422 138.933C190.675 138.985 189.929 138.826 189.268 138.477C188.606 138.127 188.055 137.599 187.677 136.953C187.299 136.307 187.109 135.569 187.128 134.82" stroke="#263238" stroke-miterlimit="10"/>
<path d="M188.85 176.34C188.706 178.452 188.988 188.388 188.85 190.5" stroke="#263238" stroke-miterlimit="10"/>
<path d="M201.3 194.473C204.048 197.473 203.646 204.715 201.708 208.693" stroke="#263238" stroke-miterlimit="10"/>
<path d="M180.072 202.879C181.552 205.765 183.787 208.195 186.54 209.911" stroke="#263238" stroke-miterlimit="10"/>
<path d="M218.922 198.912C219.371 201.973 218.702 205.094 217.038 207.702" stroke="#263238" stroke-miterlimit="10"/>
<path d="M230.616 208.326C230.743 210.725 230.058 213.096 228.672 215.058" stroke="#263238" stroke-miterlimit="10"/>
<path d="M214.584 150.205C213.862 149.873 213.057 149.762 212.272 149.887C211.487 150.012 210.757 150.367 210.174 150.907L208.62 148.855" stroke="#263238" stroke-miterlimit="10"/>
<path d="M201.648 159.457C200.585 158.83 199.333 158.599 198.116 158.807C196.899 159.014 195.795 159.647 195 160.591" stroke="#263238" stroke-miterlimit="10"/>
<path d="M226.404 176.34C225.732 175.22 224.753 174.317 223.583 173.736C222.414 173.155 221.102 172.922 219.804 173.064" stroke="#263238" stroke-miterlimit="10"/>
<path d="M234.858 188.401C234.813 187.584 234.492 186.807 233.947 186.197C233.401 185.588 232.665 185.182 231.858 185.047" stroke="#263238" stroke-miterlimit="10"/>
<path d="M170.184 224.965L167.49 226.165" stroke="#263238" stroke-miterlimit="10"/>
<path d="M170.88 227.131C170.438 229.215 170.428 231.367 170.85 233.455" stroke="#263238" stroke-miterlimit="10"/>
<path d="M153.186 206.209C151.733 207.359 150.493 208.754 149.52 210.331" stroke="#263238" stroke-miterlimit="10"/>
<path d="M153.846 198C155.82 196.59 158.97 199.752 160.788 198.138C161.508 197.496 161.568 196.38 161.388 195.432C161.208 194.484 160.884 193.524 161.022 192.564" stroke="#263238" stroke-miterlimit="10"/>
<path d="M195.864 227.658C195.918 228.666 195.954 229.674 195.96 230.658" stroke="#263238" stroke-miterlimit="10"/>
<path d="M193.032 210.414C194.238 214.772 195.073 219.224 195.528 223.722" stroke="#263238" stroke-miterlimit="10"/>
<path d="M189.558 201.799C190.572 204.067 191.472 206.365 192.282 208.693" stroke="#263238" stroke-miterlimit="10"/>
</svg>
