<svg width="20" height="19" viewBox="0 0 20 19" fill="none" xmlns="http://www.w3.org/2000/svg">
<g id="Icons/24px/Search">
<g id="zoom split">
<path id="Combined Shape" d="M19.0538 17.5623C19.3321 17.8406 19.3321 18.2917 19.0538 18.57C18.7756 18.8482 18.3244 18.8482 18.0462 18.57L14.6262 15.15C14.3479 14.8717 14.3479 14.4206 14.6262 14.1423C14.9044 13.8641 15.3556 13.8641 15.6338 14.1423L19.0538 17.5623ZM8.28999 15.3587C4.11886 15.3587 0.737488 11.9773 0.737488 7.80616C0.737488 3.63503 4.11886 0.253662 8.28999 0.253662C12.4611 0.253662 15.8425 3.63503 15.8425 7.80616C15.8425 11.9773 12.4611 15.3587 8.28999 15.3587ZM8.28999 13.9337C11.6741 13.9337 14.4175 11.1903 14.4175 7.80616C14.4175 4.42204 11.6741 1.67866 8.28999 1.67866C4.90586 1.67866 2.16249 4.42204 2.16249 7.80616C2.16249 11.1903 4.90586 13.9337 8.28999 13.9337ZM4.77499 7.23616C4.77499 7.4985 4.56232 7.71116 4.29999 7.71116C4.03765 7.71116 3.82499 7.4985 3.82499 7.23616C3.82499 5.08501 5.56884 3.34116 7.71999 3.34116C7.98232 3.34116 8.19499 3.55383 8.19499 3.81616C8.19499 4.0785 7.98232 4.29116 7.71999 4.29116C6.09351 4.29116 4.77499 5.60968 4.77499 7.23616Z" fill="#3C3C3C"/>
</g>
</g>
</svg>
