<svg width="38" height="38" viewBox="0 0 38 38" fill="none" xmlns="http://www.w3.org/2000/svg">
<circle cx="19" cy="19" r="19" fill="#3C3C3C"/>
<path fill-rule="evenodd" clip-rule="evenodd" d="M25 23.08C24.24 23.08 23.56 23.38 23.04 23.85L15.91 19.7C15.96 19.47 16 19.24 16 19C16 18.76 15.96 18.53 15.91 18.3L22.96 14.19C23.5 14.69 24.21 15 25 15C26.66 15 28 13.66 28 12C28 10.34 26.66 9 25 9C23.34 9 22 10.34 22 12C22 12.24 22.04 12.47 22.09 12.7L15.04 16.81C14.5 16.31 13.79 16 13 16C11.34 16 10 17.34 10 19C10 20.66 11.34 22 13 22C13.79 22 14.5 21.69 15.04 21.19L22.16 25.35C22.11 25.56 22.08 25.78 22.08 26C22.08 27.61 23.39 28.92 25 28.92C26.61 28.92 27.92 27.61 27.92 26C27.92 24.39 26.61 23.08 25 23.08Z" fill="white"/>
</svg>
