<svg width="64" height="64" viewBox="0 0 64 64" fill="none" xmlns="http://www.w3.org/2000/svg">
<circle cx="31.8262" cy="32.0615" r="31.6348" fill="#858585"/>
<path d="M43.922 45.0883C43.6429 45.0883 43.4568 44.9953 43.2707 44.8092L19.0794 20.6179C18.7072 20.2457 18.7072 19.6874 19.0794 19.3153C19.4516 18.9431 20.0099 18.9431 20.382 19.3153L44.5733 43.5066C44.9455 43.8787 44.9455 44.437 44.5733 44.8092C44.3872 44.9953 44.2012 45.0883 43.922 45.0883Z" fill="white"/>
<path d="M42.0612 43.5993V19.9662C42.0612 19.594 41.8751 19.3149 41.596 19.1288C41.3168 18.9427 40.9447 18.9427 40.6655 19.1288L29.6864 25.5488H24.0107L42.0612 43.5993Z" fill="white"/>
<path d="M21.7779 25.9209C21.6848 26.107 21.5918 26.2931 21.5918 26.4792V37.6444C21.5918 38.2026 21.964 38.5748 22.5222 38.5748H29.6866L40.6657 44.9948C40.7588 44.9948 40.8518 45.0879 40.8518 45.0879L21.7779 25.9209Z" fill="white"/>
</svg>
