<svg width="300" height="196" viewBox="0 0 300 196" fill="none" xmlns="http://www.w3.org/2000/svg">
<g clip-path="url(#clip0_1173_16563)">
<path d="M280.274 191.814L23.6978 193.156C23.6978 193.156 1.92443 179.357 0.0954665 151.175C-1.36957 128.603 14.5188 120.764 19.8367 103.967C28.8156 75.6047 7.06295 51.035 39.7438 26.0775C62.5187 8.6837 99.83 24.4435 125.489 23.1412C206.537 19.0302 231.792 -17.3832 273.785 32.8325C287.802 49.5949 272.644 87.2473 277.37 109.077C279.146 117.277 290.123 124.428 294.633 131.5C306.945 150.797 296.853 182.357 276.892 193.576L280.274 191.814Z" fill="#F7F7F7"/>
<path d="M214.844 149.277L216.283 152.562L198.866 161.269L214.844 149.277Z" fill="#CDD8FA"/>
<path d="M217.432 156.424L215.994 159.771L199.644 160.865L217.432 156.424Z" fill="#CDD8FA"/>
<path d="M198.866 161.269L226.991 155.762L218.138 151.229L198.866 161.269Z" fill="white"/>
<path d="M214.844 149.277L198.866 161.269L209.337 146.017L214.844 149.277Z" fill="white"/>
<path d="M193.008 192.362C192.881 192.363 192.758 192.321 192.658 192.244C192.558 192.166 192.486 192.058 192.454 191.936C192.423 191.813 192.432 191.684 192.482 191.567C192.532 191.451 192.619 191.355 192.73 191.293C193.531 190.848 194.485 190.378 195.565 189.898C195.635 189.859 195.711 189.835 195.79 189.827C195.869 189.82 195.949 189.829 196.024 189.853C196.099 189.878 196.168 189.919 196.227 189.972C196.286 190.025 196.333 190.09 196.366 190.162C196.398 190.235 196.415 190.313 196.415 190.392C196.416 190.472 196.399 190.55 196.368 190.623C196.336 190.695 196.29 190.761 196.231 190.814C196.173 190.868 196.104 190.909 196.029 190.935C194.98 191.402 194.059 191.857 193.283 192.283C193.2 192.332 193.105 192.36 193.008 192.362ZM198.671 189.797C198.538 189.798 198.408 189.751 198.306 189.666C198.203 189.582 198.133 189.463 198.109 189.332C198.084 189.202 198.106 189.066 198.171 188.95C198.236 188.833 198.339 188.743 198.463 188.695C199.38 188.338 200.367 187.969 201.4 187.61C201.542 187.559 201.699 187.568 201.836 187.633C201.972 187.699 202.077 187.816 202.127 187.958C202.177 188.101 202.169 188.258 202.103 188.394C202.038 188.531 201.921 188.636 201.778 188.686C200.758 189.045 199.782 189.405 198.875 189.758C198.81 189.785 198.741 189.799 198.671 189.801V189.797ZM204.536 187.724C204.4 187.724 204.269 187.675 204.166 187.587C204.063 187.499 203.994 187.377 203.973 187.243C203.952 187.109 203.979 186.971 204.05 186.856C204.121 186.74 204.231 186.653 204.36 186.611C205.316 186.3 206.318 185.989 207.339 185.678C207.483 185.634 207.64 185.649 207.773 185.721C207.907 185.792 208.006 185.913 208.05 186.058C208.094 186.203 208.079 186.359 208.008 186.493C207.937 186.626 207.815 186.726 207.67 186.77C206.656 187.081 205.661 187.392 204.712 187.697C204.655 187.714 204.596 187.723 204.536 187.722V187.724ZM210.49 185.916C210.352 185.916 210.219 185.866 210.115 185.776C210.012 185.686 209.944 185.561 209.925 185.425C209.906 185.288 209.937 185.15 210.012 185.035C210.088 184.92 210.202 184.835 210.334 184.798C211.311 184.52 212.323 184.24 213.341 183.968C213.487 183.929 213.643 183.95 213.774 184.025C213.905 184.101 214 184.225 214.04 184.372C214.079 184.518 214.058 184.673 213.983 184.804C213.907 184.936 213.783 185.031 213.636 185.07C212.623 185.342 211.618 185.62 210.646 185.9C210.595 185.912 210.542 185.917 210.49 185.914V185.916ZM216.503 184.302C216.364 184.302 216.23 184.251 216.126 184.159C216.022 184.067 215.955 183.94 215.938 183.802C215.921 183.665 215.955 183.525 216.033 183.41C216.111 183.296 216.229 183.213 216.363 183.179C217.354 182.927 218.374 182.675 219.391 182.431C219.536 182.4 219.687 182.428 219.812 182.507C219.937 182.587 220.026 182.712 220.061 182.856C220.096 183 220.073 183.152 219.998 183.279C219.922 183.407 219.8 183.5 219.657 183.539C218.644 183.783 217.631 184.034 216.644 184.284C216.596 184.296 216.547 184.301 216.498 184.3L216.503 184.302ZM222.552 182.845C222.411 182.846 222.275 182.795 222.17 182.701C222.065 182.608 221.998 182.479 221.982 182.339C221.966 182.199 222.003 182.058 222.085 181.943C222.167 181.829 222.288 181.749 222.426 181.718C223.255 181.531 224.093 181.342 224.929 181.159C225.107 181.121 225.284 181.081 225.459 181.04C225.605 181.009 225.758 181.037 225.884 181.117C226.01 181.197 226.099 181.323 226.133 181.468C226.167 181.614 226.143 181.767 226.065 181.894C225.988 182.022 225.863 182.114 225.719 182.151L225.173 182.274C224.344 182.455 223.501 182.643 222.685 182.831C222.638 182.841 222.59 182.845 222.543 182.843L222.552 182.845ZM228.584 181.334C228.449 181.334 228.317 181.285 228.214 181.197C228.111 181.109 228.043 180.987 228.021 180.853C228 180.719 228.027 180.581 228.098 180.466C228.169 180.35 228.279 180.263 228.408 180.221C229.39 179.902 230.352 179.54 231.268 179.145C231.406 179.085 231.563 179.083 231.704 179.138C231.845 179.194 231.957 179.304 232.017 179.442C232.077 179.581 232.08 179.738 232.024 179.879C231.968 180.019 231.859 180.132 231.72 180.192C230.771 180.602 229.776 180.976 228.761 181.306C228.702 181.324 228.641 181.333 228.579 181.332L228.584 181.334ZM234.287 178.864C234.161 178.864 234.038 178.823 233.938 178.746C233.837 178.669 233.766 178.56 233.734 178.438C233.702 178.316 233.711 178.187 233.761 178.07C233.81 177.954 233.897 177.858 234.007 177.796C234.893 177.3 235.75 176.755 236.574 176.162C236.697 176.073 236.85 176.037 236.999 176.061C237.148 176.085 237.282 176.168 237.37 176.29C237.459 176.413 237.495 176.566 237.471 176.715C237.447 176.865 237.364 176.998 237.242 177.087C236.382 177.705 235.488 178.274 234.565 178.791C234.476 178.84 234.377 178.864 234.276 178.862L234.287 178.864ZM239.309 175.223C239.195 175.222 239.083 175.188 238.989 175.124C238.894 175.059 238.821 174.968 238.779 174.861C238.737 174.755 238.728 174.638 238.753 174.527C238.779 174.415 238.837 174.314 238.92 174.236C239.659 173.546 240.349 172.807 240.986 172.022C241.033 171.963 241.091 171.914 241.157 171.877C241.223 171.841 241.295 171.818 241.37 171.81C241.445 171.801 241.521 171.808 241.593 171.829C241.665 171.85 241.733 171.886 241.791 171.933C241.85 171.981 241.898 172.039 241.934 172.105C241.97 172.172 241.992 172.244 242 172.319C242.007 172.394 242 172.47 241.978 172.542C241.956 172.614 241.92 172.681 241.872 172.739C241.202 173.566 240.474 174.344 239.695 175.069C239.587 175.169 239.445 175.223 239.299 175.221L239.309 175.223ZM243.194 170.395C243.094 170.395 242.996 170.368 242.909 170.318C242.823 170.267 242.751 170.195 242.701 170.108C242.651 170.021 242.625 169.923 242.625 169.823C242.625 169.723 242.652 169.624 242.702 169.538C243.207 168.669 243.639 167.76 243.992 166.819C244.044 166.677 244.151 166.562 244.289 166.499C244.426 166.437 244.583 166.431 244.725 166.484C244.867 166.536 244.982 166.643 245.045 166.781C245.108 166.919 245.113 167.075 245.061 167.217C244.685 168.219 244.226 169.187 243.688 170.111C243.636 170.198 243.563 170.271 243.474 170.32C243.385 170.37 243.285 170.395 243.184 170.393L243.194 170.395ZM245.344 164.589C245.311 164.589 245.278 164.586 245.245 164.581C245.171 164.568 245.101 164.541 245.037 164.501C244.974 164.46 244.919 164.408 244.876 164.347C244.833 164.286 244.802 164.217 244.786 164.144C244.77 164.071 244.768 163.995 244.781 163.921C244.928 163.076 245.003 162.219 245.004 161.361C245.004 161.22 245.004 161.079 244.997 160.939C244.995 160.864 245.008 160.79 245.034 160.72C245.061 160.65 245.101 160.586 245.152 160.531C245.204 160.476 245.265 160.433 245.334 160.402C245.402 160.371 245.476 160.354 245.55 160.352C245.625 160.35 245.7 160.362 245.77 160.389C245.84 160.415 245.904 160.455 245.959 160.507C246.013 160.558 246.057 160.62 246.088 160.688C246.119 160.756 246.136 160.83 246.138 160.905C246.138 161.057 246.144 161.21 246.144 161.361C246.143 162.285 246.063 163.206 245.905 164.116C245.882 164.25 245.811 164.372 245.707 164.459C245.602 164.546 245.469 164.593 245.333 164.591L245.344 164.589ZM245.148 158.417C245.02 158.417 244.897 158.374 244.797 158.295C244.696 158.217 244.625 158.107 244.595 157.983C244.354 157.015 244.009 156.077 243.564 155.184C243.497 155.048 243.486 154.892 243.534 154.748C243.582 154.605 243.685 154.486 243.82 154.419C243.956 154.351 244.113 154.34 244.256 154.388C244.4 154.436 244.518 154.539 244.586 154.675C245.067 155.641 245.441 156.657 245.701 157.704C245.722 157.788 245.724 157.876 245.706 157.961C245.688 158.046 245.651 158.126 245.598 158.194C245.544 158.262 245.476 158.317 245.398 158.355C245.32 158.393 245.234 158.413 245.148 158.412V158.417ZM216.295 153.129C216.166 153.129 216.041 153.086 215.939 153.006C215.838 152.927 215.767 152.815 215.737 152.689C215.708 152.564 215.722 152.432 215.777 152.316C215.831 152.199 215.924 152.105 216.04 152.047C216.973 151.582 217.936 151.139 218.898 150.733C218.968 150.701 219.042 150.684 219.118 150.683C219.194 150.681 219.27 150.694 219.341 150.722C219.411 150.75 219.476 150.791 219.53 150.844C219.585 150.897 219.628 150.961 219.658 151.031C219.687 151.101 219.702 151.176 219.703 151.252C219.703 151.328 219.688 151.403 219.658 151.473C219.629 151.543 219.586 151.607 219.531 151.66C219.477 151.713 219.413 151.755 219.342 151.783C218.403 152.181 217.462 152.612 216.549 153.069C216.467 153.111 216.376 153.132 216.284 153.132L216.295 153.129ZM242.379 152.906C242.297 152.906 242.215 152.888 242.14 152.853C242.065 152.819 241.998 152.768 241.945 152.705C241.308 151.954 240.568 151.298 239.748 150.753C239.623 150.67 239.536 150.54 239.506 150.392C239.476 150.244 239.506 150.091 239.589 149.965C239.672 149.839 239.801 149.752 239.949 149.721C240.096 149.69 240.25 149.719 240.376 149.802C241.286 150.405 242.106 151.133 242.813 151.965C242.883 152.048 242.929 152.15 242.944 152.258C242.959 152.365 242.942 152.475 242.897 152.574C242.851 152.673 242.778 152.757 242.687 152.816C242.595 152.875 242.488 152.906 242.379 152.906ZM222.012 150.713C221.877 150.712 221.747 150.664 221.645 150.577C221.542 150.49 221.474 150.37 221.452 150.237C221.429 150.105 221.455 149.969 221.523 149.853C221.591 149.737 221.698 149.649 221.825 149.605C222.841 149.251 223.855 148.939 224.839 148.678C224.912 148.658 224.987 148.653 225.061 148.663C225.136 148.673 225.207 148.697 225.272 148.735C225.337 148.772 225.394 148.822 225.44 148.881C225.485 148.941 225.519 149.009 225.538 149.081C225.558 149.153 225.562 149.229 225.553 149.303C225.543 149.377 225.519 149.449 225.481 149.514C225.444 149.579 225.394 149.636 225.334 149.681C225.275 149.727 225.207 149.76 225.135 149.78C224.179 150.034 223.193 150.338 222.203 150.682C222.141 150.703 222.077 150.713 222.012 150.713ZM237.253 149.509C237.192 149.509 237.132 149.499 237.074 149.48C236.125 149.173 235.146 148.966 234.153 148.863C234.006 148.843 233.874 148.766 233.783 148.649C233.692 148.532 233.65 148.384 233.666 148.237C233.682 148.09 233.754 147.954 233.868 147.86C233.982 147.765 234.129 147.719 234.276 147.73C235.349 147.841 236.406 148.065 237.432 148.398C237.56 148.44 237.669 148.527 237.739 148.643C237.81 148.759 237.836 148.896 237.815 149.029C237.794 149.163 237.725 149.285 237.622 149.373C237.519 149.46 237.389 149.509 237.253 149.509ZM228.018 149.135C227.875 149.136 227.736 149.083 227.63 148.986C227.524 148.889 227.458 148.755 227.446 148.612C227.434 148.469 227.477 148.326 227.565 148.213C227.654 148.1 227.782 148.025 227.924 148.002C228.968 147.823 230.022 147.705 231.08 147.649C231.155 147.645 231.23 147.656 231.3 147.682C231.371 147.707 231.436 147.746 231.492 147.796C231.547 147.846 231.592 147.907 231.624 147.975C231.657 148.043 231.675 148.116 231.679 148.191C231.682 148.266 231.671 148.341 231.646 148.411C231.621 148.482 231.582 148.547 231.532 148.602C231.482 148.658 231.421 148.703 231.353 148.735C231.285 148.767 231.212 148.786 231.137 148.79C230.123 148.843 229.114 148.956 228.114 149.128C228.084 149.132 228.054 149.134 228.023 149.134L228.018 149.135Z" fill="#CDD8FA"/>
<path d="M182.851 87.6804L188.657 103.51C188.71 103.653 188.734 103.805 188.728 103.957C188.722 104.11 188.686 104.26 188.622 104.398C188.558 104.537 188.467 104.661 188.355 104.765C188.243 104.868 188.111 104.948 187.968 105.001L160.459 115.09C160.315 115.143 160.163 115.167 160.011 115.16C159.858 115.154 159.709 115.118 159.57 115.054C159.432 114.99 159.307 114.899 159.204 114.787C159.1 114.674 159.02 114.543 158.968 114.399L153.162 98.5702C153.109 98.427 153.085 98.2749 153.091 98.1224C153.097 97.97 153.133 97.8202 153.197 97.6817C153.261 97.5432 153.352 97.4187 153.464 97.3153C153.576 97.2119 153.708 97.1317 153.851 97.0792L181.36 86.9888C181.65 86.8829 181.969 86.8962 182.249 87.0259C182.528 87.1556 182.745 87.391 182.851 87.6804Z" fill="#CDD8FA"/>
<path d="M182.851 87.6801L183.172 88.5552L173.945 102.155C173.514 102.816 172.885 103.323 172.147 103.6C171.409 103.878 170.601 103.913 169.842 103.7L153.349 99.0697L153.167 98.5699C153.114 98.4266 153.09 98.2743 153.096 98.1218C153.102 97.9692 153.139 97.8194 153.203 97.6809C153.267 97.5423 153.358 97.4177 153.47 97.3143C153.582 97.2108 153.714 97.1305 153.857 97.0779L181.364 86.9896C181.653 86.8848 181.971 86.8987 182.25 87.0281C182.529 87.1575 182.745 87.3919 182.851 87.6801Z" fill="white"/>
<path d="M195.407 53.8364L187.838 67.8336C187.77 67.9604 187.677 68.0726 187.565 68.1636C187.454 68.2545 187.325 68.3226 187.187 68.3638C187.049 68.405 186.904 68.4186 186.761 68.4038C186.618 68.389 186.479 68.346 186.352 68.2774L162.034 55.1283C161.908 55.0598 161.796 54.9671 161.705 54.8554C161.614 54.7437 161.546 54.6151 161.505 54.4771C161.464 54.3392 161.45 54.1944 161.465 54.0512C161.48 53.908 161.523 53.7691 161.592 53.6425L169.16 39.6454C169.229 39.5185 169.321 39.4064 169.433 39.3154C169.545 39.2244 169.673 39.1564 169.811 39.1151C169.949 39.0739 170.094 39.0603 170.237 39.0752C170.381 39.09 170.52 39.133 170.646 39.2016L194.963 52.3496C195.09 52.4181 195.202 52.5108 195.293 52.6226C195.384 52.7344 195.452 52.863 195.493 53.0011C195.534 53.1392 195.548 53.284 195.533 53.4273C195.518 53.5706 195.475 53.7097 195.407 53.8364Z" fill="#CDD8FA"/>
<path d="M195.407 53.836L194.992 54.6095L179.608 56.5794C178.872 56.6882 178.12 56.5591 177.462 56.2109C176.805 55.8627 176.276 55.3137 175.952 54.6437L168.918 40.0887L169.156 39.647C169.225 39.5202 169.318 39.4082 169.429 39.3172C169.541 39.2263 169.67 39.1583 169.808 39.1171C169.946 39.0759 170.091 39.0623 170.234 39.0771C170.377 39.0919 170.516 39.1347 170.643 39.2032L194.963 52.3492C195.09 52.4176 195.202 52.5104 195.293 52.6222C195.384 52.734 195.452 52.8626 195.493 53.0007C195.534 53.1387 195.548 53.2836 195.533 53.4269C195.518 53.5702 195.475 53.7092 195.407 53.836Z" fill="white"/>
<path d="M118.962 165.589L116.396 169.791L138.483 184.859L118.962 165.589Z" fill="#CDD8FA"/>
<path d="M114.119 174.834L115.456 179.653L137.5 184.164L114.119 174.834Z" fill="#CDD8FA"/>
<path d="M138.483 184.86L101.236 172.164L114.118 167.634L138.483 184.86Z" fill="white"/>
<path d="M118.961 165.588L138.483 184.859L127.057 162.17L118.961 165.588Z" fill="white"/>
<path d="M291.972 77.91L289.483 74.4138L285.232 74.9436C285.14 74.9549 285.047 74.939 284.964 74.8977C284.88 74.8565 284.811 74.7917 284.764 74.7115C284.718 74.6313 284.695 74.5391 284.7 74.4464C284.705 74.3537 284.738 74.2645 284.793 74.1898L287.351 70.7476L285.532 66.8636C285.493 66.7795 285.479 66.6857 285.492 66.5938C285.506 66.502 285.546 66.4161 285.608 66.3468C285.67 66.2775 285.75 66.228 285.84 66.2043C285.93 66.1806 286.025 66.1838 286.113 66.2135L290.177 67.5821L293.309 64.6521C293.377 64.5887 293.462 64.5466 293.554 64.5311C293.645 64.5156 293.739 64.5272 293.824 64.5647C293.909 64.6021 293.981 64.6637 294.031 64.7417C294.081 64.8197 294.108 64.9107 294.107 65.0035L294.061 69.2919L297.815 71.3655C297.897 71.4103 297.963 71.4781 298.007 71.5605C298.05 71.6428 298.068 71.7361 298.059 71.8286C298.049 71.9211 298.013 72.0088 297.954 72.0808C297.895 72.1528 297.816 72.2058 297.727 72.2333L293.635 73.5138L292.823 77.7254C292.805 77.8165 292.761 77.9003 292.697 77.9666C292.632 78.0329 292.549 78.0787 292.458 78.0983C292.368 78.118 292.273 78.1106 292.187 78.0771C292.1 78.0436 292.026 77.9855 291.972 77.91Z" fill="#CDD8FA"/>
<path d="M22.7853 154.919L20.8236 152.157L17.4602 152.572C17.3873 152.581 17.3136 152.568 17.2479 152.535C17.1823 152.502 17.1277 152.451 17.0908 152.388C17.054 152.324 17.0365 152.252 17.0406 152.178C17.0447 152.105 17.0702 152.035 17.1139 151.976L19.1346 149.261L17.6976 146.193C17.6654 146.127 17.6536 146.052 17.6638 145.979C17.6739 145.905 17.7055 145.837 17.7546 145.781C17.8037 145.726 17.8681 145.686 17.9397 145.667C18.0113 145.648 18.0868 145.651 18.1569 145.675L21.3711 146.756L23.8449 144.442C23.8984 144.392 23.9655 144.358 24.038 144.345C24.1105 144.333 24.185 144.342 24.2524 144.371C24.3198 144.401 24.3769 144.45 24.4168 144.511C24.4566 144.573 24.4773 144.645 24.4764 144.719L24.439 148.107L27.4054 149.746C27.4697 149.781 27.5222 149.835 27.5563 149.9C27.5905 149.965 27.6047 150.038 27.5973 150.111C27.5899 150.184 27.5612 150.254 27.5147 150.31C27.4682 150.367 27.4061 150.409 27.3359 150.431L24.1031 151.443L23.4613 154.771C23.4484 154.844 23.4141 154.912 23.3628 154.965C23.3114 155.019 23.2453 155.056 23.1729 155.071C23.1005 155.087 23.025 155.081 22.956 155.054C22.887 155.027 22.8276 154.98 22.7853 154.919Z" fill="#CDD8FA"/>
<path d="M68.3135 67.6779L64.0448 67.2725L61.6601 70.8392C61.6087 70.9166 61.5356 70.9773 61.45 71.0135C61.3644 71.0498 61.27 71.06 61.1786 71.043C61.0872 71.026 61.0028 70.9824 60.9359 70.9178C60.8691 70.8531 60.8228 70.7703 60.8027 70.6795L59.8695 66.4938L55.7409 65.3315C55.6517 65.3061 55.5719 65.2552 55.5113 65.185C55.4507 65.1147 55.412 65.0283 55.4 64.9363C55.388 64.8444 55.4032 64.7509 55.4436 64.6675C55.4841 64.584 55.5482 64.5143 55.6279 64.4668L59.321 62.2895L59.15 58.0043C59.1463 57.9114 59.17 57.8196 59.218 57.74C59.2661 57.6605 59.3364 57.5968 59.4203 57.5569C59.5041 57.5169 59.5979 57.5025 59.6899 57.5153C59.7819 57.5281 59.8682 57.5676 59.938 57.6289L63.1521 60.4667L67.175 58.9799C67.2621 58.9481 67.3566 58.9425 67.4469 58.9637C67.5372 58.985 67.6193 59.0322 67.683 59.0996C67.7467 59.167 67.7893 59.2515 67.8056 59.3428C67.8218 59.4341 67.8109 59.5282 67.7743 59.6134L66.0687 63.5534L68.7261 66.9189C68.7808 66.9917 68.8134 67.0786 68.8201 67.1694C68.8267 67.2602 68.8071 67.351 68.7636 67.431C68.7202 67.5109 68.6546 67.5767 68.5748 67.6205C68.495 67.6643 68.4043 67.6842 68.3135 67.6779Z" fill="#CDD8FA"/>
<path d="M90.7867 11.3521L88.2589 8.77146L84.7917 9.77615C84.7166 9.79808 84.6367 9.79742 84.5619 9.77427C84.4871 9.75112 84.4208 9.70649 84.3712 9.64594C84.3216 9.58539 84.2908 9.51159 84.2828 9.43371C84.2748 9.35584 84.2899 9.27734 84.3262 9.20797L85.9924 6.01143L83.9654 3.02433C83.92 2.9596 83.8949 2.88285 83.8932 2.80382C83.8914 2.72479 83.9132 2.64703 83.9558 2.5804C83.9983 2.51376 84.0597 2.46126 84.1321 2.42954C84.2045 2.39782 84.2847 2.38832 84.3625 2.40223L87.9219 3.00152L90.1397 0.154386C90.1877 0.0925876 90.2528 0.0462488 90.3269 0.0211311C90.4009 -0.00398652 90.4808 -0.00677663 90.5565 0.0131068C90.6321 0.0329903 90.7003 0.0746698 90.7525 0.132968C90.8046 0.191266 90.8385 0.263612 90.8499 0.341014L91.3839 3.91185L94.7764 5.14256C94.85 5.16905 94.9142 5.21658 94.961 5.27925C95.0078 5.34192 95.0352 5.41695 95.0397 5.49504C95.0442 5.57313 95.0257 5.65084 94.9865 5.71849C94.9472 5.78615 94.889 5.84078 94.8189 5.8756L91.5913 7.4775L91.4762 11.0857C91.4747 11.165 91.4496 11.242 91.4042 11.307C91.3587 11.372 91.2949 11.422 91.221 11.4506C91.147 11.4792 91.0662 11.4851 90.9888 11.4675C90.9115 11.45 90.8411 11.4098 90.7867 11.3521Z" fill="#E3EAFF"/>
<path d="M238.547 64.1383L234.946 63.8811L233.014 66.9294C232.972 66.9958 232.912 67.0485 232.84 67.0808C232.769 67.1132 232.69 67.1238 232.612 67.1113C232.535 67.0988 232.463 67.0637 232.405 67.0106C232.347 66.9574 232.307 66.8884 232.288 66.8123L231.42 63.3078L227.923 62.4109C227.847 62.3916 227.779 62.3503 227.726 62.2924C227.674 62.2345 227.639 62.1623 227.627 62.085C227.615 62.0077 227.626 61.9286 227.659 61.8575C227.692 61.7864 227.745 61.7264 227.811 61.6851L230.876 59.7763L230.648 56.1744C230.643 56.0964 230.661 56.0186 230.7 55.9508C230.739 55.883 230.796 55.828 230.866 55.7928C230.936 55.7576 231.015 55.7436 231.092 55.7527C231.17 55.7617 231.243 55.7933 231.303 55.8436L234.065 58.1682L237.421 56.838C237.494 56.8092 237.573 56.8022 237.65 56.818C237.726 56.8337 237.796 56.8715 237.851 56.9266C237.906 56.9818 237.944 57.0519 237.96 57.1282C237.976 57.2046 237.969 57.2839 237.94 57.3564L236.583 60.7012L238.884 63.482C238.935 63.5422 238.968 63.6162 238.977 63.6946C238.986 63.7731 238.971 63.8525 238.935 63.9228C238.899 63.993 238.843 64.051 238.774 64.0894C238.705 64.1277 238.626 64.1448 238.547 64.1383Z" fill="#CDD8FA"/>
<path d="M134.213 148.41C138.559 146.005 140.137 150.357 138.568 152.597C137.022 155.173 130.989 157.145 131.038 156.752C123.772 145.706 133.02 143.231 134.213 148.41Z" fill="white"/>
<path d="M110.222 129.052C114.568 126.647 116.146 130.999 114.577 133.238C113.031 135.816 106.999 137.788 107.047 137.394C99.7822 126.348 109.03 123.873 110.222 129.052Z" fill="#CDD8FA"/>
<path d="M145.413 62.1536C146.285 57.7129 150.245 59.1655 150.885 61.5751C151.774 64.1671 149.611 69.5275 149.366 69.2621C137.404 67.8479 141.102 59.9472 145.413 62.1536Z" fill="#CDD8FA"/>
<path d="M96.9342 163.828L88.2155 166.628C87.6684 166.803 87.0743 166.754 86.5633 166.491C86.0524 166.229 85.6663 165.775 85.4897 165.228L82.6903 156.509C82.5148 155.962 82.5637 155.368 82.8261 154.857C83.0886 154.346 83.5432 153.961 84.09 153.785L86.1698 153.116C86.2892 153.065 86.418 153.039 86.5478 153.041C86.6777 153.042 86.8058 153.071 86.924 153.124C87.0422 153.178 87.1479 153.256 87.2343 153.353C87.3206 153.45 87.3858 153.564 87.4256 153.688C87.4653 153.811 87.4789 153.942 87.4653 154.071C87.4517 154.2 87.4113 154.325 87.3467 154.438C87.2821 154.551 87.1947 154.649 87.0901 154.725C86.9854 154.802 86.8659 154.857 86.7391 154.885L84.6581 155.553C84.5808 155.579 84.5166 155.634 84.4793 155.707C84.4421 155.779 84.4348 155.863 84.4591 155.941L87.2585 164.66C87.2844 164.737 87.3393 164.801 87.4116 164.838C87.4838 164.875 87.5677 164.882 87.6453 164.858L96.3639 162.059C96.4413 162.033 96.5055 161.978 96.5428 161.905C96.58 161.833 96.5873 161.749 96.563 161.671L93.7636 152.952C93.7379 152.875 93.6831 152.811 93.6108 152.774C93.5385 152.736 93.4545 152.729 93.3768 152.753L91.3923 153.391C91.273 153.442 91.1442 153.467 91.0143 153.466C90.8845 153.465 90.7563 153.436 90.6381 153.382C90.52 153.328 90.4143 153.25 90.3279 153.153C90.2416 153.056 90.1764 152.942 90.1366 152.819C90.0969 152.695 90.0833 152.565 90.0969 152.435C90.1105 152.306 90.1508 152.181 90.2155 152.069C90.2801 151.956 90.3675 151.858 90.4721 151.781C90.5768 151.704 90.6963 151.65 90.8231 151.622L92.8087 150.984C93.3556 150.809 93.9497 150.858 94.4606 151.12C94.9714 151.383 95.3573 151.837 95.5334 152.384L98.3329 161.103C98.5081 161.65 98.4593 162.244 98.1971 162.755C97.9349 163.266 97.4807 163.652 96.9342 163.828Z" fill="#CDD8FA"/>
<path d="M90.1626 148.121L86.7701 145.869C86.6506 145.789 86.5141 145.738 86.3715 145.72C86.2288 145.702 86.0839 145.717 85.9482 145.765C85.8125 145.812 85.6896 145.891 85.5893 145.994C85.4891 146.097 85.4141 146.222 85.3704 146.359L84.1967 150.077C84.1463 150.196 84.1214 150.325 84.1237 150.455C84.1259 150.585 84.1552 150.713 84.2097 150.831C84.2641 150.948 84.3426 151.054 84.44 151.139C84.5375 151.225 84.6517 151.29 84.7755 151.329C84.8993 151.368 85.0299 151.381 85.1589 151.367C85.288 151.352 85.4126 151.311 85.5249 151.246C85.6372 151.181 85.7347 151.093 85.8111 150.988C85.8875 150.883 85.9412 150.764 85.9687 150.637L86.3388 149.465L89.6266 159.698C89.7183 159.911 89.8861 160.082 90.0974 160.178C90.3087 160.275 90.5482 160.288 90.7693 160.217C90.9903 160.146 91.1769 159.996 91.2927 159.794C91.4085 159.593 91.4451 159.356 91.3954 159.129L88.1429 149.006L89.1341 149.664C89.2351 149.745 89.352 149.805 89.4773 149.838C89.6026 149.872 89.7335 149.879 89.8617 149.859C89.9899 149.84 90.1125 149.793 90.2218 149.723C90.3311 149.654 90.4246 149.562 90.4964 149.454C90.5682 149.346 90.6166 149.224 90.6387 149.096C90.6608 148.968 90.6559 148.837 90.6245 148.711C90.5931 148.585 90.5358 148.467 90.4563 148.365C90.3768 148.263 90.2767 148.178 90.1626 148.116V148.121Z" fill="#CDD8FA"/>
<path d="M157.643 175.519C157.643 176.38 157.388 177.222 156.91 177.938C156.431 178.654 155.751 179.212 154.955 179.542C154.16 179.872 153.284 179.958 152.439 179.79C151.594 179.622 150.819 179.207 150.21 178.598C149.601 177.989 149.186 177.213 149.018 176.368C148.85 175.524 148.936 174.648 149.266 173.852C149.595 173.057 150.153 172.376 150.869 171.898C151.586 171.419 152.427 171.164 153.289 171.164C154.444 171.164 155.551 171.623 156.368 172.44C157.185 173.256 157.643 174.364 157.643 175.519Z" fill="white"/>
<path d="M203.679 18.7541C203.679 19.4561 203.471 20.1423 203.081 20.7261C202.691 21.3099 202.137 21.7649 201.489 22.0337C200.84 22.3025 200.126 22.3729 199.438 22.2361C198.749 22.0993 198.117 21.7614 197.62 21.2651C197.124 20.7687 196.786 20.1364 196.649 19.4479C196.512 18.7594 196.582 18.0458 196.851 17.3972C197.119 16.7486 197.574 16.1943 198.158 15.8042C198.741 15.4142 199.428 15.2061 200.13 15.2061C201.071 15.2061 201.973 15.5798 202.639 16.2452C203.304 16.9105 203.678 17.813 203.679 18.7541Z" fill="white"/>
<path d="M159.683 171.114C159.047 171.114 158.426 170.925 157.897 170.572C157.369 170.219 156.957 169.717 156.713 169.13C156.47 168.542 156.406 167.896 156.531 167.273C156.655 166.649 156.961 166.076 157.41 165.627C157.86 165.177 158.432 164.871 159.056 164.747C159.679 164.623 160.326 164.687 160.913 164.93C161.5 165.173 162.002 165.585 162.355 166.114C162.709 166.643 162.897 167.264 162.897 167.9C162.897 168.752 162.558 169.57 161.956 170.172C161.353 170.775 160.535 171.114 159.683 171.114ZM159.683 165.93C159.291 165.93 158.908 166.046 158.583 166.263C158.257 166.481 158.003 166.79 157.853 167.152C157.703 167.514 157.664 167.912 157.741 168.296C157.817 168.681 158.006 169.033 158.283 169.31C158.56 169.587 158.912 169.776 159.297 169.852C159.681 169.929 160.079 169.89 160.441 169.74C160.803 169.59 161.112 169.336 161.33 169.01C161.547 168.685 161.663 168.302 161.663 167.91C161.664 167.65 161.613 167.392 161.513 167.151C161.414 166.91 161.268 166.691 161.084 166.507C160.901 166.323 160.682 166.176 160.442 166.076C160.201 165.976 159.943 165.925 159.683 165.925V165.93Z" fill="white"/>
<path d="M289.936 113.609C288.9 113.609 287.888 113.302 287.026 112.727C286.165 112.151 285.494 111.334 285.097 110.377C284.701 109.42 284.597 108.367 284.799 107.351C285.001 106.335 285.499 105.402 286.232 104.669C286.964 103.937 287.897 103.438 288.913 103.235C289.929 103.033 290.982 103.137 291.939 103.533C292.896 103.93 293.714 104.601 294.29 105.462C294.865 106.323 295.172 107.336 295.172 108.372C295.171 109.76 294.619 111.091 293.637 112.073C292.656 113.055 291.325 113.607 289.936 113.609ZM289.936 105.14C289.297 105.14 288.672 105.329 288.141 105.684C287.609 106.039 287.195 106.544 286.95 107.134C286.705 107.725 286.641 108.375 286.765 109.002C286.89 109.629 287.198 110.205 287.65 110.657C288.102 111.109 288.677 111.417 289.304 111.541C289.931 111.666 290.581 111.602 291.172 111.358C291.762 111.113 292.267 110.699 292.622 110.167C292.978 109.636 293.167 109.011 293.167 108.372C293.166 107.515 292.826 106.694 292.22 106.088C291.614 105.482 290.793 105.141 289.936 105.14Z" fill="#CDD8FA"/>
<path d="M282.33 195.471H18.6526C18.4122 195.471 18.1742 195.423 17.9522 195.331C17.7301 195.239 17.5284 195.104 17.3586 194.934C17.1888 194.764 17.0543 194.562 16.9627 194.339C16.871 194.117 16.8242 193.879 16.8247 193.638C16.8247 193.154 17.0173 192.689 17.3601 192.346C17.7029 192.003 18.1678 191.811 18.6526 191.811H282.33C282.815 191.811 283.28 192.003 283.623 192.346C283.966 192.689 284.158 193.154 284.158 193.638C284.159 193.879 284.112 194.117 284.02 194.339C283.929 194.562 283.794 194.764 283.624 194.934C283.455 195.104 283.253 195.239 283.031 195.331C282.809 195.423 282.571 195.471 282.33 195.471Z" fill="#B0B0B0"/>
<path d="M240.563 65.585H240.558L236.745 65.5995L235.881 74.6064L240.333 76.9569L245.08 74.6334L244.312 65.5995L240.563 65.585Z" fill="#F37A50"/>
<path d="M245.486 66.9766C248.493 68.5184 251.129 63.8734 251.129 63.8734C253.174 64.2716 253.562 62.2321 253.562 62.2321C254.58 62.2912 256.163 61.7624 256.419 59.8733C256.636 58.2735 255.162 57.7997 255.618 56.006C255.984 54.5627 258.244 51.531 253.912 49.6222C253.912 49.6222 254.761 47.0022 252.33 45.3971C249.349 43.4272 247.815 45.0861 246.254 44.9109C244.51 44.7108 241.623 41.9663 239.801 45.4967C239.801 45.4967 237.501 44.7025 235.837 45.9726C234.282 47.1556 234.124 49.3443 234.511 50.3148C234.511 50.3148 232.451 50.2588 231.388 51.8348C230.675 52.8913 230.57 54.5606 231.456 55.7177C231.786 56.1535 232.212 56.5081 232.7 56.7546C233.402 57.1537 232.706 59.1704 233.218 59.8018C234.048 60.8137 235.029 61.6774 236.066 62.4571L245.486 66.9766Z" fill="#2C2858"/>
<path d="M251.04 61.6103C248.693 67.4757 241.739 70.582 237.132 68.7385C232.525 66.895 232.011 60.7995 234.363 54.9342C236.714 49.0689 242.346 45.8101 246.954 47.6525C251.562 49.495 253.387 55.745 251.04 61.6103Z" fill="#F37A50"/>
<path d="M236.67 57.1413C236.572 57.2813 236.435 57.3894 236.277 57.4517C236.118 57.5141 235.944 57.528 235.777 57.4916C235.611 57.4552 235.458 57.3702 235.34 57.2473C235.222 57.1244 235.142 56.9692 235.112 56.8013C235.082 56.6334 235.102 56.4602 235.171 56.3039C235.239 56.1475 235.352 56.0148 235.495 55.9227C235.639 55.8306 235.807 55.7831 235.977 55.7863C236.148 55.7895 236.314 55.8432 236.454 55.9406C236.547 56.0052 236.626 56.0875 236.688 56.1829C236.749 56.2782 236.791 56.3847 236.811 56.4962C236.831 56.6077 236.829 56.7221 236.804 56.8328C236.78 56.9435 236.734 57.0483 236.67 57.1413Z" fill="black"/>
<path d="M242.824 59.4971C242.719 59.6484 242.571 59.7651 242.399 59.8323C242.227 59.8996 242.039 59.9144 241.859 59.8749C241.679 59.8355 241.514 59.7435 241.386 59.6106C241.258 59.4776 241.173 59.3098 241.14 59.1282C241.108 58.9466 241.13 58.7595 241.203 58.5904C241.277 58.4213 241.399 58.2778 241.555 58.1782C241.71 58.0785 241.891 58.0271 242.076 58.0304C242.26 58.0338 242.439 58.0917 242.591 58.1969C242.692 58.2669 242.778 58.356 242.844 58.4593C242.91 58.5625 242.955 58.6779 242.977 58.7986C242.999 58.9194 242.996 59.0432 242.97 59.1631C242.944 59.2829 242.894 59.3964 242.824 59.4971Z" fill="black"/>
<path d="M238.257 58.2363C237.091 59.156 235.632 60.2654 235.632 60.2654C235.632 60.2654 235.616 61.6724 237.26 62.282C236.666 61.7418 236.143 61.0244 236.762 60.1959C237.381 59.3675 238.257 58.2363 238.257 58.2363Z" fill="#DE623C"/>
<path d="M244.524 58.9352C244.559 58.9352 244.593 58.9314 244.627 58.9238C244.738 58.897 244.834 58.8274 244.894 58.7303C244.954 58.6332 244.973 58.5164 244.947 58.4054C244.795 57.7739 244.164 56.5785 242.85 56.5723C242.736 56.5723 242.627 56.6176 242.546 56.6983C242.465 56.779 242.42 56.8884 242.42 57.0025C242.42 57.1167 242.465 57.2261 242.546 57.3068C242.627 57.3875 242.736 57.4328 242.85 57.4328C243.822 57.4328 244.109 58.5941 244.112 58.6055C244.134 58.6983 244.187 58.7811 244.261 58.8408C244.336 58.9005 244.428 58.9337 244.524 58.9352Z" fill="#201D40"/>
<path d="M237.544 55.5168C237.607 55.5171 237.669 55.5006 237.724 55.469C237.779 55.4375 237.825 55.392 237.856 55.3371C237.888 55.2822 237.904 55.22 237.904 55.1567C237.904 55.0934 237.887 55.0312 237.855 54.9766C237.839 54.9497 237.462 54.3182 236.75 54.1866C236.263 54.0964 235.76 54.256 235.255 54.6594C235.18 54.7188 235.132 54.8053 235.122 54.8999C235.111 54.9945 235.139 55.0894 235.198 55.1638C235.257 55.2382 235.344 55.2859 235.439 55.2965C235.533 55.3071 235.628 55.2797 235.702 55.2203C236.038 54.9517 236.346 54.8408 236.619 54.8916C237.007 54.9632 237.234 55.3354 237.241 55.3395C237.272 55.3924 237.317 55.4364 237.37 55.4674C237.422 55.4985 237.483 55.5155 237.544 55.5168Z" fill="#201D40"/>
<path d="M249.895 60.6698C248.599 61.3956 248.029 62.8471 248.627 63.9057C249.226 64.9643 250.756 65.236 252.049 64.5081C253.342 63.7803 253.915 62.3308 253.316 61.2711C252.717 60.2115 251.19 59.9419 249.895 60.6698Z" fill="#F37A50"/>
<path d="M250.092 63.8448C250.049 63.8166 250.014 63.7786 249.989 63.7339C249.633 63.0744 249.691 62.4026 250.145 61.936C250.372 61.7034 250.665 61.547 250.985 61.4885C251.304 61.43 251.634 61.4722 251.928 61.6094C252.005 61.6483 252.064 61.7162 252.09 61.798C252.117 61.8799 252.11 61.969 252.072 62.0459C252.033 62.1228 251.965 62.181 251.883 62.2078C251.801 62.2347 251.712 62.2279 251.635 62.189C251.464 62.1156 251.275 62.0955 251.092 62.1311C250.909 62.1668 250.742 62.2567 250.611 62.3891C250.358 62.6493 250.34 63.0112 250.561 63.4259C250.594 63.4902 250.604 63.5635 250.59 63.6343C250.577 63.7051 250.54 63.7694 250.486 63.8169C250.431 63.8645 250.363 63.8926 250.291 63.8969C250.219 63.9012 250.148 63.8814 250.088 63.8406L250.092 63.8448Z" fill="#DE623C"/>
<path d="M234.674 63.4609C234.652 63.4121 234.645 63.3581 234.654 63.3055C234.663 63.2529 234.687 63.204 234.723 63.1648C234.759 63.1256 234.806 63.0979 234.858 63.0851C234.909 63.0723 234.964 63.075 235.014 63.0928C235.822 63.3835 236.645 63.6285 237.481 63.8269C238.32 64.0088 239.169 64.1427 240.024 64.2281C240.077 64.2337 240.127 64.2547 240.169 64.2885C240.21 64.3224 240.24 64.3677 240.256 64.4187C240.272 64.4697 240.272 64.5242 240.258 64.5755C240.243 64.6268 240.213 64.6725 240.172 64.7071C239.611 65.1893 238.524 65.8673 237.092 65.5428C235.66 65.2183 234.973 64.1379 234.674 63.4609Z" fill="white"/>
<path d="M234.029 51.0029L239.665 47.0629L248.012 45.2412L254.752 57.2684L249.66 62.1021C250.904 58.3954 248.759 58.7189 248.065 57.1886C247.362 55.6385 247.563 53.7671 244.229 54.0895C244.229 54.0895 242.674 51.6457 240.639 53.3036C239.069 54.5861 238.017 53.7681 236.802 53.3565C235.366 52.8702 234.936 54.4265 234.099 54.0231L234.029 51.0029Z" fill="#2C2858"/>
<path d="M233.604 185.29C230.231 189.942 221.951 187.088 222.224 193.377C234.818 193.296 240.051 193.377 240.051 193.377C240.034 191.932 239.785 188.504 239.495 187.156L233.604 185.29Z" fill="black"/>
<path d="M253.462 185.29C250.089 189.942 241.809 187.088 242.083 193.377C254.676 193.296 259.909 193.377 259.909 193.377C259.892 191.932 259.644 188.504 259.353 187.156L253.462 185.29Z" fill="black"/>
<path d="M227.87 112.301C227.87 112.301 224.219 143.747 225.049 150.494C225.88 157.242 230.428 164.803 230.094 187.118C234.2 188.164 240.152 187.118 240.152 187.118C240.152 187.118 241.033 161.881 236.694 150.608C238.456 139.66 244.121 114.581 244.121 114.581L227.87 112.301Z" fill="#201D40"/>
<path d="M235.545 113.23C235.545 113.23 239.673 147.306 241.693 153.77C243.714 160.235 246.472 165.132 250.13 187.119C254.349 187.334 259.461 187.686 259.461 187.686C259.461 187.686 258.892 159.795 252.322 153.453C252.1 142.35 253.385 113.452 253.385 113.452L235.545 113.23Z" fill="#2C2858"/>
<path d="M253.615 74.4362C253.615 74.4362 247.928 72.8323 245.01 73.8608C237.234 76.6073 235.876 73.8608 235.876 73.8608C233.271 73.2822 227.115 73.2822 227.115 73.2822C226.335 83.6816 225.042 116.939 225.042 116.939C225.042 116.939 232.946 119.013 240.425 119.065C247.904 119.017 255.515 117.023 255.515 117.023C255.515 117.023 253.615 82.4177 253.615 74.4362Z" fill="#3F964F"/>
<path d="M227.118 73.2828L198.871 63.2266L194.47 69.8788L226.388 85.6677L227.118 73.2828Z" fill="#0E6A41"/>
<path d="M74.8249 87.7475C79.558 86.0989 89.6162 81.0206 84.851 74.1723C80.0857 67.3241 78.0618 70.193 79.8939 61.9605C81.726 53.7281 75.9291 47.1692 70.3167 48.7503C64.7044 50.3315 63.2259 54.8438 56.3807 53.6234C49.5356 52.4031 43.7646 58.7516 46.282 64.3452C48.7994 69.9389 49.8757 72.6264 47.4277 75.6788C44.9798 78.7312 34.0671 81.9288 38.5224 89.3546C42.9776 96.7803 45.0617 96.3501 43.4453 100.114C41.8288 103.877 45.4152 108.222 51.7264 107.703C58.0376 107.185 63.7723 104.863 66.1622 97.8483C68.552 90.8331 74.8249 87.7475 74.8249 87.7475Z" fill="#1C1C1C"/>
<path d="M87.1941 74.7389C87.7488 76.319 92.7453 77.1951 93.1237 76.7482C95.7749 69.9404 92.9817 56.5871 92.9817 56.5871L90.4933 55.458C90.4933 55.458 89.6275 65.7973 87.1941 74.7389Z" fill="#F37A50"/>
<path d="M74.7584 88.0101C79.4158 86.5223 92.6084 78.1779 93.1973 76.5107L87.6793 73.5547C87.6793 73.5547 72.6453 80.2329 70.2077 81.4615C65.9816 83.5808 67.1584 90.4519 74.7584 88.0101Z" fill="#F37A50"/>
<path d="M78.7098 102.462C78.7098 98.4707 82.1696 92.4882 80.5107 88.4581C79.3028 85.2159 77.2852 79.7736 74.8134 78.8653C73.6469 78.4361 72.4483 78.1395 70.9958 77.7362C70.9958 77.7362 71.4468 80.3926 69.7391 80.5305C66.4513 80.7938 64.7229 76.5781 64.7229 76.5781C62.95 76.4091 54.8793 79.0457 54.4988 80.3407C54.5185 85.5715 59.0909 92.6095 60.4802 98.2633C61.0266 104.371 59.7223 107.631 59.7151 108.321C59.7151 108.321 71.2601 112.179 79.0146 107.906C79.0146 107.915 78.7098 105.159 78.7098 102.462Z" fill="#E62552"/>
<path d="M69.4415 73.1254L64.3486 72.3623L64.6089 76.5708C64.6089 76.5708 66.0013 81.2189 68.8972 81.2842C71.7931 81.3495 70.9957 77.7362 70.9957 77.7362L69.4415 73.1254Z" fill="#F37A50"/>
<path d="M59.6363 66.2894C60.951 71.7846 65.5131 75.3948 69.8252 74.3621C74.1374 73.3294 76.5646 68.0375 75.2541 62.5495C73.9435 57.0616 69.3773 53.4441 65.0641 54.4768C60.7509 55.5095 58.3216 60.7983 59.6363 66.2894Z" fill="#F37A50"/>
<path d="M73.2322 63.9929C73.3005 64.1292 73.4076 64.2422 73.5401 64.3176C73.6725 64.3931 73.8243 64.4276 73.9763 64.4169C74.1284 64.4061 74.2738 64.3506 74.3943 64.2572C74.5148 64.1639 74.605 64.0369 74.6534 63.8924C74.7018 63.7479 74.7063 63.5923 74.6664 63.4452C74.6264 63.2981 74.5438 63.1661 74.4289 63.066C74.314 62.9658 74.172 62.9019 74.0209 62.8824C73.8697 62.8628 73.7162 62.8885 73.5796 62.9561C73.4886 63.0013 73.4075 63.064 73.3408 63.1406C73.2741 63.2172 73.2231 63.3062 73.1909 63.4025C73.1586 63.4988 73.1457 63.6005 73.1528 63.7018C73.1599 63.8031 73.1869 63.9021 73.2322 63.9929Z" fill="black"/>
<path d="M67.175 65.4864C67.2486 65.6341 67.3644 65.7566 67.5077 65.8385C67.651 65.9205 67.8153 65.958 67.9799 65.9466C68.1446 65.9351 68.3021 65.8751 68.4327 65.7741C68.5632 65.6731 68.6609 65.5357 68.7133 65.3792C68.7658 65.2227 68.7706 65.0542 68.7273 64.8949C68.684 64.7357 68.5945 64.5928 68.47 64.4845C68.3456 64.3761 68.1917 64.307 68.028 64.2861C67.8643 64.2651 67.6981 64.2931 67.5503 64.3666C67.3522 64.4654 67.2013 64.6389 67.131 64.8488C67.0606 65.0588 67.0764 65.2881 67.175 65.4864Z" fill="black"/>
<path d="M66.2522 64.7952C66.3112 64.7659 66.3584 64.7172 66.3859 64.6573C66.8007 63.7553 67.935 63.579 67.9464 63.577C68.0203 63.5636 68.0861 63.5221 68.1301 63.4611C68.174 63.4002 68.1926 63.3247 68.182 63.2503C68.1714 63.176 68.1324 63.1086 68.0732 63.0624C68.014 63.0162 67.9392 62.9947 67.8645 63.0025C67.8054 63.0108 66.4129 63.2203 65.8592 64.4137C65.8341 64.4682 65.8264 64.5293 65.8374 64.5884C65.8484 64.6475 65.8775 64.7017 65.9206 64.7436C65.9637 64.7855 66.0188 64.8129 66.0782 64.8222C66.1376 64.8314 66.1984 64.822 66.2522 64.7952Z" fill="#2C2858"/>
<path d="M74.915 62.875C74.9433 62.8604 74.9692 62.8415 74.9918 62.819C75.0194 62.792 75.0413 62.7597 75.0562 62.7241C75.0712 62.6885 75.0789 62.6503 75.0789 62.6117C75.0789 62.573 75.0712 62.5348 75.0562 62.4992C75.0413 62.4636 75.0194 62.4313 74.9918 62.4043C74.7302 62.1473 74.4042 61.9655 74.048 61.8781C73.6919 61.7907 73.3187 61.8009 72.9679 61.9077C72.895 61.9327 72.8351 61.9856 72.8012 62.0549C72.7674 62.1241 72.7625 62.2039 72.7875 62.2768C72.8125 62.3496 72.8654 62.4096 72.9347 62.4434C73.0039 62.4773 73.0837 62.4822 73.1566 62.4572C73.4049 62.3846 73.6681 62.3797 73.9189 62.4429C74.1697 62.5062 74.3991 62.6353 74.5833 62.817C74.6259 62.8595 74.6806 62.888 74.74 62.8983C74.7994 62.9087 74.8605 62.9006 74.915 62.875Z" fill="#2C2858"/>
<path d="M72.7366 65.6696C73.1596 66.105 73.5308 66.554 73.9352 66.8101C74.0003 66.8527 74.0471 66.9182 74.0663 66.9936C74.0855 67.0691 74.0757 67.149 74.0389 67.2176C73.7123 67.7961 72.7594 68.2731 72.1726 68.5209C72.1547 68.5284 72.1347 68.5293 72.1161 68.5235C72.0976 68.5177 72.0817 68.5054 72.0714 68.489C72.0611 68.4725 72.0569 68.4529 72.0597 68.4337C72.0624 68.4145 72.072 68.3968 72.0865 68.384C72.6765 67.8656 72.9295 67.4861 73.0363 67.2777C73.0621 67.2264 73.0755 67.1698 73.0755 67.1123C73.0755 67.0549 73.0621 66.9982 73.0363 66.9469C72.9149 66.7085 72.6744 66.2212 72.5116 65.8178C72.4989 65.7883 72.497 65.7553 72.5063 65.7245C72.5155 65.6938 72.5352 65.6672 72.5621 65.6495C72.5889 65.6319 72.6211 65.6242 72.653 65.6278C72.6849 65.6315 72.7145 65.6463 72.7366 65.6696Z" fill="#DE623C"/>
<path d="M61.711 66.3248C62.7592 67.1398 63.0682 68.496 62.4005 69.3534C61.7328 70.2109 60.3434 70.2461 59.2952 69.4301C58.247 68.6142 57.939 67.259 58.6057 66.4016C59.2724 65.5441 60.6638 65.5099 61.711 66.3248Z" fill="#F37A50"/>
<path d="M61.1147 69.1045C61.1555 69.0847 61.191 69.0555 61.2184 69.0194C61.6207 68.4844 61.658 67.8789 61.3221 67.4103C61.1529 67.1744 60.9144 66.997 60.6398 66.9028C60.3652 66.8086 60.068 66.8022 59.7896 66.8846C59.7518 66.8952 59.7166 66.9134 59.686 66.938C59.6555 66.9627 59.6302 66.9932 59.6118 67.0279C59.5934 67.0625 59.5822 67.1006 59.5789 67.1397C59.5756 67.1788 59.5803 67.2182 59.5926 67.2554C59.605 67.2927 59.6247 67.3271 59.6508 67.3565C59.6768 67.3859 59.7085 67.4097 59.7439 67.4265C59.7794 67.4433 59.8179 67.4527 59.8571 67.4542C59.8963 67.4557 59.9355 67.4492 59.9721 67.4352C60.1328 67.3931 60.3024 67.4003 60.459 67.4558C60.6156 67.5112 60.7519 67.6124 60.8503 67.7462C61.039 68.0085 61.0058 68.3362 60.757 68.6669C60.7175 68.7192 60.6969 68.7833 60.6984 68.8488C60.7 68.9143 60.7237 68.9773 60.7656 69.0277C60.8075 69.078 60.8652 69.1127 60.9294 69.126C60.9935 69.1394 61.0603 69.1307 61.1188 69.1014L61.1147 69.1045Z" fill="#DE623C"/>
<path d="M67.9693 70.0486C67.9418 70.0124 67.9257 69.9689 67.9228 69.9235C67.92 69.8781 67.9305 69.8329 67.9532 69.7936C67.9759 69.7542 68.0097 69.7224 68.0503 69.7021C68.091 69.6818 68.1367 69.6739 68.1818 69.6795C69.627 69.8726 71.0914 69.8726 72.5365 69.6795C72.5815 69.6744 72.6269 69.6826 72.6673 69.703C72.7077 69.7234 72.7412 69.7552 72.7638 69.7944C72.7863 69.8336 72.797 69.8785 72.7944 69.9237C72.7917 69.9688 72.776 70.0122 72.7491 70.0486C72.3748 70.5525 71.6023 71.3177 70.3571 71.3177C69.1119 71.3177 68.3425 70.5525 67.9693 70.0486Z" fill="white"/>
<path d="M59.5296 65.8044C64.6774 65.1149 71.8803 59.8706 72.4702 57.179C71.4769 53.9462 66.1694 52.3183 63.174 53.8186C60.1786 55.3189 57.3491 61.7358 59.5296 65.8044Z" fill="#1C1C1C"/>
<path d="M74.209 180.168C73.8689 176.767 75.6232 150.881 75.6232 150.881C80.5865 128.124 78.6373 111.832 78.6373 111.832L70.1063 112.431L66.7449 125.288L68.3395 146.773C68.3395 146.773 67.7402 148.426 67.425 149.748C65.7122 156.917 67.4178 165.485 68.4722 171.196C68.9616 173.842 69.7216 179.403 69.7413 180.667L67.5982 183.437C67.5982 183.437 75.3547 192.021 76.5481 192.075C78.8664 192.179 78.1831 189.883 78.1831 189.883C74.9959 186.605 74.3075 181.142 74.209 180.168Z" fill="#F37A50"/>
<path d="M67.4653 186.476L67.8925 191.991L68.8837 192.035L69.3855 186.913C72.0232 187.587 73.9134 192.375 73.9134 192.375C75.7309 193.028 80.351 193.474 81.9955 192.627C82.3915 191.016 78.1768 189.886 78.1768 189.886C77.7953 190.337 75.5453 190.682 74.746 190.197C71.8034 187.692 70.3685 184.05 69.7412 180.658C69.7412 180.663 65.092 180.989 67.4653 186.476Z" fill="black"/>
<path d="M71.3244 113.491L59.3076 111.832C54.7103 122.232 53.2121 140.345 51.9637 146.793C46.9548 155.191 45.3643 180.662 45.3643 180.662L43.2212 183.432C43.2212 183.432 50.9767 192.016 52.1701 192.07C54.4894 192.174 53.8062 189.878 53.8062 189.878C50.6179 186.604 49.9969 182.255 49.7905 181.298C49.4795 179.86 59.517 151.604 59.517 151.604L60.5901 148.924C72.8496 128.675 74.861 113.368 74.861 113.368L71.3244 113.491Z" fill="#F37A50"/>
<path d="M43.0885 186.476L43.5147 191.991L44.5059 192.035L45.0077 186.913C47.6464 187.587 49.5366 192.375 49.5366 192.375C51.3541 193.028 55.9732 193.474 57.6176 192.627C58.0147 191.016 53.799 189.886 53.799 189.886C53.4185 190.337 51.1675 190.682 50.3692 190.197C47.4266 187.692 45.9917 184.05 45.3644 180.658C45.3644 180.663 40.7142 180.989 43.0885 186.476Z" fill="black"/>
<path d="M48.9829 145.612C50.1825 141.596 49.6859 113.295 60.2843 105.479L78.4869 106.959C82.7006 113.779 81.1546 131.525 79.7363 146.128C71.1658 149.19 64.3487 150.418 48.9829 145.612Z" fill="#E62552"/>
<path d="M234.388 32.8844L87.3115 10.2471L77.1437 76.3083L224.221 98.9456L234.388 32.8844Z" fill="white"/>
<path d="M225.725 38.6579L217.696 90.8269L85.811 70.531L93.8412 18.3619L225.726 38.6579H225.725ZM229.178 36.1249L226.185 35.6635L94.3005 15.3686L91.3062 14.9072L90.8458 17.9016L82.8197 70.0706L82.3635 73.064L85.3579 73.5254L217.242 93.8213L220.236 94.2816L220.697 91.2883L228.725 39.1182L229.186 36.1249H229.178Z" fill="#95A6DB"/>
<path d="M149.16 75.2325L90.6322 66.2256C90.4688 66.2006 90.3119 66.1436 90.1706 66.0579C90.0292 65.9722 89.9061 65.8595 89.8083 65.7263C89.7104 65.593 89.6398 65.4418 89.6004 65.2813C89.5611 65.1207 89.5537 64.954 89.5788 64.7906C89.6296 64.4606 89.8094 64.1642 90.0787 63.9667C90.348 63.7691 90.6847 63.6866 91.0148 63.7372L149.544 72.7441C149.874 72.7952 150.17 72.9751 150.367 73.2444C150.564 73.5136 150.647 73.8502 150.596 74.1801C150.571 74.3435 150.514 74.5004 150.428 74.6417C150.342 74.783 150.229 74.9061 150.096 75.0038C149.963 75.1015 149.811 75.172 149.651 75.2113C149.49 75.2505 149.323 75.2577 149.16 75.2325Z" fill="#95A6DB"/>
<path d="M212.523 84.9846L181.936 80.2774C181.606 80.2265 181.31 80.0467 181.112 79.7775C180.915 79.5082 180.832 79.1715 180.883 78.8414C180.934 78.5115 181.114 78.2154 181.383 78.0181C181.652 77.8207 181.989 77.7384 182.319 77.789L212.905 82.4962C213.069 82.5214 213.225 82.5785 213.367 82.6643C213.508 82.7501 213.631 82.8628 213.729 82.9962C213.827 83.1296 213.897 83.2808 213.936 83.4414C213.976 83.602 213.983 83.7688 213.958 83.9322C213.907 84.262 213.727 84.5581 213.458 84.7555C213.189 84.9528 212.852 85.0352 212.523 84.9846Z" fill="#95A6DB"/>
<path d="M101.948 82.1228C100.798 81.9652 99.548 81.3286 98.6304 82.0066L97.1094 79.3368C99.6538 76.6348 104.394 76.4938 104.867 76.5457C106.097 76.6815 106.682 76.6691 106.745 76.8495C106.807 77.0299 106.888 78.1652 105.092 78.0242C102.839 77.849 103.951 79.8998 108.747 79.118C109.948 78.9231 111.942 79.8874 111.018 80.552C109.998 81.284 107.181 82.8423 101.948 82.1228Z" fill="#F37A50"/>
<path d="M78.9803 87.9855C77.8979 89.5293 80.3686 94.673 81.026 94.7249C88.9909 92.6906 99.3778 81.3871 99.3778 81.3871L98.7827 78.373C98.7827 78.373 88.7566 84.3493 78.9803 87.9855Z" fill="#F37A50"/>
<path d="M57.5677 88.1921C62.3548 90.9035 79.3277 95.4251 81.1546 94.6381L79.3795 87.822C79.3795 87.822 62.3755 80.5082 59.5004 79.4309C54.5164 77.5491 49.7438 83.7753 57.5677 88.1921Z" fill="#F37A50"/>
<path d="M205.059 96.8595C206.322 96.8719 208.911 95.8745 209.793 96.7496L211.037 93.9782C207.683 91.9366 204.401 90.3327 202.812 90.3938C201.464 90.4446 200.842 90.2373 200.738 90.4218C200.635 90.6064 200.375 91.8143 202.33 91.9491C204.783 92.1181 203.263 94.1492 198.224 92.5453C196.961 92.144 194.661 92.8656 195.551 93.7272C196.529 94.678 199.318 96.7983 205.059 96.8595Z" fill="#F37A50"/>
<path d="M232.873 93.2999C234.674 94.2807 234.714 101.937 234.1 102.307C225.353 104.173 208.553 97.9884 208.553 97.9884L209.647 92.8115C209.647 92.8115 221.588 94.4808 232.873 93.2999Z" fill="#0E6A41"/>
<path d="M254.678 84.3563C251.322 89.3113 241.261 101.127 234.1 102.305L232.404 93.33C232.404 93.33 241.443 79.6439 247.727 75.5474C251.677 71.312 260.173 76.2784 254.678 84.3563Z" fill="#0E6A41"/>
<path d="M157.332 103.642L154.573 97.9984C153.836 96.4918 151.059 98.2348 151.79 99.7319L154.549 105.375C155.287 106.879 158.063 105.135 157.332 103.642Z" fill="#E62552"/>
<path d="M155.051 126.354C154.906 124.809 154.761 123.263 154.617 121.716C154.501 120.471 151.281 120.739 151.396 121.969L151.831 126.607C151.947 127.846 155.168 127.584 155.051 126.354Z" fill="#3F964F"/>
<path d="M237.975 24.3331L231.763 25.2663C230.104 25.5151 230.934 28.6878 232.579 28.441L238.791 27.5079C240.45 27.258 239.623 24.0853 237.975 24.3331Z" fill="#E62552"/>
<path d="M187.631 105.098C186.905 101.956 185.314 99.3062 183.005 97.1372C181.944 96.1398 179.948 98.2507 181.003 99.2419C183.009 101.125 184.309 103.511 184.943 106.227C185.278 107.677 187.966 106.544 187.631 105.098Z" fill="#F5A3B7"/>
<path d="M108.823 9.33384C106.873 6.76458 104.344 4.99263 101.351 3.95581C99.974 3.48405 99.0139 6.22024 100.384 6.69822C102.983 7.59819 105.143 9.24363 106.829 11.4676C107.729 12.6475 109.72 10.5148 108.823 9.33384Z" fill="#F5A3B7"/>
<path d="M207.548 105.372C206.209 105.317 206.064 107.492 207.408 107.549C209.288 107.626 210.862 108.586 211.919 110.2C212.677 111.357 214.24 109.911 213.489 108.765C212.841 107.767 211.963 106.938 210.93 106.348C209.896 105.758 208.737 105.423 207.548 105.372Z" fill="#E62552"/>
<path d="M215.046 18.2495C213.315 16.7285 212.629 14.3873 213.376 11.958C213.821 10.5065 211.567 10.0202 211.119 11.479C210.131 14.6932 210.847 17.9074 213.18 19.9551C214.223 20.8716 216.098 19.1744 215.046 18.2495Z" fill="#3F964F"/>
<path d="M211.627 120.601C213.529 121.599 215.025 123.224 215.863 125.201C216.307 126.256 218.015 125.71 217.57 124.652C216.551 122.233 214.749 120.285 212.377 119.025C211.345 118.475 210.591 120.052 211.627 120.601Z" fill="#F5A3B7"/>
<path d="M193.395 123.652C193.054 126.273 191.815 128.695 189.889 130.505C188.86 131.466 190.218 133.2 191.249 132.241C193.609 130.033 195.085 127.123 195.534 123.843C195.728 122.408 193.588 122.218 193.395 123.652Z" fill="#3F964F"/>
<path d="M37.6121 54.9649C35.2699 52.5563 30.9867 53.5133 29.1173 56.487C28.2982 57.7892 30.3315 58.685 31.1454 57.389C32.2496 55.6357 34.7981 55.5009 36.0475 56.7845C37.0377 57.8027 38.5971 55.9768 37.6121 54.9649Z" fill="white"/>
<path d="M112.777 88.1922C111.222 90.3146 108.935 90.9409 106.787 90.0585C105.491 89.5256 105.128 92.2898 106.411 92.8175C109.295 94.0005 112.321 92.8745 114.371 90.0813C115.303 88.8143 113.703 86.9315 112.777 88.1922Z" fill="#E62552"/>
<path d="M39.1186 28.16C37.8837 28.33 38.2062 30.8786 39.439 30.7106C41.8444 30.3819 44.1358 31.4156 45.9409 33.4323C46.8803 34.4826 48.0146 32.3083 47.0814 31.2684C44.8647 28.7925 42.031 27.7629 39.1186 28.16Z" fill="#3F964F"/>
<path d="M25.2934 127.489C24.6713 128.572 26.886 129.873 27.507 128.795C28.718 126.691 30.9369 125.511 33.6326 125.316C35.0385 125.213 34.011 122.989 32.6186 123.089C29.308 123.329 26.7615 124.938 25.2934 127.489Z" fill="#3F964F"/>
<path d="M113.55 115.98C110.551 116.793 108.799 119.307 109.021 122.615C109.111 123.963 111.396 124.626 111.302 123.265C111.131 120.713 112.405 118.752 114.737 118.121C115.972 117.781 114.785 115.641 113.55 115.98Z" fill="#E62552"/>
<path d="M11.7399 81.9628C8.84299 81.7554 7.21309 79.8995 7.5003 76.9673C7.65271 75.4121 4.78277 76.5143 4.63035 78.0664C4.26124 81.8384 6.30276 84.3672 10.055 84.6295C11.5895 84.7373 13.2837 82.0758 11.7399 81.9628Z" fill="#ABBDF5"/>
<path d="M176.354 146.438C173.457 146.231 171.827 144.375 172.114 141.443C172.267 139.888 169.397 140.99 169.244 142.542C168.875 146.314 170.916 148.844 174.669 149.105C176.204 149.213 177.898 146.546 176.354 146.438Z" fill="white"/>
<path d="M266.785 73.1755C265.437 70.6042 266.163 68.2392 268.807 66.9421C270.206 66.2568 267.763 64.3926 266.362 65.0758C262.959 66.7441 261.881 69.81 263.631 73.1403C264.346 74.5068 267.505 74.5452 266.785 73.1755Z" fill="white"/>
<path d="M138.505 98.4719C137.948 95.7119 138.581 92.873 140.164 90.4603C140.935 89.2783 139.01 88.3131 138.242 89.4899C136.376 92.3333 135.712 95.8006 136.397 99.1324C136.662 100.474 138.773 99.8053 138.505 98.4719Z" fill="#F5A3B7"/>
<path d="M90.5948 128.178C91.6379 125.563 93.7178 123.537 96.3596 122.372C97.6515 121.803 96.567 119.944 95.2823 120.506C92.1644 121.867 89.7131 124.408 88.4652 127.573C87.9623 128.848 90.092 129.441 90.5948 128.178Z" fill="white"/>
<path d="M274.189 23.4941C272.035 24.9001 270.048 26.5476 268.267 28.4045C267.093 29.6134 268.768 31.6995 269.932 30.4999C271.571 28.8145 273.398 27.3218 275.375 26.0509C276.728 25.1799 275.537 22.6221 274.189 23.4941Z" fill="#F5A3B7"/>
<path d="M186.357 15.1599C184.203 16.5672 182.215 18.2157 180.434 20.0734C179.26 21.2824 180.935 23.3685 182.099 22.1699C183.738 20.4839 185.564 18.9909 187.542 17.7198C188.891 16.8489 187.705 14.291 186.357 15.1599Z" fill="#E62552"/>
<path d="M227.362 5.79297C226.313 5.79297 225.463 6.67427 225.463 7.76294C225.463 8.85161 226.313 9.73292 227.362 9.73292C228.411 9.73292 229.259 8.85161 229.259 7.76294C229.259 6.67427 228.41 5.79297 227.362 5.79297Z" fill="#3F964F"/>
<path d="M28.3013 99.6232C27.2873 98.7429 25.844 98.8103 25.0768 99.7756C24.3095 100.741 24.5086 102.238 25.5216 103.123C26.5346 104.007 27.9778 103.936 28.7461 102.971C29.5144 102.006 29.3143 100.505 28.3013 99.6232Z" fill="#3F964F"/>
<path d="M140.584 120.521C140.336 120.335 140.054 120.203 139.753 120.131C139.452 120.06 139.14 120.05 138.836 120.103C138.532 120.157 138.241 120.272 137.983 120.441C137.725 120.611 137.504 120.832 137.334 121.09C136.974 121.619 136.83 122.265 136.931 122.897C137.033 123.528 137.372 124.097 137.879 124.487C138.126 124.673 138.409 124.805 138.709 124.877C139.01 124.949 139.322 124.958 139.626 124.905C139.93 124.852 140.221 124.737 140.479 124.567C140.737 124.398 140.958 124.177 141.128 123.919C141.488 123.39 141.632 122.744 141.531 122.112C141.429 121.48 141.091 120.911 140.584 120.521Z" fill="white"/>
<path d="M216.672 135.899C216.425 135.714 216.142 135.582 215.841 135.51C215.541 135.438 215.229 135.429 214.924 135.482C214.62 135.536 214.33 135.651 214.072 135.82C213.813 135.99 213.592 136.211 213.423 136.469C213.063 136.998 212.919 137.644 213.02 138.276C213.121 138.907 213.46 139.476 213.967 139.866C214.214 140.051 214.497 140.184 214.797 140.256C215.098 140.328 215.41 140.337 215.714 140.284C216.019 140.231 216.309 140.116 216.567 139.946C216.826 139.777 217.046 139.556 217.216 139.298C217.963 138.202 217.719 136.681 216.672 135.899Z" fill="white"/>
<path d="M174.248 108.825C174.001 108.64 173.718 108.507 173.417 108.435C173.117 108.363 172.805 108.354 172.5 108.407C172.196 108.46 171.905 108.575 171.647 108.745C171.388 108.914 171.168 109.135 170.998 109.393C170.251 110.488 170.495 112.01 171.542 112.791C171.789 112.976 172.072 113.109 172.373 113.18C172.673 113.252 172.985 113.262 173.29 113.209C173.594 113.156 173.885 113.041 174.143 112.871C174.401 112.701 174.622 112.481 174.792 112.223C175.539 111.127 175.295 109.605 174.248 108.825Z" fill="#E62552"/>
<path d="M263.177 98.9071C262.089 98.8625 261.971 100.63 263.063 100.675C264.59 100.737 265.87 101.515 266.728 102.827C267.344 103.768 268.613 102.593 268.003 101.662C267.477 100.851 266.764 100.178 265.924 99.6991C265.085 99.2199 264.143 98.9483 263.177 98.9071Z" fill="#E62552"/>
<path d="M268.83 126.737C268.553 128.866 267.547 130.834 265.982 132.305C265.146 133.085 266.249 134.5 267.087 133.716C269.004 131.922 270.208 129.557 270.569 126.895C270.726 125.732 268.993 125.576 268.83 126.737Z" fill="#E62552"/>
<path d="M89.131 105.218C87.6579 106.78 85.6887 107.783 83.559 108.056C82.4237 108.199 82.489 109.992 83.6264 109.848C86.232 109.519 88.5929 108.31 90.4467 106.365C91.2565 105.516 89.9397 104.367 89.131 105.218Z" fill="#3F964F"/>
<path d="M261.618 121.647C261.417 121.497 261.188 121.389 260.943 121.331C260.699 121.272 260.446 121.265 260.198 121.308C259.951 121.351 259.715 121.445 259.505 121.583C259.295 121.721 259.116 121.9 258.978 122.11C258.685 122.54 258.568 123.065 258.65 123.578C258.732 124.091 259.007 124.554 259.419 124.871C259.62 125.021 259.85 125.129 260.094 125.188C260.339 125.246 260.592 125.254 260.84 125.21C261.087 125.167 261.323 125.074 261.533 124.936C261.743 124.798 261.922 124.618 262.06 124.408C262.353 123.979 262.47 123.453 262.388 122.94C262.306 122.427 262.03 121.964 261.618 121.647Z" fill="#F5A3B7"/>
<path d="M274.457 86.2699C274.256 86.1196 274.026 86.012 273.782 85.9536C273.537 85.8953 273.284 85.8876 273.036 85.9309C272.789 85.9742 272.553 86.0677 272.343 86.2055C272.133 86.3433 271.954 86.5226 271.816 86.7324C271.524 87.1623 271.407 87.6876 271.489 88.2008C271.571 88.714 271.847 89.1764 272.259 89.4935C272.46 89.6439 272.689 89.7517 272.933 89.8101C273.178 89.8684 273.431 89.8762 273.678 89.8329C273.926 89.7896 274.162 89.6961 274.371 89.5582C274.581 89.4203 274.76 89.2409 274.898 89.031C275.191 88.6013 275.308 88.076 275.226 87.5628C275.144 87.0495 274.869 86.587 274.457 86.2699Z" fill="#3F964F"/>
<path d="M23.449 31.1772C23.1319 31.0164 22.7855 30.9218 22.4308 30.899C22.076 30.8762 21.7203 30.9257 21.3853 31.0446C21.0502 31.1635 20.7429 31.3492 20.4818 31.5905C20.2208 31.8318 20.0115 32.1237 19.8667 32.4484C19.5687 33.1181 19.54 33.8769 19.7865 34.5673C20.033 35.2577 20.5359 35.8266 21.1908 36.1561C21.5076 36.316 21.8536 36.41 22.2077 36.4324C22.5619 36.4547 22.917 36.405 23.2514 36.2862C23.5858 36.1673 23.8926 35.9819 24.1533 35.741C24.4139 35.5002 24.623 35.2089 24.7678 34.8849C25.0663 34.2158 25.0958 33.4575 24.8502 32.7672C24.6047 32.0769 24.1029 31.5076 23.449 31.1772Z" fill="#E62552"/>
<path d="M62.5456 36.2061C61.6653 36.2061 60.9509 36.9526 60.9509 37.8733C60.9509 38.794 61.6653 39.5415 62.5456 39.5415C63.4258 39.5415 64.1412 38.795 64.1412 37.8733C64.1412 36.9515 63.4269 36.2061 62.5456 36.2061Z" fill="#E62552"/>
<path d="M146.09 7.55995C145.213 6.67035 143.367 8.45888 144.241 9.34433C145.946 11.0738 146.491 13.5269 145.958 16.1801C145.682 17.5612 148.101 17.1651 148.375 15.7965C149.032 12.5388 148.156 9.65538 146.09 7.55995Z" fill="#E62552"/>
<path d="M133.002 10.6374C132.685 10.4766 132.339 10.3818 131.984 10.359C131.629 10.3361 131.274 10.3855 130.939 10.5043C130.603 10.6231 130.296 10.8087 130.035 11.0499C129.774 11.2911 129.564 11.5829 129.419 11.9075C129.122 12.5766 129.093 13.3345 129.338 14.0244C129.583 14.7143 130.085 15.2835 130.738 15.6142C131.055 15.775 131.402 15.8697 131.756 15.8925C132.111 15.9153 132.467 15.8658 132.802 15.7469C133.137 15.628 133.445 15.4423 133.706 15.201C133.967 14.9596 134.176 14.6678 134.321 14.343C134.619 13.6742 134.648 12.9164 134.403 12.2265C134.157 11.5367 133.656 10.9678 133.002 10.6374Z" fill="#3F964F"/>
<path d="M170.058 9.13925C170.938 9.13925 171.652 8.39234 171.652 7.47099C171.652 6.54964 170.938 5.80273 170.058 5.80273C169.177 5.80273 168.463 6.54964 168.463 7.47099C168.463 8.39234 169.177 9.13925 170.058 9.13925Z" fill="#F5A3B7"/>
<path d="M267.669 47.9072C266.912 47.9072 266.298 48.549 266.298 49.3412C266.298 50.1333 266.912 50.7741 267.669 50.7741C268.425 50.7741 269.039 50.1323 269.039 49.3412C269.039 48.5501 268.425 47.9072 267.669 47.9072Z" fill="#F5A3B7"/>
<path d="M43.5861 111.668C42.6166 111.91 42.0174 112.923 42.2486 113.93C42.4798 114.937 43.4523 115.556 44.4259 115.313C45.3995 115.071 45.9936 114.058 45.7634 113.051C45.5332 112.044 44.5524 111.425 43.5861 111.668Z" fill="#E62552"/>
<path d="M118.531 101.089C118.284 100.993 118.019 100.949 117.754 100.958C117.488 100.967 117.228 101.03 116.987 101.143C116.747 101.255 116.532 101.415 116.355 101.613C116.177 101.811 116.042 102.042 115.957 102.294C115.776 102.807 115.801 103.371 116.026 103.867C116.251 104.363 116.66 104.752 117.166 104.953C117.413 105.048 117.677 105.092 117.942 105.083C118.207 105.073 118.467 105.011 118.707 104.898C118.947 104.786 119.161 104.627 119.338 104.429C119.515 104.232 119.65 104.001 119.736 103.751C119.918 103.237 119.894 102.673 119.669 102.177C119.445 101.681 119.037 101.291 118.531 101.089Z" fill="#3F964F"/>
<path d="M99.0244 54.7323C97.7428 54.5373 96.7599 53.5316 96.6397 52.2864L95.3001 38.9237C95.2308 38.1947 95.4521 37.4677 95.916 36.9009C96.3798 36.3342 97.0487 35.9735 97.777 35.8972L103.861 35.2886C104.591 35.2171 105.319 35.4376 105.886 35.9019C106.453 36.3662 106.814 37.0363 106.888 37.7656C106.958 38.4946 106.737 39.2217 106.273 39.7886C105.809 40.3555 105.14 40.7161 104.412 40.7921L101.317 41.1032L101.477 42.7113L103.856 42.4687C104.083 42.4456 104.312 42.4512 104.538 42.4852C105.205 42.5851 105.811 42.9248 106.245 43.4406C106.679 43.9564 106.909 44.6127 106.893 45.2863C106.877 45.9598 106.615 46.6044 106.157 47.0987C105.699 47.5931 105.077 47.9033 104.407 47.9711L102.028 48.2085L102.374 51.712C102.411 52.0797 102.372 52.4511 102.259 52.803C102.146 53.1549 101.962 53.4799 101.718 53.7576C101.224 54.3247 100.531 54.6803 99.7823 54.7509C99.5298 54.7759 99.2753 54.7697 99.0244 54.7323Z" fill="white"/>
<path d="M100.969 47.3416L101.415 51.8C101.519 52.7787 100.759 53.6735 99.6859 53.7803C98.6128 53.8871 97.6952 53.1582 97.5977 52.1815L96.2623 38.8272C96.2179 38.3529 96.3621 37.8803 96.6636 37.5116C96.9652 37.1428 97.3999 36.9078 97.8735 36.8572L103.958 36.2476C104.195 36.2186 104.436 36.2374 104.667 36.3029C104.897 36.3684 105.112 36.4792 105.299 36.6289C105.486 36.7786 105.641 36.964 105.756 37.1745C105.87 37.3849 105.941 37.6161 105.965 37.8544C105.989 38.0927 105.965 38.3333 105.894 38.5622C105.824 38.7911 105.709 39.0037 105.555 39.1874C105.401 39.3711 105.212 39.5223 105 39.632C104.787 39.7418 104.554 39.808 104.315 39.8267L100.259 40.2321L100.612 43.7635L103.952 43.4297C104.19 43.4007 104.431 43.4196 104.662 43.485C104.892 43.5505 105.107 43.6613 105.294 43.811C105.481 43.9607 105.636 44.1462 105.75 44.3566C105.865 44.567 105.936 44.7982 105.96 45.0365C105.984 45.2748 105.96 45.5155 105.889 45.7444C105.819 45.9733 105.703 46.1858 105.55 46.3695C105.396 46.5532 105.207 46.7044 104.994 46.8142C104.782 46.9239 104.549 46.9901 104.31 47.0088L100.969 47.3416Z" fill="#E62552"/>
<path d="M111.51 53.729C110.852 53.6271 110.253 53.2926 109.821 52.7863C109.389 52.28 109.153 51.6356 109.155 50.97L109.259 37.7816C109.266 37.0484 109.563 36.3478 110.086 35.8335C110.608 35.3192 111.314 35.0332 112.047 35.0381L118.401 35.089C118.531 35.0899 118.661 35.1003 118.79 35.1201C119.447 35.2229 120.045 35.5578 120.476 36.0639C120.908 36.5701 121.144 37.214 121.141 37.8791C121.131 38.6111 120.833 39.3099 120.311 39.8234C119.79 40.3369 119.086 40.6237 118.354 40.6215L115.004 40.5945L114.996 41.6106L117.626 41.6324C117.756 41.6336 117.886 41.6436 118.015 41.6624C118.701 41.773 119.32 42.1376 119.749 42.6837C120.178 43.2298 120.386 43.9174 120.332 44.6098C120.277 45.3023 119.964 45.9488 119.454 46.4209C118.945 46.8929 118.276 47.1559 117.582 47.1576L114.952 47.1369L114.943 48.2494L118.532 48.2774C118.663 48.2785 118.792 48.2888 118.921 48.3085C119.607 48.4191 120.226 48.7836 120.655 49.3297C121.084 49.8758 121.292 50.5635 121.238 51.2559C121.183 51.9483 120.87 52.5949 120.36 53.0669C119.851 53.539 119.182 53.802 118.488 53.8037L111.894 53.7508C111.765 53.7522 111.637 53.7449 111.51 53.729Z" fill="white"/>
<path d="M113.972 49.2129L118.529 49.2491C118.999 49.2636 119.445 49.4613 119.77 49.8001C120.096 50.1388 120.277 50.5917 120.273 51.0617C120.269 51.5318 120.081 51.9816 119.75 52.3151C119.419 52.6485 118.97 52.8391 118.5 52.8459L111.906 52.793C111.43 52.7859 110.976 52.5918 110.642 52.2527C110.308 51.9135 110.121 51.4566 110.122 50.9806L110.225 37.7912C110.232 37.3154 110.426 36.8615 110.766 36.5277C111.105 36.194 111.562 36.0072 112.038 36.0078L118.392 36.0586C118.632 36.0551 118.87 36.0996 119.092 36.1893C119.314 36.2791 119.516 36.4123 119.686 36.5812C119.856 36.7501 119.991 36.9513 120.082 37.1729C120.173 37.3946 120.219 37.6322 120.217 37.8718C120.215 38.1115 120.166 38.3483 120.071 38.5685C119.976 38.7886 119.838 38.9876 119.666 39.1537C119.493 39.3199 119.289 39.4499 119.065 39.536C118.841 39.6221 118.603 39.6627 118.363 39.6554L114.047 39.6212L114.025 42.572L117.623 42.601C118.093 42.6154 118.538 42.8132 118.864 43.1519C119.19 43.4907 119.37 43.9435 119.367 44.4136C119.363 44.8836 119.175 45.3335 118.844 45.6669C118.513 46.0004 118.064 46.1909 117.594 46.1978L113.997 46.1687L113.972 49.2129Z" fill="#E62552"/>
<path d="M125.136 54.1226C124.448 54.0159 123.825 53.6545 123.39 53.1101C122.956 52.5657 122.742 51.8779 122.791 51.1831L123.774 38.031C123.83 37.2995 124.173 36.6198 124.729 36.1414C125.285 35.6629 126.008 35.4248 126.74 35.4794L133.077 35.9532C133.146 35.9584 133.216 35.9656 133.284 35.976C133.973 36.0829 134.596 36.4445 135.03 36.9891C135.464 37.5337 135.678 38.2215 135.63 38.9164C135.572 39.6467 135.228 40.3245 134.673 40.8024C134.117 41.2803 133.396 41.5196 132.665 41.4681L129.326 41.2182L129.25 42.2312L131.872 42.4271C131.942 42.4271 132.011 42.4406 132.079 42.451C132.804 42.5384 133.465 42.9088 133.917 43.4813C134.37 44.0539 134.578 44.7821 134.496 45.5073C134.414 46.2325 134.048 46.8959 133.479 47.3527C132.91 47.8096 132.183 48.0229 131.457 47.9462L128.834 47.7492L128.751 48.8586L132.33 49.1261C132.4 49.1313 132.469 49.1396 132.538 49.1499C133.262 49.2374 133.923 49.6078 134.376 50.1803C134.828 50.7528 135.036 51.4811 134.954 52.2063C134.872 52.9315 134.506 53.5948 133.937 54.0517C133.368 54.5085 132.641 54.7219 131.916 54.6451L125.339 54.1537C125.273 54.1412 125.204 54.1329 125.136 54.1226Z" fill="white"/>
<path d="M127.715 49.7472L132.259 50.0873C132.734 50.1229 133.176 50.346 133.487 50.7074C133.798 51.0689 133.953 51.5392 133.918 52.0147C133.882 52.4903 133.659 52.9323 133.297 53.2434C132.936 53.5545 132.466 53.7093 131.99 53.6737L125.415 53.1822C124.94 53.1432 124.5 52.9192 124.19 52.5585C123.88 52.1979 123.723 51.7295 123.756 51.2547L124.739 38.1026C124.777 37.6281 125.002 37.1881 125.363 36.8776C125.723 36.5672 126.192 36.4113 126.667 36.4437L133.004 36.9175C133.48 36.9531 133.922 37.1762 134.233 37.5376C134.544 37.8991 134.699 38.3694 134.663 38.8449C134.627 39.3205 134.404 39.7625 134.043 40.0736C133.681 40.3847 133.211 40.5395 132.736 40.5039L128.43 40.1876L128.21 43.1291L131.797 43.3966C132.268 43.4383 132.704 43.6638 133.01 44.0243C133.316 44.3848 133.468 44.8512 133.432 45.3228C133.397 45.7943 133.178 46.233 132.821 46.5439C132.465 46.8548 132.001 47.0129 131.529 46.984L127.942 46.7155L127.715 49.7472Z" fill="#E62552"/>
<path d="M138.734 55.3249C138.018 55.2131 137.375 54.8262 136.94 54.2467C136.506 53.6672 136.315 52.941 136.408 52.2227L138.171 39.1515C138.267 38.4255 138.645 37.7666 139.223 37.3177C139.802 36.8687 140.534 36.6659 141.261 36.7533H141.27L142.936 36.9523C143.772 37.056 144.376 37.1224 144.76 37.1742C144.864 37.1887 144.978 37.2043 145.086 37.2209C148.3 37.7092 150.671 38.9202 152.121 40.8218C153.606 42.7679 154.178 45.1039 153.82 47.7685C153.454 50.4819 152.218 52.6354 150.146 54.1689C148.075 55.7023 145.344 56.2664 142.059 55.8278C141.91 55.8081 141.612 55.7625 141.119 55.6878C140.556 55.6028 139.785 55.4867 138.78 55.3384L138.734 55.3249ZM142.57 50.3067C142.674 50.3233 142.793 50.3399 142.913 50.3554C144.562 50.5773 147.397 50.4321 147.863 46.964C148.174 44.6446 146.807 43.079 144.109 42.6694L143.975 42.6497C143.808 42.6279 143.664 42.6093 143.53 42.5948L142.494 50.2953L142.57 50.3067Z" fill="white"/>
<path d="M139.124 39.2778C139.187 38.8023 139.435 38.3707 139.815 38.0774C140.194 37.7841 140.674 37.6528 141.15 37.7122C142.864 37.9196 144.032 38.0513 144.626 38.127C147.763 38.549 150.01 39.6501 151.348 41.4023C152.685 43.1545 153.18 45.2303 152.857 47.6305C152.528 50.0785 151.42 52.0101 149.566 53.3818C147.686 54.7746 145.224 55.2661 142.182 54.8562C141.871 54.8147 140.782 54.6488 138.909 54.3678C138.438 54.3008 138.012 54.0511 137.723 53.6726C137.434 53.2941 137.306 52.8172 137.366 52.345L139.124 39.2778ZM141.406 51.079C141.734 51.1475 142.183 51.2314 142.777 51.3113C146.104 51.7592 148.392 50.2278 148.814 47.0914C149.213 44.1198 147.304 42.1208 144.096 41.6895C143.629 41.6178 143.157 41.5787 142.684 41.5723L141.406 51.079Z" fill="#E62552"/>
<path d="M159.595 58.6765C159.429 58.6516 159.259 58.6216 159.09 58.5894C158.571 58.4857 157.889 58.3437 157.029 58.1612L156.115 57.9663H156.108C155.401 57.7924 154.785 57.3578 154.385 56.7495C153.985 56.1411 153.829 55.404 153.949 54.6858L156.438 41.7586C156.581 41.0483 156.99 40.4197 157.582 40.0014C158.173 39.5831 158.902 39.4068 159.62 39.5087H159.65L160.054 39.5678C160.973 39.7077 161.911 39.8705 162.924 40.0655C164.953 40.4563 166.468 41.2132 167.424 42.3154C168.38 43.4175 168.732 44.8183 168.435 46.359C168.16 47.7795 167.515 48.8889 166.509 49.6769C166.794 50.0215 167.026 50.4057 167.2 50.8174C167.592 51.7505 167.68 52.805 167.462 53.9382C167.083 55.9082 166.082 57.3006 164.489 58.0855C163.119 58.7636 161.474 58.9606 159.595 58.6765ZM160.126 53.1481C160.229 53.1741 160.333 53.1969 160.446 53.2187C160.502 53.2301 160.557 53.2394 160.61 53.2477C161.694 53.4115 161.771 53.0154 161.838 52.665C161.889 52.3996 161.823 52.327 161.792 52.2917C161.728 52.2223 161.513 52.0481 160.889 51.9278L160.379 51.8241L160.126 53.1481ZM161.681 46.6918L161.785 46.7094C162.058 46.7509 162.276 46.7333 162.384 46.6607C162.512 46.5736 162.577 46.33 162.603 46.1931C162.62 46.1278 162.621 46.0592 162.605 45.9936C162.589 45.928 162.556 45.8675 162.51 45.8178C162.327 45.6417 162.093 45.5278 161.842 45.4922C161.805 45.4849 161.759 45.4777 161.708 45.4694L161.612 45.4559L161.385 46.6348L161.681 46.6918Z" fill="white"/>
<path d="M167.487 46.1828C167.176 47.8075 166.302 48.9097 164.895 49.5162C166.133 50.3167 166.9 51.7838 166.519 53.762C166.196 55.4334 165.391 56.5718 164.069 57.2209C162.747 57.87 161.135 57.9985 159.274 57.6356C158.592 57.504 157.607 57.2904 156.317 57.0135C155.384 56.8062 154.724 55.7787 154.901 54.86L157.389 41.9329C157.485 41.4626 157.758 41.0472 158.152 40.773C158.546 40.4989 159.03 40.387 159.504 40.4606C160.527 40.6088 161.591 40.7892 162.745 41.0122C166.49 41.7431 167.961 43.7338 167.487 46.1828ZM159.607 50.6961L159.012 53.7807C159.408 53.9627 159.826 54.0927 160.256 54.1674C161.716 54.4484 162.56 54.0005 162.782 52.8465C162.973 51.8584 162.409 51.2363 161.067 50.9802L159.607 50.6961ZM160.243 47.4001L161.487 47.6406C162.641 47.8625 163.334 47.4332 163.539 46.3746C163.72 45.4332 163.02 44.7375 162.011 44.5415C161.616 44.4751 161.217 44.4308 160.816 44.4088L160.243 47.4001Z" fill="#E62552"/>
<path d="M180.8 63.8191C180.697 63.8036 180.602 63.7828 180.505 63.7579C179.261 63.4324 178.496 62.5563 178.357 61.2903L178.124 59.2446L172.974 57.8968L171.749 59.5671C171.087 60.4878 170.126 60.9046 169.041 60.7397C168.917 60.7212 168.794 60.6959 168.672 60.6641C167.994 60.4857 167.414 60.0457 167.06 59.4405C166.705 58.8353 166.605 58.1143 166.781 57.4354C166.869 57.0888 167.023 56.7624 167.234 56.4742L175.798 45.1344C176.938 43.6041 178.263 43.4465 179.168 43.5792C179.3 43.5993 179.43 43.6263 179.558 43.6601C180.536 43.9162 181.766 44.6565 182.078 46.7332C182.078 46.7332 184.027 60.6454 184.028 60.6495C184.076 61.0161 184.053 61.3884 183.962 61.7465C183.785 62.4157 183.366 62.9956 182.787 63.3743C182.203 63.7635 181.495 63.922 180.8 63.8191ZM177.397 53.3378L177.249 52.1019L176.508 53.1066L177.397 53.3378Z" fill="white"/>
<path d="M179.009 58.4756L172.581 56.796L170.964 59.0013C170.456 59.7112 169.773 59.9531 168.915 59.7271C168.485 59.6135 168.117 59.3342 167.892 58.9503C167.667 58.5664 167.604 58.109 167.715 57.6783C167.769 57.4543 167.866 57.243 168 57.0562L176.567 45.7112C177.328 44.6962 178.244 44.3157 179.312 44.5946C180.332 44.8621 180.93 45.6127 181.119 46.8756L183.067 60.7691C183.099 61.0139 183.085 61.2627 183.024 61.5021C182.895 61.9781 182.582 62.3834 182.155 62.6296C181.727 62.8757 181.22 62.9427 180.743 62.8158C179.885 62.5911 179.408 62.0451 179.312 61.1776L179.009 58.4756ZM178.527 54.6321L177.918 49.5651L174.885 53.6803L178.527 54.6321Z" fill="#E62552"/>
<path d="M193.147 67.9936C192.439 67.8829 191.744 67.7012 191.073 67.4513C188.385 66.4663 186.473 64.8074 185.392 62.5212C184.294 60.2402 184.237 57.7207 185.223 55.0312C186.176 52.4318 187.784 50.55 190.005 49.4385C191.581 48.6495 193.341 48.3944 195.233 48.6816C196.072 48.8143 196.895 49.0307 197.691 49.3276C199.16 49.8657 200.242 50.5355 200.998 51.3732L201.005 51.3815C202.109 52.6361 202.053 53.6854 201.811 54.3448C201.646 54.7944 201.368 55.1946 201.006 55.5081L200.981 55.5299C200.359 56.0421 199.648 56.2557 198.916 56.1437C198.727 56.1141 198.541 56.0658 198.362 55.9996C197.968 55.8416 197.602 55.6206 197.279 55.3453L197.262 55.3308C196.822 54.9759 196.324 54.7014 195.789 54.52C195.512 54.4171 195.226 54.3421 194.934 54.296C194.246 54.1888 193.541 54.2929 192.913 54.5947C191.998 55.0187 191.328 55.8388 190.866 57.1007C190.442 58.2567 190.451 59.2936 190.909 60.2703C190.909 60.274 190.909 60.2779 190.909 60.2817C191.35 61.2646 192.135 61.952 193.308 62.3833C193.808 62.5685 194.337 62.665 194.87 62.6684C195.129 62.6546 195.389 62.6675 195.645 62.7068C195.891 62.7436 196.133 62.805 196.366 62.8903C196.807 63.0389 197.197 63.311 197.488 63.6744C197.779 64.0377 197.96 64.477 198.009 64.9401C198.009 64.9456 198.009 64.9512 198.009 64.9567C198.064 65.3961 198.016 65.8422 197.869 66.26C197.612 66.9619 196.977 67.8401 195.409 68.0361C194.656 68.1239 193.895 68.1096 193.147 67.9936Z" fill="white"/>
<path d="M197.884 54.5889C197.358 54.1623 196.762 53.8314 196.121 53.6112C194.839 53.1415 193.646 53.1892 192.507 53.7149C191.368 54.2405 190.512 55.2566 189.959 56.7652C189.447 58.1608 189.476 59.4745 190.033 60.6741C190.581 61.8961 191.563 62.7674 192.982 63.2879C193.596 63.5147 194.245 63.6316 194.899 63.6332C195.286 63.6074 195.675 63.6628 196.039 63.796C196.648 64.0189 196.973 64.446 197.057 65.063C197.095 65.3529 197.066 65.6479 196.971 65.9246C196.731 66.5778 196.181 66.9614 195.298 67.0744C194.094 67.2206 192.802 67.0526 191.407 66.5415C188.953 65.6415 187.243 64.1723 186.265 62.1028C185.279 60.0551 185.228 57.8155 186.132 55.3634C186.998 52.9995 188.436 51.3053 190.438 50.3027C192.441 49.3001 194.749 49.2772 197.36 50.2342C198.643 50.705 199.627 51.2959 200.281 52.0207C200.913 52.7371 201.127 53.4038 200.903 54.0114C200.793 54.3112 200.608 54.5776 200.365 54.7849C199.852 55.2089 199.302 55.3147 198.694 55.0959C198.399 54.9695 198.126 54.7985 197.884 54.5889Z" fill="#E62552"/>
<path d="M207.244 76.1808C206.827 76.117 206.43 75.9577 206.084 75.7152C204.907 74.9003 204.72 73.6965 204.693 72.5176L204.601 67.1666L202.655 69.9785C202.359 70.4025 201.948 70.734 201.471 70.9345C200.994 71.1351 200.47 71.1965 199.96 71.1117C199.509 71.0431 199.081 70.8717 198.707 70.6109C197.4 69.7058 197.041 67.9494 197.909 66.6948L205.685 55.4556C205.981 55.0316 206.392 54.7003 206.869 54.4999C207.346 54.2996 207.87 54.2384 208.381 54.3234C208.831 54.3914 209.26 54.5628 209.633 54.8242C210.942 55.7293 211.299 57.4857 210.431 58.7392L208.817 61.0731L213.714 59.4204C214.283 59.2235 214.89 59.1611 215.487 59.238C215.927 59.3034 216.346 59.4694 216.712 59.7232C217.993 60.6097 218.296 62.082 217.45 63.3054C217.05 63.8829 216.464 64.3065 215.791 64.5061L215.767 64.5133L210.223 66.1474L210.491 73.1584C210.538 73.7926 210.357 74.4228 209.98 74.9355C209.344 75.8635 208.294 76.3404 207.244 76.1808Z" fill="white"/>
<path d="M205.518 64.1441L201.86 69.4319C201.301 70.2406 200.147 70.4335 199.26 69.8186C198.372 69.2038 198.146 68.056 198.706 67.2483L206.482 56.0091C207.041 55.2004 208.196 55.0075 209.082 55.6213C209.969 56.2351 210.196 57.384 209.637 58.1927L206.368 62.9217L214.016 60.341C214.878 60.0645 215.596 60.1233 216.168 60.5173C217.056 61.1321 217.167 62.0248 216.662 62.7547C216.381 63.1549 215.972 63.4474 215.503 63.5842L209.238 65.4308L209.535 73.2184C209.567 73.6352 209.447 74.0496 209.195 74.3838C208.609 75.2309 207.525 75.5316 206.639 74.9178C205.948 74.4398 205.693 73.7969 205.663 72.4926L205.518 64.1441Z" fill="#E62552"/>
</g>
<defs>
<clipPath id="clip0_1173_16563">
<rect width="300" height="195.47" fill="white"/>
</clipPath>
</defs>
</svg>
