<svg width="20" height="25" viewBox="0 0 20 25" fill="none" xmlns="http://www.w3.org/2000/svg">
<g id="13869315071620553079 1" clip-path="url(#clip0_1165_12934)">
<g id="Group">
<path id="Vector" d="M17.0953 0.938282C18.3562 1.23267 19.1405 2.49679 18.8468 3.76151C18.5531 5.02623 17.2929 5.81283 16.0316 5.51823C14.7708 5.22385 13.9865 3.95974 14.28 2.69502C14.5738 1.4303 15.8342 0.643696 17.0953 0.938282Z" fill="#3C3C3C"/>
<path id="Vector_2" d="M13.6689 7.79068C13.6689 7.54181 13.6853 7.38615 13.6883 7.36018C13.7398 6.90139 14.1525 6.57122 14.61 6.62272C15.0662 6.67422 15.3947 7.08559 15.3457 7.54289H15.3459C15.3455 7.54611 15.3365 7.63782 15.3367 7.79068C15.3343 8.19561 15.407 9.01615 15.816 9.76268C16.2329 10.5075 16.9212 11.2236 18.4249 11.5868C18.8734 11.6917 19.152 12.1414 19.0473 12.5913C18.9576 12.9772 18.6148 13.2376 18.2359 13.2376C18.1732 13.2376 18.1095 13.2304 18.0457 13.2155C16.1216 12.7764 14.9435 11.6768 14.3512 10.562C13.7508 9.44875 13.6711 8.36511 13.6689 7.79068Z" fill="#3C3C3C"/>
<path id="Vector_3" d="M4.98327 23.918L1.10685 22.2813C0.682426 22.1021 0.483131 21.6119 0.661863 21.1862L3.33076 14.8279C3.50949 14.4022 3.99823 14.2024 4.42266 14.3816L8.08901 15.9295L9.20035 13.2821C9.04096 13.0988 8.96188 12.848 9.00626 12.5898C9.45602 9.95902 10.7747 8.21827 11.9725 7.17607C12.5724 6.65247 13.1408 6.29546 13.5676 6.06619C14.1214 5.66407 14.7637 5.55827 15.2743 5.68586C15.7296 5.79977 16.054 6.18174 16.2224 6.66681C16.6051 7.47929 17.0124 9.44823 17.1668 10.8733C16.7442 10.6222 16.4581 10.3345 16.2497 10.0525C16.2498 9.57195 16.2246 9.09122 16.1724 8.61238C16.1088 8.92698 16.0404 9.26291 15.974 9.61405C15.5722 8.84986 15.5436 8.02886 15.5452 7.79189C15.5449 7.64996 15.5531 7.56641 15.5531 7.56554C15.614 6.99504 15.2013 6.47889 14.6332 6.41484C14.5937 6.4105 14.5546 6.40836 14.5157 6.40836C13.9854 6.40836 13.5406 6.80742 13.481 7.33679C13.4776 7.36577 13.4603 7.52833 13.4603 7.79062C13.4647 8.81863 13.7091 9.81091 14.1677 10.6615C14.4109 11.1189 14.8636 11.7803 15.6447 12.363C15.6375 12.7473 15.6522 13.1272 15.6981 13.4953C16.7531 15.0915 18.4581 18.3769 18.8396 23.3456C18.8949 24.0652 18.358 24.6933 17.6405 24.7488C17.6065 24.7514 17.5727 24.7528 17.5392 24.7528C16.8653 24.7528 16.2943 24.2316 16.2415 23.5462C16.1043 21.7581 15.7779 20.2289 15.3808 18.9538C15.271 19.4168 15.1248 19.8905 14.9342 20.3678C14.3723 21.7798 13.4099 23.2168 11.9066 24.4548C11.3511 24.9132 10.5301 24.8334 10.0728 24.2763C9.61562 23.7189 9.69541 22.8956 10.2509 22.437C11.416 21.4728 12.0988 20.4329 12.5154 19.3958C12.9298 18.36 13.0671 17.3182 13.0669 16.4027C13.067 15.8051 13.0083 15.2643 12.9351 14.8257C12.4976 14.5708 12.1382 14.109 11.9778 13.2819C11.8078 11.8162 11.8062 10.7287 12.0062 9.59578C11.4116 10.4053 10.8937 11.4683 10.6496 12.8742C10.5796 13.2811 10.2271 13.5684 9.82885 13.5684C9.81826 13.5684 9.80747 13.5675 9.79678 13.5671L8.69745 16.1863L9.03343 16.3282C9.45805 16.5075 9.65714 16.9978 9.47842 17.4235L7.19384 22.8663C7.35282 23.0767 7.4482 23.338 7.4482 23.6222C7.4482 24.3149 6.8882 24.8765 6.19752 24.8765C5.60861 24.8765 5.11609 24.4677 4.98327 23.918ZM6.82286 23.6222C6.82286 23.2757 6.54295 22.995 6.19752 22.995C5.85228 22.995 5.57218 23.2757 5.57218 23.6222C5.57218 23.9684 5.85228 24.2493 6.19752 24.2493C6.54295 24.2493 6.82286 23.9684 6.82286 23.6222Z" fill="#3C3C3C"/>
</g>
</g>
<defs>
<clipPath id="clip0_1165_12934">
<rect width="18.473" height="24" fill="white" transform="matrix(-1 0 0 1 19.0693 0.876465)"/>
</clipPath>
</defs>
</svg>
