<svg width="300" height="300" viewBox="0 0 300 300" fill="none" xmlns="http://www.w3.org/2000/svg">
<path d="M146.772 266.88C213.434 266.88 267.474 235.679 267.474 197.19C267.474 158.701 213.434 127.5 146.772 127.5C80.1101 127.5 26.0699 158.701 26.0699 197.19C26.0699 235.679 80.1101 266.88 146.772 266.88Z" fill="#F5F5F5"/>
<path d="M189.228 274.913L281.772 221.483C283.8 220.313 283.8 218.417 281.772 217.247L111.66 119.459C110.522 118.883 109.264 118.582 107.988 118.582C106.712 118.582 105.454 118.883 104.316 119.459L11.772 172.859C9.74398 174.059 9.74398 175.931 11.772 177.101L181.89 274.901C183.026 275.48 184.283 275.782 185.558 275.784C186.832 275.786 188.09 275.488 189.228 274.913Z" fill="#E0E0E0"/>
<path d="M259.2 278.784C258.81 278.776 258.427 278.672 258.087 278.48C257.747 278.289 257.459 278.016 257.25 277.686L241.938 256.2C241.66 255.864 241.484 255.456 241.43 255.023C241.377 254.59 241.449 254.151 241.638 253.758C241.824 253.409 242.105 253.119 242.447 252.921C242.79 252.722 243.181 252.624 243.576 252.636C243.812 252.638 244.048 252.667 244.278 252.72L282.486 261.804C284.322 262.242 284.358 263.538 284.328 263.922C284.298 264.306 284.04 265.578 282.156 265.722L263.28 266.922L261.384 276.78C261.323 277.322 261.067 277.823 260.665 278.19C260.262 278.558 259.739 278.767 259.194 278.778L259.2 278.784Z" fill="#E0E0E0"/>
<path d="M188.682 64.5661C188.66 64.3922 188.594 64.227 188.488 64.087C188.383 63.947 188.243 63.837 188.082 63.7681C187.64 63.5431 187.15 63.4258 186.654 63.4258C186.158 63.4258 185.668 63.5431 185.226 63.7681C185.066 63.8385 184.927 63.9489 184.822 64.0886C184.717 64.2284 184.649 64.3928 184.626 64.5661V157.068H188.664V64.5661H188.682Z" fill="#37474F"/>
<path d="M188.682 64.5658C188.682 63.9658 187.782 63.4258 186.666 63.4258C185.55 63.4258 184.65 63.9358 184.65 64.5658C184.65 65.1958 185.55 65.7118 186.666 65.7118C187.782 65.7118 188.682 65.1958 188.682 64.5658Z" fill="#455A64"/>
<path d="M198.258 84.8586L171.918 69.6426L167.958 71.9286L171.918 78.7866L198.258 94.0086V84.8586Z" fill="#37474F"/>
<g opacity="0.4">
<path d="M198.258 84.8586L171.918 69.6426L167.958 71.9286L171.918 78.7866L198.258 94.0086V84.8586Z" fill="black"/>
</g>
<path d="M171.918 69.6421L173.898 68.4961L200.274 83.7361L198.258 84.8581L171.918 69.6421Z" fill="#37474F"/>
<g opacity="0.3">
<path d="M171.918 69.6421L173.898 68.4961L200.274 83.7361L198.258 84.8581L171.918 69.6421Z" fill="black"/>
</g>
<path d="M200.274 92.8863L198.258 94.0083V84.8583L200.274 83.7363V92.8863Z" fill="#37474F"/>
<path opacity="0.55" d="M200.274 92.8863L198.258 94.0083V84.8583L200.274 83.7363V92.8863Z" fill="black"/>
<path d="M175.741 80.5325C175.257 80.2498 174.856 79.9367 174.537 79.5933C174.218 79.2443 173.976 78.893 173.811 78.5392C173.647 78.1854 173.56 77.8601 173.55 77.5632C173.55 77.5184 173.565 77.4876 173.594 77.471C173.628 77.4516 173.666 77.4546 173.71 77.48L174.624 78.0143C174.691 78.0539 174.742 78.0976 174.776 78.1454C174.815 78.196 174.849 78.2522 174.878 78.3139C174.916 78.4206 174.97 78.5329 175.037 78.6509C175.11 78.7717 175.204 78.8912 175.32 79.0095C175.436 79.1221 175.576 79.2265 175.741 79.3226C176.021 79.4866 176.232 79.5592 176.372 79.5403C176.517 79.5243 176.589 79.4295 176.589 79.2558C176.589 79.127 176.551 79.0008 176.473 78.8771C176.396 78.7535 176.27 78.61 176.096 78.4466C175.927 78.2804 175.7 78.0804 175.414 77.8464C175.047 77.5419 174.733 77.2433 174.471 76.9507C174.215 76.6552 174.019 76.3531 173.884 76.0443C173.749 75.7299 173.681 75.3991 173.681 75.0518C173.681 74.7101 173.763 74.4529 173.927 74.2802C174.097 74.1103 174.331 74.0373 174.631 74.0614C174.931 74.0854 175.286 74.2176 175.697 74.4578C176.031 74.6529 176.323 74.8743 176.575 75.1221C176.831 75.3728 177.046 75.633 177.22 75.9028C177.394 76.1726 177.525 76.4282 177.612 76.6695C177.704 76.908 177.752 77.1183 177.757 77.3004C177.757 77.3452 177.743 77.3787 177.714 77.401C177.689 77.4205 177.653 77.4161 177.605 77.3878L176.647 76.8281C176.594 76.797 176.548 76.7589 176.51 76.7139C176.471 76.6689 176.437 76.6127 176.408 76.5453C176.379 76.4051 176.302 76.2535 176.176 76.0904C176.055 75.9245 175.895 75.7836 175.697 75.6677C175.484 75.5433 175.318 75.4906 175.197 75.5095C175.081 75.5257 175.023 75.6234 175.023 75.8026C175.023 75.9147 175.054 76.031 175.117 76.1518C175.185 76.2754 175.293 76.4118 175.443 76.5611C175.598 76.7131 175.808 76.9005 176.074 77.1232C176.514 77.4757 176.87 77.8039 177.141 78.1078C177.411 78.4061 177.61 78.7069 177.735 79.01C177.866 79.3104 177.931 79.6314 177.931 79.9731C177.931 80.354 177.837 80.6265 177.648 80.7907C177.46 80.9549 177.201 81.0165 176.872 80.9755C176.548 80.9317 176.171 80.7841 175.741 80.5325ZM180.507 83.2347C180.197 83.0538 179.929 82.8409 179.702 82.596C179.479 82.3483 179.307 82.0687 179.187 81.7572C179.066 81.4401 179.005 81.0883 179.005 80.7018V79.0887L178.44 78.758C178.386 78.7269 178.34 78.6804 178.302 78.6186C178.268 78.5596 178.251 78.4993 178.251 78.4377V77.7571C178.251 77.6955 178.268 77.655 178.302 77.6356C178.34 77.619 178.386 77.6262 178.44 77.6573L179.005 77.9881V76.6018C179.005 76.5402 179.022 76.4997 179.056 76.4803C179.095 76.4637 179.138 76.4695 179.187 76.4978L180.028 76.9897C180.081 77.0207 180.125 77.0658 180.159 77.1248C180.192 77.1838 180.209 77.2441 180.209 77.3057V78.692L181.116 79.222C181.169 79.2531 181.213 79.2982 181.247 79.3572C181.285 79.419 181.305 79.4807 181.305 79.5423V80.2228C181.305 80.2844 181.285 80.3236 181.247 80.3401C181.213 80.3596 181.169 80.3537 181.116 80.3226L180.209 79.7926V81.2881C180.209 81.4785 180.241 81.6481 180.304 81.7969C180.366 81.9457 180.473 82.0639 180.623 82.1515L181.181 82.478C181.234 82.5091 181.278 82.5542 181.312 82.6132C181.346 82.6721 181.363 82.7325 181.363 82.7941V83.525C181.363 83.581 181.346 83.6215 181.312 83.6466C181.278 83.666 181.234 83.6601 181.181 83.629L180.507 83.2347ZM182.144 84.1921C182.091 84.161 182.048 84.116 182.014 84.057C181.98 83.9924 181.963 83.9321 181.963 83.8761V79.9273C181.963 79.8713 181.98 79.8336 182.014 79.8142C182.048 79.7891 182.091 79.7922 182.144 79.8233L182.979 80.3109C183.032 80.342 183.075 80.3898 183.109 80.4544C183.148 80.5163 183.167 80.5752 183.167 80.6312V80.9673C183.293 80.8671 183.445 80.8217 183.624 80.8311C183.808 80.8433 184.013 80.9159 184.241 81.0487L184.56 81.2353C184.613 81.2664 184.656 81.3114 184.69 81.3704C184.724 81.4294 184.741 81.4897 184.741 81.5513V82.4167C184.741 82.4727 184.724 82.5132 184.69 82.5383C184.656 82.5577 184.613 82.5518 184.56 82.5207L183.856 82.1094C183.658 81.9935 183.503 81.9675 183.392 82.0313C183.286 82.0923 183.232 82.2377 183.232 82.4673V84.6181C183.232 84.6742 183.213 84.7133 183.174 84.7355C183.141 84.7549 183.097 84.749 183.044 84.7179L182.144 84.1921ZM186.969 87.0968C186.399 86.7632 185.944 86.3182 185.606 85.7619C185.267 85.2055 185.091 84.5703 185.076 83.856C185.076 83.8168 185.076 83.7664 185.076 83.7048C185.076 83.6432 185.076 83.5956 185.076 83.562C185.091 83.128 185.175 82.7994 185.33 82.5762C185.49 82.3502 185.707 82.2366 185.983 82.2352C186.263 82.2312 186.59 82.338 186.962 82.5556C187.387 82.8044 187.738 83.1074 188.014 83.4645C188.294 83.8245 188.504 84.2136 188.645 84.6316C188.785 85.0496 188.855 85.4743 188.855 85.9056V86.1072C188.855 86.1689 188.838 86.2094 188.804 86.2288C188.77 86.2482 188.727 86.2424 188.674 86.2113L186.353 84.8544C186.353 84.86 186.353 84.8684 186.353 84.8796C186.353 84.8908 186.353 84.902 186.353 84.9132C186.357 85.0785 186.382 85.241 186.425 85.4009C186.474 85.5636 186.541 85.7096 186.628 85.8389C186.72 85.971 186.831 86.0752 186.962 86.1516C187.059 86.2081 187.138 86.2379 187.201 86.2411C187.269 86.2414 187.325 86.2319 187.368 86.2126C187.412 86.1876 187.445 86.1654 187.47 86.1459C187.513 86.1097 187.547 86.0931 187.571 86.0961C187.6 86.0962 187.644 86.1133 187.702 86.1472L188.601 86.673C188.649 86.7012 188.688 86.7407 188.717 86.7912C188.751 86.8446 188.766 86.8979 188.761 86.9511C188.756 87.0435 188.715 87.1343 188.637 87.2235C188.56 87.3127 188.446 87.3807 188.296 87.4275C188.151 87.4715 187.968 87.4705 187.745 87.4245C187.523 87.3784 187.264 87.2692 186.969 87.0968ZM186.353 84.0226L187.578 84.7392V84.7224C187.578 84.5376 187.554 84.3666 187.506 84.2095C187.462 84.0497 187.392 83.905 187.296 83.7757C187.204 83.6492 187.092 83.5477 186.962 83.4714C186.836 83.3979 186.727 83.3707 186.636 83.3898C186.544 83.4089 186.474 83.4716 186.425 83.5777C186.377 83.6783 186.353 83.821 186.353 84.0058V84.0226ZM191.276 89.6145C190.705 89.2809 190.251 88.8359 189.912 88.2796C189.574 87.7232 189.397 87.0879 189.383 86.3737C189.383 86.3345 189.383 86.2841 189.383 86.2225C189.383 86.1609 189.383 86.1133 189.383 86.0797C189.397 85.6456 189.482 85.317 189.637 85.0938C189.796 84.8679 190.014 84.7542 190.289 84.7529C190.57 84.7488 190.896 84.8556 191.268 85.0733C191.694 85.3221 192.045 85.625 192.32 85.9822C192.601 86.3422 192.811 86.7312 192.951 87.1493C193.091 87.5673 193.162 87.992 193.162 88.4233V88.6249C193.162 88.6865 193.145 88.727 193.111 88.7465C193.077 88.7659 193.033 88.76 192.98 88.7289L190.659 87.3721C190.659 87.3777 190.659 87.3861 190.659 87.3973C190.659 87.4085 190.659 87.4197 190.659 87.4309C190.664 87.5961 190.688 87.7587 190.732 87.9186C190.78 88.0813 190.848 88.2273 190.935 88.3565C191.027 88.4887 191.138 88.5929 191.268 88.6692C191.365 88.7258 191.445 88.7556 191.508 88.7587C191.576 88.7591 191.631 88.7496 191.675 88.7302C191.718 88.7053 191.752 88.6831 191.776 88.6636C191.82 88.6274 191.854 88.6108 191.878 88.6137C191.907 88.6139 191.95 88.6309 192.008 88.6648L192.908 89.1906C192.956 89.2189 192.995 89.2583 193.024 89.3089C193.058 89.3623 193.072 89.4156 193.067 89.4688C193.062 89.5612 193.021 89.652 192.944 89.7412C192.867 89.8303 192.753 89.8983 192.603 89.9451C192.458 89.9892 192.274 89.9882 192.052 89.9421C191.829 89.8961 191.571 89.7869 191.276 89.6145ZM190.659 86.5403L191.885 87.2569V87.2401C191.885 87.0553 191.861 86.8843 191.812 86.7272C191.769 86.5673 191.699 86.4227 191.602 86.2934C191.51 86.1668 191.399 86.0654 191.268 85.9891C191.143 85.9156 191.034 85.8884 190.942 85.9075C190.85 85.9266 190.78 85.9892 190.732 86.0954C190.683 86.196 190.659 86.3386 190.659 86.5235V86.5403ZM195.764 92.1542C195.454 91.9733 195.186 91.7604 194.959 91.5155C194.736 91.2679 194.565 90.9883 194.444 90.6767C194.323 90.3596 194.262 90.0078 194.262 89.6213V88.0082L193.697 87.6775C193.643 87.6464 193.597 87.5999 193.559 87.5381C193.525 87.4791 193.508 87.4188 193.508 87.3572V86.6767C193.508 86.615 193.525 86.5745 193.559 86.5551C193.597 86.5385 193.643 86.5458 193.697 86.5769L194.262 86.9076V85.5213C194.262 85.4597 194.279 85.4192 194.313 85.3998C194.352 85.3832 194.395 85.389 194.444 85.4173L195.285 85.9092C195.338 85.9403 195.382 85.9853 195.416 86.0443C195.449 86.1033 195.466 86.1636 195.466 86.2252V87.6115L196.373 88.1415C196.426 88.1726 196.47 88.2177 196.504 88.2767C196.542 88.3385 196.562 88.4002 196.562 88.4618V89.1424C196.562 89.204 196.542 89.2431 196.504 89.2597C196.47 89.2791 196.426 89.2732 196.373 89.2422L195.466 88.7121V90.2076C195.466 90.3981 195.498 90.5677 195.561 90.7164C195.624 90.8652 195.73 90.9834 195.88 91.071L196.438 91.3975C196.491 91.4286 196.535 91.4737 196.569 91.5327C196.603 91.5917 196.62 91.652 196.62 91.7136V92.4445C196.62 92.5005 196.603 92.5411 196.569 92.5661C196.535 92.5855 196.491 92.5797 196.438 92.5486L195.764 92.1542Z" fill="white"/>
<path d="M263.502 202.878L260.28 200.1C260.28 200.1 260.406 190.164 263.31 182.172C267.402 170.934 276.072 168.474 278.718 170.172C281.364 171.87 281.364 175.446 274.884 181.14C271.056 184.512 265.5 192.102 263.502 202.878Z" fill="#37474F"/>
<g opacity="0.15">
<path d="M263.502 202.878L260.28 200.1C260.28 200.1 260.406 190.164 263.31 182.172C267.402 170.934 276.072 168.474 278.718 170.172C281.364 171.87 281.364 175.446 274.884 181.14C271.056 184.512 265.5 192.102 263.502 202.878Z" fill="black"/>
</g>
<path d="M263.088 197.999H263.124C263.159 198 263.193 197.995 263.226 197.983C263.259 197.972 263.289 197.954 263.314 197.93C263.34 197.907 263.361 197.878 263.375 197.847C263.39 197.816 263.398 197.782 263.4 197.747C264 186.605 270.696 175.547 276.528 171.719C276.557 171.701 276.582 171.677 276.602 171.649C276.621 171.62 276.635 171.589 276.643 171.555C276.65 171.522 276.65 171.487 276.644 171.453C276.638 171.42 276.625 171.388 276.606 171.359C276.567 171.301 276.507 171.261 276.439 171.246C276.371 171.232 276.299 171.244 276.24 171.281C270.294 175.187 263.496 186.407 262.872 197.717C262.867 197.782 262.886 197.847 262.926 197.9C262.965 197.952 263.023 197.987 263.088 197.999Z" fill="white"/>
<path d="M273 210.659C273.51 211.097 274.836 210.605 275.346 210.389C276.227 210.015 276.994 209.417 277.572 208.655C278.228 207.789 278.597 206.74 278.628 205.655C278.646 205.082 278.622 204.508 278.556 203.939L278.412 202.259C278.326 201.709 278.353 201.148 278.49 200.609C278.838 199.553 279.954 198.977 280.956 198.491C282.072 197.951 283.266 197.189 283.518 195.881C283.65 194.854 283.439 193.812 282.918 192.917C282.444 191.999 281.838 191.153 281.436 190.211C281.101 189.541 281.007 188.776 281.172 188.045C281.316 187.601 281.551 187.193 281.862 186.845C282.552 186.137 283.184 185.374 283.752 184.565C284.017 184.154 284.162 183.677 284.171 183.189C284.179 182.7 284.051 182.219 283.8 181.799C283.528 181.498 283.198 181.255 282.83 181.084C282.462 180.913 282.064 180.817 281.658 180.803C280.897 180.747 280.133 180.86 279.42 181.133C277.116 181.883 275.448 184.133 273.072 184.571C272.144 184.675 271.21 184.719 270.276 184.703C269.808 184.7 269.344 184.795 268.915 184.981C268.485 185.166 268.099 185.44 267.78 185.783C266.658 187.241 267.78 189.527 266.868 191.135C266.064 192.557 264.468 192.851 263.382 194.057C262.926 194.595 262.654 195.266 262.608 195.971C262.453 197.146 262.516 198.34 262.794 199.493C263.125 200.651 263.545 201.782 264.048 202.877C264.096 202.919 272.928 210.599 273 210.659Z" fill="#37474F"/>
<path d="M267.726 206.399C267.76 206.405 267.795 206.404 267.829 206.397C267.863 206.389 267.895 206.375 267.924 206.355C267.952 206.335 267.977 206.309 267.995 206.28C268.014 206.25 268.026 206.218 268.032 206.183C269.604 195.821 276.654 185.423 280.818 182.813C280.875 182.775 280.916 182.717 280.931 182.65C280.947 182.583 280.936 182.513 280.902 182.453C280.884 182.424 280.86 182.398 280.831 182.377C280.803 182.357 280.771 182.343 280.737 182.335C280.702 182.327 280.667 182.326 280.633 182.332C280.598 182.338 280.565 182.351 280.536 182.369C276.288 185.027 269.106 195.599 267.51 206.099C267.5 206.168 267.516 206.237 267.557 206.293C267.597 206.349 267.658 206.387 267.726 206.399Z" fill="white"/>
<path d="M271.632 194.532H271.71C274.273 194.335 276.85 194.417 279.396 194.778C279.466 194.788 279.537 194.771 279.594 194.729C279.652 194.688 279.69 194.625 279.702 194.556C279.708 194.521 279.707 194.486 279.699 194.452C279.691 194.418 279.676 194.386 279.655 194.358C279.634 194.33 279.608 194.307 279.578 194.289C279.548 194.271 279.515 194.26 279.48 194.256C276.887 193.889 274.261 193.804 271.65 194.004C271.588 194.013 271.531 194.045 271.489 194.093C271.448 194.141 271.426 194.202 271.426 194.265C271.426 194.328 271.448 194.389 271.489 194.437C271.531 194.485 271.588 194.516 271.65 194.526L271.632 194.532Z" fill="white"/>
<path d="M95.268 82.3854L92.268 84.1194C92.2767 83.9875 92.2767 83.8552 92.268 83.7233V82.8534C92.268 81.3054 91.182 80.6813 89.868 81.4553C89.2924 81.8086 88.7993 82.2813 88.422 82.8414C88.206 80.8974 86.676 80.1714 84.822 81.2454C83.7705 81.9359 82.8965 82.8646 82.271 83.956C81.6455 85.0475 81.2861 86.271 81.222 87.5274V88.7994C81.2105 89.3179 81.315 89.8324 81.528 90.3053L79.038 91.7454C78.6483 92.0021 78.3239 92.3463 78.0906 92.7504C77.8573 93.1545 77.7215 93.6075 77.694 94.0733C77.694 94.9313 78.294 95.2734 79.038 94.8534L95.292 85.4694C95.6816 85.2126 96.006 84.8684 96.2393 84.4643C96.4726 84.0602 96.6084 83.6072 96.636 83.1414C96.6 82.3074 96 81.9594 95.268 82.3854Z" fill="#EBEBEB"/>
<path d="M107.73 90.1126L105.528 91.3846C105.534 91.2867 105.534 91.1886 105.528 91.0907V90.4546C105.528 89.3206 104.73 88.8586 103.728 89.4286C103.306 89.6879 102.946 90.036 102.672 90.4486C102.51 89.0206 101.394 88.4926 100.032 89.2486C99.258 89.7538 98.6139 90.4342 98.1521 91.2349C97.6903 92.0355 97.4237 92.9337 97.374 93.8566V94.8106C97.3634 95.1907 97.4393 95.5682 97.596 95.9146L95.796 96.9706C95.5088 97.1565 95.2698 97.4078 95.0987 97.7041C94.9276 98.0003 94.8294 98.333 94.812 98.6747C94.812 99.3047 95.25 99.5566 95.796 99.2446L107.73 92.3986C108.017 92.2128 108.256 91.9614 108.427 91.6652C108.598 91.3689 108.697 91.0363 108.714 90.6946C108.714 90.0526 108.276 89.8006 107.73 90.1126Z" fill="#EBEBEB"/>
<path d="M273.648 205.115C274.926 206.105 274.788 207.515 273.24 208.397L188.526 257.309C187.571 257.792 186.515 258.043 185.445 258.043C184.375 258.043 183.32 257.792 182.364 257.309L20.472 163.835C18.9 162.929 18.774 161.507 20.106 160.523C19.314 161.123 18.6618 161.887 18.1946 162.764C17.7273 163.64 17.4562 164.608 17.4 165.599V169.673C17.4553 170.744 17.7637 171.786 18.2998 172.714C18.8359 173.643 19.5844 174.431 20.484 175.013L182.352 268.499C183.308 268.985 184.364 269.238 185.436 269.238C186.508 269.238 187.564 268.985 188.52 268.499L273.234 219.599C274.131 219.016 274.878 218.229 275.413 217.302C275.948 216.375 276.256 215.334 276.312 214.265V210.185C276.258 209.199 275.992 208.235 275.532 207.36C275.072 206.486 274.43 205.72 273.648 205.115Z" fill="#455A64"/>
<path d="M273.24 204.846L111.342 111.372C110.386 110.891 109.331 110.641 108.261 110.641C107.191 110.641 106.136 110.891 105.18 111.372L20.472 160.284C18.768 161.262 18.768 162.858 20.472 163.836L182.364 257.31C183.319 257.792 184.375 258.043 185.445 258.043C186.515 258.043 187.57 257.792 188.526 257.31L273.24 208.398C274.938 207.42 274.938 205.8 273.24 204.846Z" fill="#37474F"/>
<path d="M20.106 160.523C19.314 161.123 18.6618 161.887 18.1946 162.764C17.7273 163.64 17.4562 164.608 17.4 165.599V169.673C17.4563 170.744 17.7651 171.786 18.3011 172.714C18.8371 173.642 19.5851 174.43 20.484 175.013L182.352 268.499C183.302 269.004 184.366 269.258 185.442 269.237V258.041C184.369 258.062 183.308 257.81 182.358 257.309L20.472 163.835C18.9 162.929 18.774 161.507 20.106 160.523Z" fill="#537282"/>
<path d="M61.884 144.371C62.748 143.873 62.748 143.063 61.884 142.571C61.3994 142.323 60.8626 142.193 60.318 142.193C59.7734 142.193 59.2366 142.323 58.752 142.571C57.882 143.069 57.882 143.879 58.752 144.371C59.2374 144.617 59.7739 144.745 60.318 144.745C60.8621 144.745 61.3985 144.617 61.884 144.371Z" fill="black"/>
<path d="M66.12 141.635L78.21 134.657C78.936 134.243 78.972 133.583 78.294 133.193C77.8976 133.003 77.462 132.908 77.0223 132.917C76.5826 132.925 76.151 133.036 75.762 133.241L63.672 140.225C62.952 140.639 62.916 141.293 63.588 141.683C63.9841 141.875 64.4198 141.971 64.8598 141.963C65.2997 141.954 65.7315 141.842 66.12 141.635Z" fill="black"/>
<path d="M116.826 118.872C115.374 118.032 113.826 118.518 112.398 119.364L33.198 165.048C31.74 165.888 31.734 167.25 33.198 168.096L176.892 251.076C177.711 251.491 178.617 251.707 179.535 251.707C180.453 251.707 181.359 251.491 182.178 251.076L261.378 205.386C262.842 204.546 262.836 203.178 261.378 202.338L116.826 118.872Z" fill="#37474F"/>
<path opacity="0.96" d="M116.826 118.872C115.374 118.032 113.826 118.518 112.398 119.364L33.198 165.048C31.74 165.888 31.734 167.25 33.198 168.096L176.892 251.076C177.711 251.491 178.617 251.707 179.535 251.707C180.453 251.707 181.359 251.491 182.178 251.076L261.378 205.386C262.842 204.546 262.836 203.178 261.378 202.338L116.826 118.872Z" fill="white"/>
<g opacity="0.4">
<path d="M179.556 249.732L209.4 232.512L204.39 231.066C196.542 228.803 188.317 228.145 180.209 229.134C172.1 230.123 164.275 232.737 157.2 236.82L179.556 249.732Z" fill="#37474F"/>
<path d="M214.53 229.542L259.092 203.814L229.266 186.6L211.668 228.72L214.53 229.542Z" fill="#37474F"/>
<path d="M224.298 183.725L206.898 227.339C196.614 224.075 187.386 223.577 176.82 225.395L193.62 184.031L218.028 180.107L224.298 183.725Z" fill="#37474F"/>
<path d="M169.122 227.069L175.218 212.069L127.86 206.453L119.91 215.297L152.91 234.353C157.97 231.222 163.421 228.773 169.122 227.069Z" fill="#37474F"/>
<path d="M199.536 169.445L214.356 177.983L194.79 181.145L199.536 169.445Z" fill="#37474F"/>
<path d="M104.994 176.725C107.907 176.725 110.268 175.363 110.268 173.683C110.268 172.003 107.907 170.641 104.994 170.641C102.081 170.641 99.72 172.003 99.72 173.683C99.72 175.363 102.081 176.725 104.994 176.725Z" fill="#37474F"/>
<path d="M186.27 184.327L113.016 175.645C112.242 177.409 110.922 177.805 107.844 178.477L128.28 201.877L177 207.601L186.27 184.327Z" fill="#37474F"/>
<path d="M151.464 162.222L146.064 175.272L112.8 171.324C112 170.502 111.023 169.872 109.944 169.482L114.51 157.842L151.464 162.222Z" fill="#37474F"/>
<path d="M193.854 166.152L188.136 180.258L151.656 175.932L157.386 161.826L193.854 166.152Z" fill="#37474F"/>
<path d="M187.014 162.198L126.588 127.314L116.124 153.792L187.014 162.198Z" fill="#37474F"/>
<path d="M100.572 178.063L122.886 203.581L114.936 212.401L71.802 187.501L98.4 177.061C99.0818 177.479 99.8109 177.816 100.572 178.063Z" fill="#37474F"/>
<path d="M111.21 153.21L122.394 124.89L114.936 120.588L67.428 148.014L111.21 153.21Z" fill="#37474F"/>
<path d="M61.068 151.619L35.4 166.505L67.71 185.159L96.21 173.927C96.15 172.559 96.81 171.245 98.898 170.021C100.614 169.031 102.756 168.659 105.126 168.605L109.572 157.259L61.068 151.619Z" fill="#37474F"/>
</g>
<path d="M118.614 152.243V143.357L132.336 144.983V153.863L118.614 152.243Z" fill="#37474F"/>
<path d="M132.336 144.982L135.162 137.068V146.866L132.336 153.862V144.982Z" fill="#37474F"/>
<path d="M135.162 137.069L121.734 135.449L118.614 143.357L132.336 144.983L135.162 137.069Z" fill="#37474F"/>
<path opacity="0.8" d="M118.614 152.243V143.357L132.336 144.983V153.863L118.614 152.243Z" fill="white"/>
<path opacity="0.75" d="M132.336 144.982L135.162 137.068V146.866L132.336 153.862V144.982Z" fill="white"/>
<path opacity="0.9" d="M135.162 137.069L121.734 135.449L118.614 143.357L132.336 144.983L135.162 137.069Z" fill="white"/>
<path d="M127.608 171.214V167.236L141.336 168.856V172.84L127.608 171.214Z" fill="#37474F"/>
<path d="M141.336 168.858L143.784 162V166.896L141.336 172.842V168.858Z" fill="#37474F"/>
<path d="M143.784 161.999L130.35 160.379L127.608 167.237L141.336 168.857L143.784 161.999Z" fill="#37474F"/>
<path opacity="0.8" d="M127.608 171.214V167.236L141.336 168.856V172.84L127.608 171.214Z" fill="white"/>
<path opacity="0.75" d="M141.336 168.858L143.784 162V166.896L141.336 172.842V168.858Z" fill="white"/>
<path opacity="0.9" d="M143.784 161.999L130.35 160.379L127.608 167.237L141.336 168.857L143.784 161.999Z" fill="white"/>
<path d="M154.038 223.601V214.721L167.76 216.341V225.227L154.038 223.601Z" fill="#37474F"/>
<path d="M167.76 216.342L170.592 208.434V218.232L167.76 225.228V216.342Z" fill="#37474F"/>
<path d="M170.592 208.433L157.164 206.812L154.038 214.72L167.76 216.341L170.592 208.433Z" fill="#37474F"/>
<path opacity="0.8" d="M154.038 223.601V214.721L167.76 216.341V225.227L154.038 223.601Z" fill="white"/>
<path opacity="0.75" d="M167.76 216.342L170.592 208.434V218.232L167.76 225.228V216.342Z" fill="white"/>
<path opacity="0.9" d="M170.592 208.433L157.164 206.812L154.038 214.72L167.76 216.341L170.592 208.433Z" fill="white"/>
<path d="M153.804 156.239V152.969L160.752 153.791V157.061L153.804 156.239Z" fill="#37474F"/>
<path d="M160.752 153.791L162.18 149.783V153.521L160.752 157.061V153.791Z" fill="#37474F"/>
<path d="M162.18 149.783L155.382 148.967L153.804 152.969L160.752 153.791L162.18 149.783Z" fill="#37474F"/>
<path opacity="0.8" d="M153.804 156.239V152.969L160.752 153.791V157.061L153.804 156.239Z" fill="white"/>
<path opacity="0.75" d="M160.752 153.791L162.18 149.783V153.521L160.752 157.061V153.791Z" fill="white"/>
<path opacity="0.9" d="M162.18 149.783L155.382 148.967L153.804 152.969L160.752 153.791L162.18 149.783Z" fill="white"/>
<path d="M103.176 140.807V136.043L113.28 137.237V142.001L103.176 140.807Z" fill="#37474F"/>
<path d="M113.28 137.238L115.362 131.418V136.854L113.28 142.002V137.238Z" fill="#37474F"/>
<path d="M115.362 131.417L105.474 130.223L103.176 136.043L113.28 137.237L115.362 131.417Z" fill="#37474F"/>
<path opacity="0.8" d="M103.176 140.807V136.043L113.28 137.237V142.001L103.176 140.807Z" fill="white"/>
<path opacity="0.75" d="M113.28 137.238L115.362 131.418V136.854L113.28 142.002V137.238Z" fill="white"/>
<path opacity="0.9" d="M115.362 131.417L105.474 130.223L103.176 136.043L113.28 137.237L115.362 131.417Z" fill="white"/>
<path d="M155.01 174.779V170.537L164.022 171.599V175.847L155.01 174.779Z" fill="#37474F"/>
<path d="M164.022 171.6L165.876 166.41V171.258L164.022 175.848V171.6Z" fill="#37474F"/>
<path d="M165.876 166.41L157.062 165.348L155.01 170.538L164.022 171.6L165.876 166.41Z" fill="#37474F"/>
<path opacity="0.8" d="M155.01 174.779V170.537L164.022 171.599V175.847L155.01 174.779Z" fill="white"/>
<path opacity="0.75" d="M164.022 171.6L165.876 166.41V171.258L164.022 175.848V171.6Z" fill="white"/>
<path opacity="0.9" d="M165.876 166.41L157.062 165.348L155.01 170.538L164.022 171.6L165.876 166.41Z" fill="white"/>
<path d="M114.138 169.716V165.348L123.408 166.44V170.814L114.138 169.716Z" fill="#37474F"/>
<path d="M123.408 166.44L125.316 161.1V166.086L123.408 170.814V166.44Z" fill="#37474F"/>
<path d="M125.316 161.1L116.25 160.008L114.138 165.348L123.408 166.44L125.316 161.1Z" fill="#37474F"/>
<path opacity="0.8" d="M114.138 169.716V165.348L123.408 166.44V170.814L114.138 169.716Z" fill="white"/>
<path opacity="0.75" d="M123.408 166.44L125.316 161.1V166.086L123.408 170.814V166.44Z" fill="white"/>
<path opacity="0.9" d="M125.316 161.1L116.25 160.008L114.138 165.348L123.408 166.44L125.316 161.1Z" fill="white"/>
<path d="M166.668 176.123V171.875L175.68 172.943V177.191L166.668 176.123Z" fill="#37474F"/>
<path d="M175.68 172.944L177.534 167.754V172.596L175.68 177.192V172.944Z" fill="#37474F"/>
<path d="M177.534 167.754L168.72 166.686L166.668 171.876L175.68 172.944L177.534 167.754Z" fill="#37474F"/>
<path opacity="0.8" d="M166.668 176.123V171.875L175.68 172.943V177.191L166.668 176.123Z" fill="white"/>
<path opacity="0.75" d="M175.68 172.944L177.534 167.754V172.596L175.68 177.192V172.944Z" fill="white"/>
<path opacity="0.9" d="M177.534 167.754L168.72 166.686L166.668 171.876L175.68 172.944L177.534 167.754Z" fill="white"/>
<path d="M178.326 177.467V173.219L187.332 174.287V178.529L178.326 177.467Z" fill="#37474F"/>
<path d="M187.332 174.288L189.192 169.092V173.94L187.332 178.53V174.288Z" fill="#37474F"/>
<path d="M189.192 169.091L180.378 168.029L178.326 173.219L187.332 174.287L189.192 169.091Z" fill="#37474F"/>
<path opacity="0.8" d="M178.326 177.467V173.219L187.332 174.287V178.529L178.326 177.467Z" fill="white"/>
<path opacity="0.75" d="M187.332 174.288L189.192 169.092V173.94L187.332 178.53V174.288Z" fill="white"/>
<path opacity="0.9" d="M189.192 169.091L180.378 168.029L178.326 173.219L187.332 174.287L189.192 169.091Z" fill="white"/>
<path d="M70.506 163.301V159.053L79.518 160.121V164.369L70.506 163.301Z" fill="#37474F"/>
<path d="M79.5179 160.122L81.3719 154.932V159.774L79.5179 164.37V160.122Z" fill="#37474F"/>
<path d="M81.372 154.931L72.558 153.863L70.506 159.053L79.518 160.121L81.372 154.931Z" fill="#37474F"/>
<path opacity="0.8" d="M70.506 163.301V159.053L79.518 160.121V164.369L70.506 163.301Z" fill="white"/>
<path opacity="0.75" d="M79.5179 160.122L81.3719 154.932V159.774L79.5179 164.37V160.122Z" fill="white"/>
<path opacity="0.9" d="M81.372 154.931L72.558 153.863L70.506 159.053L79.518 160.121L81.372 154.931Z" fill="white"/>
<path d="M82.1639 164.644V160.396L91.1759 161.464V165.706L82.1639 164.644Z" fill="#37474F"/>
<path d="M91.176 161.466L93.03 156.27V161.118L91.176 165.708V161.466Z" fill="#37474F"/>
<path d="M93.0299 156.269L84.2159 155.207L82.1639 160.397L91.1759 161.465L93.0299 156.269Z" fill="#37474F"/>
<path opacity="0.8" d="M82.1639 164.644V160.396L91.1759 161.464V165.706L82.1639 164.644Z" fill="white"/>
<path opacity="0.75" d="M91.176 161.466L93.03 156.27V161.118L91.176 165.708V161.466Z" fill="white"/>
<path opacity="0.9" d="M93.0299 156.269L84.2159 155.207L82.1639 160.397L91.1759 161.465L93.0299 156.269Z" fill="white"/>
<path d="M93.822 165.982V161.74L102.828 162.808V167.05L93.822 165.982Z" fill="#37474F"/>
<path d="M102.828 162.809L104.688 157.613V162.461L102.828 167.051V162.809Z" fill="#37474F"/>
<path d="M104.688 157.613L95.868 156.551L93.822 161.741L102.828 162.809L104.688 157.613Z" fill="#37474F"/>
<path opacity="0.8" d="M93.822 165.982V161.74L102.828 162.808V167.05L93.822 165.982Z" fill="white"/>
<path opacity="0.75" d="M102.828 162.809L104.688 157.613V162.461L102.828 167.051V162.809Z" fill="white"/>
<path opacity="0.9" d="M104.688 157.613L95.868 156.551L93.822 161.741L102.828 162.809L104.688 157.613Z" fill="white"/>
<path d="M210.15 149.674V147.148L217.788 148.048V150.574L210.15 149.674Z" fill="#37474F"/>
<path opacity="0.8" d="M210.15 149.674V147.148L217.788 148.048V150.574L210.15 149.674Z" fill="white"/>
<path d="M217.788 148.049L218.904 144.773V147.845L217.788 150.575V148.049Z" fill="#37474F"/>
<path opacity="0.75" d="M217.788 148.049L218.904 144.773V147.845L217.788 150.575V148.049Z" fill="white"/>
<path d="M218.904 144.773L211.44 143.879L210.15 147.149L217.788 148.049L218.904 144.773Z" fill="#37474F"/>
<path opacity="0.9" d="M218.904 144.773L211.44 143.879L210.15 147.149L217.788 148.049L218.904 144.773Z" fill="white"/>
<path d="M155.994 203.117V198.869L165.006 199.937V204.185L155.994 203.117Z" fill="#37474F"/>
<path d="M165.006 199.936L166.86 194.74V199.588L165.006 204.184V199.936Z" fill="#37474F"/>
<path d="M166.86 194.742L158.046 193.68L155.994 198.87L165.006 199.938L166.86 194.742Z" fill="#37474F"/>
<path opacity="0.8" d="M155.994 203.117V198.869L165.006 199.937V204.185L155.994 203.117Z" fill="white"/>
<path opacity="0.75" d="M165.006 199.936L166.86 194.74V199.588L165.006 204.184V199.936Z" fill="white"/>
<path opacity="0.9" d="M166.86 194.742L158.046 193.68L155.994 198.87L165.006 199.938L166.86 194.742Z" fill="white"/>
<path d="M167.238 204.455V200.213L176.25 201.275V205.523L167.238 204.455Z" fill="#37474F"/>
<path d="M176.25 201.276L178.11 196.086V200.928L176.25 205.524V201.276Z" fill="#37474F"/>
<path d="M178.11 196.085L169.29 195.023L167.238 200.213L176.25 201.275L178.11 196.085Z" fill="#37474F"/>
<path opacity="0.8" d="M167.238 204.455V200.213L176.25 201.275V205.523L167.238 204.455Z" fill="white"/>
<path opacity="0.75" d="M176.25 201.276L178.11 196.086V200.928L176.25 205.524V201.276Z" fill="white"/>
<path opacity="0.9" d="M178.11 196.085L169.29 195.023L167.238 200.213L176.25 201.275L178.11 196.085Z" fill="white"/>
<path d="M127.53 217.344V213.102L136.542 214.164V218.412L127.53 217.344Z" fill="#37474F"/>
<path d="M136.542 214.163L138.396 208.973V213.821L136.542 218.411V214.163Z" fill="#37474F"/>
<path d="M138.396 208.972L129.582 207.904L127.53 213.1L136.542 214.162L138.396 208.972Z" fill="#37474F"/>
<path opacity="0.8" d="M127.53 217.344V213.102L136.542 214.164V218.412L127.53 217.344Z" fill="white"/>
<path opacity="0.75" d="M136.542 214.163L138.396 208.973V213.821L136.542 218.411V214.163Z" fill="white"/>
<path opacity="0.9" d="M138.396 208.972L129.582 207.904L127.53 213.1L136.542 214.162L138.396 208.972Z" fill="white"/>
<path d="M138.774 218.687V214.439L147.786 215.507V219.749L138.774 218.687Z" fill="#37474F"/>
<path d="M147.786 215.507L149.646 210.311V215.159L147.786 219.749V215.507Z" fill="#37474F"/>
<path d="M149.646 210.312L140.826 209.25L138.774 214.44L147.786 215.508L149.646 210.312Z" fill="#37474F"/>
<path opacity="0.8" d="M138.774 218.687V214.439L147.786 215.507V219.749L138.774 218.687Z" fill="white"/>
<path opacity="0.75" d="M147.786 215.507L149.646 210.311V215.159L147.786 219.749V215.507Z" fill="white"/>
<path opacity="0.9" d="M149.646 210.312L140.826 209.25L138.774 214.44L147.786 215.508L149.646 210.312Z" fill="white"/>
<path d="M207.15 197.189V192.941L216.156 194.009V198.251L207.15 197.189Z" fill="#37474F"/>
<path d="M216.156 194.009L218.016 188.812V193.66L216.156 198.251V194.009Z" fill="#37474F"/>
<path d="M218.016 188.814L209.196 187.752L207.15 192.942L216.156 194.01L218.016 188.814Z" fill="#37474F"/>
<path opacity="0.8" d="M207.15 197.189V192.941L216.156 194.009V198.251L207.15 197.189Z" fill="white"/>
<path opacity="0.75" d="M216.156 194.009L218.016 188.812V193.66L216.156 198.251V194.009Z" fill="white"/>
<path opacity="0.9" d="M218.016 188.814L209.196 187.752L207.15 192.942L216.156 194.01L218.016 188.814Z" fill="white"/>
<path d="M203.616 205.937V201.689L212.622 202.757V207.005L203.616 205.937Z" fill="#37474F"/>
<path d="M212.622 202.757L214.482 197.561V202.409L212.622 207.005V202.757Z" fill="#37474F"/>
<path d="M214.482 197.562L205.662 196.5L203.616 201.69L212.622 202.758L214.482 197.562Z" fill="#37474F"/>
<path opacity="0.8" d="M203.616 205.937V201.689L212.622 202.757V207.005L203.616 205.937Z" fill="white"/>
<path opacity="0.75" d="M212.622 202.757L214.482 197.561V202.409L212.622 207.005V202.757Z" fill="white"/>
<path opacity="0.9" d="M214.482 197.562L205.662 196.5L203.616 201.69L212.622 202.758L214.482 197.562Z" fill="white"/>
<path d="M200.076 214.685V210.438L209.088 211.505V215.753L200.076 214.685Z" fill="#37474F"/>
<path d="M209.088 211.505L210.948 206.309V211.157L209.088 215.753V211.505Z" fill="#37474F"/>
<path d="M210.948 206.31L202.128 205.248L200.076 210.438L209.088 211.506L210.948 206.31Z" fill="#37474F"/>
<path opacity="0.8" d="M200.076 214.685V210.438L209.088 211.505V215.753L200.076 214.685Z" fill="white"/>
<path opacity="0.75" d="M209.088 211.505L210.948 206.309V211.157L209.088 215.753V211.505Z" fill="white"/>
<path opacity="0.9" d="M210.948 206.31L202.128 205.248L200.076 210.438L209.088 211.506L210.948 206.31Z" fill="white"/>
<path d="M196.542 223.433V219.191L205.554 220.253V224.501L196.542 223.433Z" fill="#37474F"/>
<path d="M205.554 220.252L207.414 215.062V219.905L205.554 224.501V220.252Z" fill="#37474F"/>
<path d="M207.414 215.064L198.594 213.996L196.542 219.192L205.554 220.254L207.414 215.064Z" fill="#37474F"/>
<path opacity="0.8" d="M196.542 223.433V219.191L205.554 220.253V224.501L196.542 223.433Z" fill="white"/>
<path opacity="0.75" d="M205.554 220.252L207.414 215.062V219.905L205.554 224.501V220.252Z" fill="white"/>
<path opacity="0.9" d="M207.414 215.064L198.594 213.996L196.542 219.192L205.554 220.254L207.414 215.064Z" fill="white"/>
<path d="M191.85 195.408V191.166L200.862 192.228V196.476L191.85 195.408Z" fill="#37474F"/>
<path d="M200.862 192.227L202.722 187.037V191.879L200.862 196.475V192.227Z" fill="#37474F"/>
<path d="M202.722 187.037L193.902 185.969L191.85 191.165L200.862 192.227L202.722 187.037Z" fill="#37474F"/>
<path opacity="0.8" d="M191.85 195.408V191.166L200.862 192.228V196.476L191.85 195.408Z" fill="white"/>
<path opacity="0.75" d="M200.862 192.227L202.722 187.037V191.879L200.862 196.475V192.227Z" fill="white"/>
<path opacity="0.9" d="M202.722 187.037L193.902 185.969L191.85 191.165L200.862 192.227L202.722 187.037Z" fill="white"/>
<path d="M188.316 204.156V199.914L197.328 200.976V205.224L188.316 204.156Z" fill="#37474F"/>
<path d="M197.328 200.975L199.188 195.785V200.633L197.328 205.223V200.975Z" fill="#37474F"/>
<path d="M199.188 195.785L190.368 194.723L188.316 199.913L197.328 200.975L199.188 195.785Z" fill="#37474F"/>
<path opacity="0.8" d="M188.316 204.156V199.914L197.328 200.976V205.224L188.316 204.156Z" fill="white"/>
<path opacity="0.75" d="M197.328 200.975L199.188 195.785V200.633L197.328 205.223V200.975Z" fill="white"/>
<path opacity="0.9" d="M199.188 195.785L190.368 194.723L188.316 199.913L197.328 200.975L199.188 195.785Z" fill="white"/>
<path d="M184.782 212.91V208.662L193.794 209.73V213.972L184.782 212.91Z" fill="#37474F"/>
<path d="M193.794 209.729L195.654 204.533V209.381L193.794 213.971V209.729Z" fill="#37474F"/>
<path d="M195.654 204.533L186.834 203.471L184.782 208.661L193.794 209.729L195.654 204.533Z" fill="#37474F"/>
<path opacity="0.8" d="M184.782 212.91V208.662L193.794 209.73V213.972L184.782 212.91Z" fill="white"/>
<path opacity="0.75" d="M193.794 209.729L195.654 204.533V209.381L193.794 213.971V209.729Z" fill="white"/>
<path opacity="0.9" d="M195.654 204.533L186.834 203.471L184.782 208.661L193.794 209.729L195.654 204.533Z" fill="white"/>
<path d="M181.248 221.658V217.41L190.26 218.478V222.72L181.248 221.658Z" fill="#37474F"/>
<path d="M190.26 218.477L192.12 213.281V218.129L190.26 222.719V218.477Z" fill="#37474F"/>
<path d="M192.12 213.281L183.3 212.219L181.248 217.409L190.26 218.477L192.12 213.281Z" fill="#37474F"/>
<path opacity="0.8" d="M181.248 221.658V217.41L190.26 218.478V222.72L181.248 221.658Z" fill="white"/>
<path opacity="0.75" d="M190.26 218.477L192.12 213.281V218.129L190.26 222.719V218.477Z" fill="white"/>
<path opacity="0.9" d="M192.12 213.281L183.3 212.219L181.248 217.409L190.26 218.477L192.12 213.281Z" fill="white"/>
<path d="M222.078 211.408V208.072L229.17 208.912V212.248L222.078 211.408Z" fill="#37474F"/>
<path d="M229.17 208.914L230.628 204.828V208.638L229.17 212.25V208.914Z" fill="#37474F"/>
<path d="M230.628 204.826L223.692 203.986L222.078 208.072L229.17 208.912L230.628 204.826Z" fill="#37474F"/>
<path opacity="0.8" d="M222.078 211.408V208.072L229.17 208.912V212.248L222.078 211.408Z" fill="white"/>
<path opacity="0.75" d="M229.17 208.914L230.628 204.828V208.638L229.17 212.25V208.914Z" fill="white"/>
<path opacity="0.9" d="M230.628 204.826L223.692 203.986L222.078 208.072L229.17 208.912L230.628 204.826Z" fill="white"/>
<path d="M218.538 221.248V217.906L225.624 218.746V222.082L218.538 221.248Z" fill="#37474F"/>
<path d="M225.624 218.748L227.088 214.662V218.472L225.624 222.084V218.748Z" fill="#37474F"/>
<path d="M227.088 214.66L220.152 213.82L218.538 217.906L225.624 218.746L227.088 214.66Z" fill="#37474F"/>
<path opacity="0.8" d="M218.538 221.248V217.906L225.624 218.746V222.082L218.538 221.248Z" fill="white"/>
<path opacity="0.75" d="M225.624 218.748L227.088 214.662V218.472L225.624 222.084V218.748Z" fill="white"/>
<path opacity="0.9" d="M227.088 214.66L220.152 213.82L218.538 217.906L225.624 218.746L227.088 214.66Z" fill="white"/>
<path d="M142.428 201.359V185.447L153.6 186.767V202.673L142.428 201.359Z" fill="#37474F"/>
<path opacity="0.8" d="M142.428 201.359V185.447L153.6 186.767V202.673L142.428 201.359Z" fill="white"/>
<path d="M153.6 186.767L155.046 182.885V199.589L153.6 202.673V186.767Z" fill="#37474F"/>
<path opacity="0.75" d="M153.6 186.767L155.046 182.885V199.589L153.6 202.673V186.767Z" fill="white"/>
<path d="M155.046 182.886L144.132 181.578L142.428 185.448L153.6 186.768L155.046 182.886Z" fill="#37474F"/>
<path opacity="0.9" d="M155.046 182.886L144.132 181.578L142.428 185.448L153.6 186.768L155.046 182.886Z" fill="white"/>
<path d="M85.9559 147.88V129.064L92.3939 129.784V148.594L85.9559 147.88Z" fill="#37474F"/>
<path opacity="0.8" d="M85.9559 147.88V129.064L92.3939 129.784V148.594L85.9559 147.88Z" fill="white"/>
<path d="M92.3939 129.784L93.8399 125.902V145.51L92.3939 148.594V129.784Z" fill="#37474F"/>
<path opacity="0.75" d="M92.3939 129.784L93.8399 125.902V145.51L92.3939 148.594V129.784Z" fill="white"/>
<path d="M93.8399 125.903L87.6599 125.195L85.9559 129.065L92.3939 129.785L93.8399 125.903Z" fill="#37474F"/>
<path opacity="0.9" d="M93.8399 125.903L87.6599 125.195L85.9559 129.065L92.3939 129.785L93.8399 125.903Z" fill="white"/>
<path d="M93.114 147.221V130.631L96.522 130.997V147.593L93.114 147.221Z" fill="#37474F"/>
<path opacity="0.8" d="M93.114 147.221V130.631L96.522 130.997V147.593L93.114 147.221Z" fill="white"/>
<path d="M96.522 130.997L97.056 129.299V146.567L96.522 147.593V130.997Z" fill="#37474F"/>
<path opacity="0.75" d="M96.522 130.997L97.056 129.299V146.567L96.522 147.593V130.997Z" fill="white"/>
<path d="M97.056 129.3L93.864 128.934L93.114 130.632L96.522 130.998L97.056 129.3Z" fill="#37474F"/>
<path opacity="0.9" d="M97.056 129.3L93.864 128.934L93.114 130.632L96.522 130.998L97.056 129.3Z" fill="white"/>
<path d="M129.072 199.769V183.857L140.244 185.171V201.083L129.072 199.769Z" fill="#37474F"/>
<path opacity="0.8" d="M129.072 199.769V183.857L140.244 185.171V201.083L129.072 199.769Z" fill="white"/>
<path d="M140.244 185.171L141.696 181.295V197.999L140.244 201.083V185.171Z" fill="#37474F"/>
<path opacity="0.75" d="M140.244 185.171L141.696 181.295V197.999L140.244 201.083V185.171Z" fill="white"/>
<path d="M141.696 181.294L130.782 179.986L129.072 183.856L140.244 185.17L141.696 181.294Z" fill="#37474F"/>
<path opacity="0.9" d="M141.696 181.294L130.782 179.986L129.072 183.856L140.244 185.17L141.696 181.294Z" fill="white"/>
<path d="M99.726 149.676V144.912L109.824 146.106V150.87L99.726 149.676Z" fill="#37474F"/>
<path d="M109.824 146.105L111.912 140.285V145.721L109.824 150.869V146.105Z" fill="#37474F"/>
<path d="M111.912 140.286L102.024 139.092L99.726 144.912L109.824 146.106L111.912 140.286Z" fill="#37474F"/>
<path opacity="0.8" d="M99.726 149.676V144.912L109.824 146.106V150.87L99.726 149.676Z" fill="white"/>
<path opacity="0.75" d="M109.824 146.105L111.912 140.285V145.721L109.824 150.869V146.105Z" fill="white"/>
<path opacity="0.9" d="M111.912 140.286L102.024 139.092L99.726 144.912L109.824 146.106L111.912 140.286Z" fill="white"/>
<path d="M90.912 183.81L83.676 187.986L77.88 184.662L85.488 180.27L90.912 183.81Z" fill="#37474F"/>
<path opacity="0.9" d="M90.912 183.81L83.676 187.986L77.88 184.662L85.488 180.27L90.912 183.81Z" fill="white"/>
<path d="M77.88 188.106V184.662L83.676 187.986V191.448L77.88 188.106Z" fill="#37474F"/>
<path opacity="0.8" d="M77.88 188.106V184.662L83.676 187.986V191.448L77.88 188.106Z" fill="white"/>
<path d="M90.912 183.809V187.271L83.676 191.447V187.985L90.912 183.809Z" fill="#37474F"/>
<path opacity="0.75" d="M90.912 183.809V187.271L83.676 191.447V187.985L90.912 183.809Z" fill="white"/>
<path d="M99 188.579L91.764 192.755L85.974 189.431L93.582 185.045L99 188.579Z" fill="#37474F"/>
<path opacity="0.9" d="M99 188.579L91.764 192.755L85.974 189.431L93.582 185.045L99 188.579Z" fill="white"/>
<path d="M85.974 192.876V189.432L91.764 192.756V196.218L85.974 192.876Z" fill="#37474F"/>
<path opacity="0.8" d="M85.974 192.876V189.432L91.764 192.756V196.218L85.974 192.876Z" fill="white"/>
<path d="M98.9999 188.58V192.042L91.7639 196.218V192.756L98.9999 188.58Z" fill="#37474F"/>
<path opacity="0.75" d="M98.9999 188.58V192.042L91.7639 196.218V192.756L98.9999 188.58Z" fill="white"/>
<path d="M107.256 193.308L100.02 197.478L94.224 194.16L101.832 189.768L107.256 193.308Z" fill="#37474F"/>
<path opacity="0.9" d="M107.256 193.308L100.02 197.478L94.224 194.16L101.832 189.768L107.256 193.308Z" fill="white"/>
<path d="M94.224 197.598V194.16L100.02 197.478V200.946L94.224 197.598Z" fill="#37474F"/>
<path opacity="0.8" d="M94.224 197.598V194.16L100.02 197.478V200.946L94.224 197.598Z" fill="white"/>
<path d="M107.256 193.307V196.769L100.02 200.945V197.477L107.256 193.307Z" fill="#37474F"/>
<path opacity="0.75" d="M107.256 193.307V196.769L100.02 200.945V197.477L107.256 193.307Z" fill="white"/>
<path d="M118.968 195.436L111.732 199.612L105.936 196.288L113.544 191.902L118.968 195.436Z" fill="#37474F"/>
<path opacity="0.9" d="M118.968 195.436L111.732 199.612L105.936 196.288L113.544 191.902L118.968 195.436Z" fill="white"/>
<path d="M105.936 204.575V196.289L111.732 199.613V207.923L105.936 204.575Z" fill="#37474F"/>
<path opacity="0.8" d="M105.936 204.575V196.289L111.732 199.613V207.923L105.936 204.575Z" fill="white"/>
<path d="M118.968 195.438V203.741L111.732 207.923V199.613L118.968 195.438Z" fill="#37474F"/>
<path opacity="0.75" d="M118.968 195.438V203.741L111.732 207.923V199.613L118.968 195.438Z" fill="white"/>
<path d="M75.702 175.956L67.86 178.89L62.064 175.572L70.284 172.422L75.702 175.956Z" fill="#37474F"/>
<path opacity="0.9" d="M75.702 175.956L67.86 178.89L62.064 175.572L70.284 172.422L75.702 175.956Z" fill="white"/>
<path d="M62.064 179.008V175.57L67.86 178.888V182.356L62.064 179.008Z" fill="#37474F"/>
<path opacity="0.8" d="M62.064 179.008V175.57L67.86 178.888V182.356L62.064 179.008Z" fill="white"/>
<path d="M75.702 175.955V179.417L67.86 182.357V178.889L75.702 175.955Z" fill="#37474F"/>
<path opacity="0.75" d="M75.702 175.955V179.417L67.86 182.357V178.889L75.702 175.955Z" fill="white"/>
<path d="M88.2779 171.155L80.4299 174.095L74.6339 170.771L82.8539 167.621L88.2779 171.155Z" fill="#37474F"/>
<path opacity="0.9" d="M88.2779 171.155L80.4299 174.095L74.6339 170.771L82.8539 167.621L88.2779 171.155Z" fill="white"/>
<path d="M74.6339 174.215V170.771L80.4299 174.095V177.557L74.6339 174.215Z" fill="#37474F"/>
<path opacity="0.8" d="M74.6339 174.215V170.771L80.4299 174.095V177.557L74.6339 174.215Z" fill="white"/>
<path d="M88.2779 171.154V174.622L80.4299 177.556V174.094L88.2779 171.154Z" fill="#37474F"/>
<path opacity="0.75" d="M88.2779 171.154V174.622L80.4299 177.556V174.094L88.2779 171.154Z" fill="white"/>
<path d="M135.888 153.936V148.92L150.552 150.648V155.664L135.888 153.936Z" fill="#37474F"/>
<path opacity="0.75" d="M135.888 153.936V148.92L150.552 150.648V155.664L135.888 153.936Z" fill="white"/>
<path d="M150.552 150.647L153.648 141.977V148.001L150.552 155.663V150.647Z" fill="#37474F"/>
<path opacity="0.65" d="M150.552 150.647L153.648 141.977V148.001L150.552 155.663V150.647Z" fill="white"/>
<path d="M153.648 141.978L139.308 140.25L135.888 148.92L150.552 150.648L153.648 141.978Z" fill="#37474F"/>
<path opacity="0.9" d="M153.648 141.978L139.308 140.25L135.888 148.92L150.552 150.648L153.648 141.978Z" fill="white"/>
<path d="M137.772 147.671V123.203L149.256 124.553V149.021L137.772 147.671Z" fill="#37474F"/>
<path opacity="0.75" d="M137.772 147.671V123.203L149.256 124.553V149.021L137.772 147.671Z" fill="white"/>
<path d="M149.256 124.553L151.764 117.533V142.811L149.256 149.021V124.553Z" fill="#37474F"/>
<path opacity="0.65" d="M149.256 124.553L151.764 117.533V142.811L149.256 149.021V124.553Z" fill="white"/>
<path d="M151.764 117.534L140.544 116.184L137.772 123.204L149.256 124.554L151.764 117.534Z" fill="#37474F"/>
<path opacity="0.9" d="M151.764 117.534L140.544 116.184L137.772 123.204L149.256 124.554L151.764 117.534Z" fill="white"/>
<path d="M141.354 121.625V108.287L147.618 109.025V122.363L141.354 121.625Z" fill="#37474F"/>
<path opacity="0.75" d="M141.354 121.625V108.287L147.618 109.025V122.363L141.354 121.625Z" fill="white"/>
<path d="M147.618 109.025L148.986 105.197V118.979L147.618 122.363V109.025Z" fill="#37474F"/>
<path opacity="0.65" d="M147.618 109.025L148.986 105.197V118.979L147.618 122.363V109.025Z" fill="white"/>
<path d="M148.986 105.197L142.86 104.459L141.354 108.287L147.618 109.025L148.986 105.197Z" fill="#37474F"/>
<path opacity="0.9" d="M148.986 105.197L142.86 104.459L141.354 108.287L147.618 109.025L148.986 105.197Z" fill="white"/>
<path d="M207.768 189.13V150.574L219.258 151.924V190.48L207.768 189.13Z" fill="#37474F"/>
<path opacity="0.75" d="M207.768 189.13V150.574L219.258 151.924V190.48L207.768 189.13Z" fill="white"/>
<path d="M219.258 151.926L220.938 147.012V186.378L219.258 190.482V151.926Z" fill="#37474F"/>
<path opacity="0.65" d="M219.258 151.926L220.938 147.012V186.378L219.258 190.482V151.926Z" fill="white"/>
<path d="M220.938 147.012L209.712 145.662L207.768 150.576L219.258 151.926L220.938 147.012Z" fill="#37474F"/>
<path opacity="0.9" d="M220.938 147.012L209.712 145.662L207.768 150.576L219.258 151.926L220.938 147.012Z" fill="white"/>
<path d="M226.356 201.43V165.73L236.37 166.84V202.546L226.356 201.43Z" fill="#37474F"/>
<path opacity="0.75" d="M226.356 201.43V165.73L236.37 166.84V202.546L226.356 201.43Z" fill="white"/>
<path d="M236.37 166.841L238.626 160.811V197.747L236.37 202.547V166.841Z" fill="#37474F"/>
<path opacity="0.65" d="M236.37 166.841L238.626 160.811V197.747L236.37 202.547V166.841Z" fill="white"/>
<path d="M238.626 160.811L229.008 159.701L226.356 165.731L236.37 166.841L238.626 160.811Z" fill="#37474F"/>
<path opacity="0.9" d="M238.626 160.811L229.008 159.701L226.356 165.731L236.37 166.841L238.626 160.811Z" fill="white"/>
<path d="M237.498 200.412V168.168L242.802 168.738V200.982L237.498 200.412Z" fill="#37474F"/>
<path opacity="0.75" d="M237.498 200.412V168.168L242.802 168.738V200.982L237.498 200.412Z" fill="white"/>
<path d="M242.802 168.738L243.624 166.092V199.398L242.802 200.982V168.738Z" fill="#37474F"/>
<path opacity="0.65" d="M242.802 168.738L243.624 166.092V199.398L242.802 200.982V168.738Z" fill="white"/>
<path d="M243.624 166.091L238.662 165.527L237.498 168.167L242.802 168.737L243.624 166.091Z" fill="#37474F"/>
<path opacity="0.9" d="M243.624 166.091L238.662 165.527L237.498 168.167L242.802 168.737L243.624 166.091Z" fill="white"/>
<path d="M39.918 162.102L54.546 170.544V175.134L39.918 166.692V162.102Z" fill="#37474F"/>
<path opacity="0.35" d="M39.918 162.102L54.546 170.544V175.134L39.918 166.692V162.102Z" fill="black"/>
<path d="M69.168 166.692V162.102L54.546 170.544V175.134" fill="#37474F"/>
<path opacity="0.15" d="M69.168 162.102L54.546 170.544V175.134L69.168 166.692V162.102Z" fill="black"/>
<path d="M69.168 162.102L54.546 153.66L39.918 162.102L54.546 170.544L69.168 162.102Z" fill="#37474F"/>
<path opacity="0.5" d="M69.168 162.102L54.546 153.66L39.918 162.102L54.546 170.544L69.168 162.102Z" fill="black"/>
<path d="M39.918 161.392L54.546 169.834V168.43L39.918 159.988V161.392Z" fill="#37474F"/>
<path opacity="0.35" d="M39.918 161.392L54.546 169.834V168.43L39.918 159.988V161.392Z" fill="black"/>
<path d="M54.546 169.834L69.168 161.392V159.988L54.546 168.43V169.834Z" fill="#37474F"/>
<path opacity="0.15" d="M54.546 169.834L69.168 161.392V159.988L54.546 168.43V169.834Z" fill="black"/>
<path d="M69.168 159.989L54.546 151.547L39.918 159.989L54.546 168.431L69.168 159.989Z" fill="#37474F"/>
<path opacity="0.5" d="M69.168 159.989L54.546 151.547L39.918 159.989L54.546 168.431L69.168 159.989Z" fill="black"/>
<path d="M39.918 159.125L54.546 167.567V166.163L39.918 157.721V159.125Z" fill="#37474F"/>
<path opacity="0.35" d="M39.918 159.125L54.546 167.567V166.163L39.918 157.721V159.125Z" fill="black"/>
<path d="M54.546 167.567L69.168 159.125V157.721L54.546 166.163V167.567Z" fill="#37474F"/>
<path opacity="0.15" d="M54.546 167.567L69.168 159.125V157.721L54.546 166.163V167.567Z" fill="black"/>
<path d="M69.168 157.721L54.546 149.279L39.918 157.721L54.546 166.163L69.168 157.721Z" fill="#37474F"/>
<path opacity="0.5" d="M69.168 157.721L54.546 149.279L39.918 157.721L54.546 166.163L69.168 157.721Z" fill="black"/>
<path d="M54.546 164.58V129.132L42.36 122.1V157.542L54.546 164.58Z" fill="#37474F"/>
<path d="M54.546 129.132L66.732 122.1V157.542L54.546 164.58V129.132Z" fill="#37474F"/>
<path d="M66.732 122.099L54.546 115.061L42.36 122.099L54.546 129.131L66.732 122.099Z" fill="#37474F"/>
<path opacity="0.4" d="M66.732 122.099L54.546 115.061L42.36 122.099L54.546 129.131L66.732 122.099Z" fill="black"/>
<path opacity="0.2" d="M54.546 164.58V129.132L42.36 122.1V157.542L54.546 164.58Z" fill="black"/>
<path d="M54.546 127.727V97.8713L44.796 92.1113V122.099L54.546 127.727Z" fill="#37474F"/>
<path d="M54.546 127.727V97.8713L64.29 92.1113V122.099L54.546 127.727Z" fill="#37474F"/>
<path d="M64.29 92.1108L54.546 86.5488L44.796 92.1108L54.546 97.8708L64.29 92.1108Z" fill="#37474F"/>
<path opacity="0.4" d="M64.29 92.1108L54.546 86.5488L44.796 92.1108L54.546 97.8708L64.29 92.1108Z" fill="black"/>
<path opacity="0.2" d="M54.546 127.727V97.8713L44.796 92.1113V122.099L54.546 127.727Z" fill="black"/>
<path d="M54.546 95.6931V91.4751L60.636 87.9531V92.1771L54.546 95.6931Z" fill="#37474F"/>
<path d="M48.45 92.1771V87.9531L54.546 91.4751V95.6931L48.45 92.1771Z" fill="#37474F"/>
<path opacity="0.2" d="M48.45 92.1771V87.9531L54.546 91.4751V95.6931L48.45 92.1771Z" fill="black"/>
<path d="M60.636 87.9535L54.546 84.4375L48.45 87.9535L54.546 91.4755L60.636 87.9535Z" fill="#37474F"/>
<path opacity="0.4" d="M60.636 87.9535L54.546 84.4375L48.45 87.9535L54.546 91.4755L60.636 87.9535Z" fill="black"/>
<path d="M54.546 90.0652V70.3672L58.2 87.9532L54.546 90.0652Z" fill="#37474F"/>
<path opacity="0.1" d="M54.546 90.0652V70.3672L58.2 87.9532L54.546 90.0652Z" fill="black"/>
<path d="M50.844 87.9532L54.546 70.3672V90.0652L50.844 87.9532Z" fill="#37474F"/>
<path opacity="0.25" d="M50.844 87.9532L54.546 70.3672V90.0652L50.844 87.9532Z" fill="black"/>
<path d="M211.866 231.383C211.819 231.381 211.772 231.371 211.728 231.353C211.65 231.311 203.58 227.261 191.172 226.691C178.764 226.121 172.848 228.491 172.788 228.491C172.733 228.513 172.672 228.518 172.614 228.505C172.556 228.493 172.503 228.464 172.461 228.422C172.419 228.38 172.39 228.327 172.378 228.269C172.366 228.211 172.371 228.15 172.392 228.095L190.638 182.999L147.978 178.025C147.931 178.019 147.887 178.003 147.847 177.977C147.808 177.951 147.775 177.917 147.751 177.876C147.727 177.835 147.713 177.79 147.71 177.743C147.707 177.696 147.714 177.649 147.732 177.605L154.494 160.877L68.1781 150.629C68.1382 150.626 68.0996 150.614 68.0644 150.595C68.0293 150.576 67.9984 150.549 67.9737 150.518C67.949 150.487 67.931 150.45 67.9207 150.412C67.9105 150.373 67.9082 150.333 67.9141 150.293C67.9231 150.213 67.9635 150.14 68.0265 150.089C68.0894 150.038 68.1698 150.015 68.2501 150.023L154.968 160.337C155.014 160.344 155.058 160.361 155.096 160.387C155.135 160.413 155.167 160.447 155.19 160.487C155.211 160.529 155.221 160.575 155.221 160.622C155.221 160.669 155.211 160.715 155.19 160.757L148.422 177.491L191.082 182.465C191.128 182.471 191.173 182.486 191.212 182.511C191.252 182.536 191.285 182.57 191.31 182.609C191.331 182.652 191.342 182.699 191.342 182.747C191.342 182.795 191.331 182.842 191.31 182.885L173.166 227.711C175.02 227.111 180.81 225.611 191.166 226.085C203.712 226.655 211.89 230.765 211.974 230.807C212.01 230.825 212.042 230.85 212.068 230.88C212.094 230.91 212.114 230.945 212.126 230.983C212.138 231.021 212.143 231.061 212.139 231.101C212.136 231.141 212.125 231.18 212.106 231.215C212.083 231.261 212.049 231.3 212.007 231.33C211.966 231.359 211.917 231.377 211.866 231.383Z" fill="#1B3039"/>
<path d="M44.04 43.3851V41.5851C44.0691 39.2779 44.4537 36.9891 45.18 34.7991C47.034 29.0691 50.94 23.5851 55.458 20.9991C58.332 19.3371 60.954 19.1331 62.964 20.1291L59.01 17.8551C58.035 17.2121 56.8899 16.8756 55.722 16.8891C55.5375 16.8872 55.3532 16.8973 55.17 16.9191C54.978 16.9191 54.786 16.9551 54.57 16.9851C54.3679 17.0084 54.1675 17.0445 53.97 17.0931C53.7673 17.1366 53.567 17.1907 53.37 17.2551C52.9465 17.3797 52.5316 17.5321 52.128 17.7111C51.918 17.8011 51.708 17.9091 51.492 18.0111C51.276 18.1131 51.06 18.2391 50.85 18.3591C44.58 21.9831 39.474 31.1991 39.474 38.9991V40.7991C39.474 48.5571 49.908 56.9991 49.908 56.9991L54.108 59.3991C54.0341 59.3503 53.9639 59.2962 53.898 59.2371C50.808 56.2911 44.04 49.3551 44.04 43.3851ZM56.496 27.0711C56.5328 27.2693 56.5568 27.4697 56.568 27.6711C56.568 27.7431 56.568 27.8091 56.568 27.8811C56.5741 27.999 56.5741 28.1171 56.568 28.2351C56.568 31.8711 54.018 36.2991 50.862 38.1171L50.52 38.3031C50.406 38.3631 50.292 38.4111 50.184 38.4591L49.854 38.5971H49.818C50.31 41.3811 52.626 42.3531 55.434 40.7451C58.584 38.9451 61.134 34.4931 61.134 30.8571C61.158 27.6351 59.148 26.1051 56.496 27.0711Z" fill="#37474F"/>
<path opacity="0.3" d="M44.04 43.3851V41.5851C44.0691 39.2779 44.4537 36.9891 45.18 34.7991C47.034 29.0691 50.94 23.5851 55.458 20.9991C58.332 19.3371 60.954 19.1331 62.964 20.1291L59.01 17.8551C58.035 17.2121 56.8899 16.8756 55.722 16.8891C55.5375 16.8872 55.3532 16.8973 55.17 16.9191C54.978 16.9191 54.786 16.9551 54.57 16.9851C54.3679 17.0084 54.1675 17.0445 53.97 17.0931C53.7673 17.1366 53.567 17.1907 53.37 17.2551C52.9465 17.3797 52.5316 17.5321 52.128 17.7111C51.918 17.8011 51.708 17.9091 51.492 18.0111C51.276 18.1131 51.06 18.2391 50.85 18.3591C44.58 21.9831 39.474 31.1991 39.474 38.9991V40.7991C39.474 48.5571 49.908 56.9991 49.908 56.9991L54.108 59.3991C54.0341 59.3503 53.9639 59.2962 53.898 59.2371C50.808 56.2911 44.04 49.3551 44.04 43.3851Z" fill="black"/>
<path opacity="0.5" d="M56.496 27.0717C56.5328 27.2699 56.5568 27.4703 56.568 27.6717C56.568 27.7437 56.568 27.8097 56.568 27.8817C56.5741 27.9996 56.5741 28.1177 56.568 28.2357C56.568 31.8717 54.018 36.2997 50.862 38.1177L50.52 38.3037C50.406 38.3637 50.292 38.4117 50.184 38.4597L49.854 38.5977H49.818C50.31 41.3817 52.626 42.3537 55.434 40.7457C58.584 38.9457 61.134 34.4937 61.134 30.8577C61.158 27.6357 59.148 26.1057 56.496 27.0717Z" fill="black"/>
<path d="M66.864 28.4394C66.864 20.6814 61.758 17.3394 55.464 20.9814C49.17 24.6234 44.064 33.8574 44.064 41.6154V43.4154C44.064 49.4154 50.832 56.3214 53.946 59.1954C54.1219 59.3533 54.3319 59.4685 54.5596 59.532C54.7873 59.5955 55.0266 59.6056 55.2588 59.5615C55.4911 59.5173 55.71 59.4202 55.8986 59.2776C56.0871 59.135 56.2402 58.9508 56.346 58.7394C59.034 53.2374 66.864 36.6594 66.864 30.2334V28.4394ZM55.464 40.7454C52.314 42.5454 49.758 41.0934 49.758 37.4514C49.758 33.8094 52.302 29.3994 55.452 27.5994C58.602 25.7994 61.158 27.2514 61.158 30.8934C61.158 34.5354 58.602 38.9274 55.452 40.7454H55.464Z" fill="#37474F"/>
<path d="M66.864 28.4394C66.864 20.6814 61.758 17.3394 55.464 20.9814C49.17 24.6234 44.064 33.8574 44.064 41.6154V43.4154C44.064 49.4154 50.832 56.3214 53.946 59.1954C54.1219 59.3533 54.3319 59.4685 54.5596 59.532C54.7873 59.5955 55.0266 59.6056 55.2588 59.5615C55.4911 59.5173 55.71 59.4202 55.8986 59.2776C56.0871 59.135 56.2402 58.9508 56.346 58.7394C59.034 53.2374 66.864 36.6594 66.864 30.2334V28.4394ZM55.464 40.7454C52.314 42.5454 49.758 41.0934 49.758 37.4514C49.758 33.8094 52.302 29.3994 55.452 27.5994C58.602 25.7994 61.158 27.2514 61.158 30.8934C61.158 34.5354 58.602 38.9274 55.452 40.7454H55.464Z" fill="#37474F"/>
<path d="M142.164 92.189V91.589C142.174 90.83 142.302 90.0771 142.542 89.357C143.104 87.4953 144.299 85.8886 145.92 84.815C146.274 84.5635 146.685 84.4052 147.116 84.3549C147.547 84.3045 147.984 84.3638 148.386 84.527L147.084 83.777C146.765 83.5684 146.391 83.4598 146.01 83.465H145.8H145.614C145.547 83.4712 145.481 83.4832 145.416 83.501L145.224 83.549C145.084 83.5905 144.948 83.6426 144.816 83.705L144.606 83.801L144.39 83.915C142.32 85.115 140.64 88.115 140.64 90.695V91.295C140.64 93.845 144.072 96.617 144.072 96.617L145.458 97.403L145.392 97.349C144.39 96.425 142.164 94.151 142.164 92.189ZM146.262 86.825C146.265 86.891 146.265 86.9571 146.262 87.023V87.089C146.265 87.129 146.265 87.1691 146.262 87.209C146.226 87.8596 146.037 88.4925 145.711 89.0565C145.385 89.6205 144.93 90.0996 144.384 90.455L144.276 90.515L144.162 90.569L144.054 90.611C144.21 91.523 144.972 91.841 145.896 91.313C146.441 90.9566 146.894 90.4771 147.219 89.9132C147.544 89.3494 147.732 88.7169 147.768 88.067C147.792 86.999 147.132 86.507 146.262 86.825Z" fill="#37474F"/>
<path opacity="0.6" d="M142.164 92.189V91.589C142.174 90.83 142.302 90.0771 142.542 89.357C143.104 87.4953 144.299 85.8886 145.92 84.815C146.274 84.5635 146.685 84.4052 147.116 84.3549C147.547 84.3045 147.984 84.3638 148.386 84.527L147.084 83.777C146.765 83.5684 146.391 83.4598 146.01 83.465H145.8H145.614C145.547 83.4712 145.481 83.4832 145.416 83.501L145.224 83.549C145.084 83.5905 144.948 83.6426 144.816 83.705L144.606 83.801L144.39 83.915C142.32 85.115 140.64 88.115 140.64 90.695V91.295C140.64 93.845 144.072 96.617 144.072 96.617L145.458 97.403L145.392 97.349C144.39 96.425 142.164 94.151 142.164 92.189Z" fill="#37474F"/>
<path opacity="0.6" d="M146.244 86.826C146.247 86.8919 146.247 86.958 146.244 87.0239C146.244 87.0239 146.244 87.0659 146.244 87.0899V87.21C146.209 87.8601 146.022 88.4929 145.696 89.0569C145.371 89.6209 144.917 90.1002 144.372 90.4559L144.258 90.5159L144.15 90.5699L144.036 90.612C144.198 91.524 144.96 91.8419 145.878 91.3139C146.423 90.9582 146.877 90.4789 147.202 89.9149C147.528 89.3509 147.715 88.7181 147.75 88.0679C147.774 86.9999 147.12 86.508 146.244 86.826Z" fill="#37474F"/>
<path d="M149.67 87.2744C149.67 84.7244 147.99 83.6264 145.92 84.8204C143.85 86.0144 142.2 89.0564 142.2 91.6064V92.2064C142.2 94.1684 144.42 96.4424 145.446 97.3904C145.504 97.4443 145.574 97.4839 145.649 97.5059C145.725 97.528 145.805 97.5318 145.883 97.5172C145.961 97.5026 146.034 97.47 146.097 97.4219C146.159 97.3738 146.21 97.3116 146.244 97.2404C147.126 95.4404 149.7 89.9864 149.7 87.8744L149.67 87.2744ZM145.92 91.3184C144.882 91.9184 144.042 91.4324 144.042 90.2384C144.079 89.5889 144.268 88.9572 144.594 88.3943C144.921 87.8314 145.375 87.3533 145.92 86.9984C146.952 86.3984 147.792 86.8844 147.792 88.0844C147.755 88.7324 147.566 89.3626 147.241 89.9243C146.916 90.486 146.463 90.9635 145.92 91.3184Z" fill="#37474F"/>
<path d="M149.67 87.2744C149.67 84.7244 147.99 83.6264 145.92 84.8204C143.85 86.0144 142.2 89.0564 142.2 91.6064V92.2064C142.2 94.1684 144.42 96.4424 145.446 97.3904C145.504 97.4443 145.574 97.4839 145.649 97.5059C145.725 97.528 145.805 97.5318 145.883 97.5172C145.961 97.5026 146.034 97.47 146.097 97.4219C146.159 97.3738 146.21 97.3116 146.244 97.2404C147.126 95.4404 149.7 89.9864 149.7 87.8744L149.67 87.2744ZM145.92 91.3184C144.882 91.9184 144.042 91.4324 144.042 90.2384C144.079 89.5889 144.268 88.9572 144.594 88.3943C144.921 87.8314 145.375 87.3533 145.92 86.9984C146.952 86.3984 147.792 86.8844 147.792 88.0844C147.755 88.7324 147.566 89.3626 147.241 89.9243C146.916 90.486 146.463 90.9635 145.92 91.3184Z" fill="#37474F"/>
<g opacity="0.8">
<path d="M149.67 87.2744C149.67 84.7244 147.99 83.6264 145.92 84.8204C143.85 86.0144 142.2 89.0564 142.2 91.6064V92.2064C142.2 94.1684 144.42 96.4424 145.446 97.3904C145.504 97.4443 145.574 97.4839 145.649 97.5059C145.725 97.528 145.805 97.5318 145.883 97.5172C145.961 97.5026 146.034 97.47 146.097 97.4219C146.159 97.3738 146.21 97.3116 146.244 97.2404C147.126 95.4404 149.7 89.9864 149.7 87.8744L149.67 87.2744ZM145.92 91.3184C144.882 91.9184 144.042 91.4324 144.042 90.2384C144.079 89.5889 144.268 88.9572 144.594 88.3943C144.921 87.8314 145.375 87.3533 145.92 86.9984C146.952 86.3984 147.792 86.8844 147.792 88.0844C147.755 88.7324 147.566 89.3626 147.241 89.9243C146.916 90.486 146.463 90.9635 145.92 91.3184Z" fill="#192024"/>
</g>
<path d="M212.046 131.4V130.8C212.056 130.041 212.184 129.288 212.424 128.568C212.986 126.706 214.181 125.099 215.802 124.026C216.156 123.774 216.567 123.616 216.998 123.566C217.429 123.515 217.866 123.574 218.268 123.738L216.966 123C216.645 122.791 216.269 122.682 215.886 122.688H215.706H215.514L215.322 122.724L215.124 122.772C214.985 122.815 214.849 122.867 214.716 122.928L214.512 123.024L214.296 123.138C212.226 124.338 210.546 127.368 210.546 129.918V130.518C210.546 133.068 213.978 135.84 213.978 135.84L215.364 136.626L215.298 136.572C214.272 135.6 212.046 133.332 212.046 131.4ZM216.144 126.036C216.147 126.102 216.147 126.168 216.144 126.234V126.3C216.147 126.34 216.147 126.38 216.144 126.42C216.108 127.07 215.919 127.703 215.593 128.267C215.267 128.831 214.812 129.31 214.266 129.666L214.158 129.726L214.044 129.78L213.936 129.822C214.098 130.734 214.86 131.022 215.784 130.524C216.329 130.167 216.782 129.688 217.107 129.124C217.432 128.56 217.62 127.928 217.656 127.278C217.674 126.192 217.014 125.688 216.144 126V126.036Z" fill="#37474F"/>
<path opacity="0.6" d="M212.046 131.4V130.8C212.056 130.041 212.184 129.288 212.424 128.568C212.986 126.706 214.181 125.099 215.802 124.026C216.156 123.774 216.567 123.616 216.998 123.566C217.429 123.515 217.866 123.574 218.268 123.738L216.966 123C216.645 122.791 216.269 122.682 215.886 122.688H215.706H215.514L215.322 122.724L215.124 122.772C214.985 122.815 214.849 122.867 214.716 122.928L214.512 123.024L214.296 123.138C212.226 124.338 210.546 127.368 210.546 129.918V130.518C210.546 133.068 213.978 135.84 213.978 135.84L215.364 136.626L215.298 136.572C214.272 135.6 212.046 133.332 212.046 131.4Z" fill="#192024"/>
<path opacity="0.6" d="M216.126 126C216.129 126.066 216.129 126.132 216.126 126.198C216.126 126.198 216.126 126.24 216.126 126.264V126.384C216.091 127.034 215.903 127.667 215.578 128.231C215.253 128.795 214.799 129.274 214.254 129.63L214.14 129.69L214.032 129.744L213.918 129.786C214.08 130.698 214.842 130.986 215.76 130.488C216.305 130.132 216.759 129.653 217.084 129.089C217.409 128.525 217.597 127.892 217.632 127.242C217.656 126.192 216.996 125.688 216.126 126Z" fill="#192024"/>
<path d="M219.552 126.456C219.552 123.906 217.872 122.808 215.802 124.002C213.732 125.196 212.046 128.238 212.046 130.788V131.388C212.046 133.35 214.272 135.624 215.298 136.572C215.356 136.626 215.425 136.666 215.501 136.688C215.577 136.71 215.657 136.713 215.735 136.699C215.813 136.684 215.886 136.652 215.948 136.604C216.011 136.555 216.062 136.493 216.096 136.422C216.978 134.622 219.552 129.168 219.552 127.056V126.456ZM215.802 130.5C214.764 131.1 213.924 130.614 213.924 129.42C213.959 128.768 214.147 128.134 214.474 127.569C214.8 127.004 215.255 126.524 215.802 126.168C216.834 125.568 217.674 126.054 217.674 127.254C217.639 127.904 217.451 128.537 217.126 129.101C216.8 129.665 216.347 130.144 215.802 130.5Z" fill="#37474F"/>
<path d="M219.552 126.456C219.552 123.906 217.872 122.808 215.802 124.002C213.732 125.196 212.046 128.238 212.046 130.788V131.388C212.046 133.35 214.272 135.624 215.298 136.572C215.356 136.626 215.425 136.666 215.501 136.688C215.577 136.71 215.657 136.713 215.735 136.699C215.813 136.684 215.886 136.652 215.948 136.604C216.011 136.555 216.062 136.493 216.096 136.422C216.978 134.622 219.552 129.168 219.552 127.056V126.456ZM215.802 130.5C214.764 131.1 213.924 130.614 213.924 129.42C213.959 128.768 214.147 128.134 214.474 127.569C214.8 127.004 215.255 126.524 215.802 126.168C216.834 125.568 217.674 126.054 217.674 127.254C217.639 127.904 217.451 128.537 217.126 129.101C216.8 129.665 216.347 130.144 215.802 130.5Z" fill="#37474F"/>
<g opacity="0.8">
<path d="M219.552 126.456C219.552 123.906 217.872 122.808 215.802 124.002C213.732 125.196 212.046 128.238 212.046 130.788V131.388C212.046 133.35 214.272 135.624 215.298 136.572C215.356 136.626 215.425 136.666 215.501 136.688C215.577 136.71 215.657 136.713 215.735 136.699C215.813 136.684 215.886 136.652 215.948 136.604C216.011 136.555 216.062 136.493 216.096 136.422C216.978 134.622 219.552 129.168 219.552 127.056V126.456ZM215.802 130.5C214.764 131.1 213.924 130.614 213.924 129.42C213.959 128.768 214.147 128.134 214.474 127.569C214.8 127.004 215.255 126.524 215.802 126.168C216.834 125.568 217.674 126.054 217.674 127.254C217.639 127.904 217.451 128.537 217.126 129.101C216.8 129.665 216.347 130.144 215.802 130.5Z" fill="#192024"/>
</g>
<path d="M282.534 263.652V258.39L243.216 249.348V254.604C243.228 254.763 243.291 254.915 243.396 255.036L258.702 276.504C259.08 277.032 259.488 276.942 259.608 276.306L261.546 266.232C261.625 265.912 261.802 265.625 262.051 265.41C262.3 265.195 262.61 265.063 262.938 265.032L282.03 263.832C282.366 263.766 282.528 263.718 282.534 263.652Z" fill="#37474F"/>
<path opacity="0.3" d="M282.534 263.652V258.39L243.216 249.348V254.604C243.228 254.763 243.291 254.915 243.396 255.036L258.702 276.504C259.08 277.032 259.488 276.942 259.608 276.306L261.546 266.232C261.625 265.912 261.802 265.625 262.051 265.41C262.3 265.195 262.61 265.063 262.938 265.032L282.03 263.832C282.366 263.766 282.528 263.718 282.534 263.652Z" fill="black"/>
<path opacity="0.2" d="M259.044 276.809C259.302 276.929 259.53 276.761 259.614 276.311L261.552 266.237C261.605 265.999 261.714 265.777 261.87 265.589V258.191L259.044 262.331V276.809Z" fill="black"/>
<path d="M259.614 271.043L261.552 260.999C261.631 260.68 261.808 260.392 262.057 260.178C262.306 259.963 262.616 259.83 262.944 259.799L282.042 258.599C282.684 258.557 282.696 258.401 282.042 258.251L243.834 249.167C243.204 249.017 243 249.323 243.378 249.851L258.684 271.319C259.086 271.799 259.494 271.679 259.614 271.043Z" fill="#37474F"/>
</svg>
