<svg width="64" height="64" viewBox="0 0 64 64" fill="none" xmlns="http://www.w3.org/2000/svg">
<circle cx="32.1738" cy="32.1485" r="31.6348" fill="#858585"/>
<g clip-path="url(#clip0_1208_19926)">
<g clip-path="url(#clip1_1208_19926)">
<path d="M33.1046 38.6619C36.188 38.6619 38.6872 36.1628 38.6872 33.0793V23.775C38.6872 20.6915 36.188 18.1924 33.1046 18.1924C30.0211 18.1924 27.522 20.6915 27.522 23.775V33.0793C27.522 36.1628 30.0211 38.6619 33.1046 38.6619Z" fill="#FDFDFD"/>
<path d="M42.409 33.0792V29.3574H40.5481V32.7889C40.5481 36.3617 38.1625 39.6518 34.6603 40.3645C29.8779 41.3377 25.6612 37.6923 25.6612 33.0792V29.3574H23.8003V33.0792C23.8003 37.5713 27.0028 41.3303 31.2438 42.1956V46.1052H27.522V47.9661H38.6873V46.1052H34.9655V42.1956C39.2064 41.3303 42.409 37.5713 42.409 33.0792Z" fill="#FDFDFD"/>
</g>
</g>
<defs>
<clipPath id="clip0_1208_19926">
<rect width="29.7739" height="29.7739" fill="white" transform="translate(17.2871 17.2617)"/>
</clipPath>
<clipPath id="clip1_1208_19926">
<rect width="29.7739" height="29.7739" fill="white" transform="translate(18.2178 18.1924)"/>
</clipPath>
</defs>
</svg>
