<svg width="25" height="24" viewBox="0 0 25 24" fill="none" xmlns="http://www.w3.org/2000/svg">
<ellipse cx="12.3386" cy="12" rx="12.3386" ry="12" fill="#3C3C3C" fill-opacity="0.1"/>
<path d="M17.7674 9.58215H7.40303C6.86014 9.58215 6.41595 9.15015 6.41595 8.62215C6.41595 8.09415 6.86014 7.66215 7.40303 7.66215H9.3772C9.67333 7.66215 9.87074 7.47015 9.87074 7.18215C9.87074 6.89415 9.67333 6.70215 9.3772 6.70215H7.40303C6.31724 6.70215 5.42886 7.56615 5.42886 8.62215V16.3021C5.42886 17.3581 6.31724 18.2221 7.40303 18.2221H17.7674C18.6064 18.2221 19.248 17.5981 19.248 16.7821V11.0221C19.248 10.2061 18.6064 9.58215 17.7674 9.58215ZM18.261 12.3661V15.4381C18.1129 15.3901 17.9648 15.3421 17.7674 15.3421H15.7933C14.9542 15.3421 14.3126 14.7181 14.3126 13.9021C14.3126 13.0861 14.9542 12.4621 15.7933 12.4621H17.7674C17.9648 12.4621 18.1129 12.4141 18.261 12.3661Z" fill="#3C3C3C"/>
<path d="M7.89657 8.14232C7.60045 8.14232 7.40303 8.33432 7.40303 8.62232C7.40303 8.91032 7.60045 9.10232 7.89657 9.10232H9.87074H17.2739C17.4219 9.10232 17.57 9.00632 17.6687 8.91032C17.7674 8.76632 17.7674 8.62232 17.7181 8.47832L16.731 6.07832C16.6323 5.83832 16.3361 5.69432 16.0894 5.79032L9.77203 8.14232H7.89657Z" fill="#3C3C3C"/>
<path d="M16.7803 13.4224H15.7933C15.4971 13.4224 15.2997 13.6144 15.2997 13.9024C15.2997 14.1904 15.4971 14.3824 15.7933 14.3824H16.7803C17.0765 14.3824 17.2739 14.1904 17.2739 13.9024C17.2739 13.6144 17.0765 13.4224 16.7803 13.4224Z" fill="#3C3C3C"/>
</svg>
