<svg width="50" height="51" viewBox="0 0 50 51" fill="none" xmlns="http://www.w3.org/2000/svg">
<circle cx="25" cy="25.5" r="25" fill="#3C3C3C" fill-opacity="0.1"/>
<path d="M34 28.0195V30.7495C34 32.8195 32.32 35.2495 30.25 35.2495H19.75C17.68 35.2495 16 32.8195 16 30.7495V28.0195C16.639 28.4648 17.3692 28.762 18.1375 28.8895L21.46 29.4445C21.6402 29.8339 21.928 30.1637 22.2895 30.3949C22.6509 30.6261 23.0709 30.7492 23.5 30.7495H26.5C26.9291 30.7492 27.3491 30.6261 27.7105 30.3949C28.072 30.1637 28.3598 29.8339 28.54 29.4445L31.8625 28.8895C32.6308 28.762 33.361 28.4648 34 28.0195Z" fill="#3C3C3C"/>
<path d="M31 18.75H28.75V18C28.7482 17.4038 28.5106 16.8325 28.089 16.411C27.6675 15.9894 27.0962 15.7518 26.5 15.75H23.5C22.9038 15.7518 22.3326 15.9894 21.911 16.411C21.4894 16.8325 21.2518 17.4038 21.25 18V18.75H19C16.93 18.75 15.25 21.18 15.25 23.25V23.7075C15.2471 24.5961 15.5612 25.4565 16.1358 26.1343C16.7104 26.812 17.508 27.2626 18.385 27.405L21.25 27.885V27C21.2518 26.4038 21.4894 25.8325 21.911 25.411C22.3326 24.9894 22.9038 24.7518 23.5 24.75H26.5C27.0962 24.7518 27.6675 24.9894 28.089 25.411C28.5106 25.8325 28.7482 26.4038 28.75 27V27.885L31.615 27.405C32.4921 27.2626 33.2896 26.812 33.8642 26.1343C34.4389 25.4565 34.7529 24.5961 34.75 23.7075V23.25C34.75 21.18 33.07 18.75 31 18.75ZM22.75 18.75V18C22.75 17.8011 22.829 17.6103 22.9697 17.4697C23.1103 17.329 23.3011 17.25 23.5 17.25H26.5C26.6989 17.25 26.8897 17.329 27.0304 17.4697C27.171 17.6103 27.25 17.8011 27.25 18V18.75H22.75Z" fill="#3C3C3C"/>
<path d="M26.5 26.25H23.5C23.0858 26.25 22.75 26.5858 22.75 27V28.5C22.75 28.9142 23.0858 29.25 23.5 29.25H26.5C26.9142 29.25 27.25 28.9142 27.25 28.5V27C27.25 26.5858 26.9142 26.25 26.5 26.25Z" fill="#3C3C3C"/>
</svg>
